<?xml version="1.0" encoding="UTF-8" standalone="no"?>
<!-- Created with Inkscape (http://www.inkscape.org/) -->

<svg
   version="1.1"
   id="svg686"
   width="625.39105"
   height="404.89352"
   viewBox="0 0 625.39105 404.89352"
   sodipodi:docname="cu_plot_IS.svg"
   inkscape:version="1.2.1 (9c6d41e, 2022-07-14)"
   xmlns:inkscape="http://www.inkscape.org/namespaces/inkscape"
   xmlns:sodipodi="http://sodipodi.sourceforge.net/DTD/sodipodi-0.dtd"
   xmlns="http://www.w3.org/2000/svg"
   xmlns:svg="http://www.w3.org/2000/svg">
  <defs
     id="defs690">
    <clipPath
       clipPathUnits="userSpaceOnUse"
       id="clipPath754">
      <path
         d="M 62.39,72.05 H 462.52 V 282.52 H 62.39 Z"
         id="path752" />
    </clipPath>
  </defs>
  <sodipodi:namedview
     id="namedview688"
     pagecolor="#ffffff"
     bordercolor="#000000"
     borderopacity="0.25"
     inkscape:showpageshadow="2"
     inkscape:pageopacity="0.0"
     inkscape:pagecheckerboard="0"
     inkscape:deskcolor="#d1d1d1"
     showgrid="false"
     inkscape:zoom="1.2866473"
     inkscape:cx="329.53863"
     inkscape:cy="262.69825"
     inkscape:window-width="1419"
     inkscape:window-height="778"
     inkscape:window-x="0"
     inkscape:window-y="25"
     inkscape:window-maximized="0"
     inkscape:current-layer="g694">
    <inkscape:page
       x="0"
       y="0"
       id="page692"
       width="625.39105"
       height="404.89352"
       inkscape:export-filename="cu_plot.jpg"
       inkscape:export-xdpi="300"
       inkscape:export-ydpi="300" />
  </sodipodi:namedview>
  <g
     id="g694"
     inkscape:groupmode="layer"
     inkscape:label="Page 1"
     transform="matrix(1.3333333,0,0,-1.3333333,0.69552117,384.73158)">
    <g
       id="g696">
      <path
         d="M 0,0 H 468 V 288 H 0 Z"
         style="fill:#ffffff;fill-opacity:1;fill-rule:nonzero;stroke:none"
         id="path698" />
    </g>
    <g
       id="g700" />
    <g
       id="g702" />
    <g
       id="g704" />
    <g
       id="g706" />
    <g
       id="g708" />
    <g
       id="g710" />
    <g
       id="g712" />
    <g
       id="g714" />
    <g
       id="g716" />
    <g
       id="g718" />
    <g
       id="g720" />
    <g
       id="g722" />
    <g
       id="g724" />
    <g
       id="g726" />
    <g
       id="g728" />
    <g
       id="g730" />
    <g
       id="g732" />
    <g
       id="g734" />
    <g
       id="g736" />
    <g
       id="g738" />
    <g
       id="g740" />
    <g
       id="g742"
       transform="matrix(0.99994304,0,0,1.0505073,0.01332866,-14.55943)">
      <path
         d="M 0,0 H 468 V 288 H 0 Z"
         style="fill:#ffffff;fill-opacity:1;fill-rule:nonzero;stroke:#ffffff;stroke-width:1.07;stroke-linecap:round;stroke-linejoin:round;stroke-miterlimit:10;stroke-dasharray:none;stroke-opacity:1"
         id="path744" />
    </g>
    <g
       id="g746" />
    <g
       id="g748">
      <g
         id="g750"
         clip-path="url(#clipPath754)">
        <path
           d="M 62.39,72.05 H 462.52 V 282.52 H 62.39 Z"
           style="fill:#ffffff;fill-opacity:1;fill-rule:nonzero;stroke:none"
           id="path756" />
        <path
           d="m 80.58,113.28 5.27,8.3 5.27,4.24 5.27,-8.72 5.27,7.51 5.28,-9.79 5.27,9.53 5.27,-6.1 5.27,10.58 5.27,-1.11 5.27,3.5 5.28,-6.09 5.27,10.16 5.27,40.72 5.27,-42.59 5.27,-0.31 5.28,-5.46 5.27,24.14 5.27,52.25 5.27,-59.58 5.27,-11.61 5.27,0.52 5.28,22.58 5.27,32.66 5.27,-89.5 5.27,89 5.27,-47.58 5.28,-52.21 5.27,98.09 5.27,-12.52 5.27,18.08 5.27,-71.09 5.28,87.05 5.27,-25.54 5.27,-23.93 5.27,-19.71 5.27,27.73 5.27,-52.52 5.28,75.38 5.27,-1.72 5.27,17 5.27,-9.32 5.27,-39.67 5.28,25.93 5.27,-42.79 5.27,34.52 5.27,-61.96 5.27,131.86 5.27,-102.59 5.28,40.39 5.27,-65.63 5.27,65.87 5.27,-98.85 5.27,78.66 5.28,52.89 5.27,59.02 5.27,-104.08 5.27,-3.28 5.27,-9.44 5.27,18.53 5.28,23.92 5.27,-37.37 5.27,-38.83 5.27,65.34 5.27,14.38 5.28,17 5.27,-77.05 15.81,113.47 V 81.61 h -15.81 -5.27 -5.28 -5.27 -5.27 -5.27 -5.27 -5.28 -5.27 -5.27 -5.27 -5.27 -5.27 -5.28 -5.27 -5.27 -5.27 -5.27 -5.28 -5.27 -5.27 -5.27 -5.27 -5.27 -5.28 -5.27 -5.27 -5.27 -5.27 -5.28 -5.27 -5.27 -5.27 -5.27 -5.27 -5.28 -5.27 -5.27 -5.27 -5.27 -5.28 -5.27 -5.27 -5.27 -5.27 -5.28 -5.27 -5.27 -5.27 -5.27 -5.27 -5.28 -5.27 -5.27 -5.27 -5.27 -5.28 -5.27 -5.27 -5.27 -5.27 -5.27 -5.28 -5.27 -5.27 -5.27 -5.27 z"
           style="fill:#e41a1c;fill-opacity:0.502;fill-rule:nonzero;stroke:none"
           id="path758" />
        <path
           d="m 80.58,133.14 5.27,-1.19 5.27,12.65 5.27,-19.63 5.27,3.12 5.28,1.56 5.27,7.2 5.27,-0.26 5.27,-1.15 5.27,-10.71 5.27,2.79 5.28,-1.87 5.27,16.76 5.27,-7.06 5.27,0.55 5.27,1.37 5.28,-7.19 5.27,13.19 5.27,-6.52 5.27,6.94 5.27,7.39 5.27,15.63 5.28,-8.5 5.27,4.45 5.27,-16.09 5.27,22.06 5.27,-28.83 5.28,-28.92 5.27,41.29 5.27,-18.5 5.27,47.57 5.27,-64.04 5.28,14.08 5.27,-19.05 5.27,10.95 5.27,16.52 5.27,35.86 5.27,-31.88 5.28,-10.8 5.27,7.25 5.27,13.11 5.27,7.38 5.27,-19.23 5.28,41.36 5.27,-25.26 5.27,28.58 5.27,-8.62 5.27,-0.11 5.27,-18.24 5.28,-7.72 5.27,-1.4 5.27,14.08 5.27,-23.67 5.27,15.41 5.28,-4.77 5.27,34.06 5.27,-13.58 5.27,-25.95 5.27,12.86 5.27,-2.28 5.28,-0.81 5.27,-14.34 5.27,2.54 5.27,12.21 5.27,-4.23 5.28,-13.7 5.27,18.61 15.81,31.93 V 81.61 h -15.81 -5.27 -5.28 -5.27 -5.27 -5.27 -5.27 -5.28 -5.27 -5.27 -5.27 -5.27 -5.27 -5.28 -5.27 -5.27 -5.27 -5.27 -5.28 -5.27 -5.27 -5.27 -5.27 -5.27 -5.28 -5.27 -5.27 -5.27 -5.27 -5.28 -5.27 -5.27 -5.27 -5.27 -5.27 -5.28 -5.27 -5.27 -5.27 -5.27 -5.28 -5.27 -5.27 -5.27 -5.27 -5.28 -5.27 -5.27 -5.27 -5.27 -5.27 -5.28 -5.27 -5.27 -5.27 -5.27 -5.28 -5.27 -5.27 -5.27 -5.27 -5.27 -5.28 -5.27 -5.27 -5.27 -5.27 z"
           style="fill:#377eb8;fill-opacity:0.502;fill-rule:nonzero;stroke:none"
           id="path760" />
        <path
           d="m 101.66,186.42 5.28,-93.94 5.27,1.96 5.27,5.53 5.27,-3.71 5.27,-0.29 5.27,4.35 5.28,0.45 5.27,8.05 5.27,36.22 5.27,-37.99 5.27,2.46 5.28,-13.76 5.27,32.39 5.27,48.41 5.27,-62.38 5.27,-12.84 5.27,-12.84 5.28,16.23 5.27,34.05 10.54,17.97 5.27,-43.25 10.55,44.65 5.27,-19.43 5.27,20.25 5.27,-64.22 5.28,78.95 5.27,-23.12 5.27,-21.11 5.27,-22.11 5.27,27.55 10.55,15.11 5.27,-2.8 5.27,18.42 5.27,0.85 5.27,-35.07 5.28,17.38 5.27,-39.95 5.27,39.79 5.27,-63.16 5.27,121.1 5.27,-92.62 5.28,35.35 5.27,-63.64 5.27,60.78 10.54,-23.14 5.28,69.08 5.27,53.31 5.27,-101.5 5.27,-5.71 5.27,-11.81 5.27,16.54 5.28,25.88 5.27,-28.45 5.27,-53.37 5.27,63.62 5.27,20.74 5.28,26.62 5.27,-69.86 15.81,113.45 V 81.61 h -15.81 -5.27 -5.28 -5.27 -5.27 -5.27 -5.27 -5.28 -5.27 -5.27 -5.27 -5.27 -5.27 -5.28 -10.54 -5.27 -5.27 -5.28 -5.27 -5.27 -5.27 -5.27 -5.27 -5.28 -5.27 -5.27 -5.27 -5.27 -10.55 -5.27 -5.27 -5.27 -5.27 -5.28 -5.27 -5.27 -5.27 -10.55 -5.27 -10.54 -5.27 -5.28 -5.27 -5.27 -5.27 -5.27 -5.27 -5.28 -5.27 -5.27 -5.27 -5.27 -5.28 -5.27 -5.27 -5.27 -5.27 -5.27 -5.28 z"
           style="fill:#4daf4a;fill-opacity:0.502;fill-rule:nonzero;stroke:none"
           id="path762" />
        <path
           d="m 80.58,166.03 5.27,-62.2 5.27,4.14 5.27,-2.75 5.27,-0.77 5.28,0.78 5.27,-0.49 5.27,2.32 5.27,-0.8 5.27,-4.58 5.27,5.41 5.28,1.12 5.27,3.13 5.27,-6.21 5.27,4.18 5.27,2.02 5.28,-3.61 5.27,0.93 5.27,1.77 5.27,1.12 5.27,-1.71 5.27,-18.66 5.28,-2.02 5.27,1.14 5.27,20.25 5.27,3.08 5.27,-1.35 5.28,-14.32 5.27,12.82 5.27,1.23 5.27,0.64 5.27,1.48 5.28,2.45 5.27,-3.15 5.27,5.35 5.27,15.33 5.27,5.13 5.27,-15.1 5.28,-2.82 5.27,0.15 5.27,-2.91 5.27,16.7 5.27,-10.2 5.28,-3.2 5.27,-0.08 5.27,10.13 5.27,-5.89 5.27,11.93 5.27,-17.03 5.28,14.36 5.27,-14.36 5.27,13.44 5.27,-28.14 5.27,20.59 5.28,11.11 5.27,6.75 5.27,-10.49 5.27,8.04 5.27,0.11 5.27,-8.06 5.28,8.82 5.27,10.69 5.27,-9.22 5.27,-14.28 5.27,13.89 5.28,2.99 5.27,4.2 15.81,12.47 V 81.61 h -15.81 -5.27 -5.28 -5.27 -5.27 -5.27 -5.27 -5.28 -5.27 -5.27 -5.27 -5.27 -5.27 -5.28 -5.27 -5.27 -5.27 -5.27 -5.28 -5.27 -5.27 -5.27 -5.27 -5.27 -5.28 -5.27 -5.27 -5.27 -5.27 -5.28 -5.27 -5.27 -5.27 -5.27 -5.27 -5.28 -5.27 -5.27 -5.27 -5.27 -5.28 -5.27 -5.27 -5.27 -5.27 -5.28 -5.27 -5.27 -5.27 -5.27 -5.27 -5.28 -5.27 -5.27 -5.27 -5.27 -5.28 -5.27 -5.27 -5.27 -5.27 -5.27 -5.28 -5.27 -5.27 -5.27 -5.27 z"
           style="fill:#984ea3;fill-opacity:0.502;fill-rule:nonzero;stroke:none"
           id="path764" />
        <path
           d="m 80.58,91.93 5.27,-0.2 5.27,1.46 5.27,-2.73 5.27,-0.7 5.28,1.84 5.27,-1.33 5.27,-0.26 5.27,2.07 5.27,-2.56 5.27,1.04 5.28,-0.62 5.27,2.52 5.27,-0.8 5.27,0.03 5.27,0.23 5.28,0.77 5.27,0.94 5.27,-0.65 5.27,2.85 5.27,-3.75 5.27,1.77 5.28,0.28 5.27,1.71 5.27,-0.89 5.27,0.44 5.27,-5.09 5.28,-3.7 5.27,10.49 5.27,-0.74 5.27,0.45 5.27,-4.43 5.28,5.82 5.27,-3.77 5.27,3.72 5.27,-0.85 5.27,-4.35 5.27,0.59 5.28,-0.38 5.27,-0.83 5.27,-0.44 5.27,6.02 5.27,-1.66 5.28,5.56 5.27,-3.54 5.27,3.21 5.27,-6.87 5.27,0.54 5.27,0.54 5.28,-0.95 5.27,-0.16 5.27,0.33 5.27,-2.72 5.27,5.11 5.28,-1.91 5.27,0.65 5.27,8.07 5.27,-2.6 5.27,-2.49 5.27,-1.1 5.28,-0.16 5.27,3.68 5.27,-2.83 5.27,2.64 5.27,-3.76 5.28,-2.03 5.27,0.6 15.81,8.14 V 81.61 h -15.81 -5.27 -5.28 -5.27 -5.27 -5.27 -5.27 -5.28 -5.27 -5.27 -5.27 -5.27 -5.27 -5.28 -5.27 -5.27 -5.27 -5.27 -5.28 -5.27 -5.27 -5.27 -5.27 -5.27 -5.28 -5.27 -5.27 -5.27 -5.27 -5.28 -5.27 -5.27 -5.27 -5.27 -5.27 -5.28 -5.27 -5.27 -5.27 -5.27 -5.28 -5.27 -5.27 -5.27 -5.27 -5.28 -5.27 -5.27 -5.27 -5.27 -5.27 -5.28 -5.27 -5.27 -5.27 -5.27 -5.28 -5.27 -5.27 -5.27 -5.27 -5.27 -5.28 -5.27 -5.27 -5.27 -5.27 z"
           style="fill:#ff7f00;fill-opacity:0.502;fill-rule:nonzero;stroke:none"
           id="path766" />
      </g>
    </g>
    <g
       id="g768" />
    <g
       id="g770" />
    <g
       id="g772" />
    <g
       id="g774" />
    <g
       id="g776" />
    <g
       id="g778" />
    <g
       id="g780" />
    <g
       id="g782" />
    <g
       id="g784" />
    <g
       id="g786" />
    <g
       id="g788" />
    <g
       id="g790" />
    <g
       id="g792">
      <path
         d="M 62.39,72.05 V 282.52"
         style="fill:none;stroke:#000000;stroke-width:1.07;stroke-linecap:butt;stroke-linejoin:round;stroke-miterlimit:10;stroke-dasharray:none;stroke-opacity:1"
         id="path794" />
    </g>
    <g
       id="g796" />
    <g
       id="g798" />
    <g
       id="g800">
      <text
         xml:space="preserve"
         transform="matrix(1,0,0,-1,51.9,78.02)"
         style="font-variant:normal;font-weight:normal;font-size:10px;font-family:Helvetica;-inkscape-font-specification:Helvetica;writing-mode:lr-tb;fill:#4d4d4d;fill-opacity:1;fill-rule:nonzero;stroke:none"
         id="text804"><tspan
           x="0"
           y="0"
           id="tspan802">0</tspan></text>
      <text
         xml:space="preserve"
         transform="matrix(1,0,0,-1,24.1,127.95)"
         style="font-variant:normal;font-weight:normal;font-size:10px;font-family:Helvetica;-inkscape-font-specification:Helvetica;writing-mode:lr-tb;fill:#4d4d4d;fill-opacity:1;fill-rule:nonzero;stroke:none"
         id="text808"><tspan
           x="0 5.5599999 11.12 16.68 22.24 27.799999"
           y="0"
           sodipodi:role="line"
           id="tspan806">300000</tspan></text>
      <text
         xml:space="preserve"
         transform="matrix(1,0,0,-1,24.1,177.87)"
         style="font-variant:normal;font-weight:normal;font-size:10px;font-family:Helvetica;-inkscape-font-specification:Helvetica;writing-mode:lr-tb;fill:#4d4d4d;fill-opacity:1;fill-rule:nonzero;stroke:none"
         id="text812"><tspan
           x="0 5.5599999 11.12 16.68 22.24 27.799999"
           y="0"
           sodipodi:role="line"
           id="tspan810">600000</tspan></text>
      <text
         xml:space="preserve"
         transform="matrix(1,0,0,-1,24.1,227.8)"
         style="font-variant:normal;font-weight:normal;font-size:10px;font-family:Helvetica;-inkscape-font-specification:Helvetica;writing-mode:lr-tb;fill:#4d4d4d;fill-opacity:1;fill-rule:nonzero;stroke:none"
         id="text816"><tspan
           x="0 5.5599999 11.12 16.68 22.24 27.799999"
           y="0"
           sodipodi:role="line"
           id="tspan814">900000</tspan></text>
      <text
         xml:space="preserve"
         transform="matrix(1,0,0,-1,18.54,277.73)"
         style="font-variant:normal;font-weight:normal;font-size:10px;font-family:Helvetica;-inkscape-font-specification:Helvetica;writing-mode:lr-tb;fill:#4d4d4d;fill-opacity:1;fill-rule:nonzero;stroke:none"
         id="text820"><tspan
           x="0 5.5599999 11.12 16.68 22.24 27.799999 33.360001"
           y="0"
           sodipodi:role="line"
           id="tspan818">1200000</tspan></text>
    </g>
    <g
       id="g822" />
    <g
       id="g824" />
    <g
       id="g826">
      <path
         d="m 59.65,81.61 h 2.74"
         style="fill:none;stroke:#333333;stroke-width:1.07;stroke-linecap:butt;stroke-linejoin:round;stroke-miterlimit:10;stroke-dasharray:none;stroke-opacity:1"
         id="path828" />
      <path
         d="m 59.65,131.54 h 2.74"
         style="fill:none;stroke:#333333;stroke-width:1.07;stroke-linecap:butt;stroke-linejoin:round;stroke-miterlimit:10;stroke-dasharray:none;stroke-opacity:1"
         id="path830" />
      <path
         d="m 59.65,181.46 h 2.74"
         style="fill:none;stroke:#333333;stroke-width:1.07;stroke-linecap:butt;stroke-linejoin:round;stroke-miterlimit:10;stroke-dasharray:none;stroke-opacity:1"
         id="path832" />
      <path
         d="m 59.65,231.39 h 2.74"
         style="fill:none;stroke:#333333;stroke-width:1.07;stroke-linecap:butt;stroke-linejoin:round;stroke-miterlimit:10;stroke-dasharray:none;stroke-opacity:1"
         id="path834" />
      <path
         d="m 59.65,281.32 h 2.74"
         style="fill:none;stroke:#333333;stroke-width:1.07;stroke-linecap:butt;stroke-linejoin:round;stroke-miterlimit:10;stroke-dasharray:none;stroke-opacity:1"
         id="path836" />
    </g>
    <g
       id="g838" />
    <g
       id="g840" />
    <g
       id="g842" />
    <g
       id="g844" />
    <g
       id="g846" />
    <g
       id="g848" />
    <g
       id="g850" />
    <g
       id="g852">
      <path
         d="M 62.39,72.05 H 462.52"
         style="fill:none;stroke:#000000;stroke-width:1.07;stroke-linecap:butt;stroke-linejoin:round;stroke-miterlimit:10;stroke-dasharray:none;stroke-opacity:1"
         id="path854" />
    </g>
    <g
       id="g856" />
    <g
       id="g858" />
    <g
       id="g860">
      <path
         d="m 133.29,69.31 v 2.74"
         style="fill:none;stroke:#333333;stroke-width:1.07;stroke-linecap:butt;stroke-linejoin:round;stroke-miterlimit:10;stroke-dasharray:none;stroke-opacity:1"
         id="path862" />
      <path
         d="m 238.73,69.31 v 2.74"
         style="fill:none;stroke:#333333;stroke-width:1.07;stroke-linecap:butt;stroke-linejoin:round;stroke-miterlimit:10;stroke-dasharray:none;stroke-opacity:1"
         id="path864" />
      <path
         d="m 344.17,69.31 v 2.74"
         style="fill:none;stroke:#333333;stroke-width:1.07;stroke-linecap:butt;stroke-linejoin:round;stroke-miterlimit:10;stroke-dasharray:none;stroke-opacity:1"
         id="path866" />
      <path
         d="m 449.6,69.31 v 2.74"
         style="fill:none;stroke:#333333;stroke-width:1.07;stroke-linecap:butt;stroke-linejoin:round;stroke-miterlimit:10;stroke-dasharray:none;stroke-opacity:1"
         id="path868" />
    </g>
    <g
       id="g870" />
    <g
       id="g872">
      <text
         xml:space="preserve"
         transform="matrix(1,0,0,-1,122.17,59.93)"
         style="font-variant:normal;font-weight:normal;font-size:10px;font-family:Helvetica;-inkscape-font-specification:Helvetica;writing-mode:lr-tb;fill:#4d4d4d;fill-opacity:1;fill-rule:nonzero;stroke:none"
         id="text876"><tspan
           x="0 5.5599999 11.12 16.68"
           y="0"
           sodipodi:role="line"
           id="tspan874">1960</tspan></text>
      <text
         xml:space="preserve"
         transform="matrix(1,0,0,-1,227.61,59.93)"
         style="font-variant:normal;font-weight:normal;font-size:10px;font-family:Helvetica;-inkscape-font-specification:Helvetica;writing-mode:lr-tb;fill:#4d4d4d;fill-opacity:1;fill-rule:nonzero;stroke:none"
         id="text880"><tspan
           x="0 5.5599999 11.12 16.68"
           y="0"
           sodipodi:role="line"
           id="tspan878">1980</tspan></text>
      <text
         xml:space="preserve"
         transform="matrix(1,0,0,-1,333.05,59.93)"
         style="font-variant:normal;font-weight:normal;font-size:10px;font-family:Helvetica;-inkscape-font-specification:Helvetica;writing-mode:lr-tb;fill:#4d4d4d;fill-opacity:1;fill-rule:nonzero;stroke:none"
         id="text884"><tspan
           x="0 5.5599999 11.12 16.68"
           y="0"
           sodipodi:role="line"
           id="tspan882">2000</tspan></text>
      <text
         xml:space="preserve"
         transform="matrix(1,0,0,-1,438.48,59.93)"
         style="font-variant:normal;font-weight:normal;font-size:10px;font-family:Helvetica;-inkscape-font-specification:Helvetica;writing-mode:lr-tb;fill:#4d4d4d;fill-opacity:1;fill-rule:nonzero;stroke:none"
         id="text888"><tspan
           x="0 5.5599999 11.12 16.68"
           y="0"
           sodipodi:role="line"
           id="tspan886">2020</tspan></text>
    </g>
    <g
       id="g890" />
    <g
       id="g892" />
    <g
       id="g894" />
    <g
       id="g896" />
    <g
       id="g898" />
    <g
       id="g900" />
    <g
       id="g902" />
    <g
       id="g904"
       transform="translate(0,3)">
      <text
         xml:space="preserve"
         transform="matrix(1,0,0,-1,250.97,47.1)"
         style="font-variant:normal;font-weight:bold;font-size:11px;font-family:Helvetica;-inkscape-font-specification:Helvetica-Bold;writing-mode:lr-tb;fill:#000000;fill-opacity:1;fill-rule:nonzero;stroke:none"
         id="text908"><tspan
           x="0 6.4569998 12.573 18.688999"
           y="0"
           sodipodi:role="line"
           id="tspan906">Year</tspan></text>
    </g>
    <g
       id="g910" />
    <g
       id="g912" />
    <g
       id="g914">
      <text
         xml:space="preserve"
         transform="matrix(0,1,1,0,13.38,115.19)"
         style="font-variant:normal;font-weight:bold;font-size:11px;font-family:Helvetica;-inkscape-font-specification:Helvetica-Bold;writing-mode:lr-tb;fill:#000000;fill-opacity:1;fill-rule:nonzero;stroke:none"
         id="text918"><tspan
           x="0 7.9419999 14.663 21.384001 27.5 34.221001 44 50.721001 54.383999 57.442001 63.557999 69.674004 72.732002 80.674004 86.790001 93.015999 96.073997 99.132004 107.074 113.795 116.853"
           y="0"
           sodipodi:role="line"
           id="tspan916">Consumptive Use, AF/Y</tspan></text>
    </g>
    <g
       id="g920" />
    <g
       id="g922" />
    <g
       id="g924" />
    <g
       id="g926" />
    <g
       id="g928" />
    <g
       id="g930" />
    <g
       id="g932" />
    <g
       id="g934" />
    <g
       id="g940" />
    <g
       id="g942" />
    <g
       id="g944" />
    <g
       id="g952" />
    <g
       id="g954" />
    <g
       id="g956" />
    <g
       id="g958" />
    <g
       id="g960" />
    <g
       id="g966" />
    <g
       id="g968" />
    <g
       id="g970" />
    <g
       id="g976" />
    <g
       id="g978" />
    <g
       id="g980" />
    <g
       id="g986" />
    <g
       id="g988" />
    <g
       id="g990" />
    <g
       id="g996" />
    <g
       id="g998" />
    <g
       id="g1000" />
    <g
       id="g1006" />
    <g
       id="g1008" />
    <g
       id="g1010" />
    <g
       id="g1018" />
    <g
       id="g1020" />
    <g
       id="g1022" />
    <g
       id="g1024" />
    <g
       id="g1026" />
    <g
       id="g1034" />
    <g
       id="g1036" />
    <g
       id="g1038" />
    <g
       id="g1040" />
    <g
       id="g1042" />
    <g
       id="g1050" />
    <g
       id="g1052" />
    <g
       id="g1054" />
    <g
       id="g1056" />
    <g
       id="g1058" />
    <g
       id="g1066" />
    <g
       id="g1068" />
    <g
       id="g1070" />
    <g
       id="g1072" />
    <g
       id="g1074" />
    <g
       id="g1082" />
    <g
       id="g1084" />
    <g
       id="g1086" />
    <g
       id="g1088" />
    <g
       id="g1090" />
    <g
       id="g1092" />
    <g
       id="g1094" />
    <g
       id="g1096" />
    <g
       id="g1098" />
    <g
       id="g1100" />
    <g
       id="g1102" />
    <g
       id="g1104" />
    <g
       id="g1106" />
    <g
       id="g1108" />
    <g
       id="g1110" />
    <g
       id="g1112" />
    <g
       id="g946"
       transform="translate(95.883748,4.8873878)">
      <text
         xml:space="preserve"
         transform="matrix(1,0,0,-1,16.55,15.65)"
         style="font-variant:normal;font-weight:normal;font-size:11px;font-family:Helvetica;-inkscape-font-specification:Helvetica;writing-mode:lr-tb;fill:#000000;fill-opacity:1;fill-rule:nonzero;stroke:none"
         id="text950"
         x="16.008545"
         y="0"><tspan
           sodipodi:role="line"
           id="tspan948"
           x="16.008545"
           y="0"
           style="text-align:center;text-anchor:middle">Gauge</tspan><tspan
           sodipodi:role="line"
           x="16.008545"
           y="13.75"
           id="tspan2594"
           style="text-align:center;text-anchor:middle">Name</tspan></text>
    </g>
    <g
       id="g2894">
      <g
         id="g962"
         transform="translate(95.883748,9.349199)">
        <path
           d="M 55.76,11.67 H 71.62 V 27.53 H 55.76 Z"
           style="fill:#e41a1c;fill-opacity:0.502;fill-rule:nonzero;stroke:none"
           id="path964" />
      </g>
      <g
         id="g1012"
         transform="translate(95.883748,15.583242)">
        <text
           xml:space="preserve"
           transform="matrix(1,0,0,-1,77.81,16.01)"
           style="font-variant:normal;font-weight:normal;font-size:10px;font-family:Helvetica;-inkscape-font-specification:Helvetica;writing-mode:lr-tb;fill:#000000;fill-opacity:1;fill-rule:nonzero;stroke:none"
           id="text1016"><tspan
             sodipodi:role="line"
             id="tspan1014"
             x="0"
             y="0">San Juan</tspan><tspan
             sodipodi:role="line"
             x="0"
             y="12.5"
             id="tspan2580">nr. Bluff</tspan></text>
      </g>
    </g>
    <g
       id="g2902">
      <g
         id="g972"
         transform="translate(95.883748,9.327227)">
        <path
           d="m 132.41,11.67 h 15.86 v 15.86 h -15.86 z"
           style="fill:#377eb8;fill-opacity:0.502;fill-rule:nonzero;stroke:none"
           id="path974" />
      </g>
      <g
         id="g1028"
         transform="translate(95.883748,15.661367)">
        <text
           xml:space="preserve"
           transform="matrix(1,0,0,-1,154.46,16.01)"
           style="font-variant:normal;font-weight:normal;font-size:10px;font-family:Helvetica;-inkscape-font-specification:Helvetica;writing-mode:lr-tb;fill:#000000;fill-opacity:1;fill-rule:nonzero;stroke:none"
           id="text1032"><tspan
             sodipodi:role="line"
             id="tspan1030"
             x="0"
             y="0">Duchesne</tspan><tspan
             sodipodi:role="line"
             x="0"
             y="12.5"
             id="tspan2582">nr. Randlett</tspan></text>
      </g>
    </g>
    <g
       id="g2910">
      <g
         id="g982"
         transform="translate(95.883748,9.327227)">
        <path
           d="m 232.39,11.67 h 15.86 v 15.86 h -15.86 z"
           style="fill:#4daf4a;fill-opacity:0.502;fill-rule:nonzero;stroke:none"
           id="path984" />
      </g>
      <g
         id="g1044"
         transform="translate(95.883748,15.583242)">
        <text
           xml:space="preserve"
           transform="matrix(1,0,0,-1,254.45,16.01)"
           style="font-variant:normal;font-weight:normal;font-size:10px;font-family:Helvetica;-inkscape-font-specification:Helvetica;writing-mode:lr-tb;fill:#000000;fill-opacity:1;fill-rule:nonzero;stroke:none"
           id="text1048"><tspan
             sodipodi:role="line"
             id="tspan1046"
             x="0"
             y="0">San Juan</tspan><tspan
             sodipodi:role="line"
             x="0"
             y="12.5"
             id="tspan2584">nr. Archuleta</tspan></text>
      </g>
    </g>
    <g
       id="g2886"
       transform="translate(-0.09727709)">
      <g
         id="g992"
         transform="translate(-179.52911,-15.993973)">
        <path
           d="m 331.27,11.67 h 15.86 v 15.86 h -15.86 z"
           style="fill:#984ea3;fill-opacity:0.502;fill-rule:nonzero;stroke:none"
           id="path994" />
      </g>
      <g
         id="g1060"
         transform="translate(-179.52911,-9.640301)">
        <text
           xml:space="preserve"
           transform="matrix(1,0,0,-1,353.32,16.01)"
           style="font-variant:normal;font-weight:normal;font-size:10px;font-family:Helvetica;-inkscape-font-specification:Helvetica;writing-mode:lr-tb;fill:#000000;fill-opacity:1;fill-rule:nonzero;stroke:none"
           id="text1064"><tspan
             sodipodi:role="line"
             id="tspan1062"
             x="0"
             y="0">Dolores nr. </tspan><tspan
             sodipodi:role="line"
             x="0"
             y="12.5"
             id="tspan2586">Cisco</tspan></text>
      </g>
    </g>
    <g
       id="g2878"
       transform="translate(-0.47727517)">
      <g
         id="g1002"
         transform="translate(-193.02911,-16.636063)">
        <path
           d="m 421.8,11.67 h 15.86 V 27.53 H 421.8 Z"
           style="fill:#ff7f00;fill-opacity:0.502;fill-rule:nonzero;stroke:none"
           id="path1004" />
      </g>
      <g
         id="g1076"
         transform="translate(-193.02911,-9.730633)">
        <text
           xml:space="preserve"
           transform="matrix(1,0,0,-1,443.85,16.01)"
           style="font-variant:normal;font-weight:normal;font-size:10px;font-family:Helvetica;-inkscape-font-specification:Helvetica;writing-mode:lr-tb;fill:#000000;fill-opacity:1;fill-rule:nonzero;stroke:none"
           id="text1080"><tspan
             sodipodi:role="line"
             x="0"
             y="0"
             id="tspan2588">San Rafel nr. </tspan><tspan
             sodipodi:role="line"
             x="0"
             y="12.5"
             id="tspan2592">Green River, UT</tspan></text>
      </g>
    </g>
    <rect
       style="fill:none;stroke:#000000;stroke-width:0.75;stroke-dasharray:none;stroke-opacity:1"
       id="rect2798"
       width="308.35959"
       height="51.296112"
       x="102.00931"
       y="-43.255512"
       transform="scale(1,-1)" />
  </g>
</svg>
