<?xml version="1.0" encoding="UTF-8" standalone="no"?>
<!-- Created with Inkscape (http://www.inkscape.org/) -->

<svg
   version="1.1"
   id="svg686"
   width="624"
   height="480"
   viewBox="0 0 624 480"
   sodipodi:docname="cu_stack_nbg.svg"
   inkscape:version="1.2.1 (9c6d41e, 2022-07-14)"
   xmlns:inkscape="http://www.inkscape.org/namespaces/inkscape"
   xmlns:sodipodi="http://sodipodi.sourceforge.net/DTD/sodipodi-0.dtd"
   xmlns="http://www.w3.org/2000/svg"
   xmlns:svg="http://www.w3.org/2000/svg">
  <defs
     id="defs690">
    <clipPath
       clipPathUnits="userSpaceOnUse"
       id="clipPath806">
      <path
         d="m 42.93,90.07 h 419.59 v 19.09 H 42.93 Z"
         id="path804" />
    </clipPath>
    <clipPath
       clipPathUnits="userSpaceOnUse"
       id="clipPath828">
      <path
         d="m 42.93,90.07 h 419.59 v 19.09 H 42.93 Z"
         id="path826" />
    </clipPath>
    <clipPath
       clipPathUnits="userSpaceOnUse"
       id="clipPath836">
      <path
         d="m 42.93,90.07 h 419.59 v 19.09 H 42.93 Z"
         id="path834" />
    </clipPath>
    <clipPath
       clipPathUnits="userSpaceOnUse"
       id="clipPath844">
      <path
         d="m 42.93,90.07 h 419.59 v 19.09 H 42.93 Z"
         id="path842" />
    </clipPath>
    <clipPath
       clipPathUnits="userSpaceOnUse"
       id="clipPath854">
      <path
         d="m 42.93,171.86 h 419.59 v 19.09 H 42.93 Z"
         id="path852" />
    </clipPath>
    <clipPath
       clipPathUnits="userSpaceOnUse"
       id="clipPath876">
      <path
         d="m 42.93,171.86 h 419.59 v 19.09 H 42.93 Z"
         id="path874" />
    </clipPath>
    <clipPath
       clipPathUnits="userSpaceOnUse"
       id="clipPath884">
      <path
         d="m 42.93,171.86 h 419.59 v 19.09 H 42.93 Z"
         id="path882" />
    </clipPath>
    <clipPath
       clipPathUnits="userSpaceOnUse"
       id="clipPath892">
      <path
         d="m 42.93,171.86 h 419.59 v 19.09 H 42.93 Z"
         id="path890" />
    </clipPath>
    <clipPath
       clipPathUnits="userSpaceOnUse"
       id="clipPath902">
      <path
         d="m 42.93,253.65 h 419.59 v 19.09 H 42.93 Z"
         id="path900" />
    </clipPath>
    <clipPath
       clipPathUnits="userSpaceOnUse"
       id="clipPath924">
      <path
         d="m 42.93,253.65 h 419.59 v 19.09 H 42.93 Z"
         id="path922" />
    </clipPath>
    <clipPath
       clipPathUnits="userSpaceOnUse"
       id="clipPath932">
      <path
         d="m 42.93,253.65 h 419.59 v 19.09 H 42.93 Z"
         id="path930" />
    </clipPath>
    <clipPath
       clipPathUnits="userSpaceOnUse"
       id="clipPath940">
      <path
         d="m 42.93,253.65 h 419.59 v 19.09 H 42.93 Z"
         id="path938" />
    </clipPath>
    <clipPath
       clipPathUnits="userSpaceOnUse"
       id="clipPath950">
      <path
         d="m 42.93,335.44 h 419.59 v 19.09 H 42.93 Z"
         id="path948" />
    </clipPath>
    <clipPath
       clipPathUnits="userSpaceOnUse"
       id="clipPath972">
      <path
         d="m 42.93,335.44 h 419.59 v 19.09 H 42.93 Z"
         id="path970" />
    </clipPath>
    <clipPath
       clipPathUnits="userSpaceOnUse"
       id="clipPath980">
      <path
         d="m 42.93,335.44 h 419.59 v 19.09 H 42.93 Z"
         id="path978" />
    </clipPath>
    <clipPath
       clipPathUnits="userSpaceOnUse"
       id="clipPath988">
      <path
         d="m 42.93,335.44 h 419.59 v 19.09 H 42.93 Z"
         id="path986" />
    </clipPath>
    <clipPath
       clipPathUnits="userSpaceOnUse"
       id="clipPath2101">
      <g
         id="g2105">
        <path
           d="m 42.93,335.44 h 419.59 v 19.09 H 42.93 Z"
           id="path2103" />
      </g>
    </clipPath>
    <clipPath
       clipPathUnits="userSpaceOnUse"
       id="clipPath2118">
      <g
         id="g2122">
        <path
           d="m 42.93,253.65 h 419.59 v 19.09 H 42.93 Z"
           id="path2120" />
      </g>
    </clipPath>
    <clipPath
       clipPathUnits="userSpaceOnUse"
       id="clipPath2135">
      <g
         id="g2139">
        <path
           d="m 42.93,171.86 h 419.59 v 19.09 H 42.93 Z"
           id="path2137" />
      </g>
    </clipPath>
    <clipPath
       clipPathUnits="userSpaceOnUse"
       id="clipPath2152">
      <g
         id="g2156">
        <path
           d="m 42.93,90.07 h 419.59 v 19.09 H 42.93 Z"
           id="path2154" />
      </g>
    </clipPath>
    <clipPath
       clipPathUnits="userSpaceOnUse"
       id="clipPath2844">
      <g
         id="g2848">
        <path
           d="m 42.93,278.21 h 419.59 v 57.22 H 42.93 Z"
           id="path2846" />
      </g>
    </clipPath>
    <clipPath
       clipPathUnits="userSpaceOnUse"
       id="clipPath2850">
      <g
         id="g2854">
        <path
           d="m 42.93,278.21 h 419.59 v 57.22 H 42.93 Z"
           id="path2852" />
      </g>
    </clipPath>
    <clipPath
       clipPathUnits="userSpaceOnUse"
       id="clipPath2856">
      <g
         id="g2860">
        <path
           d="m 42.93,278.21 h 419.59 v 57.22 H 42.93 Z"
           id="path2858" />
      </g>
    </clipPath>
    <clipPath
       clipPathUnits="userSpaceOnUse"
       id="clipPath2873">
      <g
         id="g2877">
        <path
           d="m 42.93,196.42 h 419.59 v 57.22 H 42.93 Z"
           id="path2875" />
      </g>
    </clipPath>
    <clipPath
       clipPathUnits="userSpaceOnUse"
       id="clipPath2879">
      <g
         id="g2883">
        <path
           d="m 42.93,196.42 h 419.59 v 57.22 H 42.93 Z"
           id="path2881" />
      </g>
    </clipPath>
    <clipPath
       clipPathUnits="userSpaceOnUse"
       id="clipPath2885">
      <g
         id="g2889">
        <path
           d="m 42.93,196.42 h 419.59 v 57.22 H 42.93 Z"
           id="path2887" />
      </g>
    </clipPath>
    <clipPath
       clipPathUnits="userSpaceOnUse"
       id="clipPath2902">
      <g
         id="g2906">
        <path
           d="m 42.93,114.64 h 419.59 v 57.22 H 42.93 Z"
           id="path2904" />
      </g>
    </clipPath>
    <clipPath
       clipPathUnits="userSpaceOnUse"
       id="clipPath2908">
      <g
         id="g2912">
        <path
           d="m 42.93,114.64 h 419.59 v 57.22 H 42.93 Z"
           id="path2910" />
      </g>
    </clipPath>
    <clipPath
       clipPathUnits="userSpaceOnUse"
       id="clipPath2914">
      <g
         id="g2918">
        <path
           d="m 42.93,114.64 h 419.59 v 57.22 H 42.93 Z"
           id="path2916" />
      </g>
    </clipPath>
    <clipPath
       clipPathUnits="userSpaceOnUse"
       id="clipPath2931">
      <g
         id="g2935">
        <path
           d="M 42.93,32.85 H 462.52 V 90.07 H 42.93 Z"
           id="path2933" />
      </g>
    </clipPath>
    <clipPath
       clipPathUnits="userSpaceOnUse"
       id="clipPath2937">
      <g
         id="g2941">
        <path
           d="M 42.93,32.85 H 462.52 V 90.07 H 42.93 Z"
           id="path2939" />
      </g>
    </clipPath>
    <clipPath
       clipPathUnits="userSpaceOnUse"
       id="clipPath2943">
      <g
         id="g2947">
        <path
           d="M 42.93,32.85 H 462.52 V 90.07 H 42.93 Z"
           id="path2945" />
      </g>
    </clipPath>
  </defs>
  <sodipodi:namedview
     id="namedview688"
     pagecolor="#ffffff"
     bordercolor="#000000"
     borderopacity="0.25"
     inkscape:showpageshadow="2"
     inkscape:pageopacity="0.0"
     inkscape:pagecheckerboard="0"
     inkscape:deskcolor="#d1d1d1"
     showgrid="false"
     inkscape:zoom="0.95583248"
     inkscape:cx="263.64452"
     inkscape:cy="217.61135"
     inkscape:window-width="1419"
     inkscape:window-height="776"
     inkscape:window-x="0"
     inkscape:window-y="25"
     inkscape:window-maximized="0"
     inkscape:current-layer="g694">
    <inkscape:page
       x="0"
       y="0"
       id="page692"
       width="624"
       height="480"
       inkscape:export-filename="cu_stack_nbg.png"
       inkscape:export-xdpi="300"
       inkscape:export-ydpi="300" />
  </sodipodi:namedview>
  <g
     id="g694"
     inkscape:groupmode="layer"
     inkscape:label="Page 1"
     transform="matrix(1.3333333,0,0,-1.3333333,0,480)">
    <g
       id="g700" />
    <g
       id="g702" />
    <g
       id="g704" />
    <g
       id="g706" />
    <g
       id="g708" />
    <g
       id="g710" />
    <g
       id="g712" />
    <g
       id="g714" />
    <g
       id="g716" />
    <g
       id="g718" />
    <g
       id="g720" />
    <g
       id="g722" />
    <g
       id="g724" />
    <g
       id="g726" />
    <g
       id="g728" />
    <g
       id="g734" />
    <path
       d="m 62,332.83 5.53,-28.22 5.53,-17.13 5.53,10.25 5.52,4.04 5.53,-5.49 5.53,2.71 5.53,-11.98 5.53,0.52 5.53,15.25 5.52,-9.21 5.53,3.28 5.53,-2.73 5.53,6.44 5.53,-0.93 5.52,-9.64 5.53,4.17 5.53,8.62 5.53,-8.41 5.53,-1.37 5.53,0.08 5.52,-6.38 5.53,1.72 5.53,-5.55 5.53,16.18 5.53,-8.86 5.52,8.06 5.53,8.24 5.53,-15.52 5.53,-2.59 5.53,0.47 5.53,16.76 5.52,-12.85 5.53,-5.85 5.53,1.81 5.53,3.56 5.53,2.91 5.53,-3.57 5.52,10.23 5.53,3.12 5.53,6.79 5.53,-3.01 5.53,-10.26 5.52,-9.3 5.53,12.31 5.53,-7.04 5.53,15.62 5.53,-14.89 5.53,0.09 5.52,6.4 5.53,1.78 5.53,8 5.53,4.15 5.53,-2.93 5.52,-0.44 5.53,-12.74 5.53,10.38 5.53,-1.88 5.53,-6.7 5.53,5.96 5.52,1.17 5.53,-0.45 5.53,10.52 5.53,-3.87 5.53,-2.49 5.53,-0.14 5.52,-2.58 16.59,-5.81 v -22.8 h -16.59 -5.52 -5.53 -5.53 -5.53 -5.53 -5.53 -5.52 -5.53 -5.53 -5.53 -5.53 -5.53 -5.52 -5.53 -5.53 -5.53 -5.53 -5.52 -5.53 -5.53 -5.53 -5.53 -5.53 -5.52 -5.53 -5.53 -5.53 -5.53 -5.52 -5.53 -5.53 -5.53 -5.53 -5.53 -5.52 -5.53 -5.53 -5.53 -5.53 -5.53 -5.52 -5.53 -5.53 -5.53 -5.53 -5.52 -5.53 -5.53 -5.53 -5.53 -5.53 -5.52 -5.53 -5.53 -5.53 -5.53 -5.52 -5.53 H 100.7 95.17 89.64 84.11 78.59 73.06 67.53 62 Z"
       style="fill:#f05d22;fill-opacity:0.502;fill-rule:nonzero;stroke:none"
       id="path746"
       clip-path="url(#clipPath2850)" />
    <path
       d="m 62,306.05 4.83,-1.1 4.83,-1.04 4.83,-1.01 4.82,-0.96 4.83,-0.91 4.83,-0.87 4.83,-0.82 4.83,-0.78 4.83,-0.72 4.83,-0.68 4.82,-0.63 4.83,-0.58 4.83,-0.53 4.83,-0.49 4.83,-0.44 4.83,-0.4 4.82,-0.36 4.83,-0.32 4.83,-0.27 4.83,-0.21 4.83,-0.15 4.83,-0.09 4.83,-0.04 h 4.82 l 4.83,0.02 4.83,0.05 4.83,0.07 4.83,0.08 4.83,0.08 4.82,0.11 4.83,0.15 4.83,0.18 4.83,0.2 4.83,0.24 4.83,0.25 4.83,0.28 4.82,0.29 4.83,0.3 4.83,0.35 4.83,0.42 4.83,0.45 4.83,0.5 4.82,0.52 4.83,0.54 4.83,0.54 4.83,0.53 4.83,0.52 4.83,0.48 4.82,0.49 4.83,0.52 4.83,0.54 4.83,0.56 4.83,0.57 4.83,0.55 4.83,0.54 4.82,0.51 4.83,0.46 4.83,0.43 4.83,0.43 4.83,0.43 4.83,0.41 4.82,0.41 4.83,0.4 4.83,0.38 4.83,0.37 4.83,0.36 4.83,0.33 4.83,0.31 4.82,0.3 4.83,0.28 4.83,0.26 4.83,0.24 4.83,0.23 4.83,0.21 4.82,0.2 4.83,0.19 4.83,0.18 4.83,0.16 4.83,0.15"
       style="fill:none;stroke:#f05d22;stroke-width:2.13;stroke-linecap:butt;stroke-linejoin:round;stroke-miterlimit:10;stroke-dasharray:8.54, 8.54;stroke-dashoffset:0;stroke-opacity:1"
       id="path748"
       clip-path="url(#clipPath2844)" />
    <g
       id="g750" />
    <path
       d="m 62,218.61 5.53,2.91 5.53,-7.51 5.53,9.83 5.52,8.54 5.53,-3.1 5.53,-1.05 5.53,-5.69 5.53,0.92 5.53,9.6 5.52,1.34 5.53,0.82 5.53,-12.73 5.53,10.47 5.53,-7.19 5.52,-11.66 5.53,12.16 5.53,-5.7 5.53,-1.25 5.53,0.7 5.53,19.28 5.52,-7.45 5.53,-1.68 5.53,-5.28 5.53,6.49 5.53,-2.17 5.52,5.67 5.53,5.55 5.53,-6.25 5.53,-8.7 5.53,8.31 5.53,-4.12 5.52,-12.88 5.53,-10.89 5.53,5.82 5.53,13.33 5.53,-3.23 5.53,2.88 5.52,11.58 5.53,8.91 5.53,2.46 5.53,-1.56 5.53,-0.73 5.52,-2.91 5.53,4.08 5.53,-16.85 5.53,10.71 5.53,-15.34 5.53,-4.77 5.52,1.68 5.53,19.99 5.53,0.67 5.53,6.27 5.53,2.16 5.52,-2.84 5.53,-21.2 5.53,10.22 5.53,8.99 5.53,-2.07 5.53,-3.74 5.52,1.52 5.53,-29.35 5.53,30.01 5.53,6.34 5.53,-3.53 5.53,-5.04 5.52,-1.79 16.59,-6.86 v -32.68 h -16.59 -5.52 -5.53 -5.53 -5.53 -5.53 -5.53 -5.52 -5.53 -5.53 -5.53 -5.53 -5.53 -5.52 -5.53 -5.53 -5.53 -5.53 -5.52 -5.53 -5.53 -5.53 -5.53 -5.53 -5.52 -5.53 -5.53 -5.53 -5.53 -5.52 -5.53 -5.53 -5.53 -5.53 -5.53 -5.52 -5.53 -5.53 -5.53 -5.53 -5.53 -5.52 -5.53 -5.53 -5.53 -5.53 -5.52 -5.53 -5.53 -5.53 -5.53 -5.53 -5.52 -5.53 -5.53 -5.53 -5.53 -5.52 -5.53 H 100.7 95.17 89.64 84.11 78.59 73.06 67.53 62 Z"
       style="fill:#f05d22;fill-opacity:0.502;fill-rule:nonzero;stroke:none"
       id="path762"
       clip-path="url(#clipPath2879)" />
    <path
       d="m 62,223 4.83,0.32 4.83,0.32 4.83,0.3 4.82,0.3 4.83,0.28 4.83,0.27 4.83,0.26 4.83,0.24 4.83,0.22 4.83,0.21 4.82,0.18 4.83,0.16 4.83,0.15 4.83,0.14 4.83,0.13 4.83,0.12 4.82,0.13 4.83,0.13 4.83,0.11 4.83,0.03 4.83,-0.03 4.83,-0.08 4.83,-0.11 4.82,-0.12 4.83,-0.1 4.83,-0.08 4.83,-0.02 4.83,0.05 4.83,0.14 4.82,0.22 4.83,0.29 4.83,0.33 4.83,0.38 4.83,0.39 4.83,0.41 4.83,0.39 4.82,0.38 4.83,0.35 4.83,0.36 4.83,0.41 4.83,0.43 4.83,0.46 4.82,0.48 4.83,0.48 4.83,0.47 4.83,0.47 4.83,0.45 4.83,0.43 4.82,0.43 4.83,0.49 4.83,0.52 4.83,0.53 4.83,0.53 4.83,0.5 4.83,0.46 4.82,0.39 4.83,0.31 4.83,0.24 4.83,0.21 4.83,0.2 4.83,0.18 4.82,0.15 4.83,0.13 4.83,0.09 4.83,0.07 4.83,0.03 4.83,-0.01 4.83,-0.05 4.82,-0.08 4.83,-0.11 4.83,-0.15 4.83,-0.18 4.83,-0.21 4.83,-0.24 4.82,-0.27 4.83,-0.3 4.83,-0.33 4.83,-0.36 4.83,-0.38"
       style="fill:none;stroke:#f05d22;stroke-width:2.13;stroke-linecap:butt;stroke-linejoin:round;stroke-miterlimit:10;stroke-dasharray:8.54, 8.54;stroke-dashoffset:0;stroke-opacity:1"
       id="path764"
       clip-path="url(#clipPath2873)" />
    <g
       id="g766" />
    <path
       d="m 62,147.19 5.53,-5.07 5.53,-14.83 5.53,11.96 5.52,9.76 5.53,5.62 5.53,-3.35 5.53,-22.4 5.53,3.18 5.53,24.01 5.52,-8.9 5.53,-1.71 5.53,-7.95 5.53,11.17 5.53,-3.47 5.52,-13.99 5.53,22.49 5.53,-4.88 5.53,-4.6 5.53,-5.21 5.53,-0.01 5.52,13.4 5.53,3.42 5.53,-17.09 5.53,16.36 5.53,-11.33 5.52,13.03 5.53,0.43 5.53,-6.21 5.53,-2.34 5.53,-10.96 5.53,14.83 5.52,-8.03 5.53,-17.34 5.53,2.25 5.53,8.63 5.53,-3.42 5.53,13.18 5.52,7.98 5.53,4.43 5.53,2.01 5.53,-1.6 5.53,1.54 5.52,-6.55 5.53,8.37 5.53,-17.22 5.53,0.73 5.53,-8.74 5.53,2.2 5.52,3.46 5.53,13.31 5.53,1.78 5.53,3.37 5.53,6.37 5.52,-5.46 5.53,-22.21 5.53,7.28 5.53,17.88 5.53,-8.06 5.53,-1.45 5.52,1.93 5.53,-21.12 5.53,25.96 5.53,-2.43 5.53,-4.67 5.53,-1.85 5.52,4.94 16.59,-13.45 v -29.31 h -16.59 -5.52 -5.53 -5.53 -5.53 -5.53 -5.53 -5.52 -5.53 -5.53 -5.53 -5.53 -5.53 -5.52 -5.53 -5.53 -5.53 -5.53 -5.52 -5.53 -5.53 -5.53 -5.53 -5.53 -5.52 -5.53 -5.53 -5.53 -5.53 -5.52 -5.53 -5.53 -5.53 -5.53 -5.53 -5.52 -5.53 -5.53 -5.53 -5.53 -5.53 -5.52 -5.53 -5.53 -5.53 -5.53 -5.52 -5.53 -5.53 -5.53 -5.53 -5.53 -5.52 -5.53 -5.53 -5.53 -5.53 -5.52 -5.53 H 100.7 95.17 89.64 84.11 78.59 73.06 67.53 62 Z"
       style="fill:#f05d22;fill-opacity:0.502;fill-rule:nonzero;stroke:none"
       id="path778"
       clip-path="url(#clipPath2908)" />
    <path
       d="m 62,141.44 4.83,0.26 4.83,0.26 4.83,0.25 4.82,0.24 4.83,0.24 4.83,0.23 4.83,0.22 4.83,0.21 4.83,0.21 4.83,0.19 4.82,0.18 4.83,0.17 4.83,0.16 4.83,0.15 4.83,0.15 4.83,0.15 4.82,0.14 4.83,0.15 4.83,0.14 4.83,0.09 4.83,0.07 4.83,0.04 4.83,0.03 4.82,0.02 4.83,0.02 4.83,0.04 4.83,0.06 4.83,0.09 4.83,0.13 4.82,0.15 4.83,0.15 4.83,0.17 4.83,0.17 4.83,0.18 4.83,0.19 4.83,0.2 4.82,0.21 4.83,0.22 4.83,0.25 4.83,0.27 4.83,0.29 4.83,0.31 4.82,0.33 4.83,0.34 4.83,0.34 4.83,0.35 4.83,0.36 4.83,0.34 4.82,0.38 4.83,0.44 4.83,0.48 4.83,0.5 4.83,0.51 4.83,0.48 4.83,0.45 4.82,0.39 4.83,0.31 4.83,0.24 4.83,0.23 4.83,0.21 4.83,0.21 4.82,0.18 4.83,0.16 4.83,0.14 4.83,0.11 4.83,0.08 4.83,0.05 4.83,0.01 4.82,-0.01 4.83,-0.05 4.83,-0.07 4.83,-0.1 4.83,-0.13 4.83,-0.16 4.82,-0.17 4.83,-0.21 4.83,-0.22 4.83,-0.25 4.83,-0.27"
       style="fill:none;stroke:#f05d22;stroke-width:2.13;stroke-linecap:butt;stroke-linejoin:round;stroke-miterlimit:10;stroke-dasharray:8.54, 8.54;stroke-dashoffset:0;stroke-opacity:1"
       id="path780"
       clip-path="url(#clipPath2902)" />
    <g
       id="g782" />
    <path
       d="m 62,53.97 5.53,7.7 5.53,-16.64 5.53,8.79 5.52,2.32 5.53,-2.41 5.53,5.57 5.53,-16.7 5.53,4.02 5.53,17.31 5.52,-12.58 5.53,1.52 5.53,0.77 5.53,32.12 5.53,-21.71 5.52,-17.58 5.53,4.39 5.53,19.95 5.53,6.29 5.53,-25.07 5.53,0.52 5.52,4.08 5.53,5.57 5.53,-8.28 5.53,-7.38 5.53,13.24 5.52,1.97 5.53,-19.58 5.53,32.77 5.53,-24.12 5.53,8.28 5.53,-3.38 5.52,11.91 5.53,-10.82 5.53,-2.16 5.53,-8.46 5.53,4.62 5.53,-8.85 5.52,31.39 5.53,5.9 5.53,4.87 5.53,-8.78 5.53,-16.35 5.52,-2.46 5.53,0.28 5.53,0.46 5.53,-3.12 5.53,15.24 5.53,-13.7 5.52,5.7 5.53,-6.11 5.53,15.5 5.53,-34.45 5.53,42.28 5.52,8.86 5.53,-10.96 5.53,-7.08 5.53,-5.01 5.53,-8.81 5.53,18.33 5.52,6.62 5.53,-9.5 5.53,-8.46 5.53,21.7 5.53,2.96 5.53,-6.36 5.52,-22.04 16.59,20.69 v -44.1 h -16.59 -5.52 -5.53 -5.53 -5.53 -5.53 -5.53 -5.52 -5.53 -5.53 -5.53 -5.53 -5.53 -5.52 -5.53 -5.53 -5.53 -5.53 -5.52 -5.53 -5.53 -5.53 -5.53 -5.53 -5.52 -5.53 -5.53 -5.53 -5.53 -5.52 -5.53 -5.53 -5.53 -5.53 -5.53 -5.52 -5.53 -5.53 -5.53 -5.53 -5.53 -5.52 -5.53 -5.53 -5.53 -5.53 -5.52 -5.53 -5.53 -5.53 -5.53 -5.53 -5.52 -5.53 -5.53 -5.53 -5.53 -5.52 -5.53 H 100.7 95.17 89.64 84.11 78.59 73.06 67.53 62 Z"
       style="fill:#f05d22;fill-opacity:0.502;fill-rule:nonzero;stroke:none"
       id="path794"
       clip-path="url(#clipPath2937)" />
    <path
       d="m 62,53.15 4.83,0.34 4.83,0.33 4.83,0.31 4.82,0.31 4.83,0.3 4.83,0.28 4.83,0.27 4.83,0.25 4.83,0.23 4.83,0.21 4.82,0.2 4.83,0.17 4.83,0.16 4.83,0.15 4.83,0.14 4.83,0.14 4.82,0.14 4.83,0.14 4.83,0.13 4.83,0.09 4.83,0.05 4.83,0.01 h 4.83 l 4.82,-0.01 4.83,-0.02 h 4.83 l 4.83,0.02 4.83,0.04 4.83,0.08 4.82,0.1 4.83,0.11 4.83,0.13 4.83,0.13 4.83,0.15 4.83,0.15 4.83,0.15 4.82,0.16 4.83,0.16 4.83,0.17 4.83,0.19 4.83,0.2 4.83,0.22 4.82,0.24 4.83,0.26 4.83,0.27 4.83,0.29 4.83,0.3 4.83,0.33 4.82,0.34 4.83,0.36 4.83,0.36 4.83,0.38 4.83,0.4 4.83,0.41 4.83,0.43 4.82,0.45 4.83,0.46 4.83,0.48 4.83,0.5 4.83,0.5 4.83,0.52 4.82,0.53 4.83,0.55 4.83,0.56 4.83,0.58 4.83,0.61 4.83,0.62 4.83,0.64 4.82,0.66 4.83,0.69 4.83,0.7 4.83,0.72 4.83,0.74 4.83,0.75 4.82,0.77 4.83,0.8 4.83,0.8 4.83,0.83 4.83,0.84"
       style="fill:none;stroke:#f05d22;stroke-width:2.13;stroke-linecap:butt;stroke-linejoin:round;stroke-miterlimit:10;stroke-dasharray:8.54, 8.54;stroke-dashoffset:0;stroke-opacity:1"
       id="path796"
       clip-path="url(#clipPath2931)" />
    <g
       id="g798" />
    <g
       id="g800">
      <g
         id="g802"
         clip-path="url(#clipPath806)" />
    </g>
    <path
       d="m 42.93,90.07 h 419.59 v 19.09 H 42.93 Z"
       style="fill:none;fill-opacity:1;fill-rule:nonzero;stroke:#ffffff;stroke-width:2.13;stroke-linecap:round;stroke-linejoin:round;stroke-miterlimit:10;stroke-dasharray:none;stroke-opacity:1"
       id="path816"
       clip-path="url(#clipPath2152)" />
    <text
       xml:space="preserve"
       transform="scale(1,-1)"
       style="font-variant:normal;font-weight:bold;font-size:11px;font-family:Helvetica;-inkscape-font-specification:Helvetica-Bold;writing-mode:lr-tb;fill:#ffffff;fill-opacity:1;fill-rule:nonzero;stroke:#ffffff;stroke-opacity:1"
       id="text820"
       x="195.41544"
       y="-96.472908"><tspan
         sodipodi:role="line"
         id="tspan818"
         x="195.41544"
         y="-96.472908">San Juan nr. Bluff, UT</tspan></text>
    <g
       id="g822">
      <g
         id="g824"
         clip-path="url(#clipPath828)" />
    </g>
    <g
       id="g830">
      <g
         id="g832"
         clip-path="url(#clipPath836)" />
    </g>
    <g
       id="g838">
      <g
         id="g840"
         clip-path="url(#clipPath844)" />
    </g>
    <g
       id="g846" />
    <g
       id="g848">
      <g
         id="g850"
         clip-path="url(#clipPath854)" />
    </g>
    <path
       d="m 42.93,171.86 h 419.59 v 19.09 H 42.93 Z"
       style="fill:none;fill-opacity:1;fill-rule:nonzero;stroke:#ffffff;stroke-width:2.13;stroke-linecap:round;stroke-linejoin:round;stroke-miterlimit:10;stroke-dasharray:none;stroke-opacity:1"
       id="path864"
       clip-path="url(#clipPath2135)" />
    <text
       xml:space="preserve"
       transform="scale(1,-1)"
       style="font-variant:normal;font-weight:bold;font-size:11px;font-family:Helvetica;-inkscape-font-specification:Helvetica-Bold;writing-mode:lr-tb;fill:#ffffff;fill-opacity:1;fill-rule:nonzero;stroke:#ffffff;stroke-opacity:1"
       id="text868"
       x="173.38589"
       y="-178.26291"><tspan
         sodipodi:role="line"
         id="tspan866"
         x="173.38589"
         y="-178.26291">San Rafael nr. Green River, UT</tspan></text>
    <g
       id="g870">
      <g
         id="g872"
         clip-path="url(#clipPath876)" />
    </g>
    <g
       id="g878">
      <g
         id="g880"
         clip-path="url(#clipPath884)" />
    </g>
    <g
       id="g886">
      <g
         id="g888"
         clip-path="url(#clipPath892)" />
    </g>
    <g
       id="g894" />
    <g
       id="g896">
      <g
         id="g898"
         clip-path="url(#clipPath902)" />
    </g>
    <path
       d="m 42.93,253.65 h 419.59 v 19.09 H 42.93 Z"
       style="fill:none;fill-opacity:1;fill-rule:nonzero;stroke:#ffffff;stroke-width:2.13;stroke-linecap:round;stroke-linejoin:round;stroke-miterlimit:10;stroke-dasharray:none;stroke-opacity:1"
       id="path912"
       clip-path="url(#clipPath2118)" />
    <text
       xml:space="preserve"
       transform="scale(1,-1)"
       style="font-variant:normal;font-weight:bold;font-size:11px;font-family:Helvetica;-inkscape-font-specification:Helvetica-Bold;writing-mode:lr-tb;fill:#ffffff;fill-opacity:1;fill-rule:nonzero;stroke:#ffffff;stroke-opacity:1"
       id="text916"
       x="183.91324"
       y="-260.1684"><tspan
         sodipodi:role="line"
         id="tspan914"
         x="183.91324"
         y="-260.1684">Duchesne nr. Randlett, UT</tspan></text>
    <g
       id="g918">
      <g
         id="g920"
         clip-path="url(#clipPath924)" />
    </g>
    <g
       id="g926">
      <g
         id="g928"
         clip-path="url(#clipPath932)" />
    </g>
    <g
       id="g934">
      <g
         id="g936"
         clip-path="url(#clipPath940)" />
    </g>
    <g
       id="g942" />
    <g
       id="g944">
      <g
         id="g946"
         clip-path="url(#clipPath950)" />
    </g>
    <path
       d="m 42.93,335.44 h 419.59 v 19.09 H 42.93 Z"
       style="fill:none;fill-opacity:1;fill-rule:nonzero;stroke:#ffffff;stroke-width:2.13;stroke-linecap:round;stroke-linejoin:round;stroke-miterlimit:10;stroke-dasharray:none;stroke-opacity:1"
       id="path960"
       clip-path="url(#clipPath2101)" />
    <text
       xml:space="preserve"
       transform="scale(1,-1)"
       style="font-variant:normal;font-weight:bold;font-size:11px;font-family:Helvetica;-inkscape-font-specification:Helvetica-Bold;writing-mode:lr-tb;fill:#ffffff;fill-opacity:1;fill-rule:nonzero;stroke:#ffffff;stroke-opacity:1"
       id="text964"
       x="196.74478"
       y="-341.88318"><tspan
         sodipodi:role="line"
         id="tspan962"
         x="196.74478"
         y="-341.88318">Dolores nr. Cisco, UT</tspan></text>
    <g
       id="g966">
      <g
         id="g968"
         clip-path="url(#clipPath972)" />
    </g>
    <g
       id="g974">
      <g
         id="g976"
         clip-path="url(#clipPath980)" />
    </g>
    <g
       id="g982">
      <g
         id="g984"
         clip-path="url(#clipPath988)" />
    </g>
    <g
       id="g990" />
    <g
       id="g992" />
    <g
       id="g994" />
    <g
       id="g996" />
    <g
       id="g998" />
    <g
       id="g1000" />
    <g
       id="g1002" />
    <g
       id="g1004" />
    <g
       id="g1006" />
    <g
       id="g1008" />
    <g
       id="g1010"
       style="fill:#ffffff;fill-opacity:1;stroke:#ffffff;stroke-opacity:1">
      <path
         d="M 42.93,32.85 H 462.52"
         style="fill:#ffffff;stroke:#ffffff;stroke-width:1.07;stroke-linecap:butt;stroke-linejoin:round;stroke-miterlimit:10;stroke-dasharray:none;stroke-opacity:1;fill-opacity:1"
         id="path1012" />
    </g>
    <g
       id="g1014" />
    <g
       id="g1016" />
    <g
       id="g1018"
       style="fill:#ffffff;fill-opacity:1;stroke:#ffffff;stroke-opacity:1">
      <path
         d="m 117.28,30.11 v 2.74"
         style="fill:#ffffff;stroke:#ffffff;stroke-width:1.07;stroke-linecap:butt;stroke-linejoin:round;stroke-miterlimit:10;stroke-dasharray:none;stroke-opacity:1;fill-opacity:1"
         id="path1020" />
      <path
         d="m 227.85,30.11 v 2.74"
         style="fill:#ffffff;stroke:#ffffff;stroke-width:1.07;stroke-linecap:butt;stroke-linejoin:round;stroke-miterlimit:10;stroke-dasharray:none;stroke-opacity:1;fill-opacity:1"
         id="path1022" />
      <path
         d="m 338.41,30.11 v 2.74"
         style="fill:#ffffff;stroke:#ffffff;stroke-width:1.07;stroke-linecap:butt;stroke-linejoin:round;stroke-miterlimit:10;stroke-dasharray:none;stroke-opacity:1;fill-opacity:1"
         id="path1024" />
      <path
         d="m 448.98,30.11 v 2.74"
         style="fill:#ffffff;stroke:#ffffff;stroke-width:1.07;stroke-linecap:butt;stroke-linejoin:round;stroke-miterlimit:10;stroke-dasharray:none;stroke-opacity:1;fill-opacity:1"
         id="path1026" />
    </g>
    <g
       id="g1028" />
    <g
       id="g1030"
       style="stroke:#ffffff;stroke-opacity:1;fill:#ffffff;fill-opacity:1">
      <text
         xml:space="preserve"
         transform="matrix(1,0,0,-1,106.16,20.74)"
         style="font-variant:normal;font-weight:normal;font-size:10px;font-family:Helvetica;-inkscape-font-specification:Helvetica;writing-mode:lr-tb;fill:#ffffff;fill-opacity:1;fill-rule:nonzero;stroke:#ffffff;stroke-opacity:1"
         id="text1034"><tspan
           x="0 5.5599999 11.12 16.68"
           y="0"
           sodipodi:role="line"
           id="tspan1032">1960</tspan></text>
      <text
         xml:space="preserve"
         transform="matrix(1,0,0,-1,216.73,20.74)"
         style="font-variant:normal;font-weight:normal;font-size:10px;font-family:Helvetica;-inkscape-font-specification:Helvetica;writing-mode:lr-tb;fill:#ffffff;fill-opacity:1;fill-rule:nonzero;stroke:#ffffff;stroke-opacity:1"
         id="text1038"><tspan
           x="0 5.5599999 11.12 16.68"
           y="0"
           sodipodi:role="line"
           id="tspan1036">1980</tspan></text>
      <text
         xml:space="preserve"
         transform="matrix(1,0,0,-1,327.29,20.74)"
         style="font-variant:normal;font-weight:normal;font-size:10px;font-family:Helvetica;-inkscape-font-specification:Helvetica;writing-mode:lr-tb;fill:#ffffff;fill-opacity:1;fill-rule:nonzero;stroke:#ffffff;stroke-opacity:1"
         id="text1042"><tspan
           x="0 5.5599999 11.12 16.68"
           y="0"
           sodipodi:role="line"
           id="tspan1040">2000</tspan></text>
      <text
         xml:space="preserve"
         transform="matrix(1,0,0,-1,437.86,20.74)"
         style="font-variant:normal;font-weight:normal;font-size:10px;font-family:Helvetica;-inkscape-font-specification:Helvetica;writing-mode:lr-tb;fill:#ffffff;fill-opacity:1;fill-rule:nonzero;stroke:#ffffff;stroke-opacity:1"
         id="text1046"><tspan
           x="0 5.5599999 11.12 16.68"
           y="0"
           sodipodi:role="line"
           id="tspan1044">2020</tspan></text>
    </g>
    <g
       id="g1048" />
    <g
       id="g1050" />
    <g
       id="g1052" />
    <g
       id="g1054" />
    <g
       id="g1056" />
    <g
       id="g1058" />
    <g
       id="g1060" />
    <g
       id="g1062" />
    <g
       id="g1064" />
    <g
       id="g1066" />
    <g
       id="g1068" />
    <g
       id="g1070" />
    <g
       id="g1072"
       style="fill:#ffffff;fill-opacity:1;stroke:#ffffff;stroke-opacity:1">
      <path
         d="m 42.93,278.21 v 57.23"
         style="fill:#ffffff;stroke:#ffffff;stroke-width:1.07;stroke-linecap:butt;stroke-linejoin:round;stroke-miterlimit:10;stroke-dasharray:none;stroke-opacity:1;fill-opacity:1"
         id="path1074" />
    </g>
    <g
       id="g1076" />
    <g
       id="g1078" />
    <g
       id="g1080"
       style="stroke:#ffffff;stroke-opacity:1;fill:#ffffff;fill-opacity:1">
      <text
         xml:space="preserve"
         transform="matrix(1,0,0,-1,18.54,277.22)"
         style="font-variant:normal;font-weight:normal;font-size:10px;font-family:Helvetica;-inkscape-font-specification:Helvetica;writing-mode:lr-tb;fill:#ffffff;fill-opacity:1;fill-rule:nonzero;stroke:#ffffff;stroke-opacity:1"
         id="text1084"><tspan
           x="0 5.5599999 8.3400002 13.9"
           y="0"
           sodipodi:role="line"
           id="tspan1082">0.00</tspan></text>
      <text
         xml:space="preserve"
         transform="matrix(1,0,0,-1,18.54,290.42)"
         style="font-variant:normal;font-weight:normal;font-size:10px;font-family:Helvetica;-inkscape-font-specification:Helvetica;writing-mode:lr-tb;fill:#ffffff;fill-opacity:1;fill-rule:nonzero;stroke:#ffffff;stroke-opacity:1"
         id="text1088"><tspan
           x="0 5.5599999 8.3400002 13.9"
           y="0"
           sodipodi:role="line"
           id="tspan1086">0.25</tspan></text>
      <text
         xml:space="preserve"
         transform="matrix(1,0,0,-1,18.54,303.62)"
         style="font-variant:normal;font-weight:normal;font-size:10px;font-family:Helvetica;-inkscape-font-specification:Helvetica;writing-mode:lr-tb;fill:#ffffff;fill-opacity:1;fill-rule:nonzero;stroke:#ffffff;stroke-opacity:1"
         id="text1092"><tspan
           x="0 5.5599999 8.3400002 13.9"
           y="0"
           sodipodi:role="line"
           id="tspan1090">0.50</tspan></text>
      <text
         xml:space="preserve"
         transform="matrix(1,0,0,-1,18.54,316.82)"
         style="font-variant:normal;font-weight:normal;font-size:10px;font-family:Helvetica;-inkscape-font-specification:Helvetica;writing-mode:lr-tb;fill:#ffffff;fill-opacity:1;fill-rule:nonzero;stroke:#ffffff;stroke-opacity:1"
         id="text1096"><tspan
           x="0 5.5599999 8.3400002 13.9"
           y="0"
           sodipodi:role="line"
           id="tspan1094">0.75</tspan></text>
      <text
         xml:space="preserve"
         transform="matrix(1,0,0,-1,18.54,330.02)"
         style="font-variant:normal;font-weight:normal;font-size:10px;font-family:Helvetica;-inkscape-font-specification:Helvetica;writing-mode:lr-tb;fill:#ffffff;fill-opacity:1;fill-rule:nonzero;stroke:#ffffff;stroke-opacity:1"
         id="text1100"><tspan
           x="0 5.5599999 8.3400002 13.9"
           y="0"
           sodipodi:role="line"
           id="tspan1098">1.00</tspan></text>
    </g>
    <g
       id="g1102" />
    <g
       id="g1104" />
    <g
       id="g1106"
       style="fill:#ffffff;fill-opacity:1;stroke:#ffffff;stroke-opacity:1">
      <path
         d="m 40.19,280.81 h 2.74"
         style="fill:#ffffff;stroke:#ffffff;stroke-width:1.07;stroke-linecap:butt;stroke-linejoin:round;stroke-miterlimit:10;stroke-dasharray:none;stroke-opacity:1;fill-opacity:1"
         id="path1108" />
      <path
         d="m 40.19,294.01 h 2.74"
         style="fill:#ffffff;stroke:#ffffff;stroke-width:1.07;stroke-linecap:butt;stroke-linejoin:round;stroke-miterlimit:10;stroke-dasharray:none;stroke-opacity:1;fill-opacity:1"
         id="path1110" />
      <path
         d="m 40.19,307.21 h 2.74"
         style="fill:#ffffff;stroke:#ffffff;stroke-width:1.07;stroke-linecap:butt;stroke-linejoin:round;stroke-miterlimit:10;stroke-dasharray:none;stroke-opacity:1;fill-opacity:1"
         id="path1112" />
      <path
         d="m 40.19,320.41 h 2.74"
         style="fill:#ffffff;stroke:#ffffff;stroke-width:1.07;stroke-linecap:butt;stroke-linejoin:round;stroke-miterlimit:10;stroke-dasharray:none;stroke-opacity:1;fill-opacity:1"
         id="path1114" />
      <path
         d="m 40.19,333.61 h 2.74"
         style="fill:#ffffff;stroke:#ffffff;stroke-width:1.07;stroke-linecap:butt;stroke-linejoin:round;stroke-miterlimit:10;stroke-dasharray:none;stroke-opacity:1;fill-opacity:1"
         id="path1116" />
    </g>
    <g
       id="g1118" />
    <g
       id="g1120" />
    <g
       id="g1122" />
    <g
       id="g1124" />
    <g
       id="g1126" />
    <g
       id="g1128"
       style="fill:#ffffff;fill-opacity:1;stroke:#ffffff;stroke-opacity:1">
      <path
         d="m 42.93,196.42 v 57.23"
         style="fill:#ffffff;stroke:#ffffff;stroke-width:1.07;stroke-linecap:butt;stroke-linejoin:round;stroke-miterlimit:10;stroke-dasharray:none;stroke-opacity:1;fill-opacity:1"
         id="path1130" />
    </g>
    <g
       id="g1132" />
    <g
       id="g1134" />
    <g
       id="g1136"
       style="stroke:#ffffff;stroke-opacity:1;fill:#ffffff;fill-opacity:1">
      <text
         xml:space="preserve"
         transform="matrix(1,0,0,-1,18.54,195.44)"
         style="font-variant:normal;font-weight:normal;font-size:10px;font-family:Helvetica;-inkscape-font-specification:Helvetica;writing-mode:lr-tb;fill:#ffffff;fill-opacity:1;fill-rule:nonzero;stroke:#ffffff;stroke-opacity:1"
         id="text1140"><tspan
           x="0 5.5599999 8.3400002 13.9"
           y="0"
           sodipodi:role="line"
           id="tspan1138">0.00</tspan></text>
      <text
         xml:space="preserve"
         transform="matrix(1,0,0,-1,18.54,209.42)"
         style="font-variant:normal;font-weight:normal;font-size:10px;font-family:Helvetica;-inkscape-font-specification:Helvetica;writing-mode:lr-tb;fill:#ffffff;fill-opacity:1;fill-rule:nonzero;stroke:#ffffff;stroke-opacity:1"
         id="text1144"><tspan
           x="0 5.5599999 8.3400002 13.9"
           y="0"
           sodipodi:role="line"
           id="tspan1142">0.25</tspan></text>
      <text
         xml:space="preserve"
         transform="matrix(1,0,0,-1,18.54,223.4)"
         style="font-variant:normal;font-weight:normal;font-size:10px;font-family:Helvetica;-inkscape-font-specification:Helvetica;writing-mode:lr-tb;fill:#ffffff;fill-opacity:1;fill-rule:nonzero;stroke:#ffffff;stroke-opacity:1"
         id="text1148"><tspan
           x="0 5.5599999 8.3400002 13.9"
           y="0"
           sodipodi:role="line"
           id="tspan1146">0.50</tspan></text>
      <text
         xml:space="preserve"
         transform="matrix(1,0,0,-1,18.54,237.38)"
         style="font-variant:normal;font-weight:normal;font-size:10px;font-family:Helvetica;-inkscape-font-specification:Helvetica;writing-mode:lr-tb;fill:#ffffff;fill-opacity:1;fill-rule:nonzero;stroke:#ffffff;stroke-opacity:1"
         id="text1152"><tspan
           x="0 5.5599999 8.3400002 13.9"
           y="0"
           sodipodi:role="line"
           id="tspan1150">0.75</tspan></text>
    </g>
    <g
       id="g1154" />
    <g
       id="g1156" />
    <g
       id="g1158"
       style="fill:#ffffff;fill-opacity:1;stroke:#ffffff;stroke-opacity:1">
      <path
         d="m 40.19,199.03 h 2.74"
         style="fill:#ffffff;stroke:#ffffff;stroke-width:1.07;stroke-linecap:butt;stroke-linejoin:round;stroke-miterlimit:10;stroke-dasharray:none;stroke-opacity:1;fill-opacity:1"
         id="path1160" />
      <path
         d="m 40.19,213.01 h 2.74"
         style="fill:#ffffff;stroke:#ffffff;stroke-width:1.07;stroke-linecap:butt;stroke-linejoin:round;stroke-miterlimit:10;stroke-dasharray:none;stroke-opacity:1;fill-opacity:1"
         id="path1162" />
      <path
         d="m 40.19,226.99 h 2.74"
         style="fill:#ffffff;stroke:#ffffff;stroke-width:1.07;stroke-linecap:butt;stroke-linejoin:round;stroke-miterlimit:10;stroke-dasharray:none;stroke-opacity:1;fill-opacity:1"
         id="path1164" />
      <path
         d="m 40.19,240.97 h 2.74"
         style="fill:#ffffff;stroke:#ffffff;stroke-width:1.07;stroke-linecap:butt;stroke-linejoin:round;stroke-miterlimit:10;stroke-dasharray:none;stroke-opacity:1;fill-opacity:1"
         id="path1166" />
    </g>
    <g
       id="g1168" />
    <g
       id="g1170" />
    <g
       id="g1172" />
    <g
       id="g1174" />
    <g
       id="g1176" />
    <g
       id="g1178"
       style="fill:#ffffff;fill-opacity:1;stroke:#ffffff;stroke-opacity:1">
      <path
         d="m 42.93,114.64 v 57.22"
         style="fill:#ffffff;stroke:#ffffff;stroke-width:1.07;stroke-linecap:butt;stroke-linejoin:round;stroke-miterlimit:10;stroke-dasharray:none;stroke-opacity:1;fill-opacity:1"
         id="path1180" />
    </g>
    <g
       id="g1182" />
    <g
       id="g1184" />
    <g
       id="g1186"
       style="stroke:#ffffff;stroke-opacity:1;fill:#ffffff;fill-opacity:1">
      <text
         xml:space="preserve"
         transform="matrix(1,0,0,-1,18.54,113.65)"
         style="font-variant:normal;font-weight:normal;font-size:10px;font-family:Helvetica;-inkscape-font-specification:Helvetica;writing-mode:lr-tb;fill:#ffffff;fill-opacity:1;fill-rule:nonzero;stroke:#ffffff;stroke-opacity:1"
         id="text1190"><tspan
           x="0 5.5599999 8.3400002 13.9"
           y="0"
           sodipodi:role="line"
           id="tspan1188">0.00</tspan></text>
      <text
         xml:space="preserve"
         transform="matrix(1,0,0,-1,18.54,127.49)"
         style="font-variant:normal;font-weight:normal;font-size:10px;font-family:Helvetica;-inkscape-font-specification:Helvetica;writing-mode:lr-tb;fill:#ffffff;fill-opacity:1;fill-rule:nonzero;stroke:#ffffff;stroke-opacity:1"
         id="text1194"><tspan
           x="0 5.5599999 8.3400002 13.9"
           y="0"
           sodipodi:role="line"
           id="tspan1192">0.25</tspan></text>
      <text
         xml:space="preserve"
         transform="matrix(1,0,0,-1,18.54,141.33)"
         style="font-variant:normal;font-weight:normal;font-size:10px;font-family:Helvetica;-inkscape-font-specification:Helvetica;writing-mode:lr-tb;fill:#ffffff;fill-opacity:1;fill-rule:nonzero;stroke:#ffffff;stroke-opacity:1"
         id="text1198"><tspan
           x="0 5.5599999 8.3400002 13.9"
           y="0"
           sodipodi:role="line"
           id="tspan1196">0.50</tspan></text>
      <text
         xml:space="preserve"
         transform="matrix(1,0,0,-1,18.54,155.18)"
         style="font-variant:normal;font-weight:normal;font-size:10px;font-family:Helvetica;-inkscape-font-specification:Helvetica;writing-mode:lr-tb;fill:#ffffff;fill-opacity:1;fill-rule:nonzero;stroke:#ffffff;stroke-opacity:1"
         id="text1202"><tspan
           x="0 5.5599999 8.3400002 13.9"
           y="0"
           sodipodi:role="line"
           id="tspan1200">0.75</tspan></text>
    </g>
    <g
       id="g1204" />
    <g
       id="g1206" />
    <g
       id="g1208"
       style="fill:#ffffff;fill-opacity:1;stroke:#ffffff;stroke-opacity:1">
      <path
         d="m 40.19,117.24 h 2.74"
         style="fill:#ffffff;stroke:#ffffff;stroke-width:1.07;stroke-linecap:butt;stroke-linejoin:round;stroke-miterlimit:10;stroke-dasharray:none;stroke-opacity:1;fill-opacity:1"
         id="path1210" />
      <path
         d="m 40.19,131.08 h 2.74"
         style="fill:#ffffff;stroke:#ffffff;stroke-width:1.07;stroke-linecap:butt;stroke-linejoin:round;stroke-miterlimit:10;stroke-dasharray:none;stroke-opacity:1;fill-opacity:1"
         id="path1212" />
      <path
         d="m 40.19,144.92 h 2.74"
         style="fill:#ffffff;stroke:#ffffff;stroke-width:1.07;stroke-linecap:butt;stroke-linejoin:round;stroke-miterlimit:10;stroke-dasharray:none;stroke-opacity:1;fill-opacity:1"
         id="path1214" />
      <path
         d="m 40.19,158.77 h 2.74"
         style="fill:#ffffff;stroke:#ffffff;stroke-width:1.07;stroke-linecap:butt;stroke-linejoin:round;stroke-miterlimit:10;stroke-dasharray:none;stroke-opacity:1;fill-opacity:1"
         id="path1216" />
    </g>
    <g
       id="g1218" />
    <g
       id="g1220" />
    <g
       id="g1222" />
    <g
       id="g1224" />
    <g
       id="g1226" />
    <g
       id="g1228"
       style="fill:#ffffff;fill-opacity:1;stroke:#ffffff;stroke-opacity:1">
      <path
         d="M 42.93,32.85 V 90.07"
         style="fill:#ffffff;stroke:#ffffff;stroke-width:1.07;stroke-linecap:butt;stroke-linejoin:round;stroke-miterlimit:10;stroke-dasharray:none;stroke-opacity:1;fill-opacity:1"
         id="path1230" />
    </g>
    <g
       id="g1232" />
    <g
       id="g1234" />
    <g
       id="g1236"
       style="stroke:#ffffff;stroke-opacity:1;fill:#ffffff;fill-opacity:1">
      <text
         xml:space="preserve"
         transform="matrix(1,0,0,-1,24.1,31.86)"
         style="font-variant:normal;font-weight:normal;font-size:10px;font-family:Helvetica;-inkscape-font-specification:Helvetica;writing-mode:lr-tb;fill:#ffffff;fill-opacity:1;fill-rule:nonzero;stroke:#ffffff;stroke-opacity:1"
         id="text1240"><tspan
           x="0 5.5599999 8.3400002"
           y="0"
           sodipodi:role="line"
           id="tspan1238">0.0</tspan></text>
      <text
         xml:space="preserve"
         transform="matrix(1,0,0,-1,24.1,42.02)"
         style="font-variant:normal;font-weight:normal;font-size:10px;font-family:Helvetica;-inkscape-font-specification:Helvetica;writing-mode:lr-tb;fill:#ffffff;fill-opacity:1;fill-rule:nonzero;stroke:#ffffff;stroke-opacity:1"
         id="text1244"><tspan
           x="0 5.5599999 8.3400002"
           y="0"
           sodipodi:role="line"
           id="tspan1242">0.1</tspan></text>
      <text
         xml:space="preserve"
         transform="matrix(1,0,0,-1,24.1,52.19)"
         style="font-variant:normal;font-weight:normal;font-size:10px;font-family:Helvetica;-inkscape-font-specification:Helvetica;writing-mode:lr-tb;fill:#ffffff;fill-opacity:1;fill-rule:nonzero;stroke:#ffffff;stroke-opacity:1"
         id="text1248"><tspan
           x="0 5.5599999 8.3400002"
           y="0"
           sodipodi:role="line"
           id="tspan1246">0.2</tspan></text>
      <text
         xml:space="preserve"
         transform="matrix(1,0,0,-1,24.1,62.35)"
         style="font-variant:normal;font-weight:normal;font-size:10px;font-family:Helvetica;-inkscape-font-specification:Helvetica;writing-mode:lr-tb;fill:#ffffff;fill-opacity:1;fill-rule:nonzero;stroke:#ffffff;stroke-opacity:1"
         id="text1252"><tspan
           x="0 5.5599999 8.3400002"
           y="0"
           sodipodi:role="line"
           id="tspan1250">0.3</tspan></text>
      <text
         xml:space="preserve"
         transform="matrix(1,0,0,-1,24.1,72.52)"
         style="font-variant:normal;font-weight:normal;font-size:10px;font-family:Helvetica;-inkscape-font-specification:Helvetica;writing-mode:lr-tb;fill:#ffffff;fill-opacity:1;fill-rule:nonzero;stroke:#ffffff;stroke-opacity:1"
         id="text1256"><tspan
           x="0 5.5599999 8.3400002"
           y="0"
           sodipodi:role="line"
           id="tspan1254">0.4</tspan></text>
      <text
         xml:space="preserve"
         transform="matrix(1,0,0,-1,24.1,82.68)"
         style="font-variant:normal;font-weight:normal;font-size:10px;font-family:Helvetica;-inkscape-font-specification:Helvetica;writing-mode:lr-tb;fill:#ffffff;fill-opacity:1;fill-rule:nonzero;stroke:#ffffff;stroke-opacity:1"
         id="text1260"><tspan
           x="0 5.5599999 8.3400002"
           y="0"
           sodipodi:role="line"
           id="tspan1258">0.5</tspan></text>
    </g>
    <g
       id="g1262" />
    <g
       id="g1264" />
    <g
       id="g1266"
       style="fill:#ffffff;fill-opacity:1;stroke:#ffffff;stroke-opacity:1">
      <path
         d="m 40.19,35.45 h 2.74"
         style="fill:#ffffff;stroke:#ffffff;stroke-width:1.07;stroke-linecap:butt;stroke-linejoin:round;stroke-miterlimit:10;stroke-dasharray:none;stroke-opacity:1;fill-opacity:1"
         id="path1268" />
      <path
         d="m 40.19,45.61 h 2.74"
         style="fill:#ffffff;stroke:#ffffff;stroke-width:1.07;stroke-linecap:butt;stroke-linejoin:round;stroke-miterlimit:10;stroke-dasharray:none;stroke-opacity:1;fill-opacity:1"
         id="path1270" />
      <path
         d="m 40.19,55.78 h 2.74"
         style="fill:#ffffff;stroke:#ffffff;stroke-width:1.07;stroke-linecap:butt;stroke-linejoin:round;stroke-miterlimit:10;stroke-dasharray:none;stroke-opacity:1;fill-opacity:1"
         id="path1272" />
      <path
         d="m 40.19,65.94 h 2.74"
         style="fill:#ffffff;stroke:#ffffff;stroke-width:1.07;stroke-linecap:butt;stroke-linejoin:round;stroke-miterlimit:10;stroke-dasharray:none;stroke-opacity:1;fill-opacity:1"
         id="path1274" />
      <path
         d="m 40.19,76.11 h 2.74"
         style="fill:#ffffff;stroke:#ffffff;stroke-width:1.07;stroke-linecap:butt;stroke-linejoin:round;stroke-miterlimit:10;stroke-dasharray:none;stroke-opacity:1;fill-opacity:1"
         id="path1276" />
      <path
         d="m 40.19,86.27 h 2.74"
         style="fill:#ffffff;stroke:#ffffff;stroke-width:1.07;stroke-linecap:butt;stroke-linejoin:round;stroke-miterlimit:10;stroke-dasharray:none;stroke-opacity:1;fill-opacity:1"
         id="path1278" />
    </g>
    <g
       id="g1280" />
    <g
       id="g1282" />
    <g
       id="g1284" />
    <g
       id="g1286" />
    <g
       id="g1288" />
    <g
       id="g1290" />
    <g
       id="g1292" />
    <g
       id="g1294" />
    <g
       id="g1296" />
    <g
       id="g1298" />
    <g
       id="g1300" />
    <g
       id="g1302" />
    <g
       id="g1304" />
    <g
       id="g1306" />
    <g
       id="g1308"
       style="stroke:#ffffff;stroke-opacity:1;fill:#ffffff;fill-opacity:1">
      <text
         xml:space="preserve"
         transform="matrix(1,0,0,-1,241.24,7.9)"
         style="font-variant:normal;font-weight:bold;font-size:11px;font-family:Helvetica;-inkscape-font-specification:Helvetica-Bold;writing-mode:lr-tb;fill:#ffffff;fill-opacity:1;fill-rule:nonzero;stroke:#ffffff;stroke-opacity:1"
         id="text1312"><tspan
           x="0 6.4569998 12.573 18.688999"
           y="0"
           sodipodi:role="line"
           id="tspan1310">Year</tspan></text>
    </g>
    <g
       id="g1314" />
    <g
       id="g1316" />
    <g
       id="g1318"
       style="stroke:#ffffff;stroke-opacity:1;fill:#ffffff;fill-opacity:1">
      <text
         xml:space="preserve"
         transform="matrix(0,1,1,0,13.38,100.18)"
         style="font-variant:normal;font-weight:bold;font-size:11px;font-family:Helvetica;-inkscape-font-specification:Helvetica-Bold;writing-mode:lr-tb;fill:#ffffff;fill-opacity:1;fill-rule:nonzero;stroke:#ffffff;stroke-opacity:1"
         id="text1322"><tspan
           x="0 9.7790003 12.837 19.558001 23.221001 26.278999 32.395 38.511002 42.174 45.231998 48.290001 55.011002 61.126999 64.790001 71.511002 75.790001 81.905998 84.963997 88.022003 91.684998 94.742996 101.299 109.857 112.915 119.031 125.752 132.47301 138.589 145.31 155.089 161.205"
           y="0"
           sodipodi:role="line"
           id="tspan1320">% of est. natural flow consumed</tspan></text>
    </g>
    <g
       id="g1324" />
    <g
       id="g1326" />
    <g
       id="g1328" />
    <g
       id="g1330" />
    <g
       id="g1332" />
    <g
       id="g1334" />
    <g
       id="g1336" />
    <g
       id="g1338" />
    <g
       id="g1340" />
    <g
       id="g1342" />
    <g
       id="g1344" />
    <g
       id="g1346" />
    <g
       id="g1348" />
  </g>
</svg>
