<?xml version="1.0" encoding="UTF-8" standalone="no"?>
<!-- Created with Inkscape (http://www.inkscape.org/) -->

<svg
   version="1.1"
   id="svg6431"
   width="624"
   height="576"
   viewBox="0 0 624 576"
   sodipodi:docname="cu_stack_orang.svg"
   inkscape:version="1.2.1 (9c6d41e, 2022-07-14)"
   xmlns:inkscape="http://www.inkscape.org/namespaces/inkscape"
   xmlns:sodipodi="http://sodipodi.sourceforge.net/DTD/sodipodi-0.dtd"
   xmlns="http://www.w3.org/2000/svg"
   xmlns:svg="http://www.w3.org/2000/svg">
  <defs
     id="defs6435">
    <clipPath
       clipPathUnits="userSpaceOnUse"
       id="clipPath6481">
      <path
         d="M 0,0 H 468 V 432 H 0 Z"
         id="path6479" />
    </clipPath>
    <clipPath
       clipPathUnits="userSpaceOnUse"
       id="clipPath6557">
      <path
         d="m 42.93,108.07 h 419.59 v 19.09 H 42.93 Z"
         id="path6555" />
    </clipPath>
    <clipPath
       clipPathUnits="userSpaceOnUse"
       id="clipPath6579">
      <path
         d="m 42.93,108.07 h 419.59 v 19.09 H 42.93 Z"
         id="path6577" />
    </clipPath>
    <clipPath
       clipPathUnits="userSpaceOnUse"
       id="clipPath6587">
      <path
         d="m 42.93,108.07 h 419.59 v 19.09 H 42.93 Z"
         id="path6585" />
    </clipPath>
    <clipPath
       clipPathUnits="userSpaceOnUse"
       id="clipPath6595">
      <path
         d="m 42.93,108.07 h 419.59 v 19.09 H 42.93 Z"
         id="path6593" />
    </clipPath>
    <clipPath
       clipPathUnits="userSpaceOnUse"
       id="clipPath6605">
      <path
         d="m 42.93,207.86 h 419.59 v 19.09 H 42.93 Z"
         id="path6603" />
    </clipPath>
    <clipPath
       clipPathUnits="userSpaceOnUse"
       id="clipPath6627">
      <path
         d="m 42.93,207.86 h 419.59 v 19.09 H 42.93 Z"
         id="path6625" />
    </clipPath>
    <clipPath
       clipPathUnits="userSpaceOnUse"
       id="clipPath6635">
      <path
         d="m 42.93,207.86 h 419.59 v 19.09 H 42.93 Z"
         id="path6633" />
    </clipPath>
    <clipPath
       clipPathUnits="userSpaceOnUse"
       id="clipPath6643">
      <path
         d="m 42.93,207.86 h 419.59 v 19.09 H 42.93 Z"
         id="path6641" />
    </clipPath>
    <clipPath
       clipPathUnits="userSpaceOnUse"
       id="clipPath6653">
      <path
         d="m 42.93,307.65 h 419.59 v 19.09 H 42.93 Z"
         id="path6651" />
    </clipPath>
    <clipPath
       clipPathUnits="userSpaceOnUse"
       id="clipPath6675">
      <path
         d="m 42.93,307.65 h 419.59 v 19.09 H 42.93 Z"
         id="path6673" />
    </clipPath>
    <clipPath
       clipPathUnits="userSpaceOnUse"
       id="clipPath6683">
      <path
         d="m 42.93,307.65 h 419.59 v 19.09 H 42.93 Z"
         id="path6681" />
    </clipPath>
    <clipPath
       clipPathUnits="userSpaceOnUse"
       id="clipPath6691">
      <path
         d="m 42.93,307.65 h 419.59 v 19.09 H 42.93 Z"
         id="path6689" />
    </clipPath>
    <clipPath
       clipPathUnits="userSpaceOnUse"
       id="clipPath6701">
      <path
         d="m 42.93,407.44 h 419.59 v 19.09 H 42.93 Z"
         id="path6699" />
    </clipPath>
    <clipPath
       clipPathUnits="userSpaceOnUse"
       id="clipPath6723">
      <path
         d="m 42.93,407.44 h 419.59 v 19.09 H 42.93 Z"
         id="path6721" />
    </clipPath>
    <clipPath
       clipPathUnits="userSpaceOnUse"
       id="clipPath6731">
      <path
         d="m 42.93,407.44 h 419.59 v 19.09 H 42.93 Z"
         id="path6729" />
    </clipPath>
    <clipPath
       clipPathUnits="userSpaceOnUse"
       id="clipPath6739">
      <path
         d="m 42.93,407.44 h 419.59 v 19.09 H 42.93 Z"
         id="path6737" />
    </clipPath>
    <clipPath
       clipPathUnits="userSpaceOnUse"
       id="clipPath8318">
      <g
         id="g8322">
        <path
           d="m 42.93,332.21 h 419.59 v 75.22 H 42.93 Z"
           id="path8320" />
      </g>
    </clipPath>
    <clipPath
       clipPathUnits="userSpaceOnUse"
       id="clipPath8324">
      <g
         id="g8328">
        <path
           d="m 42.93,332.21 h 419.59 v 75.22 H 42.93 Z"
           id="path8326" />
      </g>
    </clipPath>
    <clipPath
       clipPathUnits="userSpaceOnUse"
       id="clipPath8330">
      <g
         id="g8334">
        <path
           d="m 42.93,332.21 h 419.59 v 75.22 H 42.93 Z"
           id="path8332" />
      </g>
    </clipPath>
    <clipPath
       clipPathUnits="userSpaceOnUse"
       id="clipPath8347">
      <g
         id="g8351">
        <path
           d="m 42.93,232.42 h 419.59 v 75.22 H 42.93 Z"
           id="path8349" />
      </g>
    </clipPath>
    <clipPath
       clipPathUnits="userSpaceOnUse"
       id="clipPath8353">
      <g
         id="g8357">
        <path
           d="m 42.93,232.42 h 419.59 v 75.22 H 42.93 Z"
           id="path8355" />
      </g>
    </clipPath>
    <clipPath
       clipPathUnits="userSpaceOnUse"
       id="clipPath8359">
      <g
         id="g8363">
        <path
           d="m 42.93,232.42 h 419.59 v 75.22 H 42.93 Z"
           id="path8361" />
      </g>
    </clipPath>
    <clipPath
       clipPathUnits="userSpaceOnUse"
       id="clipPath8372">
      <g
         id="g8376">
        <path
           d="m 42.93,132.64 h 419.59 v 75.22 H 42.93 Z"
           id="path8374" />
      </g>
    </clipPath>
    <clipPath
       clipPathUnits="userSpaceOnUse"
       id="clipPath8378">
      <g
         id="g8382">
        <path
           d="m 42.93,132.64 h 419.59 v 75.22 H 42.93 Z"
           id="path8380" />
      </g>
    </clipPath>
    <clipPath
       clipPathUnits="userSpaceOnUse"
       id="clipPath8384">
      <g
         id="g8388">
        <path
           d="m 42.93,132.64 h 419.59 v 75.22 H 42.93 Z"
           id="path8386" />
      </g>
    </clipPath>
    <clipPath
       clipPathUnits="userSpaceOnUse"
       id="clipPath8397">
      <g
         id="g8401">
        <path
           d="m 42.93,32.85 h 419.59 v 75.22 H 42.93 Z"
           id="path8399" />
      </g>
    </clipPath>
    <clipPath
       clipPathUnits="userSpaceOnUse"
       id="clipPath8403">
      <g
         id="g8407">
        <path
           d="m 42.93,32.85 h 419.59 v 75.22 H 42.93 Z"
           id="path8405" />
      </g>
    </clipPath>
    <clipPath
       clipPathUnits="userSpaceOnUse"
       id="clipPath8409">
      <g
         id="g8413">
        <path
           d="m 42.93,32.85 h 419.59 v 75.22 H 42.93 Z"
           id="path8411" />
      </g>
    </clipPath>
    <clipPath
       clipPathUnits="userSpaceOnUse"
       id="clipPath8426">
      <g
         id="g8430">
        <path
           d="m 42.93,108.07 h 419.59 v 19.09 H 42.93 Z"
           id="path8428" />
      </g>
    </clipPath>
    <clipPath
       clipPathUnits="userSpaceOnUse"
       id="clipPath8443">
      <g
         id="g8447">
        <path
           d="m 42.93,207.86 h 419.59 v 19.09 H 42.93 Z"
           id="path8445" />
      </g>
    </clipPath>
    <clipPath
       clipPathUnits="userSpaceOnUse"
       id="clipPath8460">
      <g
         id="g8464">
        <path
           d="m 42.93,307.65 h 419.59 v 19.09 H 42.93 Z"
           id="path8462" />
      </g>
    </clipPath>
    <clipPath
       clipPathUnits="userSpaceOnUse"
       id="clipPath8477">
      <g
         id="g8481">
        <path
           d="m 42.93,407.44 h 419.59 v 19.09 H 42.93 Z"
           id="path8479" />
      </g>
    </clipPath>
  </defs>
  <sodipodi:namedview
     id="namedview6433"
     pagecolor="#ffffff"
     bordercolor="#000000"
     borderopacity="0.25"
     inkscape:showpageshadow="2"
     inkscape:pageopacity="0.0"
     inkscape:pagecheckerboard="0"
     inkscape:deskcolor="#d1d1d1"
     showgrid="false"
     inkscape:zoom="1.1218958"
     inkscape:cx="235.31597"
     inkscape:cy="303.94979"
     inkscape:window-width="1419"
     inkscape:window-height="778"
     inkscape:window-x="0"
     inkscape:window-y="25"
     inkscape:window-maximized="0"
     inkscape:current-layer="g6439">
    <inkscape:page
       x="0"
       y="0"
       id="page6437"
       width="624"
       height="576"
       inkscape:export-filename="cu_stack_orange.png"
       inkscape:export-xdpi="96"
       inkscape:export-ydpi="96" />
  </sodipodi:namedview>
  <g
     id="g6439"
     inkscape:groupmode="layer"
     inkscape:label="Page 1"
     transform="matrix(1.3333333,0,0,-1.3333333,0,576)">
    <g
       id="g6445" />
    <g
       id="g6447" />
    <g
       id="g6449" />
    <g
       id="g6451" />
    <g
       id="g6453" />
    <g
       id="g6455" />
    <g
       id="g6457" />
    <g
       id="g6459" />
    <g
       id="g6461" />
    <g
       id="g6463" />
    <g
       id="g6465" />
    <g
       id="g6467" />
    <g
       id="g6469" />
    <g
       id="g6471" />
    <g
       id="g6473" />
    <g
       id="g6485" />
    <path
       d="m 62,404.02 5.53,-37.11 5.53,-22.51 5.53,13.47 5.52,5.31 5.53,-7.22 5.53,3.56 5.53,-15.74 5.53,0.68 5.53,20.04 5.52,-12.09 5.53,4.3 5.53,-3.58 5.53,8.46 5.53,-1.22 5.52,-12.67 5.53,5.48 5.53,11.32 5.53,-11.04 5.53,-1.81 5.53,0.11 5.52,-8.38 5.53,2.26 5.53,-7.31 5.53,21.28 5.53,-11.66 5.52,10.61 5.53,10.82 5.53,-20.39 5.53,-3.41 5.53,0.61 5.53,22.04 5.52,-16.9 5.53,-7.68 5.53,2.38 5.53,4.67 5.53,3.83 5.53,-4.69 5.52,13.44 5.53,4.11 5.53,8.93 5.53,-3.97 5.53,-13.48 5.52,-12.23 5.53,16.19 5.53,-9.26 5.53,20.54 5.53,-19.58 5.53,0.12 5.52,8.41 5.53,2.34 5.53,10.52 5.53,5.45 5.53,-3.85 5.52,-0.58 5.53,-16.74 5.53,13.64 5.53,-2.47 5.53,-8.81 5.53,7.84 5.52,1.54 5.53,-0.6 5.53,13.84 5.53,-5.1 5.53,-3.27 5.53,-0.18 5.52,-3.4 16.59,-7.63 v -29.97 h -16.59 -5.52 -5.53 -5.53 -5.53 -5.53 -5.53 -5.52 -5.53 -5.53 -5.53 -5.53 -5.53 -5.52 -5.53 -5.53 -5.53 -5.53 -5.52 -5.53 -5.53 -5.53 -5.53 -5.53 -5.52 -5.53 -5.53 -5.53 -5.53 -5.52 -5.53 -5.53 -5.53 -5.53 -5.53 -5.52 -5.53 -5.53 -5.53 -5.53 -5.53 -5.52 -5.53 -5.53 -5.53 -5.53 -5.52 -5.53 -5.53 -5.53 -5.53 -5.53 -5.52 -5.53 -5.53 -5.53 -5.53 -5.52 -5.53 H 100.7 95.17 89.64 84.11 78.59 73.06 67.53 62 Z"
       style="fill:#f05d22;fill-opacity:0.502;fill-rule:nonzero;stroke:none"
       id="path6497"
       clip-path="url(#clipPath8324)" />
    <path
       d="m 62,368.8 4.83,-1.43 4.83,-1.38 4.83,-1.32 4.82,-1.26 4.83,-1.21 4.83,-1.14 4.83,-1.08 4.83,-1.02 4.83,-0.95 4.83,-0.89 4.82,-0.83 4.83,-0.76 4.83,-0.7 4.83,-0.64 4.83,-0.58 4.83,-0.53 4.82,-0.47 4.83,-0.42 4.83,-0.36 4.83,-0.27 4.83,-0.19 4.83,-0.12 4.83,-0.06 h 4.82 l 4.83,0.03 4.83,0.07 4.83,0.08 4.83,0.11 4.83,0.1 4.82,0.15 4.83,0.19 4.83,0.24 4.83,0.27 4.83,0.31 4.83,0.34 4.83,0.36 4.82,0.38 4.83,0.4 4.83,0.46 4.83,0.54 4.83,0.6 4.83,0.66 4.82,0.68 4.83,0.71 4.83,0.71 4.83,0.7 4.83,0.68 4.83,0.64 4.82,0.63 4.83,0.69 4.83,0.71 4.83,0.74 4.83,0.74 4.83,0.73 4.83,0.71 4.82,0.66 4.83,0.62 4.83,0.56 4.83,0.56 4.83,0.56 4.83,0.55 4.82,0.54 4.83,0.52 4.83,0.51 4.83,0.48 4.83,0.47 4.83,0.44 4.83,0.41 4.82,0.38 4.83,0.37 4.83,0.34 4.83,0.32 4.83,0.3 4.83,0.28 4.82,0.27 4.83,0.24 4.83,0.23 4.83,0.22 4.83,0.2"
       style="fill:none;stroke:#f05d22;stroke-width:2.13;stroke-linecap:butt;stroke-linejoin:round;stroke-miterlimit:10;stroke-dasharray:8.54, 8.54;stroke-dashoffset:0;stroke-opacity:1"
       id="path6499"
       clip-path="url(#clipPath8318)" />
    <g
       id="g6501" />
    <path
       d="m 62,261.59 5.53,3.82 5.53,-9.87 5.53,12.93 5.52,11.22 5.53,-4.07 5.53,-1.38 5.53,-7.49 5.53,1.21 5.53,12.62 5.52,1.76 5.53,1.08 5.53,-16.73 5.53,13.76 5.53,-9.45 5.52,-15.33 5.53,15.99 5.53,-7.49 5.53,-1.65 5.53,0.93 5.53,25.34 5.52,-9.8 5.53,-2.21 5.53,-6.94 5.53,8.54 5.53,-2.85 5.52,7.44 5.53,7.3 5.53,-8.21 5.53,-11.45 5.53,10.93 5.53,-5.41 5.52,-16.94 5.53,-14.31 5.53,7.66 5.53,17.52 5.53,-4.25 5.53,3.79 5.52,15.22 5.53,11.71 5.53,3.24 5.53,-2.06 5.53,-0.95 5.52,-3.83 5.53,5.36 5.53,-22.14 5.53,14.07 5.53,-20.17 5.53,-6.26 5.52,2.21 5.53,26.27 5.53,0.88 5.53,8.24 5.53,2.84 5.52,-3.73 5.53,-27.87 5.53,13.43 5.53,11.83 5.53,-2.73 5.53,-4.92 5.52,2 5.53,-38.57 5.53,39.44 5.53,8.34 5.53,-4.64 5.53,-6.63 5.52,-2.35 16.59,-9.02 v -42.97 h -16.59 -5.52 -5.53 -5.53 -5.53 -5.53 -5.53 -5.52 -5.53 -5.53 -5.53 -5.53 -5.53 -5.52 -5.53 -5.53 -5.53 -5.53 -5.52 -5.53 -5.53 -5.53 -5.53 -5.53 -5.52 -5.53 -5.53 -5.53 -5.53 -5.52 -5.53 -5.53 -5.53 -5.53 -5.53 -5.52 -5.53 -5.53 -5.53 -5.53 -5.53 -5.52 -5.53 -5.53 -5.53 -5.53 -5.52 -5.53 -5.53 -5.53 -5.53 -5.53 -5.52 -5.53 -5.53 -5.53 -5.53 -5.52 -5.53 H 100.7 95.17 89.64 84.11 78.59 73.06 67.53 62 Z"
       style="fill:#f05d22;fill-opacity:0.502;fill-rule:nonzero;stroke:none"
       id="path6513"
       clip-path="url(#clipPath8353)" />
    <path
       d="m 62,267.36 4.83,0.42 4.83,0.42 4.83,0.4 4.82,0.39 4.83,0.37 4.83,0.35 4.83,0.34 4.83,0.32 4.83,0.29 4.83,0.27 4.82,0.24 4.83,0.21 4.83,0.2 4.83,0.18 4.83,0.17 4.83,0.17 4.82,0.16 4.83,0.17 4.83,0.15 4.83,0.04 4.83,-0.04 4.83,-0.11 4.83,-0.14 4.82,-0.16 4.83,-0.14 4.83,-0.09 4.83,-0.03 4.83,0.07 4.83,0.18 4.82,0.29 4.83,0.38 4.83,0.44 4.83,0.49 4.83,0.52 4.83,0.53 4.83,0.52 4.82,0.5 4.83,0.45 4.83,0.48 4.83,0.53 4.83,0.58 4.83,0.6 4.82,0.62 4.83,0.63 4.83,0.63 4.83,0.62 4.83,0.59 4.83,0.56 4.82,0.57 4.83,0.64 4.83,0.68 4.83,0.7 4.83,0.69 4.83,0.66 4.83,0.61 4.82,0.51 4.83,0.41 4.83,0.31 4.83,0.29 4.83,0.26 4.83,0.23 4.82,0.2 4.83,0.17 4.83,0.12 4.83,0.09 4.83,0.03 4.83,-0.01 4.83,-0.06 4.82,-0.1 4.83,-0.16 4.83,-0.19 4.83,-0.23 4.83,-0.28 4.83,-0.32 4.82,-0.35 4.83,-0.4 4.83,-0.43 4.83,-0.46 4.83,-0.51"
       style="fill:none;stroke:#f05d22;stroke-width:2.13;stroke-linecap:butt;stroke-linejoin:round;stroke-miterlimit:10;stroke-dasharray:8.54, 8.54;stroke-dashoffset:0;stroke-opacity:1"
       id="path6515"
       clip-path="url(#clipPath8347)" />
    <g
       id="g6517" />
    <g
       id="g6519">
      <path
         d="m 62,160.4 5.53,10.13 5.53,-21.88 5.53,11.55 5.52,3.06 5.53,-3.17 5.53,7.31 5.53,-21.94 5.53,5.28 5.53,22.75 5.52,-16.53 5.53,2 5.53,1.01 5.53,42.22 5.53,-28.53 5.52,-23.12 5.53,5.78 5.53,26.22 5.53,8.27 5.53,-32.96 5.53,0.68 5.52,5.37 5.53,7.32 5.53,-10.89 5.53,-9.69 5.53,17.4 5.52,2.59 5.53,-25.74 5.53,43.08 5.53,-31.7 5.53,10.88 5.53,-4.45 5.52,15.65 5.53,-14.21 5.53,-2.85 5.53,-11.11 5.53,6.07 5.53,-11.64 5.52,41.26 5.53,7.77 5.53,6.39 5.53,-11.53 5.53,-21.49 5.52,-3.24 5.53,0.37 5.53,0.6 5.53,-4.1 5.53,20.04 5.53,-18.02 5.52,7.5 5.53,-8.03 5.53,20.37 5.53,-45.29 5.53,55.58 5.52,11.65 5.53,-14.41 5.53,-9.31 5.53,-6.58 5.53,-11.58 5.53,24.09 5.52,8.71 5.53,-12.5 5.53,-11.11 5.53,28.53 5.53,3.88 5.53,-8.35 5.52,-28.98 16.59,27.2 v -57.97 h -16.59 -5.52 -5.53 -5.53 -5.53 -5.53 -5.53 -5.52 -5.53 -5.53 -5.53 -5.53 -5.53 -5.52 -5.53 -5.53 -5.53 -5.53 -5.52 -5.53 -5.53 -5.53 -5.53 -5.53 -5.52 -5.53 -5.53 -5.53 -5.53 -5.52 -5.53 -5.53 -5.53 -5.53 -5.53 -5.52 -5.53 -5.53 -5.53 -5.53 -5.53 -5.52 -5.53 -5.53 -5.53 -5.53 -5.52 -5.53 -5.53 -5.53 -5.53 -5.53 -5.52 -5.53 -5.53 -5.53 -5.53 -5.52 -5.53 H 100.7 95.17 89.64 84.11 78.59 73.06 67.53 62 Z"
         style="fill:#f05d22;fill-opacity:0.502;fill-rule:nonzero;stroke:none"
         id="path6529"
         clip-path="url(#clipPath8378)" />
      <path
         d="m 62,159.32 4.83,0.45 4.83,0.43 4.83,0.42 4.82,0.4 4.83,0.39 4.83,0.37 4.83,0.35 4.83,0.33 4.83,0.31 4.83,0.28 4.82,0.25 4.83,0.23 4.83,0.21 4.83,0.2 4.83,0.18 4.83,0.18 4.82,0.19 4.83,0.18 4.83,0.18 4.83,0.11 4.83,0.06 4.83,0.03 4.83,-0.01 4.82,-0.01 4.83,-0.02 4.83,-0.01 4.83,0.02 4.83,0.06 4.83,0.11 4.82,0.13 4.83,0.15 4.83,0.16 4.83,0.18 4.83,0.19 4.83,0.2 4.83,0.2 4.82,0.21 4.83,0.21 4.83,0.22 4.83,0.25 4.83,0.27 4.83,0.29 4.82,0.31 4.83,0.33 4.83,0.36 4.83,0.38 4.83,0.41 4.83,0.42 4.82,0.45 4.83,0.47 4.83,0.48 4.83,0.5 4.83,0.52 4.83,0.54 4.83,0.56 4.82,0.59 4.83,0.61 4.83,0.64 4.83,0.65 4.83,0.66 4.83,0.68 4.82,0.7 4.83,0.72 4.83,0.74 4.83,0.77 4.83,0.79 4.83,0.81 4.83,0.85 4.82,0.87 4.83,0.9 4.83,0.92 4.83,0.95 4.83,0.97 4.83,0.99 4.82,1.02 4.83,1.04 4.83,1.06 4.83,1.08 4.83,1.11"
         style="fill:none;stroke:#f05d22;stroke-width:2.13;stroke-linecap:butt;stroke-linejoin:round;stroke-miterlimit:10;stroke-dasharray:8.54, 8.54;stroke-dashoffset:0;stroke-opacity:1"
         id="path6531"
         clip-path="url(#clipPath8372)" />
    </g>
    <g
       id="g6533" />
    <g
       id="g6535">
      <path
         d="m 62,75.64 5.53,-6.66 5.53,-19.49 5.53,15.72 5.52,12.82 5.53,7.39 5.53,-4.4 5.53,-29.44 5.53,4.18 5.53,31.55 5.52,-11.69 5.53,-2.26 5.53,-10.44 5.53,14.68 5.53,-4.56 5.52,-18.39 5.53,29.56 5.53,-6.41 5.53,-6.05 5.53,-6.85 5.53,-0.02 5.52,17.63 5.53,4.49 5.53,-22.47 5.53,21.51 5.53,-14.89 5.52,17.13 5.53,0.55 5.53,-8.16 5.53,-3.07 5.53,-14.4 5.53,19.49 5.52,-10.56 5.53,-22.79 5.53,2.96 5.53,11.34 5.53,-4.5 5.53,17.32 5.52,10.5 5.53,5.83 5.53,2.64 5.53,-2.11 5.53,2.03 5.52,-8.62 5.53,11.01 5.53,-22.64 5.53,0.97 5.53,-11.5 5.53,2.9 5.52,4.54 5.53,17.5 5.53,2.34 5.53,4.43 5.53,8.37 5.52,-7.18 5.53,-29.19 5.53,9.58 5.53,23.5 5.53,-10.6 5.53,-1.91 5.52,2.54 5.53,-27.77 5.53,34.14 5.53,-3.2 5.53,-6.14 5.53,-2.44 5.52,6.5 16.59,-17.67 V 36.27 h -16.59 -5.52 -5.53 -5.53 -5.53 -5.53 -5.53 -5.52 -5.53 -5.53 -5.53 -5.53 -5.53 -5.52 -5.53 -5.53 -5.53 -5.53 -5.52 -5.53 -5.53 -5.53 -5.53 -5.53 -5.52 -5.53 -5.53 -5.53 -5.53 -5.52 -5.53 -5.53 -5.53 -5.53 -5.53 -5.52 -5.53 -5.53 -5.53 -5.53 -5.53 -5.52 -5.53 -5.53 -5.53 -5.53 -5.52 -5.53 -5.53 -5.53 -5.53 -5.53 -5.52 -5.53 -5.53 -5.53 -5.53 -5.52 -5.53 H 100.7 95.17 89.64 84.11 78.59 73.06 67.53 62 Z"
         style="fill:#f05d22;fill-opacity:0.502;fill-rule:nonzero;stroke:none"
         id="path6545"
         clip-path="url(#clipPath8403)" />
      <path
         d="m 62,68.09 4.83,0.34 4.83,0.33 4.83,0.33 4.82,0.32 4.83,0.31 4.83,0.31 4.83,0.29 4.83,0.28 4.83,0.27 4.83,0.25 4.82,0.24 4.83,0.22 4.83,0.21 4.83,0.2 4.83,0.2 4.83,0.19 4.82,0.19 4.83,0.19 4.83,0.18 4.83,0.13 4.83,0.09 4.83,0.05 4.83,0.04 4.82,0.02 4.83,0.04 4.83,0.05 4.83,0.08 4.83,0.12 4.83,0.17 4.82,0.19 4.83,0.2 4.83,0.22 4.83,0.22 4.83,0.24 4.83,0.25 4.83,0.27 4.82,0.27 4.83,0.29 4.83,0.32 4.83,0.36 4.83,0.38 4.83,0.41 4.82,0.43 4.83,0.45 4.83,0.45 4.83,0.47 4.83,0.46 4.83,0.45 4.82,0.5 4.83,0.57 4.83,0.63 4.83,0.67 4.83,0.66 4.83,0.64 4.83,0.59 4.82,0.51 4.83,0.41 4.83,0.32 4.83,0.3 4.83,0.28 4.83,0.26 4.82,0.24 4.83,0.22 4.83,0.18 4.83,0.14 4.83,0.11 4.83,0.06 4.83,0.02 4.82,-0.02 4.83,-0.06 4.83,-0.1 4.83,-0.13 4.83,-0.17 4.83,-0.2 4.82,-0.23 4.83,-0.27 4.83,-0.29 4.83,-0.33 4.83,-0.35"
         style="fill:none;stroke:#f05d22;stroke-width:2.13;stroke-linecap:butt;stroke-linejoin:round;stroke-miterlimit:10;stroke-dasharray:8.54, 8.54;stroke-dashoffset:0;stroke-opacity:1"
         id="path6547"
         clip-path="url(#clipPath8397)" />
    </g>
    <g
       id="g6549" />
    <g
       id="g6551">
      <g
         id="g6553"
         clip-path="url(#clipPath6557)" />
    </g>
    <path
       d="m 42.93,108.07 h 419.59 v 19.09 H 42.93 Z"
       style="fill:none;fill-opacity:1;fill-rule:nonzero;stroke:#ffffff;stroke-width:2.13;stroke-linecap:round;stroke-linejoin:round;stroke-miterlimit:10;stroke-dasharray:none;stroke-opacity:1"
       id="path6567"
       clip-path="url(#clipPath8426)" />
    <text
       xml:space="preserve"
       transform="scale(1,-1)"
       style="font-variant:normal;font-weight:bold;font-size:11px;font-family:Helvetica;-inkscape-font-specification:Helvetica-Bold;writing-mode:lr-tb;fill:#ffffff;fill-opacity:1;fill-rule:nonzero;stroke:#ffffff;stroke-opacity:1"
       id="text6571"
       x="177.83"
       y="-113.67"><tspan
         sodipodi:role="line"
         id="tspan6569"
         x="177.83"
         y="-113.67">San Rafael nr. Green River, UT</tspan></text>
    <g
       id="g6573">
      <g
         id="g6575"
         clip-path="url(#clipPath6579)" />
    </g>
    <g
       id="g6581">
      <g
         id="g6583"
         clip-path="url(#clipPath6587)" />
    </g>
    <g
       id="g6589">
      <g
         id="g6591"
         clip-path="url(#clipPath6595)" />
    </g>
    <g
       id="g6597" />
    <g
       id="g6599">
      <g
         id="g6601"
         clip-path="url(#clipPath6605)" />
    </g>
    <path
       d="m 42.93,207.86 h 419.59 v 19.09 H 42.93 Z"
       style="fill:none;fill-opacity:1;fill-rule:nonzero;stroke:#ffffff;stroke-width:2.13;stroke-linecap:round;stroke-linejoin:round;stroke-miterlimit:10;stroke-dasharray:none;stroke-opacity:1"
       id="path6615"
       clip-path="url(#clipPath8443)" />
    <text
       xml:space="preserve"
       transform="scale(1,-1)"
       style="font-variant:normal;font-weight:bold;font-size:11px;font-family:Helvetica;-inkscape-font-specification:Helvetica-Bold;writing-mode:lr-tb;fill:#ffffff;fill-opacity:1;fill-rule:nonzero;stroke:#ffffff;stroke-opacity:1"
       id="text6619"
       x="199.28999"
       y="-213.45"><tspan
         sodipodi:role="line"
         id="tspan6617"
         x="199.28999"
         y="-213.45">San Juan nr. Bluff, UT</tspan></text>
    <g
       id="g6621">
      <g
         id="g6623"
         clip-path="url(#clipPath6627)" />
    </g>
    <g
       id="g6629">
      <g
         id="g6631"
         clip-path="url(#clipPath6635)" />
    </g>
    <g
       id="g6637">
      <g
         id="g6639"
         clip-path="url(#clipPath6643)" />
    </g>
    <g
       id="g6645" />
    <g
       id="g6647">
      <g
         id="g6649"
         clip-path="url(#clipPath6653)" />
    </g>
    <path
       d="m 42.93,307.65 h 419.59 v 19.09 H 42.93 Z"
       style="fill:none;fill-opacity:1;fill-rule:nonzero;stroke:#ffffff;stroke-width:2.13;stroke-linecap:round;stroke-linejoin:round;stroke-miterlimit:10;stroke-dasharray:none;stroke-opacity:1"
       id="path6663"
       clip-path="url(#clipPath8460)" />
    <text
       xml:space="preserve"
       transform="scale(1,-1)"
       style="font-variant:normal;font-weight:bold;font-size:11px;font-family:Helvetica;-inkscape-font-specification:Helvetica-Bold;writing-mode:lr-tb;fill:#ffffff;fill-opacity:1;fill-rule:nonzero;stroke:#ffffff;stroke-opacity:1"
       id="text6667"
       x="189.21001"
       y="-313.23999"><tspan
         sodipodi:role="line"
         id="tspan6665"
         x="189.21001"
         y="-313.23999">Duchesne nr. Randlett, UT</tspan></text>
    <g
       id="g6669">
      <g
         id="g6671"
         clip-path="url(#clipPath6675)" />
    </g>
    <g
       id="g6677">
      <g
         id="g6679"
         clip-path="url(#clipPath6683)" />
    </g>
    <g
       id="g6685">
      <g
         id="g6687"
         clip-path="url(#clipPath6691)" />
    </g>
    <g
       id="g6693" />
    <g
       id="g6695">
      <g
         id="g6697"
         clip-path="url(#clipPath6701)" />
    </g>
    <path
       d="m 42.93,407.44 h 419.59 v 19.09 H 42.93 Z"
       style="fill:none;fill-opacity:1;fill-rule:nonzero;stroke:#ffffff;stroke-width:2.13;stroke-linecap:round;stroke-linejoin:round;stroke-miterlimit:10;stroke-dasharray:none;stroke-opacity:1"
       id="path6711"
       clip-path="url(#clipPath8477)" />
    <text
       xml:space="preserve"
       transform="scale(1,-1)"
       style="font-variant:normal;font-weight:bold;font-size:11px;font-family:Helvetica;-inkscape-font-specification:Helvetica-Bold;writing-mode:lr-tb;fill:#ffffff;fill-opacity:1;fill-rule:nonzero;stroke:#ffffff;stroke-opacity:1"
       id="text6715"
       x="201.06"
       y="-413.03"><tspan
         sodipodi:role="line"
         id="tspan6713"
         x="201.06"
         y="-413.03">Dolores nr. Cisco, UT</tspan></text>
    <g
       id="g6717">
      <g
         id="g6719"
         clip-path="url(#clipPath6723)" />
    </g>
    <g
       id="g6725">
      <g
         id="g6727"
         clip-path="url(#clipPath6731)" />
    </g>
    <g
       id="g6733">
      <g
         id="g6735"
         clip-path="url(#clipPath6739)" />
    </g>
    <g
       id="g6741" />
    <g
       id="g6743" />
    <g
       id="g6745" />
    <g
       id="g6747" />
    <g
       id="g6749" />
    <g
       id="g6751" />
    <g
       id="g6753" />
    <g
       id="g6755" />
    <g
       id="g6757" />
    <g
       id="g6759" />
    <g
       id="g6761"
       style="stroke:#ffffff;stroke-opacity:1">
      <path
         d="M 42.93,32.85 H 462.52"
         style="fill:none;stroke:#ffffff;stroke-width:1.07;stroke-linecap:butt;stroke-linejoin:round;stroke-miterlimit:10;stroke-dasharray:none;stroke-opacity:1"
         id="path6763" />
    </g>
    <g
       id="g6765" />
    <g
       id="g6767" />
    <g
       id="g6769"
       style="stroke:#ffffff;stroke-opacity:1">
      <path
         d="m 117.28,30.11 v 2.74"
         style="fill:none;stroke:#ffffff;stroke-width:1.07;stroke-linecap:butt;stroke-linejoin:round;stroke-miterlimit:10;stroke-dasharray:none;stroke-opacity:1"
         id="path6771" />
      <path
         d="m 227.85,30.11 v 2.74"
         style="fill:none;stroke:#ffffff;stroke-width:1.07;stroke-linecap:butt;stroke-linejoin:round;stroke-miterlimit:10;stroke-dasharray:none;stroke-opacity:1"
         id="path6773" />
      <path
         d="m 338.41,30.11 v 2.74"
         style="fill:none;stroke:#ffffff;stroke-width:1.07;stroke-linecap:butt;stroke-linejoin:round;stroke-miterlimit:10;stroke-dasharray:none;stroke-opacity:1"
         id="path6775" />
      <path
         d="m 448.98,30.11 v 2.74"
         style="fill:none;stroke:#ffffff;stroke-width:1.07;stroke-linecap:butt;stroke-linejoin:round;stroke-miterlimit:10;stroke-dasharray:none;stroke-opacity:1"
         id="path6777" />
    </g>
    <g
       id="g6779" />
    <g
       id="g6781"
       style="stroke:#ffffff;stroke-opacity:1">
      <text
         xml:space="preserve"
         transform="matrix(1,0,0,-1,106.16,20.74)"
         style="font-variant:normal;font-weight:normal;font-size:10px;font-family:Helvetica;-inkscape-font-specification:Helvetica;writing-mode:lr-tb;fill:#4d4d4d;fill-opacity:1;fill-rule:nonzero;stroke:#ffffff;stroke-opacity:1"
         id="text6785"><tspan
           x="0 5.5599999 11.12 16.68"
           y="0"
           sodipodi:role="line"
           id="tspan6783">1960</tspan></text>
      <text
         xml:space="preserve"
         transform="matrix(1,0,0,-1,216.73,20.74)"
         style="font-variant:normal;font-weight:normal;font-size:10px;font-family:Helvetica;-inkscape-font-specification:Helvetica;writing-mode:lr-tb;fill:#4d4d4d;fill-opacity:1;fill-rule:nonzero;stroke:#ffffff;stroke-opacity:1"
         id="text6789"><tspan
           x="0 5.5599999 11.12 16.68"
           y="0"
           sodipodi:role="line"
           id="tspan6787">1980</tspan></text>
      <text
         xml:space="preserve"
         transform="matrix(1,0,0,-1,327.29,20.74)"
         style="font-variant:normal;font-weight:normal;font-size:10px;font-family:Helvetica;-inkscape-font-specification:Helvetica;writing-mode:lr-tb;fill:#4d4d4d;fill-opacity:1;fill-rule:nonzero;stroke:#ffffff;stroke-opacity:1"
         id="text6793"><tspan
           x="0 5.5599999 11.12 16.68"
           y="0"
           sodipodi:role="line"
           id="tspan6791">2000</tspan></text>
      <text
         xml:space="preserve"
         transform="matrix(1,0,0,-1,437.86,20.74)"
         style="font-variant:normal;font-weight:normal;font-size:10px;font-family:Helvetica;-inkscape-font-specification:Helvetica;writing-mode:lr-tb;fill:#4d4d4d;fill-opacity:1;fill-rule:nonzero;stroke:#ffffff;stroke-opacity:1"
         id="text6797"><tspan
           x="0 5.5599999 11.12 16.68"
           y="0"
           sodipodi:role="line"
           id="tspan6795">2020</tspan></text>
    </g>
    <g
       id="g6799" />
    <g
       id="g6801" />
    <g
       id="g6803" />
    <g
       id="g6805" />
    <g
       id="g6807" />
    <g
       id="g6809" />
    <g
       id="g6811" />
    <g
       id="g6813" />
    <g
       id="g6815" />
    <g
       id="g6817" />
    <g
       id="g6819" />
    <g
       id="g6821" />
    <g
       id="g6823"
       style="stroke:#ffffff;stroke-opacity:1">
      <path
         d="m 42.93,332.21 v 75.23"
         style="fill:none;stroke:#ffffff;stroke-width:1.07;stroke-linecap:butt;stroke-linejoin:round;stroke-miterlimit:10;stroke-dasharray:none;stroke-opacity:1"
         id="path6825" />
    </g>
    <g
       id="g6827" />
    <g
       id="g6829" />
    <g
       id="g6831"
       style="stroke:#ffffff;stroke-opacity:1">
      <text
         xml:space="preserve"
         transform="matrix(1,0,0,-1,18.54,332.04)"
         style="font-variant:normal;font-weight:normal;font-size:10px;font-family:Helvetica;-inkscape-font-specification:Helvetica;writing-mode:lr-tb;fill:#4d4d4d;fill-opacity:1;fill-rule:nonzero;stroke:#ffffff;stroke-opacity:1"
         id="text6835"><tspan
           x="0 5.5599999 8.3400002 13.9"
           y="0"
           sodipodi:role="line"
           id="tspan6833">0.00</tspan></text>
      <text
         xml:space="preserve"
         transform="matrix(1,0,0,-1,18.54,349.39)"
         style="font-variant:normal;font-weight:normal;font-size:10px;font-family:Helvetica;-inkscape-font-specification:Helvetica;writing-mode:lr-tb;fill:#4d4d4d;fill-opacity:1;fill-rule:nonzero;stroke:#ffffff;stroke-opacity:1"
         id="text6839"><tspan
           x="0 5.5599999 8.3400002 13.9"
           y="0"
           sodipodi:role="line"
           id="tspan6837">0.25</tspan></text>
      <text
         xml:space="preserve"
         transform="matrix(1,0,0,-1,18.54,366.74)"
         style="font-variant:normal;font-weight:normal;font-size:10px;font-family:Helvetica;-inkscape-font-specification:Helvetica;writing-mode:lr-tb;fill:#4d4d4d;fill-opacity:1;fill-rule:nonzero;stroke:#ffffff;stroke-opacity:1"
         id="text6843"><tspan
           x="0 5.5599999 8.3400002 13.9"
           y="0"
           sodipodi:role="line"
           id="tspan6841">0.50</tspan></text>
      <text
         xml:space="preserve"
         transform="matrix(1,0,0,-1,18.54,384.09)"
         style="font-variant:normal;font-weight:normal;font-size:10px;font-family:Helvetica;-inkscape-font-specification:Helvetica;writing-mode:lr-tb;fill:#4d4d4d;fill-opacity:1;fill-rule:nonzero;stroke:#ffffff;stroke-opacity:1"
         id="text6847"><tspan
           x="0 5.5599999 8.3400002 13.9"
           y="0"
           sodipodi:role="line"
           id="tspan6845">0.75</tspan></text>
      <text
         xml:space="preserve"
         transform="matrix(1,0,0,-1,18.54,401.44)"
         style="font-variant:normal;font-weight:normal;font-size:10px;font-family:Helvetica;-inkscape-font-specification:Helvetica;writing-mode:lr-tb;fill:#4d4d4d;fill-opacity:1;fill-rule:nonzero;stroke:#ffffff;stroke-opacity:1"
         id="text6851"><tspan
           x="0 5.5599999 8.3400002 13.9"
           y="0"
           sodipodi:role="line"
           id="tspan6849">1.00</tspan></text>
    </g>
    <g
       id="g6853" />
    <g
       id="g6855" />
    <g
       id="g6857"
       style="stroke:#ffffff;stroke-opacity:1">
      <path
         d="m 40.19,335.63 h 2.74"
         style="fill:none;stroke:#ffffff;stroke-width:1.07;stroke-linecap:butt;stroke-linejoin:round;stroke-miterlimit:10;stroke-dasharray:none;stroke-opacity:1"
         id="path6859" />
      <path
         d="m 40.19,352.98 h 2.74"
         style="fill:none;stroke:#ffffff;stroke-width:1.07;stroke-linecap:butt;stroke-linejoin:round;stroke-miterlimit:10;stroke-dasharray:none;stroke-opacity:1"
         id="path6861" />
      <path
         d="m 40.19,370.33 h 2.74"
         style="fill:none;stroke:#ffffff;stroke-width:1.07;stroke-linecap:butt;stroke-linejoin:round;stroke-miterlimit:10;stroke-dasharray:none;stroke-opacity:1"
         id="path6863" />
      <path
         d="m 40.19,387.68 h 2.74"
         style="fill:none;stroke:#ffffff;stroke-width:1.07;stroke-linecap:butt;stroke-linejoin:round;stroke-miterlimit:10;stroke-dasharray:none;stroke-opacity:1"
         id="path6865" />
      <path
         d="m 40.19,405.03 h 2.74"
         style="fill:none;stroke:#ffffff;stroke-width:1.07;stroke-linecap:butt;stroke-linejoin:round;stroke-miterlimit:10;stroke-dasharray:none;stroke-opacity:1"
         id="path6867" />
    </g>
    <g
       id="g6869" />
    <g
       id="g6871" />
    <g
       id="g6873" />
    <g
       id="g6875" />
    <g
       id="g6877" />
    <g
       id="g6879"
       style="stroke:#ffffff;stroke-opacity:1">
      <path
         d="m 42.93,232.42 v 75.23"
         style="fill:none;stroke:#ffffff;stroke-width:1.07;stroke-linecap:butt;stroke-linejoin:round;stroke-miterlimit:10;stroke-dasharray:none;stroke-opacity:1"
         id="path6881" />
    </g>
    <g
       id="g6883" />
    <g
       id="g6885" />
    <g
       id="g6887"
       style="stroke:#ffffff;stroke-opacity:1">
      <text
         xml:space="preserve"
         transform="matrix(1,0,0,-1,18.54,232.25)"
         style="font-variant:normal;font-weight:normal;font-size:10px;font-family:Helvetica;-inkscape-font-specification:Helvetica;writing-mode:lr-tb;fill:#4d4d4d;fill-opacity:1;fill-rule:nonzero;stroke:#ffffff;stroke-opacity:1"
         id="text6891"><tspan
           x="0 5.5599999 8.3400002 13.9"
           y="0"
           sodipodi:role="line"
           id="tspan6889">0.00</tspan></text>
      <text
         xml:space="preserve"
         transform="matrix(1,0,0,-1,18.54,250.63)"
         style="font-variant:normal;font-weight:normal;font-size:10px;font-family:Helvetica;-inkscape-font-specification:Helvetica;writing-mode:lr-tb;fill:#4d4d4d;fill-opacity:1;fill-rule:nonzero;stroke:#ffffff;stroke-opacity:1"
         id="text6895"><tspan
           x="0 5.5599999 8.3400002 13.9"
           y="0"
           sodipodi:role="line"
           id="tspan6893">0.25</tspan></text>
      <text
         xml:space="preserve"
         transform="matrix(1,0,0,-1,18.54,269.01)"
         style="font-variant:normal;font-weight:normal;font-size:10px;font-family:Helvetica;-inkscape-font-specification:Helvetica;writing-mode:lr-tb;fill:#4d4d4d;fill-opacity:1;fill-rule:nonzero;stroke:#ffffff;stroke-opacity:1"
         id="text6899"><tspan
           x="0 5.5599999 8.3400002 13.9"
           y="0"
           sodipodi:role="line"
           id="tspan6897">0.50</tspan></text>
      <text
         xml:space="preserve"
         transform="matrix(1,0,0,-1,18.54,287.39)"
         style="font-variant:normal;font-weight:normal;font-size:10px;font-family:Helvetica;-inkscape-font-specification:Helvetica;writing-mode:lr-tb;fill:#4d4d4d;fill-opacity:1;fill-rule:nonzero;stroke:#ffffff;stroke-opacity:1"
         id="text6903"><tspan
           x="0 5.5599999 8.3400002 13.9"
           y="0"
           sodipodi:role="line"
           id="tspan6901">0.75</tspan></text>
    </g>
    <g
       id="g6905" />
    <g
       id="g6907" />
    <g
       id="g6909"
       style="stroke:#ffffff;stroke-opacity:1">
      <path
         d="m 40.19,235.84 h 2.74"
         style="fill:none;stroke:#ffffff;stroke-width:1.07;stroke-linecap:butt;stroke-linejoin:round;stroke-miterlimit:10;stroke-dasharray:none;stroke-opacity:1"
         id="path6911" />
      <path
         d="m 40.19,254.22 h 2.74"
         style="fill:none;stroke:#ffffff;stroke-width:1.07;stroke-linecap:butt;stroke-linejoin:round;stroke-miterlimit:10;stroke-dasharray:none;stroke-opacity:1"
         id="path6913" />
      <path
         d="m 40.19,272.6 h 2.74"
         style="fill:none;stroke:#ffffff;stroke-width:1.07;stroke-linecap:butt;stroke-linejoin:round;stroke-miterlimit:10;stroke-dasharray:none;stroke-opacity:1"
         id="path6915" />
      <path
         d="m 40.19,290.98 h 2.74"
         style="fill:none;stroke:#ffffff;stroke-width:1.07;stroke-linecap:butt;stroke-linejoin:round;stroke-miterlimit:10;stroke-dasharray:none;stroke-opacity:1"
         id="path6917" />
    </g>
    <g
       id="g6919" />
    <g
       id="g6921" />
    <g
       id="g6923" />
    <g
       id="g6925" />
    <g
       id="g6927" />
    <g
       id="g6929"
       style="stroke:#ffffff;stroke-opacity:1">
      <path
         d="m 42.93,132.64 v 75.22"
         style="fill:none;stroke:#ffffff;stroke-width:1.07;stroke-linecap:butt;stroke-linejoin:round;stroke-miterlimit:10;stroke-dasharray:none;stroke-opacity:1"
         id="path6931" />
    </g>
    <g
       id="g6933" />
    <g
       id="g6935" />
    <g
       id="g6937"
       style="stroke:#ffffff;stroke-opacity:1">
      <text
         xml:space="preserve"
         transform="matrix(1,0,0,-1,24.1,132.47)"
         style="font-variant:normal;font-weight:normal;font-size:10px;font-family:Helvetica;-inkscape-font-specification:Helvetica;writing-mode:lr-tb;fill:#4d4d4d;fill-opacity:1;fill-rule:nonzero;stroke:#ffffff;stroke-opacity:1"
         id="text6941"><tspan
           x="0 5.5599999 8.3400002"
           y="0"
           sodipodi:role="line"
           id="tspan6939">0.0</tspan></text>
      <text
         xml:space="preserve"
         transform="matrix(1,0,0,-1,24.1,145.83)"
         style="font-variant:normal;font-weight:normal;font-size:10px;font-family:Helvetica;-inkscape-font-specification:Helvetica;writing-mode:lr-tb;fill:#4d4d4d;fill-opacity:1;fill-rule:nonzero;stroke:#ffffff;stroke-opacity:1"
         id="text6945"><tspan
           x="0 5.5599999 8.3400002"
           y="0"
           sodipodi:role="line"
           id="tspan6943">0.1</tspan></text>
      <text
         xml:space="preserve"
         transform="matrix(1,0,0,-1,24.1,159.19)"
         style="font-variant:normal;font-weight:normal;font-size:10px;font-family:Helvetica;-inkscape-font-specification:Helvetica;writing-mode:lr-tb;fill:#4d4d4d;fill-opacity:1;fill-rule:nonzero;stroke:#ffffff;stroke-opacity:1"
         id="text6949"><tspan
           x="0 5.5599999 8.3400002"
           y="0"
           sodipodi:role="line"
           id="tspan6947">0.2</tspan></text>
      <text
         xml:space="preserve"
         transform="matrix(1,0,0,-1,24.1,172.55)"
         style="font-variant:normal;font-weight:normal;font-size:10px;font-family:Helvetica;-inkscape-font-specification:Helvetica;writing-mode:lr-tb;fill:#4d4d4d;fill-opacity:1;fill-rule:nonzero;stroke:#ffffff;stroke-opacity:1"
         id="text6953"><tspan
           x="0 5.5599999 8.3400002"
           y="0"
           sodipodi:role="line"
           id="tspan6951">0.3</tspan></text>
      <text
         xml:space="preserve"
         transform="matrix(1,0,0,-1,24.1,185.91)"
         style="font-variant:normal;font-weight:normal;font-size:10px;font-family:Helvetica;-inkscape-font-specification:Helvetica;writing-mode:lr-tb;fill:#4d4d4d;fill-opacity:1;fill-rule:nonzero;stroke:#ffffff;stroke-opacity:1"
         id="text6957"><tspan
           x="0 5.5599999 8.3400002"
           y="0"
           sodipodi:role="line"
           id="tspan6955">0.4</tspan></text>
      <text
         xml:space="preserve"
         transform="matrix(1,0,0,-1,24.1,199.28)"
         style="font-variant:normal;font-weight:normal;font-size:10px;font-family:Helvetica;-inkscape-font-specification:Helvetica;writing-mode:lr-tb;fill:#4d4d4d;fill-opacity:1;fill-rule:nonzero;stroke:#ffffff;stroke-opacity:1"
         id="text6961"><tspan
           x="0 5.5599999 8.3400002"
           y="0"
           sodipodi:role="line"
           id="tspan6959">0.5</tspan></text>
    </g>
    <g
       id="g6963" />
    <g
       id="g6965" />
    <g
       id="g6967"
       style="stroke:#ffffff;stroke-opacity:1">
      <path
         d="m 40.19,136.06 h 2.74"
         style="fill:none;stroke:#ffffff;stroke-width:1.07;stroke-linecap:butt;stroke-linejoin:round;stroke-miterlimit:10;stroke-dasharray:none;stroke-opacity:1"
         id="path6969" />
      <path
         d="m 40.19,149.42 h 2.74"
         style="fill:none;stroke:#ffffff;stroke-width:1.07;stroke-linecap:butt;stroke-linejoin:round;stroke-miterlimit:10;stroke-dasharray:none;stroke-opacity:1"
         id="path6971" />
      <path
         d="m 40.19,162.78 h 2.74"
         style="fill:none;stroke:#ffffff;stroke-width:1.07;stroke-linecap:butt;stroke-linejoin:round;stroke-miterlimit:10;stroke-dasharray:none;stroke-opacity:1"
         id="path6973" />
      <path
         d="m 40.19,176.14 h 2.74"
         style="fill:none;stroke:#ffffff;stroke-width:1.07;stroke-linecap:butt;stroke-linejoin:round;stroke-miterlimit:10;stroke-dasharray:none;stroke-opacity:1"
         id="path6975" />
      <path
         d="m 40.19,189.5 h 2.74"
         style="fill:none;stroke:#ffffff;stroke-width:1.07;stroke-linecap:butt;stroke-linejoin:round;stroke-miterlimit:10;stroke-dasharray:none;stroke-opacity:1"
         id="path6977" />
      <path
         d="m 40.19,202.87 h 2.74"
         style="fill:none;stroke:#ffffff;stroke-width:1.07;stroke-linecap:butt;stroke-linejoin:round;stroke-miterlimit:10;stroke-dasharray:none;stroke-opacity:1"
         id="path6979" />
    </g>
    <g
       id="g6981" />
    <g
       id="g6983" />
    <g
       id="g6985" />
    <g
       id="g6987" />
    <g
       id="g6989" />
    <g
       id="g6991"
       style="stroke:#ffffff;stroke-opacity:1">
      <path
         d="m 42.93,32.85 v 75.22"
         style="fill:none;stroke:#ffffff;stroke-width:1.07;stroke-linecap:butt;stroke-linejoin:round;stroke-miterlimit:10;stroke-dasharray:none;stroke-opacity:1"
         id="path6993" />
    </g>
    <g
       id="g6995" />
    <g
       id="g6997" />
    <g
       id="g6999"
       style="stroke:#ffffff;stroke-opacity:1">
      <text
         xml:space="preserve"
         transform="matrix(1,0,0,-1,18.54,32.68)"
         style="font-variant:normal;font-weight:normal;font-size:10px;font-family:Helvetica;-inkscape-font-specification:Helvetica;writing-mode:lr-tb;fill:#4d4d4d;fill-opacity:1;fill-rule:nonzero;stroke:#ffffff;stroke-opacity:1"
         id="text7003"><tspan
           x="0 5.5599999 8.3400002 13.9"
           y="0"
           sodipodi:role="line"
           id="tspan7001">0.00</tspan></text>
      <text
         xml:space="preserve"
         transform="matrix(1,0,0,-1,18.54,50.88)"
         style="font-variant:normal;font-weight:normal;font-size:10px;font-family:Helvetica;-inkscape-font-specification:Helvetica;writing-mode:lr-tb;fill:#4d4d4d;fill-opacity:1;fill-rule:nonzero;stroke:#ffffff;stroke-opacity:1"
         id="text7007"><tspan
           x="0 5.5599999 8.3400002 13.9"
           y="0"
           sodipodi:role="line"
           id="tspan7005">0.25</tspan></text>
      <text
         xml:space="preserve"
         transform="matrix(1,0,0,-1,18.54,69.07)"
         style="font-variant:normal;font-weight:normal;font-size:10px;font-family:Helvetica;-inkscape-font-specification:Helvetica;writing-mode:lr-tb;fill:#4d4d4d;fill-opacity:1;fill-rule:nonzero;stroke:#ffffff;stroke-opacity:1"
         id="text7011"><tspan
           x="0 5.5599999 8.3400002 13.9"
           y="0"
           sodipodi:role="line"
           id="tspan7009">0.50</tspan></text>
      <text
         xml:space="preserve"
         transform="matrix(1,0,0,-1,18.54,87.27)"
         style="font-variant:normal;font-weight:normal;font-size:10px;font-family:Helvetica;-inkscape-font-specification:Helvetica;writing-mode:lr-tb;fill:#4d4d4d;fill-opacity:1;fill-rule:nonzero;stroke:#ffffff;stroke-opacity:1"
         id="text7015"><tspan
           x="0 5.5599999 8.3400002 13.9"
           y="0"
           sodipodi:role="line"
           id="tspan7013">0.75</tspan></text>
    </g>
    <g
       id="g7017" />
    <g
       id="g7019" />
    <g
       id="g7021"
       style="stroke:#ffffff;stroke-opacity:1">
      <path
         d="m 40.19,36.27 h 2.74"
         style="fill:none;stroke:#ffffff;stroke-width:1.07;stroke-linecap:butt;stroke-linejoin:round;stroke-miterlimit:10;stroke-dasharray:none;stroke-opacity:1"
         id="path7023" />
      <path
         d="m 40.19,54.47 h 2.74"
         style="fill:none;stroke:#ffffff;stroke-width:1.07;stroke-linecap:butt;stroke-linejoin:round;stroke-miterlimit:10;stroke-dasharray:none;stroke-opacity:1"
         id="path7025" />
      <path
         d="m 40.19,72.66 h 2.74"
         style="fill:none;stroke:#ffffff;stroke-width:1.07;stroke-linecap:butt;stroke-linejoin:round;stroke-miterlimit:10;stroke-dasharray:none;stroke-opacity:1"
         id="path7027" />
      <path
         d="m 40.19,90.86 h 2.74"
         style="fill:none;stroke:#ffffff;stroke-width:1.07;stroke-linecap:butt;stroke-linejoin:round;stroke-miterlimit:10;stroke-dasharray:none;stroke-opacity:1"
         id="path7029" />
    </g>
    <g
       id="g7031" />
    <g
       id="g7033" />
    <g
       id="g7035" />
    <g
       id="g7037" />
    <g
       id="g7039" />
    <g
       id="g7041" />
    <g
       id="g7043" />
    <g
       id="g7045" />
    <g
       id="g7047" />
    <g
       id="g7049" />
    <g
       id="g7051" />
    <g
       id="g7053" />
    <g
       id="g7055" />
    <g
       id="g7057" />
    <g
       id="g7059"
       style="fill:#ffffff;fill-opacity:1;stroke:#ffffff;stroke-opacity:1">
      <text
         xml:space="preserve"
         transform="matrix(1,0,0,-1,241.24,7.9)"
         style="font-variant:normal;font-weight:bold;font-size:11px;font-family:Helvetica;-inkscape-font-specification:Helvetica-Bold;writing-mode:lr-tb;fill:#ffffff;fill-opacity:1;fill-rule:nonzero;stroke:#ffffff;stroke-opacity:1"
         id="text7063"><tspan
           x="0 6.4569998 12.573 18.688999"
           y="0"
           sodipodi:role="line"
           id="tspan7061">Year</tspan></text>
    </g>
    <g
       id="g7065" />
    <g
       id="g7067" />
    <g
       id="g7069"
       style="fill:#ffffff;fill-opacity:1;stroke:#ffffff;stroke-opacity:1">
      <text
         xml:space="preserve"
         transform="matrix(0,1,1,0,13.38,136.18)"
         style="font-variant:normal;font-weight:bold;font-size:11px;font-family:Helvetica;-inkscape-font-specification:Helvetica-Bold;writing-mode:lr-tb;fill:#ffffff;fill-opacity:1;fill-rule:nonzero;stroke:#ffffff;stroke-opacity:1"
         id="text7073"><tspan
           x="0 9.7790003 12.837 19.558001 23.221001 26.278999 32.395 38.511002 42.174 45.231998 48.290001 55.011002 61.126999 64.790001 71.511002 75.790001 81.905998 84.963997 88.022003 91.684998 94.742996 101.299 109.857 112.915 119.031 125.752 132.47301 138.589 145.31 155.089 161.205"
           y="0"
           sodipodi:role="line"
           id="tspan7071">% of est. natural flow consumed</tspan></text>
    </g>
    <g
       id="g7075" />
    <g
       id="g7077" />
    <g
       id="g7079" />
    <g
       id="g7081" />
    <g
       id="g7083" />
    <g
       id="g7085" />
    <g
       id="g7087" />
    <g
       id="g7089" />
    <g
       id="g7091" />
    <g
       id="g7093" />
    <g
       id="g7095" />
    <g
       id="g7097" />
    <g
       id="g7099" />
  </g>
</svg>
