<?xml version="1.0" encoding="UTF-8" standalone="no"?>
<!-- Created with Inkscape (http://www.inkscape.org/) -->

<svg
   version="1.1"
   id="svg686"
   width="624"
   height="384"
   viewBox="0 0 624 384"
   sodipodi:docname="dolo_comparison_IS.svg"
   inkscape:version="1.2.1 (9c6d41e, 2022-07-14)"
   xmlns:inkscape="http://www.inkscape.org/namespaces/inkscape"
   xmlns:sodipodi="http://sodipodi.sourceforge.net/DTD/sodipodi-0.dtd"
   xmlns="http://www.w3.org/2000/svg"
   xmlns:svg="http://www.w3.org/2000/svg">
  <defs
     id="defs690">
    <clipPath
       clipPathUnits="userSpaceOnUse"
       id="clipPath748">
      <path
         d="M 0,0 H 468 V 288 H 0 Z"
         id="path746" />
    </clipPath>
    <clipPath
       clipPathUnits="userSpaceOnUse"
       id="clipPath760">
      <path
         d="M 51.27,72.05 H 462.52 V 263.44 H 51.27 Z"
         id="path758" />
    </clipPath>
    <clipPath
       clipPathUnits="userSpaceOnUse"
       id="clipPath780">
      <path
         d="m 51.27,263.44 h 411.25 v 19.09 H 51.27 Z"
         id="path778" />
    </clipPath>
    <clipPath
       clipPathUnits="userSpaceOnUse"
       id="clipPath802">
      <path
         d="m 51.27,263.44 h 411.25 v 19.09 H 51.27 Z"
         id="path800" />
    </clipPath>
    <clipPath
       clipPathUnits="userSpaceOnUse"
       id="clipPath810">
      <path
         d="m 51.27,263.44 h 411.25 v 19.09 H 51.27 Z"
         id="path808" />
    </clipPath>
    <clipPath
       clipPathUnits="userSpaceOnUse"
       id="clipPath818">
      <path
         d="m 51.27,263.44 h 411.25 v 19.09 H 51.27 Z"
         id="path816" />
    </clipPath>
    <clipPath
       clipPathUnits="userSpaceOnUse"
       id="clipPath1909">
      <g
         id="g1913">
        <path
           d="m 51.27,263.44 h 411.25 v 19.09 H 51.27 Z"
           id="path1911" />
      </g>
    </clipPath>
  </defs>
  <sodipodi:namedview
     id="namedview688"
     pagecolor="#ffffff"
     bordercolor="#000000"
     borderopacity="0.25"
     inkscape:showpageshadow="2"
     inkscape:pageopacity="0.0"
     inkscape:pagecheckerboard="0"
     inkscape:deskcolor="#d1d1d1"
     showgrid="false"
     inkscape:zoom="1.5112179"
     inkscape:cx="331.52068"
     inkscape:cy="206.45599"
     inkscape:window-width="1419"
     inkscape:window-height="778"
     inkscape:window-x="0"
     inkscape:window-y="25"
     inkscape:window-maximized="0"
     inkscape:current-layer="g694">
    <inkscape:page
       x="0"
       y="0"
       id="page692"
       width="624"
       height="384"
       inkscape:export-filename="dolo_comp.jpg"
       inkscape:export-xdpi="300"
       inkscape:export-ydpi="300" />
  </sodipodi:namedview>
  <g
     id="g694"
     inkscape:groupmode="layer"
     inkscape:label="Page 1"
     transform="matrix(1.3333333,0,0,-1.3333333,0,384)">
    <g
       id="g696">
      <path
         d="M 0,0 H 468 V 288 H 0 Z"
         style="fill:#ffffff;fill-opacity:1;fill-rule:nonzero;stroke:none"
         id="path698" />
    </g>
    <g
       id="g700" />
    <g
       id="g702" />
    <g
       id="g704" />
    <g
       id="g706" />
    <g
       id="g708" />
    <g
       id="g710" />
    <g
       id="g712" />
    <g
       id="g714" />
    <g
       id="g716" />
    <g
       id="g718" />
    <g
       id="g720" />
    <g
       id="g722" />
    <g
       id="g724" />
    <g
       id="g726" />
    <g
       id="g728" />
    <g
       id="g730" />
    <g
       id="g732" />
    <g
       id="g734" />
    <g
       id="g736" />
    <g
       id="g738" />
    <g
       id="g740" />
    <g
       id="g742">
      <g
         id="g744"
         clip-path="url(#clipPath748)">
        <path
           d="M 0,0 H 468 V 288 H 0 Z"
           style="fill:#ffffff;fill-opacity:1;fill-rule:nonzero;stroke:#ffffff;stroke-width:1.07;stroke-linecap:round;stroke-linejoin:round;stroke-miterlimit:10;stroke-dasharray:none;stroke-opacity:1"
           id="path750" />
      </g>
    </g>
    <g
       id="g752" />
    <g
       id="g754">
      <g
         id="g756"
         clip-path="url(#clipPath760)">
        <path
           d="M 51.27,72.05 H 462.52 V 263.44 H 51.27 Z"
           style="fill:#ffffff;fill-opacity:1;fill-rule:nonzero;stroke:none"
           id="path762" />
        <path
           d="m 69.96,84.23 v 0 l 1.03,0.25 v 0 l 1.02,-0.55 v 0 l 1.02,0.17 v 0 l 1.03,0.47 v 0 l 1.02,-0.06 v 0 l 1.03,-0.07 v 0 l 1.02,-0.47 v 0 l 1.03,-0.08 v 0 l 1.02,0.04 v 0 l 1.02,0.04 v 0 l 1.03,0.77 v 0 l 1.02,1.03 v 0 l 1.03,-0.22 v 0 l 1.02,-0.32 v 0 l 1.03,0.3 v 0 l 1.02,-0.32 v 0 l 1.02,-0.75 v 0 l 1.03,0.41 v 0 l 1.02,-0.43 v 0 l 1.03,-0.34 v 0 l 1.02,0.79 v 0 l 1.03,0.28 v 0 l 1.02,0.06 v 0 l 1.02,-0.4 v 0 l 1.03,0.42 v 0 l 1.02,-0.4 v 0 l 1.03,-0.28 v 0 l 1.02,0.09 v 0 l 1.03,0.12 v 0 l 1.02,-0.72 v 0 l 1.02,0.72 v 0 h 1.03 v 0 l 1.02,0.32 v 0 l 1.03,-0.17 v 0 l 1.02,-0.15 v 0 l 1.03,0.28 v 0 l 1.02,0.32 v 0 l 1.02,-0.11 v 0 l 1.03,0.2 v 0 l 1.02,-0.05 v 0 l 1.03,-0.17 v 0 l 1.02,-0.08 v 0 l 1.03,-0.09 v 0 l 1.02,-0.25 v 0 l 1.02,0.12 v 0 l 1.03,0.52 v 0 l 1.02,-0.07 v 0 l 1.03,0.26 v 0 l 1.02,-0.19 v 0 l 1.03,0.47 v 0 l 1.02,0.25 v 0 l 1.02,1.05 v 0 l 1.03,2.56 v 0 l 1.02,-0.68 v 0 l 1.03,-0.17 v 0 l 1.02,0.34 v 0 l 1.03,-0.68 v 0 l 1.02,0.68 v 0 l 1.02,-0.17 v 0 l 1.03,-0.43 v 0 l 1.02,0.77 v 0 l 1.03,0.94 v 0 l 1.02,-0.92 v 0 l 1.03,-0.79 v 0 l 1.02,-0.85 v 0 l 1.02,-0.26 v 0 l 1.03,-0.06 v 0 l 1.02,0.36 v 0 l 1.03,-0.64 v 0 l 1.02,0.11 v 0 l 1.03,0.64 v 0 l 1.02,0.53 v 0 l 1.03,3.25 v 0 l 1.02,-1.69 v 0 l 1.02,0.08 v 0 l 1.03,0.37 v 0 l 1.02,1.09 v 0 l 1.03,1.36 v 0 l 1.02,-2.6 v 0 l 1.03,1.64 v 0 l 1.02,0.81 v 0 l 1.02,-2.03 v 0 l 1.03,-0.29 v 0 l 1.02,2.47 v 0 l 1.03,5.57 v 0 l 1.02,-0.96 v 0 l 1.03,-1.77 v 0 l 1.02,1.6 v 0 l 1.02,9.14 v 0 l 1.03,-0.43 v 0 l 1.02,2.35 v 0 l 1.03,15.59 v 0 l 1.02,-4.27 v 0 l 1.03,-9.4 v 0 l 1.02,7.05 v 0 l 1.02,-2.78 v 0 l 1.03,1.07 v 0 l 1.02,7.47 v 0 l 1.03,5.13 v 0 l 1.02,1.07 v 0 l 1.03,15.16 v 0 l 1.02,-9.83 v 0 l 1.02,7.9 v 0 l 1.03,8.12 v 0 l 1.02,-2.35 v 0 l 1.03,21.56 v 0 l 1.02,15.8 v 0 l 1.03,56.8 v 0 l 1.02,6.61 v 0 l 1.02,-18.78 v 0 l 1.03,11.53 v 0 l 1.02,12.81 v 0 l 1.03,-10.04 v 0 l 1.02,-6.4 v 0 l 1.03,-34.38 v 0 l 1.02,17.94 v 0 l 1.02,-2.14 v 0 l 1.03,-9.39 v 0 l 1.02,3.2 v 0 l 1.03,5.76 v 0 l 1.02,-2.35 v 0 l 1.03,-8.75 v 0 l 1.02,-4.06 v 0 l 1.02,8.97 v 0 L 198,201.79 v 0 l 1.02,-1.5 v 0 l 1.03,17.3 v 0 l 1.02,9.39 v 0 l 1.03,-5.12 v 0 l 1.02,2.56 v 0 l 1.02,5.98 v 0 l 1.03,-12.17 v 0 l 1.02,-9.18 v 0 l 1.03,-5.34 v 0 l 1.02,-8.33 v 0 l 1.03,-5.55 v 0 l 1.02,-2.99 v 0 l 1.02,-0.43 v 0 l 1.03,1.28 v 0 l 1.02,8.33 v 0 l 1.03,12.38 v 0 l 1.02,3.63 v 0 l 1.03,-6.83 v 0 l 1.02,-16.01 v 0 l 1.02,-17.72 v 0 l 1.03,-15.59 v 0 l 1.02,0.64 v 0 l 1.03,9.4 v 0 l 1.02,15.37 v 0 l 1.03,5.12 v 0 l 1.02,-5.76 v 0 l 1.02,-6.83 v 0 l 1.03,-4.06 v 0 l 1.02,-1.28 v 0 l 1.03,5.34 v 0 l 1.02,-8.97 v 0 l 1.03,-4.06 v 0 l 1.02,7.69 v 0 l 1.02,-10.68 v 0 l 1.03,-9.18 v 0 l 1.02,-3.63 v 0 l 1.03,-2.13 v 0 l 1.02,5.55 v 0 l 1.03,7.47 v 0 l 1.02,-2.99 v 0 l 1.02,-12.59 v 0 l 1.03,-2.99 v 0 l 1.02,4.05 v 0 l 1.03,7.9 v 0 l 1.02,3.63 v 0 l 1.03,-2.13 v 0 l 1.02,2.35 v 0 l 1.02,0.85 v 0 l 1.03,-6.62 v 0 l 1.02,-11.31 v 0 l 1.03,-4.7 v 0 l 1.02,-3.2 v 0 l 1.03,-0.64 v 0 l 1.02,-3.42 v 0 l 1.02,6.83 v 0 l 1.03,-2.56 v 0 l 1.02,-2.56 v 0 l 1.03,-9.61 v 0 l 1.02,-6.41 v 0 l 1.03,-2.34 v 0 l 1.02,-2.99 v 0 l 1.02,0.42 v 0 l 1.03,1.92 v 0 l 1.02,-2.98 v 0 l 1.03,1.28 v 0 l 1.02,-1.92 v 0 l 1.03,1.7 v 0 l 1.02,-1.49 v 0 l 1.02,-2.26 v 0 l 1.03,-4.7 v 0 l 1.02,1.36 v 0 l 1.03,-1.23 v 0 l 1.02,-1.07 v 0 l 1.03,-0.9 v 0 l 1.02,-0.45 v 0 l 1.02,-0.59 v 0 l 1.03,-0.3 v 0 l 1.02,-0.84 v 0 l 1.03,-1.15 v 0 l 1.02,1.03 v 0 l 1.03,-2.2 v 0 l 1.02,0.49 v 0 l 1.02,-0.96 v 0 l 1.03,-0.79 v 0 l 1.02,1.19 v 0 l 1.03,-1.17 v 0 l 1.02,0.21 v 0 l 1.03,-0.92 v 0 l 1.02,0.09 v 0 l 1.02,-0.51 v 0 L 291.21,87 v 0 l 1.02,1.63 v 0 l 1.03,0.57 v 0 l 1.02,0.84 v 0 l 1.03,2.39 v 0 l 1.02,-4 v 0 l 1.02,-0.7 v 0 l 1.03,3.22 v 0 l 1.02,0.28 v 0 l 1.03,-0.02 v 0 l 1.02,-2.28 v 0 l 1.03,-1.29 v 0 l 1.02,-1.02 v 0 l 1.02,0.34 v 0 l 1.03,0.75 v 0 l 1.02,-1.79 v 0 l 1.03,1.25 v 0 l 1.02,-0.76 v 0 l 1.03,1.79 v 0 l 1.02,0.21 v 0 l 1.02,-1 v 0 l 1.03,-0.9 v 0 l 1.02,-0.23 v 0 l 1.03,2.13 v 0 l 1.02,0.02 v 0 l 1.03,-1.06 v 0 l 1.02,-1.69 v 0 l 1.02,5.36 v 0 l 1.03,2.2 v 0 l 1.02,-2.52 v 0 l 1.03,-3.2 v 0 l 1.02,-0.09 v 0 l 1.03,-0.4 v 0 l 1.02,0.79 v 0 L 326.03,86 v 0 l 1.03,-0.45 v 0 l 1.02,-0.13 v 0 l 1.03,-0.59 v 0 l 1.02,-0.3 v 0 l 1.03,1.66 v 0 l 1.02,-1.41 v 0 l 1.02,3.25 v 0 l 1.03,-1.58 v 0 l 1.02,-0.64 v 0 l 1.03,-0.83 v 0 l 1.02,1.92 v 0 l 1.03,-0.58 v 0 l 1.02,-0.47 v 0 l 1.02,-0.28 v 0 l 1.03,-0.04 v 0 l 1.02,-0.32 v 0 l 1.03,-0.36 v 0 l 1.02,-0.15 v 0 l 1.03,-0.17 v 0 l 1.02,1.24 v 0 l 1.02,-0.9 v 0 l 1.03,1.24 v 0 l 1.02,-1.07 v 0 l 1.03,-0.11 v 0 l 1.02,-0.53 v 0 l 1.03,-0.43 v 0 l 1.02,-0.08 v 0 l 1.02,0.3 v 0 l 1.03,0.21 v 0 l 1.02,0.7 v 0 h 1.03 v 0 h 1.02 v 0 h 1.03 v 0 l 1.02,2.59 v 0 l 1.02,1.09 v 0 l 1.03,-1.2 v 0 l 1.02,-0.34 v 0 l 1.03,-0.43 v 0 l 1.02,0.62 v 0 l 1.03,-1.28 v 0 l 1.02,-0.3 v 0 l 1.02,-0.36 v 0 l 1.03,-0.07 v 0 l 1.02,-0.12 v 0 l 1.03,-0.07 v 0 l 1.02,-0.13 v 0 l 1.03,-0.1 v 0 l 1.02,-0.22 v 0 l 1.02,0.32 v 0 h 1.03 v 0 h 1.02 v 0 l 1.03,0.41 v 0 l 1.02,-0.41 v 0 h 1.03 v 0 l 1.02,-0.62 v 0 l 1.02,0.15 v 0 l 1.03,-0.27 v 0 h 1.02 v 0 h 1.03 v 0 h 1.02 v 0 h 1.03 v 0 h 1.02 v 0 h 1.02 v 0 l 1.03,0.27 v 0 l 1.02,-0.27 v 0 l 1.03,0.72 v 0 l 1.02,-0.38 v 0 l 1.03,-0.34 v 0 l 1.02,-0.02 v 0 l 1.02,0.12 v 0 l 1.03,-0.1 v 0 h 1.02 v 0 l 1.03,0.57 v 0 h 1.02 v 0 l 1.03,-0.23 v 0 l 1.02,-0.34 v 0 l 1.02,0.62 v 0 l 1.03,-0.37 v 0 l 1.02,-0.04 v 0 l 1.03,-0.38 v 0 l 1.02,0.17 v 0 h 1.03 v 0 l 1.02,0.04 v 0 l 1.02,-0.04 v 0 l 1.03,0.04 v 0 l 1.02,0.15 v 0 l 1.03,-0.07 v 0 l 1.02,0.37 v 0 l 1.03,-0.49 v 0 h 1.02 v 0 l 1.02,-0.05 v 0 l 1.03,0.17 v 0 l 1.02,-0.23 v 0 h 1.03 v 0 l 1.02,-0.11 v 0 l 1.03,-0.21 v 0 l 1.02,0.53 v 0 l 1.02,-0.15 v 0 l 1.03,-0.06 v 0 l 1.02,-0.02 v 0 l 1.03,-0.09 v 0 l 1.02,0.22 v 0 l 1.03,0.1 v 0 l 1.02,0.22 v 0 l 1.02,-0.32 v 0 l 1.03,0.25 v 0 l 1.02,-0.04 v 0 l 1.03,0.7 v 0 l 1.02,0.47 v 0 l 1.03,-0.44 v 0 l 1.02,-0.37 v 0 l 1.02,-0.21 v 0 l 1.03,-0.09 v 0 l 1.02,-0.12 v 0 l 1.03,-0.01 v 0 -1.44 0 l -1.03,-0.43 v 0 l -1.02,0.38 v 0 l -1.03,0.45 v 0 l -1.02,-0.13 v 0 l -1.02,0.47 v 0 l -1.03,-0.15 v 0 l -1.02,-0.25 v 0 l -1.03,0.44 v 0 l -1.02,-0.57 v 0 l -1.03,-0.32 v 0 l -1.02,-0.19 v 0 l -1.02,0.1 v 0 l -1.03,-0.1 v 0 l -1.02,0.32 v 0 l -1.03,0.42 v 0 l -1.02,-0.04 v 0 l -1.03,-0.09 v 0 l -1.02,-0.17 v 0 h -1.02 v 0 l -1.03,-0.3 v 0 l -1.02,0.07 v 0 l -1.03,0.21 v 0 l -1.02,0.07 v 0 l -1.03,0.04 v 0 h -1.02 v 0 l -1.02,0.04 v 0 l -1.03,-0.08 v 0 l -1.02,-0.37 v 0 l -1.03,0.2 v 0 l -1.02,0.19 v 0 l -1.03,-0.37 v 0 l -1.02,0.24 v 0 l -1.02,-0.24 v 0 L 409,83.16 v 0 l -1.02,0.24 v 0 l -1.03,0.1 v 0 l -1.02,-0.47 v 0 l -1.03,-0.15 v 0 l -1.02,0.26 v 0 l -1.02,0.32 v 0 l -1.03,-0.21 v 0 h -1.02 v 0 l -1.03,0.15 v 0 h -1.02 v 0 l -1.03,-0.07 v 0 l -1.02,-0.08 v 0 l -1.02,-0.22 v 0 l -1.03,0.17 v 0 l -1.02,0.09 v 0 l -1.03,-0.11 v 0 l -1.02,0.07 v 0 h -1.03 v 0 l -1.02,-0.07 v 0 l -1.02,0.15 v 0 l -1.03,0.07 v 0 l -1.02,-0.11 v 0 l -1.03,0.04 v 0 l -1.02,-0.04 v 0 l -1.03,0.26 v 0 l -1.02,0.17 v 0 l -1.02,0.1 v 0 l -1.03,-0.27 v 0 l -1.02,-0.3 v 0 l -1.03,-0.15 v 0 l -1.02,0.08 v 0 l -1.03,0.11 v 0 L 375.2,82.9 v 0 h -1.02 v 0 h -1.03 v 0 h -1.02 v 0 l -1.03,0.13 v 0 h -1.02 v 0 l -1.03,0.11 v 0 l -1.02,-0.02 v 0 l -1.02,-0.09 v 0 h -1.03 v 0 l -1.02,0.05 v 0 l -1.03,-0.11 v 0 l -1.02,-0.28 v 0 l -1.03,0.07 v 0 l -1.02,-0.07 v 0 l -1.02,-0.04 v 0 l -1.03,-0.07 v 0 h -1.02 v 0 l -1.03,0.11 v 0 l -1.02,-0.06 v 0 l -1.03,0.36 v 0 l -1.02,0.11 v 0 l -1.02,-0.32 v 0 l -1.03,-0.02 v 0 l -1.02,0.12 v 0 l -1.03,-0.24 v 0 l -1.02,0.05 v 0 l -1.03,-0.26 v 0 l -1.02,-0.38 v 0 l -1.02,-0.13 v 0 l -1.03,-0.21 v 0 l -1.02,-0.13 v 0 l -1.03,0.04 v 0 h -1.02 v 0 l -1.03,0.11 v 0 l -1.02,0.04 v 0 l -1.02,0.24 v 0 l -1.03,-0.22 v 0 l -1.02,0.09 v 0 h -1.03 v 0 l -1.02,0.13 v 0 l -1.03,-0.13 v 0 h -1.02 v 0 l -1.02,0.09 v 0 l -1.03,-0.05 v 0 l -1.02,-0.02 v 0 l -1.03,-0.04 v 0 l -1.02,0.08 v 0 l -1.03,0.07 v 0 l -1.02,0.28 v 0 l -1.02,0.14 v 0 l -1.03,-0.21 v 0 l -1.02,0.13 v 0 l -1.03,-0.02 v 0 l -1.02,0.19 v 0 l -1.03,0.26 v 0 l -1.02,0.23 v 0 l -1.02,0.21 v 0 l -1.03,0.39 v 0 l -1.02,0.08 v 0 l -1.03,-0.53 v 0 l -1.02,-0.15 v 0 l -1.03,0.3 v 0 l -1.02,-0.3 v 0 l -1.02,-0.06 v 0 l -1.03,0.25 v 0 l -1.02,0.26 v 0 l -1.03,-0.17 v 0 l -1.02,0.28 v 0 l -1.03,0.49 v 0 l -1.02,0.21 v 0 l -1.02,0.3 v 0 l -1.03,0.19 v 0 l -1.02,0.32 v 0 h -1.03 v 0 l -1.02,0.41 v 0 l -1.03,-1.56 v 0 l -1.02,0.96 v 0 l -1.02,0.49 v 0 l -1.03,0.21 v 0 l -1.02,-0.42 v 0 l -1.03,0.77 v 0 l -1.02,-1.05 v 0 l -1.03,-0.83 v 0 l -1.02,0.13 v 0 l -1.02,1.34 v 0 l -1.03,-0.15 v 0 l -1.02,0.49 v 0 l -1.03,-1.09 v 0 l -1.02,-0.04 v 0 l -1.03,0.51 v 0 l -1.02,-1.53 v 0 l -1.02,0.25 v 0 l -1.03,0.32 v 0 l -1.02,0.62 v 0 l -1.03,0.3 v 0 l -1.02,1.03 v 0 l -1.03,0.17 v 0 l -1.02,-0.26 v 0 l -1.02,-0.51 v 0 l -1.03,1.41 v 0 l -1.02,-0.92 v 0 l -1.03,0.51 v 0 l -1.02,0.17 v 0 l -1.03,2.05 v 0 l -1.02,0.71 v 0 l -1.02,-2.35 v 0 l -1.03,0.98 v 0 l -1.02,0.08 v 0 l -1.03,0.6 v 0 l -1.02,-0.72 v 0 l -1.03,0.27 v 0 l -1.02,0.24 v 0 l -1.02,0.43 v 0 l -1.03,0.62 v 0 l -1.02,0.76 v 0 l -1.03,0.56 v 0 l -1.02,2.26 v 0 l -1.03,0.09 v 0 l -1.02,0.81 v 0 l -1.02,0.4 v 0 l -1.03,2.2 v 0 l -1.02,1.09 v 0 l -1.03,0.54 v 0 l -1.02,2.07 v 0 l -1.03,0.83 v 0 l -1.02,1.39 v 0 l -1.02,0.43 v 0 l -1.03,0.85 v 0 l -1.02,1.07 v 0 l -1.03,1.06 v 0 l -1.02,-1.06 v 0 l -1.03,1.28 v 0 l -1.02,2.56 v 0 l -1.02,1.28 v 0 l -1.03,-2.77 v 0 l -1.02,1.92 v 0 l -1.03,-2.14 v 0 l -1.02,1.71 v 0 l -1.03,3.42 v 0 l -1.02,-0.43 v 0 l -1.02,0.21 v 0 l -1.03,1.5 v 0 l -1.02,4.27 v 0 l -1.03,-0.86 v 0 l -1.02,-0.85 v 0 l -1.03,1.92 v 0 l -1.02,4.7 v 0 l -1.02,10.67 v 0 l -1.03,-15.37 v 0 l -1.02,8.11 v 0 l -1.03,-0.64 v 0 l -1.02,-1.7 v 0 l -1.03,0.21 v 0 h -1.02 v 0 l -1.02,-7.69 v 0 l -1.03,2.78 v 0 l -1.02,13.02 v 0 l -1.03,-2.35 v 0 l -1.02,-0.85 v 0 l -1.03,2.78 v 0 l -1.02,7.04 v 0 l -1.02,6.62 v 0 l -1.03,-14.31 v 0 l -1.02,-7.68 v 0 l -1.03,2.99 v 0 l -1.02,-6.19 v 0 l -1.03,-3.42 v 0 l -1.02,4.27 v 0 l -1.02,9.61 v 0 l -1.03,9.18 v 0 l -1.02,5.34 v 0 l -1.03,3.2 v 0 L 198,149.9 v 0 l -1.03,-3.63 v 0 l -1.02,-7.9 v 0 l -1.02,7.69 v 0 l -1.03,2.35 v 0 l -1.02,-7.69 v 0 l -1.03,1.5 v 0 l -1.02,-1.71 v 0 l -1.03,-23.49 v 0 l -1.02,2.57 v 0 l -1.02,-1.07 v 0 l -1.03,1.28 v 0 l -1.02,-2.14 v 0 l -1.03,1.28 v 0 l -1.02,-2.56 v 0 l -1.03,-7.47 v 0 l -1.02,-2.99 v 0 l -1.02,2.78 v 0 l -1.03,1.28 v 0 l -1.02,-0.86 v 0 l -1.03,2.14 v 0 l -1.02,1.71 v 0 l -1.03,-6.62 v 0 l -1.02,-2.78 v 0 l -1.02,-2.3 v 0 l -1.03,0.17 v 0 l -1.02,-0.86 v 0 l -1.03,-6.3 v 0 l -1.02,-0.98 v 0 l -1.03,-1.81 v 0 l -1.02,-1.56 v 0 l -1.02,-0.49 v 0 l -1.03,0.62 v 0 L 164.2,88.8 v 0 l -1.03,-1.28 v 0 l -1.02,-0.09 v 0 l -1.03,-0.19 v 0 l -1.02,-0.75 v 0 l -1.02,-0.02 v 0 l -1.03,-0.3 v 0 l -1.02,-0.13 v 0 L 156,85.87 v 0 l -1.02,-0.25 v 0 l -1.03,0.17 v 0 l -1.02,-0.15 v 0 l -1.02,0.68 v 0 l -1.03,-0.64 v 0 l -1.02,0.17 v 0 l -1.03,-0.17 v 0 l -1.02,0.77 v 0 l -1.03,0.34 v 0 l -1.02,-0.19 v 0 l -1.02,-0.56 v 0 l -1.03,-0.49 v 0 l -1.02,-0.7 v 0 l -1.03,-0.32 v 0 l -1.02,-0.24 v 0 l -1.03,-0.02 v 0 l -1.02,-0.08 v 0 l -1.03,0.34 v 0 l -1.02,0.36 v 0 l -1.02,-0.32 v 0 l -1.03,0.66 v 0 l -1.02,-0.02 v 0 l -1.03,0.06 v 0 l -1.02,-0.49 v 0 l -1.03,-0.21 v 0 l -1.02,-0.32 v 0 l -1.02,-0.28 v 0 l -1.03,0.15 v 0 l -1.02,-0.21 v 0 l -1.03,0.06 v 0 l -1.02,-0.06 v 0 l -1.03,-0.07 v 0 L 122.2,83.8 v 0 h -1.02 v 0 l -1.03,-0.32 v 0 l -1.02,0.49 v 0 h -1.03 v 0 l -1.02,0.09 v 0 l -1.03,-0.22 v 0 l -1.02,0.13 v 0 l -1.02,-0.08 v 0 l -1.03,-0.13 v 0 l -1.02,-0.04 v 0 l -1.03,0.06 v 0 l -1.02,0.26 v 0 l -1.03,-0.45 v 0 l -1.02,0.19 v 0 l -1.02,-0.41 v 0 l -1.03,0.3 v 0 l -1.02,-0.06 v 0 l -1.03,0.23 v 0 l -1.02,-0.23 v 0 l -1.03,0.04 v 0 l -1.02,-0.04 v 0 L 99.67,83.5 v 0 l -1.03,-0.21 v 0 l -1.02,0.51 v 0 l -1.03,0.11 v 0 l -1.02,-0.19 v 0 l -1.03,-0.11 v 0 l -1.02,0.3 v 0 L 92.5,83.72 v 0 l -1.03,0.12 v 0 l -1.02,-0.12 v 0 l -1.03,-0.47 v 0 L 88.4,83.08 v 0 l -1.03,-0.03 v 0 l -1.02,0.15 v 0 l -1.02,-0.23 v 0 l -1.03,0.11 v 0 l -1.02,0.02 v 0 l -1.03,0.23 v 0 l -1.02,-0.04 v 0 L 80.2,82.9 v 0 l -1.02,-0.21 v 0 l -1.02,0.17 v 0 l -1.03,-0.21 v 0 l -1.02,-0.09 v 0 l -1.03,0.17 v 0 l -1.02,0.05 v 0 l -1.03,0.04 v 0 l -1.02,0.19 v 0 l -1.02,-0.15 v 0 l -1.03,-0.04 v 0 z"
           style="fill:#7570b3;fill-opacity:0.251;fill-rule:nonzero;stroke:none"
           id="path764" />
        <path
           d="m 69.96,82.46 v 0 l 1.03,0.33 v 0 l 1.02,0.06 v 0 l 1.02,-0.2 v 0 l 1.03,-0.09 v 0 l 1.02,0.29 v 0 l 1.03,0.36 v 0 l 1.02,-0.41 v 0 l 1.03,0.51 v 0 l 1.02,0.13 v 0 l 1.02,0.05 v 0 l 1.03,-0.12 v 0 h 1.02 v 0 l 1.03,0.01 v 0 l 1.02,0.04 v 0 l 1.03,-0.33 v 0 L 86.35,83 v 0 l 1.02,0.01 v 0 h 1.03 v 0 l 1.02,0.09 v 0 l 1.03,0.03 v 0 l 1.02,-0.1 v 0 l 1.03,0.03 v 0 l 1.02,0.02 v 0 l 1.02,-0.13 v 0 l 1.03,0.13 v 0 l 1.02,0.2 v 0 l 1.03,-0.16 v 0 l 1.02,0.12 v 0 l 1.03,-0.05 v 0 h 1.02 v 0 l 1.02,0.4 v 0 l 1.03,-0.09 v 0 l 1.02,0.35 v 0 l 1.03,-0.24 v 0 l 1.02,-0.11 v 0 l 1.03,-0.02 v 0 l 1.02,0.04 v 0 l 1.02,0.14 v 0 l 1.03,0.19 v 0 l 1.02,-0.04 v 0 l 1.03,0.19 v 0 l 1.02,-0.21 v 0 l 1.03,-0.05 v 0 l 1.02,0.06 v 0 l 1.02,1.12 v 0 l 1.03,-0.24 v 0 l 1.02,-0.09 v 0 l 1.03,-0.34 v 0 l 1.02,-0.26 v 0 l 1.03,-0.15 v 0 l 1.02,-0.13 v 0 l 1.02,-0.03 v 0 l 1.03,0.39 v 0 l 1.02,-0.01 v 0 l 1.03,-0.26 v 0 l 1.02,-0.1 v 0 l 1.03,-0.21 v 0 l 1.02,0.93 v 0 l 1.02,0.24 v 0 l 1.03,-0.2 v 0 l 1.02,0.02 v 0 l 1.03,0.04 v 0 l 1.02,0.18 v 0 h 1.03 v 0 l 1.02,0.05 v 0 l 1.02,-0.22 v 0 l 1.03,0.68 v 0 l 1.02,-0.55 v 0 l 1.03,-0.11 v 0 l 1.02,0.41 v 0 l 1.03,2.23 v 0 l 1.02,1.67 v 0 l 1.03,0.87 v 0 l 1.02,-2.01 v 0 l 1.02,-0.67 v 0 l 1.03,0.02 v 0 l 1.02,0.98 v 0 l 1.03,0.66 v 0 l 1.02,0.46 v 0 l 1.03,0.61 v 0 l 1.02,0.3 v 0 l 1.02,0.31 v 0 l 1.03,-0.32 v 0 L 156,88.75 v 0 l 1.03,-1.12 v 0 l 1.02,0.12 v 0 l 1.03,1.07 v 0 l 1.02,0.8 v 0 l 1.02,0.06 v 0 l 1.03,-0.54 v 0 l 1.02,-0.34 v 0 l 1.03,-0.24 v 0 l 1.02,0.36 v 0 l 1.03,1.73 v 0 l 1.02,3.82 v 0 l 1.02,3.49 v 0 l 1.03,1.58 v 0 l 1.02,3.67 v 0 l 1.03,2.97 v 0 l 1.02,1.77 v 0 l 1.03,-2.62 v 0 l 1.02,-3.57 v 0 l 1.02,-1.51 v 0 l 1.03,0.5 v 0 l 1.02,3.33 v 0 l 1.03,1.77 v 0 l 1.02,1.21 v 0 l 1.03,-1.22 v 0 l 1.02,-0.93 v 0 l 1.02,-1.42 v 0 l 1.03,-0.26 v 0 l 1.02,-0.61 v 0 l 1.03,0.22 v 0 l 1.02,0.4 v 0 l 1.03,1.11 v 0 l 1.02,1.53 v 0 l 1.02,-0.4 v 0 l 1.03,0.35 v 0 l 1.02,-0.76 v 0 l 1.03,-1.68 v 0 l 1.02,-0.12 v 0 l 1.03,-0.12 v 0 l 1.02,0.65 v 0 l 1.02,-2.53 v 0 l 1.03,0.21 v 0 l 1.02,1.83 v 0 l 1.03,2.75 v 0 l 1.02,-0.57 v 0 l 1.03,-1.22 v 0 l 1.02,4 v 0 l 1.02,1.76 v 0 l 1.03,-1.23 v 0 l 1.02,-2.45 v 0 l 1.03,0.37 v 0 l 1.02,1.92 v 0 l 1.03,2.14 v 0 l 1.02,1.33 v 0 l 1.02,-1.71 v 0 l 1.03,-1.38 v 0 l 1.02,-2.09 v 0 l 1.03,0.27 v 0 l 1.02,-0.27 v 0 l 1.03,-0.1 v 0 l 1.02,-1.71 v 0 l 1.02,-0.53 v 0 l 1.03,-0.59 v 0 l 1.02,-1.23 v 0 l 1.03,-2.01 v 0 l 1.02,-1.99 v 0 l 1.03,-0.99 v 0 l 1.02,0.37 v 0 l 1.02,1.66 v 0 l 1.03,3.07 v 0 l 1.02,0.91 v 0 l 1.03,4.59 v 0 l 1.02,15.37 v 0 l 1.03,4.43 v 0 l 1.02,0.91 v 0 l 1.02,-0.96 v 0 l 1.03,-1.02 v 0 l 1.02,-0.21 v 0 l 1.03,5.66 v 0 l 1.02,-1.34 v 0 l 1.03,-5.34 v 0 l 1.02,-5.33 v 0 l 1.02,-3.05 v 0 l 1.03,-1.44 v 0 l 1.02,-0.26 v 0 l 1.03,-0.43 v 0 l 1.02,-1.92 v 0 l 1.03,1.87 v 0 l 1.02,-1.34 v 0 l 1.02,-2.88 v 0 l 1.03,-3.15 v 0 l 1.02,-2.56 v 0 l 1.03,-2.51 v 0 l 1.02,-1.47 v 0 l 1.03,-2.09 v 0 l 1.02,-1.51 v 0 l 1.02,-2.02 v 0 l 1.03,-1.26 v 0 l 1.02,2.35 v 0 l 1.03,1.73 v 0 l 1.02,0.39 v 0 l 1.03,0.89 v 0 l 1.02,-1.91 v 0 l 1.02,-2.46 v 0 l 1.03,0.53 v 0 l 1.02,-1.69 v 0 l 1.03,-1.32 v 0 l 1.02,-1.42 v 0 l 1.03,-0.7 v 0 l 1.02,2.12 v 0 l 1.02,0.47 v 0 l 1.03,2.21 v 0 l 1.02,-2.62 v 0 l 1.03,-2.53 v 0 l 1.02,-0.9 v 0 l 1.03,-0.57 v 0 l 1.02,0.46 v 0 l 1.02,-0.13 v 0 l 1.03,0.72 v 0 l 1.02,-0.67 v 0 l 1.03,-0.51 v 0 l 1.02,2.25 v 0 l 1.03,-2.56 v 0 l 1.02,0.82 v 0 l 1.02,-0.03 v 0 l 1.03,-1.65 v 0 l 1.02,1.09 v 0 l 1.03,0.61 v 0 l 1.02,-0.14 v 0 l 1.03,-1.11 v 0 l 1.02,2.16 v 0 l 1.02,-0.91 v 0 l 1.03,-2.06 v 0 l 1.02,0.33 v 0 l 1.03,0.71 v 0 l 1.02,1.72 v 0 l 1.03,-1.06 v 0 l 1.02,-1.74 v 0 l 1.02,-0.95 v 0 h 1.03 v 0 l 1.02,0.23 v 0 l 1.03,-1.11 v 0 l 1.02,-0.1 v 0 l 1.03,-0.54 v 0 l 1.02,-0.41 v 0 l 1.02,-0.04 v 0 l 1.03,0.88 v 0 l 1.02,0.44 v 0 l 1.03,-0.23 v 0 l 1.02,-0.63 v 0 l 1.03,-0.83 v 0 l 1.02,-0.08 v 0 l 1.02,-0.34 v 0 l 1.03,-0.12 v 0 l 1.02,3.19 v 0 l 1.03,-1.84 v 0 l 1.02,-0.59 v 0 l 1.03,-0.7 v 0 l 1.02,-0.36 v 0 l 1.02,-0.21 v 0 l 1.03,0.05 v 0 l 1.02,-0.2 v 0 l 1.03,-0.08 v 0 l 1.02,0.26 v 0 l 1.03,0.19 v 0 l 1.02,-0.21 v 0 l 1.02,-0.03 v 0 l 1.03,-0.06 v 0 l 1.02,-0.16 v 0 l 1.03,0.05 v 0 l 1.02,0.33 v 0 l 1.03,-0.23 v 0 l 1.02,-0.22 v 0 l 1.02,-0.28 v 0 l 1.03,-0.12 v 0 l 1.02,0.3 v 0 l 1.03,-0.15 v 0 l 1.02,-0.41 v 0 l 1.03,-0.16 v 0 l 1.02,-0.19 v 0 l 1.02,0.1 v 0 l 1.03,0.14 v 0 l 1.02,0.29 v 0 l 1.03,0.26 v 0 l 1.02,0.01 v 0 l 1.03,-0.33 v 0 l 1.02,-0.22 v 0 l 1.02,0.31 v 0 l 1.03,0.3 v 0 l 1.02,-0.29 v 0 l 1.03,-0.09 v 0 h 1.02 v 0 l 1.03,-0.05 v 0 l 1.02,0.76 v 0 l 1.02,0.03 v 0 l 1.03,1.96 v 0 l 1.02,-0.88 v 0 l 1.03,-0.42 v 0 l 1.02,-0.3 v 0 l 1.03,-0.04 v 0 l 1.02,-0.22 v 0 l 1.02,-0.02 v 0 l 1.03,0.06 v 0 l 1.02,0.06 v 0 h 1.03 v 0 l 1.02,0.02 v 0 l 1.03,-0.01 v 0 l 1.02,0.04 v 0 h 1.02 v 0 l 1.03,0.19 v 0 l 1.02,-0.08 v 0 l 1.03,-0.02 v 0 l 1.02,0.02 v 0 l 1.03,0.05 v 0 l 1.02,-0.01 v 0 l 1.02,0.08 v 0 l 1.03,0.06 v 0 l 1.02,-0.05 v 0 l 1.03,0.01 v 0 l 1.02,-0.05 v 0 l 1.03,-0.11 v 0 h 1.02 v 0 l 1.02,0.08 v 0 l 1.03,-0.08 v 0 l 1.02,-0.09 v 0 l 1.03,-0.01 v 0 l 1.02,0.05 v 0 l 1.03,0.04 v 0 l 1.02,-0.01 v 0 l 1.02,-0.01 v 0 l 1.03,-0.08 v 0 l 1.02,-0.11 v 0 l 1.03,0.02 v 0 l 1.02,-0.07 v 0 h 1.03 v 0 l 1.02,-0.09 v 0 l 1.02,-0.01 v 0 l 1.03,0.07 v 0 l 1.02,0.02 v 0 h 1.03 v 0 l 1.02,0.21 v 0 l 1.03,0.33 v 0 l 1.02,-0.13 v 0 l 1.02,0.18 v 0 l 1.03,-0.39 v 0 l 1.02,-0.1 v 0 l 1.03,0.1 v 0 L 409,83.04 v 0 l 1.03,0.15 v 0 l 1.02,0.17 v 0 l 1.02,0.07 v 0 l 1.03,-0.57 v 0 l 1.02,-0.02 v 0 l 1.03,0.16 v 0 l 1.02,-0.05 v 0 l 1.03,-0.35 v 0 l 1.02,0.12 v 0 l 1.02,0.13 v 0 l 1.03,-0.04 v 0 l 1.02,0.22 v 0 l 1.03,0.2 v 0 l 1.02,-0.06 v 0 l 1.03,-0.05 v 0 l 1.02,0.4 v 0 l 1.02,-0.1 v 0 l 1.03,-0.18 v 0 l 1.02,-0.29 v 0 l 1.03,0.14 v 0 l 1.02,-0.15 v 0 l 1.03,0.01 v 0 l 1.02,0.09 v 0 l 1.02,-0.15 v 0 l 1.03,0.14 v 0 l 1.02,-0.16 v 0 l 1.03,0.32 v 0 l 1.02,-0.01 v 0 l 1.03,-0.04 v 0 l 1.02,-0.36 v 0 l 1.02,0.09 v 0 l 1.03,-0.09 v 0 l 1.02,-0.29 v 0 l 1.03,0.53 v 0 -0.49 0 l -1.03,-0.81 v 0 l -1.02,-0.07 v 0 h -1.03 v 0 l -1.02,0.29 v 0 l -1.02,0.02 v 0 L 437.68,82 v 0 l -1.02,0.05 v 0 l -1.03,-0.23 v 0 l -1.02,0.13 v 0 l -1.03,-0.31 v 0 l -1.02,-0.13 v 0 l -1.02,0.21 v 0 l -1.03,-0.03 v 0 l -1.02,-0.02 v 0 l -1.03,0.09 v 0 l -1.02,-0.05 v 0 l -1.03,0.02 v 0 l -1.02,0.02 v 0 l -1.02,-0.07 v 0 l -1.03,-0.06 v 0 l -1.02,0.22 v 0 l -1.03,0.2 v 0 h -1.02 v 0 l -1.03,-0.23 v 0 l -1.02,-0.11 v 0 l -1.02,0.04 v 0 l -1.03,0.1 v 0 l -1.02,0.18 v 0 l -1.03,0.03 v 0 l -1.02,0.22 v 0 l -1.03,0.37 v 0 l -1.02,-0.04 v 0 l -1.02,-0.54 v 0 L 409,82.11 v 0 l -1.02,0.07 v 0 l -1.03,0.28 v 0 l -1.02,-0.08 v 0 l -1.03,-0.22 v 0 l -1.02,0.02 v 0 l -1.02,-0.16 v 0 l -1.03,0.21 v 0 l -1.02,0.09 v 0 l -1.03,0.28 v 0 l -1.02,-0.1 v 0 l -1.03,-0.12 v 0 l -1.02,-0.21 v 0 l -1.02,-0.09 v 0 l -1.03,0.08 v 0 l -1.02,0.25 v 0 l -1.03,0.04 v 0 l -1.02,0.03 v 0 l -1.03,-0.1 v 0 l -1.02,-0.05 v 0 h -1.02 v 0 l -1.03,0.03 v 0 l -1.02,-0.01 v 0 l -1.03,0.14 v 0 l -1.02,0.04 v 0 l -1.03,0.01 v 0 l -1.02,0.01 v 0 l -1.02,0.06 v 0 l -1.03,-0.07 v 0 L 379.3,82.5 v 0 l -1.03,0.03 v 0 l -1.02,0.15 v 0 l -1.03,0.02 v 0 l -1.02,-0.08 v 0 l -1.02,-0.02 v 0 l -1.03,-0.05 v 0 l -1.02,-0.11 v 0 l -1.03,-0.02 v 0 l -1.02,0.04 v 0 l -1.03,0.06 v 0 l -1.02,0.02 v 0 l -1.02,-0.07 v 0 l -1.03,-0.19 v 0 l -1.02,-0.13 v 0 l -1.03,0.08 v 0 l -1.02,0.13 v 0 l -1.03,0.28 v 0 l -1.02,0.03 v 0 l -1.02,0.03 v 0 l -1.03,-0.57 v 0 l -1.02,-0.03 v 0 l -1.03,-0.09 v 0 h -1.02 v 0 l -1.03,-0.08 v 0 l -1.02,-0.25 v 0 l -1.02,-0.58 v 0 l -1.03,-0.19 v 0 l -1.02,-0.09 v 0 h -1.03 v 0 l -1.02,0.12 v 0 l -1.03,0.04 v 0 l -1.02,-0.18 v 0 l -1.02,0.01 v 0 l -1.03,0.03 v 0 l -1.02,0.03 v 0 l -1.03,0.06 v 0 l -1.02,0.1 v 0 l -1.03,0.06 v 0 l -1.02,-0.18 v 0 h -1.02 v 0 l -1.03,0.05 v 0 l -1.02,0.14 v 0 l -1.03,0.05 v 0 l -1.02,-0.12 v 0 h -1.03 v 0 l -1.02,-0.25 v 0 l -1.02,-0.03 v 0 l -1.03,0.02 v 0 l -1.02,0.2 v 0 l -1.03,-0.08 v 0 l -1.02,0.06 v 0 l -1.03,0.2 v 0 l -1.02,0.36 v 0 l -1.02,-0.11 v 0 l -1.03,0.28 v 0 l -1.02,0.08 v 0 l -1.03,-0.04 v 0 L 319.89,81 v 0 l -1.03,-0.01 v 0 l -1.02,-0.01 v 0 l -1.02,0.13 v 0 l -1.03,0.42 v 0 l -1.02,0.65 v 0 l -1.03,0.07 v 0 l -1.02,-0.8 v 0 l -1.03,0.23 v 0 l -1.02,0.45 v 0 l -1.02,0.6 v 0 l -1.03,0.39 v 0 l -1.02,-0.33 v 0 l -1.03,0.12 v 0 l -1.02,0.11 v 0 L 304.52,81 v 0 l -1.02,-0.04 v 0 l -1.02,0.11 v 0 l -1.03,0.1 v 0 l -1.02,0.1 v 0 l -1.03,-0.36 v 0 l -1.02,0.11 v 0 l -1.03,-0.04 v 0 l -1.02,0.04 v 0 l -1.02,0.14 v 0 l -1.03,0.37 v 0 l -1.02,0.28 v 0 l -1.03,0.45 v 0 l -1.02,0.29 v 0 l -1.03,0.22 v 0 l -1.02,0.33 v 0 l -1.02,0.07 v 0 l -1.03,0.3 v 0 l -1.02,1.07 v 0 l -1.03,-0.28 v 0 l -1.02,-0.23 v 0 l -1.03,0.21 v 0 l -1.02,-0.76 v 0 l -1.02,-1.96 v 0 l -1.03,-0.46 v 0 l -1.02,-0.05 v 0 l -1.03,-0.02 v 0 l -1.02,0.03 v 0 l -1.03,0.04 v 0 l -1.02,0.01 v 0 l -1.02,0.12 v 0 l -1.03,0.14 v 0 l -1.02,0.71 v 0 l -1.03,0.56 v 0 l -1.02,-1.36 v 0 l -1.03,-0.01 v 0 l -1.02,0.1 v 0 l -1.02,0.1 v 0 l -1.03,0.22 v 0 l -1.02,0.22 v 0 l -1.03,0.25 v 0 l -1.02,0.2 v 0 l -1.03,0.13 v 0 l -1.02,-0.05 v 0 l -1.02,0.12 v 0 l -1.03,0.44 v 0 l -1.02,-0.06 v 0 l -1.03,-0.08 v 0 l -1.02,0.11 v 0 l -1.03,0.19 v 0 l -1.02,0.44 v 0 l -1.02,0.51 v 0 l -1.03,0.09 v 0 l -1.02,0.26 v 0 l -1.03,0.16 v 0 l -1.02,0.04 v 0 l -1.03,0.71 v 0 l -1.02,-0.26 v 0 l -1.02,1.09 v 0 l -1.03,1.12 v 0 l -1.02,-0.78 v 0 l -1.03,0.23 v 0 l -1.02,1.03 v 0 l -1.03,0.47 v 0 l -1.02,-0.6 v 0 l -1.02,-0.19 v 0 l -1.03,-0.03 v 0 l -1.02,0.84 v 0 l -1.03,1.14 v 0 l -1.02,0.43 v 0 l -1.03,2.16 v 0 L 231.8,90.9 v 0 l -1.02,-0.54 v 0 l -1.03,-0.39 v 0 l -1.02,-0.78 v 0 l -1.03,-0.46 v 0 l -1.02,-0.59 v 0 l -1.03,-0.68 v 0 l -1.02,0.09 v 0 l -1.02,1.36 v 0 l -1.03,-1.42 v 0 l -1.02,-0.8 v 0 l -1.03,-0.38 v 0 l -1.02,0.4 v 0 l -1.03,-0.42 v 0 l -1.02,0.85 v 0 l -1.02,0.72 v 0 l -1.03,0.93 v 0 l -1.02,0.8 v 0 l -1.03,-0.88 v 0 l -1.02,-0.67 v 0 l -1.03,-0.52 v 0 l -1.02,0.07 v 0 l -1.02,0.12 v 0 l -1.03,0.11 v 0 l -1.02,0.46 v 0 l -1.03,0.37 v 0 l -1.02,0.78 v 0 l -1.03,-0.8 v 0 l -1.02,-0.31 v 0 l -1.02,0.39 v 0 l -1.03,0.33 v 0 l -1.02,-0.16 v 0 l -1.03,-0.48 v 0 L 198,86.89 v 0 l -1.03,-0.94 v 0 l -1.02,-0.45 v 0 l -1.02,-0.46 v 0 l -1.03,-0.96 v 0 l -1.02,-0.25 v 0 l -1.03,-0.09 v 0 l -1.02,0.1 v 0 l -1.03,0.15 v 0 l -1.02,-0.17 v 0 l -1.02,-0.48 v 0 l -1.03,-0.18 v 0 l -1.02,0.1 v 0 l -1.03,0.26 v 0 l -1.02,0.57 v 0 l -1.03,0.35 v 0 l -1.02,-0.05 v 0 l -1.02,0.01 v 0 l -1.03,0.34 v 0 l -1.02,0.09 v 0 l -1.03,0.11 v 0 l -1.02,0.85 v 0 l -1.03,0.45 v 0 l -1.02,0.04 v 0 l -1.02,0.1 v 0 l -1.03,-0.14 v 0 l -1.02,-0.07 v 0 l -1.03,-0.5 v 0 l -1.02,-0.71 v 0 l -1.03,0.06 v 0 l -1.02,-0.67 v 0 l -1.02,-0.06 v 0 l -1.03,-0.3 v 0 l -1.02,-0.61 v 0 l -1.03,0.54 v 0 l -1.02,-0.01 v 0 l -1.03,-0.03 v 0 l -1.02,0.04 v 0 l -1.02,0.11 v 0 l -1.03,-0.56 v 0 l -1.02,-0.05 v 0 L 156,83.54 v 0 l -1.02,0.06 v 0 l -1.03,0.06 v 0 l -1.02,0.04 v 0 l -1.02,-0.17 v 0 l -1.03,0.1 v 0 h -1.02 v 0 l -1.03,-0.66 v 0 l -1.02,0.01 v 0 l -1.03,0.11 v 0 l -1.02,-0.24 v 0 l -1.02,-0.23 v 0 l -1.03,0.01 v 0 l -1.02,-0.15 v 0 l -1.03,0.04 v 0 l -1.02,-0.06 v 0 l -1.03,0.08 v 0 l -1.02,0.02 v 0 l -1.03,0.26 v 0 h -1.02 v 0 l -1.02,0.1 v 0 l -1.03,0.12 v 0 l -1.02,-0.17 v 0 l -1.03,-0.03 v 0 l -1.02,-0.02 v 0 l -1.03,-0.01 v 0 l -1.02,0.01 v 0 l -1.02,-0.21 v 0 l -1.03,-0.26 v 0 l -1.02,0.14 v 0 l -1.03,0.24 v 0 l -1.02,0.04 v 0 l -1.03,-0.07 v 0 l -1.02,-0.05 v 0 l -1.02,-0.06 v 0 l -1.03,-0.13 v 0 l -1.02,0.19 v 0 l -1.03,0.16 v 0 l -1.02,-0.11 v 0 l -1.03,0.04 v 0 l -1.02,-0.08 v 0 l -1.02,-0.09 v 0 l -1.03,0.12 v 0 l -1.02,-0.05 v 0 l -1.03,-0.16 v 0 l -1.02,-0.03 v 0 l -1.03,0.08 v 0 l -1.02,0.16 v 0 l -1.02,0.09 v 0 l -1.03,0.09 v 0 l -1.02,0.1 v 0 l -1.03,-0.2 v 0 l -1.02,-0.42 v 0 h -1.03 v 0 l -1.02,0.12 v 0 l -1.02,-0.2 v 0 l -1.03,-0.29 v 0 l -1.02,-0.11 v 0 l -1.03,-0.05 v 0 l -1.02,-0.06 v 0 l -1.03,-0.02 v 0 l -1.02,0.07 v 0 l -1.02,0.04 v 0 l -1.03,-0.02 v 0 l -1.02,0.08 v 0 l -1.03,0.16 v 0 L 88.4,82.04 v 0 l -1.03,-0.05 v 0 l -1.02,-0.14 v 0 L 85.33,81.8 v 0 L 84.3,81.74 v 0 l -1.02,-0.02 v 0 h -1.03 v 0 l -1.02,0.04 v 0 L 80.2,81.75 v 0 l -1.02,-0.01 v 0 l -1.02,0.06 v 0 l -1.03,0.18 v 0 l -1.02,0.07 v 0 l -1.03,-0.34 v 0 l -1.02,0.12 v 0 l -1.03,0.1 v 0 l -1.02,-0.02 v 0 l -1.02,0.04 v 0 l -1.03,-0.01 v 0 z"
           style="fill:#d95f02;fill-opacity:0.251;fill-rule:nonzero;stroke:none"
           id="path766" />
        <path
           d="m 69.96,82.23 1.03,0.13 1.02,-0.01 1.02,-0.05 1.03,-0.08 1.02,0.17 1.03,0.2 1.02,-0.08 1.03,0.1 1.02,0.17 1.02,0.04 1.03,-0.17 1.02,-0.06 1.03,0.01 1.02,-0.03 1.03,-0.06 1.02,-0.01 h 1.02 1.03 l 1.02,0.02 1.03,0.02 1.02,-0.04 1.03,-0.02 1.02,-0.02 1.02,-0.13 1.03,0.06 1.02,0.09 1.03,-0.07 1.02,0.08 1.03,0.09 1.02,0.14 1.02,0.09 1.03,0.02 1.02,0.31 1.03,0.46 1.02,-0.47 1.03,-0.08 1.02,-0.11 h 1.02 l 1.03,0.07 1.02,0.01 1.03,0.12 1.02,-0.05 1.03,0.06 1.02,0.13 1.02,0.83 1.03,0.95 1.02,-1.24 1.03,-0.33 1.02,0.04 1.03,-0.13 1.02,-0.14 1.02,0.04 1.03,0.09 h 1.02 l 1.03,-0.17 1.02,-0.15 1.03,0.03 1.02,0.31 1.02,0.48 1.03,0.44 1.02,0.89 1.03,-0.64 1.02,-0.48 1.03,-0.17 1.02,0.1 1.02,0.12 1.03,0.27 1.02,-0.21 1.03,-0.2 1.02,-0.03 1.03,1.75 1.02,0.73 1.03,-0.67 1.02,0.06 1.02,0.65 1.03,0.45 1.02,0.76 1.03,0.91 1.02,0.48 1.03,0.01 1.02,0.29 1.02,-0.33 1.03,-0.56 1.02,-0.56 1.03,0.02 1.02,-0.29 1.03,0.54 1.02,0.64 1.02,0.63 1.03,0.85 1.02,0.62 h 1.03 l 1.02,0.4 1.03,0.3 1.02,1.23 1.02,1.22 1.03,0.98 1.02,1.51 1.03,1.48 1.02,-0.25 1.03,-1.65 1.02,-0.89 1.02,-0.28 h 1.03 l 1.02,1.4 1.03,0.88 1.02,1.15 1.03,1.62 1.02,1.4 1.02,-0.67 1.03,-0.76 1.02,-0.51 1.03,0.07 1.02,-0.62 1.03,0.66 1.02,0.92 1.02,-0.14 1.03,-0.46 1.02,1.25 1.03,1.31 1.02,-0.32 1.03,-0.68 1.02,-1.62 1.02,1.08 1.03,1.1 1.02,1.28 1.03,1.26 1.02,-0.8 1.03,-1.9 1.02,-1.65 1.02,-1.33 1.03,-1.06 1.02,-0.03 1.03,0.39 1.02,0.39 1.03,1.26 1.02,0.53 1.02,-0.53 1.03,-0.35 1.02,-0.59 1.03,-0.23 1.02,-0.64 1.03,0.71 1.02,0.03 1.02,-0.43 1.03,-0.19 1.02,-0.28 1.03,0.09 1.02,-0.85 1.03,-0.27 1.02,-0.88 1.02,0.64 1.03,1.43 1.02,1.21 1.03,2.04 1.02,3.37 1.03,4.09 1.02,1.82 1.02,0.84 1.03,1.03 1.02,1.77 1.03,0.86 1.02,-0.57 1.03,-0.76 1.02,-1.07 1.02,-1.16 1.03,-1.53 1.02,-2.3 1.03,-2.65 1.02,-1.48 1.03,0.99 1.02,-0.61 1.02,-0.94 1.03,-2.33 1.02,-2.91 1.03,-1.12 1.02,-0.61 1.03,-0.05 1.02,-0.8 1.02,0.69 1.03,0.46 1.02,0.27 1.03,-0.25 1.02,-0.6 1.03,-1.37 1.02,-1.36 1.02,-0.63 1.03,0.08 1.02,-1.34 1.03,-1.18 1.02,-1.09 1.03,-1.02 1.02,0.1 1.02,-0.07 1.03,0.61 1.02,-0.24 1.03,-1.21 1.02,-0.47 1.03,-0.52 1.02,-0.23 1.02,0.01 1.03,0.21 1.02,-0.04 1.03,-0.11 1.02,0.96 1.03,-0.21 1.02,0.91 1.02,-0.25 1.03,-0.81 1.02,0.14 1.03,-0.31 1.02,-0.16 1.03,-0.17 1.02,1.78 1.02,-1.53 1.03,-0.76 1.02,0.05 1.03,0.4 1.02,0.49 1.03,-0.22 1.02,-1.39 1.02,-0.72 1.03,-0.14 1.02,-0.02 1.03,-0.39 1.02,-0.04 1.03,-0.23 1.02,-0.18 1.02,-0.02 1.03,0.78 1.02,2.76 1.03,-1.58 1.02,-1.04 1.03,-0.73 1.02,-0.06 1.02,-0.2 1.03,0.04 1.02,1.74 1.03,-0.65 1.02,-0.9 1.03,-0.29 1.02,-0.17 1.02,-0.21 1.03,-0.1 1.02,0.11 1.03,-0.1 1.02,0.25 1.03,-0.02 1.02,-0.04 1.02,-0.42 1.03,-0.19 1.02,-0.13 h 1.03 l 1.02,0.26 1.03,-0.27 1.02,-0.08 1.02,0.04 1.03,-0.12 1.02,0.11 1.03,-0.2 1.02,-0.22 1.03,-0.06 1.02,-0.05 1.02,0.07 1.03,0.7 1.02,-0.11 1.03,-0.21 1.02,0.04 1.03,-0.18 1.02,-0.11 1.02,0.18 1.03,0.12 1.02,-0.22 1.03,0.01 1.02,0.07 h 1.03 l 1.02,0.57 1.02,0.59 1.03,0.62 1.02,0.07 1.03,-0.63 1.02,-0.3 1.03,0.21 1.02,-0.16 1.02,-0.06 1.03,-0.04 1.02,0.12 1.03,-0.09 1.02,0.01 1.03,0.05 1.02,0.04 1.02,0.05 1.03,0.26 1.02,0.15 1.03,0.8 1.02,-0.48 1.03,-0.27 1.02,-0.12 1.02,0.13 1.03,0.03 1.02,-0.14 1.03,-0.03 1.02,0.03 1.03,-0.05 1.02,-0.09 1.02,0.06 1.03,0.07 1.02,0.17 1.03,-0.09 1.02,-0.12 1.03,-0.06 1.02,-0.05 1.02,0.02 1.03,0.05 1.02,-0.05 1.03,-0.05 1.02,-0.13 1.03,-0.06 1.02,0.05 1.02,0.18 1.03,-0.03 1.02,-0.11 1.03,-0.06 1.02,-0.07 1.03,0.07 h 1.02 1.02 l 1.03,0.04 1.02,0.01 1.03,-0.16 1.02,-0.1 1.03,0.12 1.02,0.31 1.02,-0.03 1.03,-0.51 1.02,-0.11 1.03,0.02 1.02,-0.02 1.03,-0.15 1.02,0.07 1.02,0.15 1.03,0.03 1.02,0.12 h 1.03 l 1.02,-0.1 1.03,-0.01 1.02,0.1 1.02,0.01 1.03,0.01 1.02,-0.2 1.03,0.05 1.02,-0.07 1.03,-0.12 1.02,-0.03 1.02,0.05 1.03,0.13 1.02,-0.02 1.03,0.37 1.02,0.01 1.03,-0.09 1.02,-0.38 1.02,-0.03 1.03,0.02 1.02,0.05 1.03,0.48"
           style="fill:none;stroke:#d95f02;stroke-width:1.07;stroke-linecap:butt;stroke-linejoin:round;stroke-miterlimit:10;stroke-dasharray:none;stroke-opacity:1"
           id="path768" />
        <path
           d="m 69.96,84.32 1.03,-0.28 1.02,-0.22 1.02,-0.19 1.03,-0.01 1.02,0.04 1.03,0.04 1.02,0.16 1.03,0.08 1.02,-0.08 1.02,0.06 1.03,0.41 1.02,0.17 1.03,0.22 1.02,0.73 1.03,-0.76 1.02,-0.12 1.02,-0.1 1.03,-0.3 1.02,0.09 1.03,-0.02 1.02,0.24 1.03,0.12 1.02,0.19 1.02,-0.23 1.03,0.09 1.02,-0.07 1.03,-0.1 1.02,-0.09 1.03,0.05 1.02,-0.11 1.02,0.12 1.03,0.12 1.02,1.11 1.03,0.04 1.02,-0.74 1.03,-0.09 1.02,-0.21 1.02,0.24 1.03,0.04 1.02,-0.09 1.03,0.09 1.02,-0.09 1.03,0.61 1.02,-0.14 1.02,-0.33 h 1.03 l 1.02,-0.01 1.03,-0.05 1.02,0.07 1.03,1.25 1.02,0.22 1.02,0.02 1.03,0.97 1.02,0.15 1.03,-0.42 1.02,0.54 1.03,0.52 1.02,-0.86 1.02,0.31 1.03,-0.75 1.02,0.33 1.03,2.88 1.02,-1.67 1.03,-1.02 1.02,-0.92 1.02,-0.47 1.03,-0.08 1.02,0.74 1.03,0.13 1.02,0.11 1.03,1.17 1.02,0.29 1.03,0.16 1.02,-0.12 1.02,-0.23 1.03,-0.24 1.02,0.7 1.03,0.63 1.02,0.2 1.03,1.06 1.02,1.41 1.02,1.26 1.03,0.46 1.02,-0.75 1.03,1.21 1.02,-1.01 1.03,-0.37 1.02,0.97 1.02,1.59 1.03,2.62 1.02,3.74 1.03,3.37 1.02,5.48 1.03,5.33 1.02,7.06 1.02,-1.11 1.03,-3.57 1.02,2.98 1.03,4.91 1.02,4.53 1.03,5.02 1.02,2.24 1.02,4.26 1.03,1.75 1.02,1.29 1.03,8.37 1.02,5.94 1.03,2.47 1.02,2.91 1.02,7.44 1.03,12.91 1.02,10.72 1.03,-2.49 1.02,-7.11 1.03,-7.51 1.02,-3.58 1.02,0.87 1.03,-0.43 1.02,4.5 1.03,0.18 1.02,-2.61 1.03,0.63 1.02,3.4 1.02,5.02 1.03,-2.64 1.02,-1.04 1.03,1.81 1.02,-1.41 1.03,-0.72 1.02,2.26 1.02,2.2 1.03,-0.65 1.02,-3.24 1.03,-1.4 1.02,-1.75 1.03,-2.39 1.02,-5.61 1.02,-4.91 1.03,-5.54 1.02,-2.65 1.03,-2.95 1.02,-3.67 1.03,-1.49 1.02,0.53 1.02,0.52 1.03,-0.99 1.02,-1.46 1.03,-0.55 1.02,-0.64 1.03,0.55 1.02,-4.54 1.02,-2.95 1.03,-0.98 1.02,-0.09 1.03,-0.76 1.02,-3.24 1.03,-1.6 1.02,-0.67 1.02,2.62 1.03,-2.15 1.02,-1.15 1.03,0.47 1.02,-2.7 1.03,-0.12 1.02,-2.8 1.02,-2.47 1.03,-0.76 1.02,1.82 1.03,3.37 1.02,1.45 1.03,-2.97 1.02,0.17 1.02,-0.31 1.03,-1.14 1.02,-2.57 1.03,-2.78 1.02,-2.41 1.03,-2.68 1.02,-2.41 1.02,-2.49 1.03,-1.24 1.02,-2.96 1.03,-1.93 1.02,-1.84 1.03,-1.45 1.02,-1.53 1.02,-1.26 1.03,-1.25 1.02,-0.58 1.03,-1.1 1.02,-0.76 1.03,-0.21 1.02,0.58 1.02,-2.46 1.03,-1.05 1.02,-0.02 1.03,-0.81 1.02,-0.24 1.03,-1.16 1.02,-0.63 1.02,-0.23 1.03,0.14 1.02,-0.84 1.03,-0.6 1.02,0.33 1.03,-0.41 1.02,-0.51 1.02,-0.54 1.03,-0.54 1.02,0.33 1.03,-0.1 h 1.02 l 1.03,-0.22 1.02,-0.6 1.02,-0.13 1.03,-0.32 1.02,1.36 1.03,1.24 1.02,-0.63 1.03,2.17 1.02,-1.47 1.02,-1.56 1.03,0.66 1.02,0.03 1.03,-0.55 1.02,-0.8 1.03,-0.29 1.02,-0.15 1.02,0.33 1.03,0.76 1.02,-0.79 1.03,-0.57 1.02,2.32 1.03,-0.24 1.02,-0.16 1.02,-0.17 1.03,-1.15 1.02,-0.23 1.03,0.6 1.02,-0.32 1.03,1.02 1.02,-0.25 1.02,0.3 1.03,-0.67 1.02,-0.46 1.03,-0.46 1.02,-0.4 1.03,0.2 1.02,1.03 1.02,-1.13 1.03,-1.31 1.02,0.83 1.03,0.6 1.02,2.12 1.03,-1.27 1.02,-1.6 1.02,-0.34 1.03,-0.55 1.02,-0.3 1.03,-0.24 1.02,0.96 h 1.03 l 1.02,-0.36 1.02,0.12 1.03,2.7 1.02,1.01 1.03,-1.89 1.02,-0.8 1.03,-0.41 1.02,0.19 1.02,-0.46 1.03,1.38 1.02,1.34 1.03,2.45 1.02,-0.14 1.03,-0.02 1.02,-0.13 1.02,-0.63 1.03,2.54 1.02,-3.92 1.03,-0.57 1.02,-0.66 1.03,-0.35 1.02,0.06 1.02,2 1.03,15.77 1.02,-4.89 1.03,-5.74 1.02,-2.16 1.03,-1.56 1.02,-0.7 1.02,-0.54 1.03,2.05 1.02,1.97 1.03,-0.82 1.02,-1.58 1.03,0.22 1.02,2.92 1.02,-1.17 1.03,-1.69 1.02,-0.65 1.03,-0.36 1.02,-0.78 1.03,-0.96 1.02,-0.29 1.02,-0.65 1.03,-0.43 1.02,-0.14 1.03,-0.17 1.02,-0.03 1.03,0.11 1.02,-0.34 1.02,0.03 1.03,-0.1 1.02,-0.15 1.03,0.04 1.02,-0.12 1.03,-0.21 h 1.02 l 1.02,0.22 1.03,-0.01 1.02,0.22 1.03,0.09 1.02,-0.19 1.03,-0.21 1.02,-0.19 1.02,-0.16 1.03,-0.08 1.02,0.13 1.03,-0.01 1.02,0.01 1.03,0.03 1.02,0.1 1.02,-0.1 1.03,0.06 1.02,0.03 1.03,-0.07 1.02,0.02 1.03,-0.19 1.02,-0.12 1.02,-0.15 1.03,0.02 1.02,0.06 1.03,-0.05 1.02,-0.15 1.03,0.37 1.02,-0.04 1.02,-0.27 1.03,-0.04 1.02,0.11 1.03,-0.14 1.02,-0.08 1.03,-0.06 1.02,0.05 1.02,0.05 1.03,0.16 1.02,0.18 1.03,0.08 1.02,0.04 1.03,-0.13 1.02,-0.15 1.02,-0.08 h 1.03 l 1.02,0.07 1.03,-0.4"
           style="fill:none;stroke:#7570b3;stroke-width:1.07;stroke-linecap:butt;stroke-linejoin:round;stroke-miterlimit:10;stroke-dasharray:none;stroke-opacity:1"
           id="path770" />
      </g>
    </g>
    <g
       id="g772" />
    <g
       id="g774">
      <g
         id="g776"
         clip-path="url(#clipPath780)" />
    </g>
    <path
       d="m 51.27,263.44 h 411.25 v 19.09 H 51.27 Z"
       style="fill:#ffffff;fill-opacity:1;fill-rule:nonzero;stroke:#000000;stroke-width:2.13;stroke-linecap:round;stroke-linejoin:round;stroke-miterlimit:10;stroke-dasharray:none;stroke-opacity:1"
       id="path790"
       clip-path="url(#clipPath1909)" />
    <text
       xml:space="preserve"
       transform="scale(1,-1)"
       style="font-variant:normal;font-weight:bold;font-size:11px;font-family:Helvetica;-inkscape-font-specification:Helvetica-Bold;writing-mode:lr-tb;fill:#1a1a1a;fill-opacity:1;fill-rule:nonzero;stroke:none"
       id="text794"
       x="190.23705"
       y="-270.10876"><tspan
         sodipodi:role="line"
         id="tspan792"
         x="190.23705"
         y="-270.10876">Dolores River at Gateway</tspan></text>
    <g
       id="g796">
      <g
         id="g798"
         clip-path="url(#clipPath802)" />
    </g>
    <g
       id="g804">
      <g
         id="g806"
         clip-path="url(#clipPath810)" />
    </g>
    <g
       id="g812">
      <g
         id="g814"
         clip-path="url(#clipPath818)" />
    </g>
    <g
       id="g820" />
    <g
       id="g822" />
    <g
       id="g824" />
    <g
       id="g826" />
    <g
       id="g828">
      <path
         d="M 51.27,72.05 H 462.52"
         style="fill:none;stroke:#000000;stroke-width:1.07;stroke-linecap:butt;stroke-linejoin:round;stroke-miterlimit:10;stroke-dasharray:none;stroke-opacity:1"
         id="path830" />
    </g>
    <g
       id="g832" />
    <g
       id="g834" />
    <g
       id="g836">
      <path
         d="m 68.94,69.31 v 2.74"
         style="fill:none;stroke:#333333;stroke-width:1.07;stroke-linecap:butt;stroke-linejoin:round;stroke-miterlimit:10;stroke-dasharray:none;stroke-opacity:1"
         id="path838" />
      <path
         d="m 171.37,69.31 v 2.74"
         style="fill:none;stroke:#333333;stroke-width:1.07;stroke-linecap:butt;stroke-linejoin:round;stroke-miterlimit:10;stroke-dasharray:none;stroke-opacity:1"
         id="path840" />
      <path
         d="m 273.8,69.31 v 2.74"
         style="fill:none;stroke:#333333;stroke-width:1.07;stroke-linecap:butt;stroke-linejoin:round;stroke-miterlimit:10;stroke-dasharray:none;stroke-opacity:1"
         id="path842" />
      <path
         d="m 376.22,69.31 v 2.74"
         style="fill:none;stroke:#333333;stroke-width:1.07;stroke-linecap:butt;stroke-linejoin:round;stroke-miterlimit:10;stroke-dasharray:none;stroke-opacity:1"
         id="path844" />
    </g>
    <g
       id="g846" />
    <g
       id="g848">
      <text
         xml:space="preserve"
         transform="matrix(1,0,0,-1,66.16,59.93)"
         style="font-variant:normal;font-weight:normal;font-size:10px;font-family:Helvetica;-inkscape-font-specification:Helvetica;writing-mode:lr-tb;fill:#4d4d4d;fill-opacity:1;fill-rule:nonzero;stroke:none"
         id="text852"><tspan
           x="0"
           y="0"
           id="tspan850">0</tspan></text>
      <text
         xml:space="preserve"
         transform="matrix(1,0,0,-1,163.03,59.93)"
         style="font-variant:normal;font-weight:normal;font-size:10px;font-family:Helvetica;-inkscape-font-specification:Helvetica;writing-mode:lr-tb;fill:#4d4d4d;fill-opacity:1;fill-rule:nonzero;stroke:none"
         id="text856"><tspan
           x="0 5.5599999 11.12"
           y="0"
           sodipodi:role="line"
           id="tspan854">100</tspan></text>
      <text
         xml:space="preserve"
         transform="matrix(1,0,0,-1,265.46,59.93)"
         style="font-variant:normal;font-weight:normal;font-size:10px;font-family:Helvetica;-inkscape-font-specification:Helvetica;writing-mode:lr-tb;fill:#4d4d4d;fill-opacity:1;fill-rule:nonzero;stroke:none"
         id="text860"><tspan
           x="0 5.5599999 11.12"
           y="0"
           sodipodi:role="line"
           id="tspan858">200</tspan></text>
      <text
         xml:space="preserve"
         transform="matrix(1,0,0,-1,367.88,59.93)"
         style="font-variant:normal;font-weight:normal;font-size:10px;font-family:Helvetica;-inkscape-font-specification:Helvetica;writing-mode:lr-tb;fill:#4d4d4d;fill-opacity:1;fill-rule:nonzero;stroke:none"
         id="text864"><tspan
           x="0 5.5599999 11.12"
           y="0"
           sodipodi:role="line"
           id="tspan862">300</tspan></text>
    </g>
    <g
       id="g866" />
    <g
       id="g868" />
    <g
       id="g870" />
    <g
       id="g872" />
    <g
       id="g874" />
    <g
       id="g876" />
    <g
       id="g878">
      <path
         d="M 51.27,72.05 V 263.44"
         style="fill:none;stroke:#000000;stroke-width:1.07;stroke-linecap:butt;stroke-linejoin:round;stroke-miterlimit:10;stroke-dasharray:none;stroke-opacity:1"
         id="path880" />
    </g>
    <g
       id="g882" />
    <g
       id="g884" />
    <g
       id="g886">
      <text
         xml:space="preserve"
         transform="matrix(1,0,0,-1,40.78,76.5)"
         style="font-variant:normal;font-weight:normal;font-size:10px;font-family:Helvetica;-inkscape-font-specification:Helvetica;writing-mode:lr-tb;fill:#4d4d4d;fill-opacity:1;fill-rule:nonzero;stroke:none"
         id="text890"><tspan
           x="0"
           y="0"
           id="tspan888">0</tspan></text>
      <text
         xml:space="preserve"
         transform="matrix(1,0,0,-1,24.1,130.33)"
         style="font-variant:normal;font-weight:normal;font-size:10px;font-family:Helvetica;-inkscape-font-specification:Helvetica;writing-mode:lr-tb;fill:#4d4d4d;fill-opacity:1;fill-rule:nonzero;stroke:none"
         id="text894"><tspan
           x="0 5.5599999 11.12 16.68"
           y="0"
           sodipodi:role="line"
           id="tspan892">5000</tspan></text>
      <text
         xml:space="preserve"
         transform="matrix(1,0,0,-1,18.54,184.17)"
         style="font-variant:normal;font-weight:normal;font-size:10px;font-family:Helvetica;-inkscape-font-specification:Helvetica;writing-mode:lr-tb;fill:#4d4d4d;fill-opacity:1;fill-rule:nonzero;stroke:none"
         id="text898"><tspan
           x="0 5.5599999 11.12 16.68 22.24"
           y="0"
           sodipodi:role="line"
           id="tspan896">10000</tspan></text>
      <text
         xml:space="preserve"
         transform="matrix(1,0,0,-1,18.54,238)"
         style="font-variant:normal;font-weight:normal;font-size:10px;font-family:Helvetica;-inkscape-font-specification:Helvetica;writing-mode:lr-tb;fill:#4d4d4d;fill-opacity:1;fill-rule:nonzero;stroke:none"
         id="text902"><tspan
           x="0 5.5599999 11.12 16.68 22.24"
           y="0"
           sodipodi:role="line"
           id="tspan900">15000</tspan></text>
    </g>
    <g
       id="g904" />
    <g
       id="g906" />
    <g
       id="g908">
      <path
         d="m 48.53,80.09 h 2.74"
         style="fill:none;stroke:#333333;stroke-width:1.07;stroke-linecap:butt;stroke-linejoin:round;stroke-miterlimit:10;stroke-dasharray:none;stroke-opacity:1"
         id="path910" />
      <path
         d="m 48.53,133.92 h 2.74"
         style="fill:none;stroke:#333333;stroke-width:1.07;stroke-linecap:butt;stroke-linejoin:round;stroke-miterlimit:10;stroke-dasharray:none;stroke-opacity:1"
         id="path912" />
      <path
         d="m 48.53,187.76 h 2.74"
         style="fill:none;stroke:#333333;stroke-width:1.07;stroke-linecap:butt;stroke-linejoin:round;stroke-miterlimit:10;stroke-dasharray:none;stroke-opacity:1"
         id="path914" />
      <path
         d="m 48.53,241.59 h 2.74"
         style="fill:none;stroke:#333333;stroke-width:1.07;stroke-linecap:butt;stroke-linejoin:round;stroke-miterlimit:10;stroke-dasharray:none;stroke-opacity:1"
         id="path916" />
    </g>
    <g
       id="g918" />
    <g
       id="g920" />
    <g
       id="g922" />
    <g
       id="g924" />
    <g
       id="g926" />
    <g
       id="g928" />
    <g
       id="g930" />
    <g
       id="g932" />
    <g
       id="g934"
       transform="translate(-0.32451836)">
      <text
         xml:space="preserve"
         transform="matrix(1,0,0,-1,227.18,47.1)"
         style="font-variant:normal;font-weight:bold;font-size:11px;font-family:Helvetica;-inkscape-font-specification:Helvetica-Bold;writing-mode:lr-tb;fill:#000000;fill-opacity:1;fill-rule:nonzero;stroke:none"
         id="text938"><tspan
           x="0 7.9419999 13.838 19.954 23.011999 29.733 33.396 36.453999 42.910999 49.027 55.143002"
           y="0"
           sodipodi:role="line"
           id="tspan936">Day of Year</tspan></text>
    </g>
    <g
       id="g940" />
    <g
       id="g942" />
    <g
       id="g944">
      <text
         xml:space="preserve"
         transform="matrix(0,1,1,0,13.38,116.42)"
         style="font-variant:normal;font-weight:bold;font-size:11px;font-family:Helvetica;-inkscape-font-specification:Helvetica-Bold;writing-mode:lr-tb;fill:#000000;fill-opacity:1;fill-rule:nonzero;stroke:none"
         id="text948"><tspan
           x="0 9.1630001 15.279 21.395 28.115999 31.174 37.895 40.952999 47.069 53.075001 59.796001 63.91 70.740997 76.967003 80.025002 83.083 89.198997 92.862 95.919998"
           y="0"
           sodipodi:role="line"
           id="tspan946">Mean dischrge, af/d</tspan></text>
    </g>
    <g
       id="g950" />
    <g
       id="g952" />
    <g
       id="g954" />
    <g
       id="g956" />
    <g
       id="g958" />
    <g
       id="g960" />
    <g
       id="g962" />
    <g
       id="g964" />
    <g
       id="g970" />
    <g
       id="g972" />
    <g
       id="g974" />
    <g
       id="g982" />
    <g
       id="g984" />
    <g
       id="g986" />
    <g
       id="g988" />
    <g
       id="g990" />
    <g
       id="g996" />
    <g
       id="g1002" />
    <g
       id="g1004" />
    <g
       id="g1006" />
    <g
       id="g1012" />
    <g
       id="g1018" />
    <g
       id="g1020" />
    <g
       id="g1022" />
    <g
       id="g1030" />
    <g
       id="g1032" />
    <g
       id="g1034" />
    <g
       id="g1036" />
    <g
       id="g1038" />
    <g
       id="g1046" />
    <g
       id="g1048" />
    <g
       id="g1050" />
    <g
       id="g1052" />
    <g
       id="g1054" />
    <g
       id="g1056" />
    <g
       id="g1062" />
    <g
       id="g1064" />
    <g
       id="g1066" />
    <g
       id="g1074" />
    <g
       id="g1076" />
    <g
       id="g1078" />
    <g
       id="g1080" />
    <g
       id="g1082" />
    <g
       id="g1088" />
    <g
       id="g1090" />
    <g
       id="g1092" />
    <g
       id="g1098" />
    <g
       id="g1100" />
    <g
       id="g1102" />
    <g
       id="g1110" />
    <g
       id="g1112" />
    <g
       id="g1114" />
    <g
       id="g1116" />
    <g
       id="g1118" />
    <g
       id="g1126" />
    <g
       id="g1128" />
    <g
       id="g1130" />
    <g
       id="g1132" />
    <g
       id="g1134" />
    <g
       id="g1136" />
    <g
       id="g1138" />
    <g
       id="g1140" />
    <g
       id="g1142" />
    <g
       id="g1144" />
    <g
       id="g1146" />
    <g
       id="g1148" />
    <g
       id="g1150" />
    <g
       id="g1152" />
    <g
       id="g1154" />
    <g
       id="g1156" />
    <g
       id="g1938"
       transform="translate(118.975,1.4888654)">
      <g
         id="g966"
         style="stroke:#000000;stroke-opacity:1">
        <path
           d="M 24.43,5.48 H 251.41 V 33.72 H 24.43 Z"
           style="fill:#ffffff;fill-opacity:1;fill-rule:nonzero;stroke:#000000;stroke-opacity:1"
           id="path968" />
      </g>
      <g
         id="g976">
        <text
           xml:space="preserve"
           transform="matrix(1,0,0,-1,29.91,15.65)"
           style="font-variant:normal;font-weight:normal;font-size:11px;font-family:Helvetica;-inkscape-font-specification:Helvetica;writing-mode:lr-tb;fill:#000000;fill-opacity:1;fill-rule:nonzero;stroke:none"
           id="text980"><tspan
             x="0 6.7210002 9.1630001 18.326 24.441999 27.5 34.286999 40.403 44.230999 46.673 52.789001"
             y="0"
             sodipodi:role="line"
             id="tspan978">Time Period</tspan></text>
      </g>
      <g
         id="g992">
        <path
           d="m 95.01,11.67 h 15.86 V 27.53 H 95.01 Z"
           style="fill:#7570b3;fill-opacity:0.251;fill-rule:nonzero;stroke:none"
           id="path994" />
      </g>
      <path
         d="M 95.449115,11.67 H 111.30911 V 27.53 H 95.449115 Z"
         style="fill:#7570b3;fill-opacity:0.251;fill-rule:nonzero;stroke:none"
         id="path1000" />
      <g
         id="g1008">
        <path
           d="m 173.56,11.67 h 15.86 v 15.86 h -15.86 z"
           style="fill:#d95f02;fill-opacity:0.251;fill-rule:nonzero;stroke:none"
           id="path1010" />
      </g>
      <g
         id="g1014"
         transform="translate(0.30269102)">
        <path
           d="m 173.56,11.67 h 15.86 v 15.86 h -15.86 z"
           style="fill:#d95f02;fill-opacity:0.251;fill-rule:nonzero;stroke:none"
           id="path1016" />
      </g>
      <g
         id="g1024">
        <text
           xml:space="preserve"
           transform="matrix(1,0,0,-1,117.06,16.01)"
           style="font-variant:normal;font-weight:normal;font-size:10px;font-family:Helvetica;-inkscape-font-specification:Helvetica;writing-mode:lr-tb;fill:#000000;fill-opacity:1;fill-rule:nonzero;stroke:none"
           id="text1028"><tspan
             x="0 5.5599999 11.12 16.68 22.24 28.08 33.639999 39.200001 44.759998"
             y="0"
             sodipodi:role="line"
             id="tspan1026">19301949</tspan></text>
      </g>
      <g
         id="g1040">
        <text
           xml:space="preserve"
           transform="matrix(1,0,0,-1,195.62,16.01)"
           style="font-variant:normal;font-weight:normal;font-size:10px;font-family:Helvetica;-inkscape-font-specification:Helvetica;writing-mode:lr-tb;fill:#000000;fill-opacity:1;fill-rule:nonzero;stroke:none"
           id="text1044"><tspan
             x="0 5.5599999 11.12 16.68 22.24 28.08 33.639999 39.200001 44.759998"
             y="0"
             sodipodi:role="line"
             id="tspan1042">20002021</tspan></text>
      </g>
      <path
         d="M 95.448991,19.6 H 111.30924"
         style="fill:none;stroke:#7570b3;stroke-width:1.14585;stroke-linecap:butt;stroke-linejoin:round;stroke-miterlimit:10;stroke-dasharray:none;stroke-opacity:1"
         id="path1096" />
      <g
         id="g1084"
         transform="matrix(1.1476303,0,0,1,-209.41153,0)">
        <path
           d="m 333.97,19.6 h 13.82"
           style="fill:none;stroke:#d95f02;stroke-width:1.07;stroke-linecap:butt;stroke-linejoin:round;stroke-miterlimit:10;stroke-dasharray:none;stroke-opacity:1"
           id="path1086" />
      </g>
    </g>
  </g>
</svg>
