<?xml version="1.0" encoding="UTF-8" standalone="no"?>
<!-- Created with Inkscape (http://www.inkscape.org/) -->

<svg
   version="1.1"
   id="svg686"
   width="624"
   height="234.06564"
   viewBox="0 0 624 234.06564"
   sodipodi:docname="dolo_comparison.svg"
   inkscape:version="1.2.1 (9c6d41e, 2022-07-14)"
   xmlns:inkscape="http://www.inkscape.org/namespaces/inkscape"
   xmlns:sodipodi="http://sodipodi.sourceforge.net/DTD/sodipodi-0.dtd"
   xmlns="http://www.w3.org/2000/svg"
   xmlns:svg="http://www.w3.org/2000/svg">
  <defs
     id="defs690">
    <clipPath
       clipPathUnits="userSpaceOnUse"
       id="clipPath748">
      <path
         d="M 0,0 H 468 V 216 H 0 Z"
         id="path746" />
    </clipPath>
    <clipPath
       clipPathUnits="userSpaceOnUse"
       id="clipPath1779">
      <g
         id="g1783">
        <path
           d="M 51.27,72.05 H 462.52 V 210.52 H 51.27 Z"
           id="path1781" />
      </g>
    </clipPath>
    <clipPath
       clipPathUnits="userSpaceOnUse"
       id="clipPath1785">
      <g
         id="g1789">
        <path
           d="M 51.27,72.05 H 462.52 V 210.52 H 51.27 Z"
           id="path1787" />
      </g>
    </clipPath>
    <clipPath
       clipPathUnits="userSpaceOnUse"
       id="clipPath1791">
      <g
         id="g1795">
        <path
           d="M 51.27,72.05 H 462.52 V 210.52 H 51.27 Z"
           id="path1793" />
      </g>
    </clipPath>
    <clipPath
       clipPathUnits="userSpaceOnUse"
       id="clipPath1797">
      <g
         id="g1801">
        <path
           d="M 51.27,72.05 H 462.52 V 210.52 H 51.27 Z"
           id="path1799" />
      </g>
    </clipPath>
    <clipPath
       clipPathUnits="userSpaceOnUse"
       id="clipPath1803">
      <g
         id="g1807">
        <path
           d="M 51.27,72.05 H 462.52 V 210.52 H 51.27 Z"
           id="path1805" />
      </g>
    </clipPath>
  </defs>
  <sodipodi:namedview
     id="namedview688"
     pagecolor="#ffffff"
     bordercolor="#000000"
     borderopacity="0.25"
     inkscape:showpageshadow="2"
     inkscape:pageopacity="0.0"
     inkscape:pagecheckerboard="0"
     inkscape:deskcolor="#d1d1d1"
     showgrid="false"
     inkscape:zoom="1.4647436"
     inkscape:cx="312"
     inkscape:cy="144.05252"
     inkscape:window-width="1419"
     inkscape:window-height="776"
     inkscape:window-x="0"
     inkscape:window-y="25"
     inkscape:window-maximized="0"
     inkscape:current-layer="g694">
    <inkscape:page
       x="0"
       y="0"
       id="page692"
       width="624"
       height="234.06564"
       inkscape:export-filename="dolo_comparison.png"
       inkscape:export-xdpi="300"
       inkscape:export-ydpi="300" />
  </sodipodi:namedview>
  <g
     id="g694"
     inkscape:groupmode="layer"
     inkscape:label="Page 1"
     transform="matrix(1.3333333,0,0,-1.3333333,0,287.99999)">
    <g
       id="g700" />
    <g
       id="g702" />
    <g
       id="g704" />
    <g
       id="g706" />
    <g
       id="g708" />
    <g
       id="g710" />
    <g
       id="g712" />
    <g
       id="g714" />
    <g
       id="g716" />
    <g
       id="g718" />
    <g
       id="g720" />
    <g
       id="g722" />
    <g
       id="g724" />
    <g
       id="g726" />
    <g
       id="g728" />
    <g
       id="g730" />
    <g
       id="g732" />
    <g
       id="g734" />
    <g
       id="g736" />
    <g
       id="g738" />
    <g
       id="g740" />
    <g
       id="g752" />
    <path
       d="m 69.96,80.86 v 0 l 1.03,0.19 v 0 l 1.02,-0.41 v 0 l 1.02,0.13 v 0 l 1.03,0.34 v 0 l 1.02,-0.05 v 0 l 1.03,-0.05 v 0 l 1.02,-0.34 v 0 l 1.03,-0.06 v 0 l 1.02,0.03 v 0 l 1.02,0.03 v 0 l 1.03,0.56 v 0 l 1.02,0.74 v 0 l 1.03,-0.15 v 0 l 1.02,-0.23 v 0 l 1.03,0.21 v 0 l 1.02,-0.23 v 0 l 1.02,-0.54 v 0 l 1.03,0.29 v 0 l 1.02,-0.31 v 0 l 1.03,-0.24 v 0 l 1.02,0.57 v 0 l 1.03,0.2 v 0 l 1.02,0.05 v 0 l 1.02,-0.3 v 0 l 1.03,0.31 v 0 l 1.02,-0.29 v 0 l 1.03,-0.2 v 0 l 1.02,0.06 v 0 l 1.03,0.09 v 0 l 1.02,-0.52 v 0 l 1.02,0.52 v 0 h 1.03 v 0 l 1.02,0.23 v 0 l 1.03,-0.12 v 0 l 1.02,-0.11 v 0 l 1.03,0.2 v 0 l 1.02,0.23 v 0 l 1.02,-0.07 v 0 l 1.03,0.14 v 0 l 1.02,-0.03 v 0 l 1.03,-0.13 v 0 l 1.02,-0.06 v 0 l 1.03,-0.06 v 0 l 1.02,-0.19 v 0 l 1.02,0.1 v 0 l 1.03,0.37 v 0 l 1.02,-0.05 v 0 l 1.03,0.19 v 0 l 1.02,-0.14 v 0 l 1.03,0.34 v 0 l 1.02,0.18 v 0 l 1.02,0.76 v 0 l 1.03,1.85 v 0 l 1.02,-0.49 v 0 l 1.03,-0.13 v 0 l 1.02,0.25 v 0 l 1.03,-0.49 v 0 l 1.02,0.49 v 0 l 1.02,-0.12 v 0 l 1.03,-0.31 v 0 l 1.02,0.56 v 0 l 1.03,0.67 v 0 l 1.02,-0.66 v 0 l 1.03,-0.57 v 0 l 1.02,-0.62 v 0 l 1.02,-0.18 v 0 l 1.03,-0.05 v 0 l 1.02,0.26 v 0 l 1.03,-0.46 v 0 l 1.02,0.08 v 0 l 1.03,0.46 v 0 l 1.02,0.39 v 0 l 1.03,2.34 v 0 l 1.02,-1.22 v 0 l 1.02,0.06 v 0 l 1.03,0.27 v 0 l 1.02,0.79 v 0 l 1.03,0.98 v 0 l 1.02,-1.88 v 0 l 1.03,1.19 v 0 l 1.02,0.59 v 0 l 1.02,-1.47 v 0 l 1.03,-0.22 v 0 l 1.02,1.79 v 0 l 1.03,4.04 v 0 l 1.02,-0.7 v 0 l 1.03,-1.28 v 0 l 1.02,1.16 v 0 l 1.02,6.61 v 0 l 1.03,-0.31 v 0 l 1.02,1.7 v 0 l 1.03,11.28 v 0 l 1.02,-3.09 v 0 l 1.03,-6.8 v 0 l 1.02,5.1 v 0 l 1.02,-2.01 v 0 l 1.03,0.77 v 0 l 1.02,5.41 v 0 l 1.03,3.71 v 0 l 1.02,0.77 v 0 l 1.03,10.97 v 0 l 1.02,-7.11 v 0 l 1.02,5.72 v 0 l 1.03,5.87 v 0 l 1.02,-1.7 v 0 l 1.03,15.6 v 0 l 1.02,11.43 v 0 l 1.03,41.09 v 0 l 1.02,4.79 v 0 l 1.02,-13.59 v 0 l 1.03,8.34 v 0 l 1.02,9.27 v 0 l 1.03,-7.26 v 0 l 1.02,-4.64 v 0 l 1.03,-24.87 v 0 l 1.02,12.98 v 0 l 1.02,-1.55 v 0 l 1.03,-6.8 v 0 l 1.02,2.32 v 0 l 1.03,4.17 v 0 l 1.02,-1.7 v 0 l 1.03,-6.33 v 0 l 1.02,-2.93 v 0 l 1.02,6.48 v 0 l 1.03,-8.18 v 0 l 1.02,-1.09 v 0 l 1.03,12.52 v 0 l 1.02,6.79 v 0 l 1.03,-3.7 v 0 l 1.02,1.85 v 0 l 1.02,4.33 v 0 l 1.03,-8.81 v 0 l 1.02,-6.64 v 0 l 1.03,-3.86 v 0 l 1.02,-6.03 v 0 l 1.03,-4.01 v 0 l 1.02,-2.17 v 0 l 1.02,-0.31 v 0 l 1.03,0.93 v 0 l 1.02,6.02 v 0 l 1.03,8.96 v 0 l 1.02,2.63 v 0 l 1.03,-4.94 v 0 l 1.02,-11.59 v 0 l 1.02,-12.82 v 0 l 1.03,-11.28 v 0 l 1.02,0.47 v 0 l 1.03,6.79 v 0 l 1.02,11.13 v 0 l 1.03,3.7 v 0 l 1.02,-4.17 v 0 l 1.02,-4.94 v 0 l 1.03,-2.94 v 0 l 1.02,-0.92 v 0 l 1.03,3.86 v 0 l 1.02,-6.49 v 0 l 1.03,-2.93 v 0 l 1.02,5.56 v 0 l 1.02,-7.73 v 0 l 1.03,-6.64 v 0 l 1.02,-2.63 v 0 l 1.03,-1.54 v 0 l 1.02,4.02 v 0 l 1.03,5.4 v 0 l 1.02,-2.16 v 0 l 1.02,-9.11 v 0 l 1.03,-2.17 v 0 l 1.02,2.94 v 0 l 1.03,5.71 v 0 l 1.02,2.63 v 0 l 1.03,-1.54 v 0 l 1.02,1.69 v 0 l 1.02,0.62 v 0 l 1.03,-4.79 v 0 l 1.02,-8.18 v 0 l 1.03,-3.4 v 0 l 1.02,-2.32 v 0 l 1.03,-0.46 v 0 l 1.02,-2.47 v 0 l 1.02,4.94 v 0 l 1.03,-1.85 v 0 l 1.02,-1.86 v 0 l 1.03,-6.95 v 0 l 1.02,-4.63 v 0 l 1.03,-1.7 v 0 l 1.02,-2.17 v 0 l 1.02,0.31 v 0 l 1.03,1.39 v 0 l 1.02,-2.16 v 0 l 1.03,0.93 v 0 l 1.02,-1.39 v 0 l 1.03,1.23 v 0 l 1.02,-1.08 v 0 l 1.02,-1.64 v 0 l 1.03,-3.39 v 0 l 1.02,0.98 v 0 l 1.03,-0.89 v 0 l 1.02,-0.77 v 0 l 1.03,-0.65 v 0 l 1.02,-0.33 v 0 l 1.02,-0.43 v 0 l 1.03,-0.22 v 0 l 1.02,-0.6 v 0 l 1.03,-0.83 v 0 l 1.02,0.74 v 0 l 1.03,-1.59 v 0 l 1.02,0.35 v 0 l 1.02,-0.69 v 0 l 1.03,-0.57 v 0 l 1.02,0.86 v 0 l 1.03,-0.85 v 0 l 1.02,0.16 v 0 l 1.03,-0.67 v 0 l 1.02,0.06 v 0 l 1.02,-0.37 v 0 l 1.03,-0.49 v 0 l 1.02,1.17 v 0 l 1.03,0.42 v 0 l 1.02,0.6 v 0 l 1.03,1.73 v 0 l 1.02,-2.89 v 0 l 1.02,-0.51 v 0 l 1.03,2.34 v 0 l 1.02,0.2 v 0 l 1.03,-0.02 v 0 l 1.02,-1.65 v 0 l 1.03,-0.93 v 0 l 1.02,-0.74 v 0 l 1.02,0.25 v 0 l 1.03,0.54 v 0 l 1.02,-1.3 v 0 l 1.03,0.91 v 0 l 1.02,-0.55 v 0 l 1.03,1.29 v 0 l 1.02,0.16 v 0 l 1.02,-0.73 v 0 l 1.03,-0.65 v 0 l 1.02,-0.17 v 0 l 1.03,1.55 v 0 l 1.02,0.01 v 0 l 1.03,-0.77 v 0 l 1.02,-1.22 v 0 l 1.02,3.88 v 0 l 1.03,1.59 v 0 l 1.02,-1.82 v 0 l 1.03,-2.32 v 0 l 1.02,-0.06 v 0 l 1.03,-0.3 v 0 l 1.02,0.58 v 0 l 1.02,-1.32 v 0 l 1.03,-0.32 v 0 l 1.02,-0.09 v 0 l 1.03,-0.44 v 0 l 1.02,-0.21 v 0 l 1.03,1.2 v 0 l 1.02,-1.02 v 0 l 1.02,2.35 v 0 l 1.03,-1.14 v 0 L 335.25,82 v 0 l 1.03,-0.6 v 0 l 1.02,1.39 v 0 l 1.03,-0.42 v 0 l 1.02,-0.34 v 0 l 1.02,-0.2 v 0 l 1.03,-0.03 v 0 l 1.02,-0.23 v 0 l 1.03,-0.26 v 0 l 1.02,-0.11 v 0 l 1.03,-0.12 v 0 l 1.02,0.89 v 0 l 1.02,-0.65 v 0 l 1.03,0.9 v 0 l 1.02,-0.77 v 0 l 1.03,-0.08 v 0 l 1.02,-0.39 v 0 l 1.03,-0.31 v 0 l 1.02,-0.06 v 0 l 1.02,0.22 v 0 l 1.03,0.15 v 0 l 1.02,0.51 v 0 h 1.03 v 0 h 1.02 v 0 h 1.03 v 0 l 1.02,1.87 v 0 l 1.02,0.79 v 0 l 1.03,-0.86 v 0 l 1.02,-0.25 v 0 l 1.03,-0.31 v 0 l 1.02,0.45 v 0 l 1.03,-0.93 v 0 l 1.02,-0.22 v 0 l 1.02,-0.26 v 0 l 1.03,-0.04 v 0 l 1.02,-0.1 v 0 l 1.03,-0.04 v 0 l 1.02,-0.1 v 0 l 1.03,-0.07 v 0 l 1.02,-0.16 v 0 l 1.02,0.23 v 0 h 1.03 v 0 h 1.02 v 0 l 1.03,0.3 v 0 l 1.02,-0.3 v 0 h 1.03 v 0 l 1.02,-0.44 v 0 l 1.02,0.1 v 0 l 1.03,-0.2 v 0 h 1.02 v 0 h 1.03 v 0 h 1.02 v 0 h 1.03 v 0 h 1.02 v 0 h 1.02 v 0 l 1.03,0.2 v 0 l 1.02,-0.2 v 0 l 1.03,0.53 v 0 l 1.02,-0.28 v 0 l 1.03,-0.25 v 0 l 1.02,-0.01 v 0 l 1.02,0.09 v 0 l 1.03,-0.08 v 0 h 1.02 v 0 l 1.03,0.42 v 0 h 1.02 v 0 l 1.03,-0.17 v 0 l 1.02,-0.25 v 0 l 1.02,0.45 v 0 l 1.03,-0.26 v 0 l 1.02,-0.03 v 0 l 1.03,-0.28 v 0 l 1.02,0.12 v 0 h 1.03 v 0 l 1.02,0.03 v 0 l 1.02,-0.03 v 0 l 1.03,0.03 v 0 l 1.02,0.11 v 0 l 1.03,-0.04 v 0 l 1.02,0.26 v 0 l 1.03,-0.36 v 0 h 1.02 v 0 l 1.02,-0.03 v 0 l 1.03,0.13 v 0 l 1.02,-0.17 v 0 h 1.03 v 0 l 1.02,-0.08 v 0 l 1.03,-0.16 v 0 l 1.02,0.39 v 0 l 1.02,-0.11 v 0 l 1.03,-0.04 v 0 l 1.02,-0.02 v 0 l 1.03,-0.06 v 0 l 1.02,0.15 v 0 l 1.03,0.08 v 0 l 1.02,0.15 v 0 l 1.02,-0.23 v 0 l 1.03,0.19 v 0 l 1.02,-0.03 v 0 l 1.03,0.51 v 0 l 1.02,0.34 v 0 l 1.03,-0.33 v 0 l 1.02,-0.26 v 0 l 1.02,-0.15 v 0 l 1.03,-0.07 v 0 l 1.02,-0.09 v 0 h 1.03 v 0 -1.05 0 L 442.8,79.7 v 0 l -1.02,0.28 v 0 l -1.03,0.32 v 0 l -1.02,-0.09 v 0 l -1.02,0.34 v 0 l -1.03,-0.11 v 0 l -1.02,-0.18 v 0 l -1.03,0.32 v 0 l -1.02,-0.41 v 0 l -1.03,-0.24 v 0 l -1.02,-0.14 v 0 l -1.02,0.08 v 0 l -1.03,-0.08 v 0 l -1.02,0.24 v 0 l -1.03,0.31 v 0 l -1.02,-0.04 v 0 l -1.03,-0.06 v 0 l -1.02,-0.12 v 0 h -1.02 v 0 l -1.03,-0.22 v 0 l -1.02,0.05 v 0 l -1.03,0.15 v 0 l -1.02,0.05 v 0 l -1.03,0.03 v 0 h -1.02 v 0 l -1.02,0.03 v 0 l -1.03,-0.06 v 0 l -1.02,-0.26 v 0 l -1.03,0.14 v 0 l -1.02,0.14 v 0 l -1.03,-0.27 v 0 l -1.02,0.17 v 0 l -1.02,-0.17 v 0 L 409,80.09 v 0 l -1.02,0.17 v 0 l -1.03,0.08 v 0 L 405.93,80 v 0 l -1.03,-0.11 v 0 l -1.02,0.18 v 0 l -1.02,0.23 v 0 l -1.03,-0.15 v 0 h -1.02 v 0 l -1.03,0.11 v 0 h -1.02 v 0 l -1.03,-0.05 v 0 l -1.02,-0.06 v 0 L 395.69,80 v 0 l -1.03,0.12 v 0 l -1.02,0.06 v 0 l -1.03,-0.08 v 0 l -1.02,0.05 v 0 h -1.03 v 0 l -1.02,-0.05 v 0 l -1.02,0.11 v 0 l -1.03,0.05 v 0 l -1.02,-0.08 v 0 l -1.03,0.03 v 0 l -1.02,-0.03 v 0 l -1.03,0.19 v 0 l -1.02,0.12 v 0 l -1.02,0.08 v 0 l -1.03,-0.2 v 0 l -1.02,-0.22 v 0 l -1.03,-0.11 v 0 l -1.02,0.06 v 0 l -1.03,0.08 v 0 L 375.2,79.9 v 0 h -1.02 v 0 h -1.03 v 0 h -1.02 v 0 L 371.1,80 v 0 h -1.02 v 0 l -1.03,0.07 v 0 l -1.02,-0.01 v 0 L 367.01,80 v 0 h -1.03 v 0 l -1.02,0.03 v 0 l -1.03,-0.08 v 0 l -1.02,-0.2 v 0 l -1.03,0.04 v 0 l -1.02,-0.04 v 0 l -1.02,-0.03 v 0 l -1.03,-0.05 v 0 h -1.02 v 0 l -1.03,0.08 v 0 l -1.02,-0.05 v 0 l -1.03,0.26 v 0 l -1.02,0.08 v 0 l -1.02,-0.23 v 0 l -1.03,-0.02 v 0 l -1.02,0.1 v 0 l -1.03,-0.18 v 0 l -1.02,0.04 v 0 l -1.03,-0.19 v 0 l -1.02,-0.28 v 0 l -1.02,-0.09 v 0 l -1.03,-0.15 v 0 l -1.02,-0.1 v 0 l -1.03,0.04 v 0 h -1.02 v 0 l -1.03,0.07 v 0 l -1.02,0.03 v 0 l -1.02,0.17 v 0 L 337.3,79.1 v 0 l -1.02,0.06 v 0 h -1.03 v 0 l -1.02,0.09 v 0 l -1.03,-0.09 v 0 h -1.02 v 0 l -1.02,0.06 v 0 l -1.03,-0.03 v 0 l -1.02,-0.01 v 0 l -1.03,-0.03 v 0 l -1.02,0.06 v 0 l -1.03,0.04 v 0 l -1.02,0.2 v 0 l -1.02,0.11 v 0 l -1.03,-0.15 v 0 l -1.02,0.09 v 0 l -1.03,-0.01 v 0 l -1.02,0.13 v 0 l -1.03,0.19 v 0 l -1.02,0.17 v 0 l -1.02,0.15 v 0 l -1.03,0.28 v 0 l -1.02,0.06 v 0 l -1.03,-0.38 v 0 l -1.02,-0.11 v 0 l -1.03,0.22 v 0 l -1.02,-0.22 v 0 l -1.02,-0.05 v 0 l -1.03,0.19 v 0 l -1.02,0.18 v 0 l -1.03,-0.12 v 0 l -1.02,0.2 v 0 l -1.03,0.36 v 0 l -1.02,0.15 v 0 l -1.02,0.22 v 0 l -1.03,0.14 v 0 l -1.02,0.23 v 0 h -1.03 v 0 l -1.02,0.29 v 0 l -1.03,-1.13 v 0 l -1.02,0.7 v 0 l -1.02,0.35 v 0 l -1.03,0.16 v 0 l -1.02,-0.31 v 0 l -1.03,0.56 v 0 l -1.02,-0.76 v 0 l -1.03,-0.6 v 0 l -1.02,0.09 v 0 l -1.02,0.97 v 0 l -1.03,-0.11 v 0 l -1.02,0.36 v 0 l -1.03,-0.79 v 0 l -1.02,-0.03 v 0 l -1.03,0.37 v 0 l -1.02,-1.11 v 0 l -1.02,0.18 v 0 l -1.03,0.24 v 0 l -1.02,0.44 v 0 l -1.03,0.22 v 0 l -1.02,0.74 v 0 l -1.03,0.13 v 0 l -1.02,-0.19 v 0 l -1.02,-0.37 v 0 l -1.03,1.02 v 0 l -1.02,-0.66 v 0 l -1.03,0.37 v 0 l -1.02,0.12 v 0 l -1.03,1.48 v 0 l -1.02,0.51 v 0 l -1.02,-1.7 v 0 l -1.03,0.71 v 0 l -1.02,0.07 v 0 l -1.03,0.43 v 0 l -1.02,-0.53 v 0 l -1.03,0.2 v 0 l -1.02,0.17 v 0 l -1.02,0.31 v 0 l -1.03,0.45 v 0 l -1.02,0.56 v 0 l -1.03,0.4 v 0 l -1.02,1.64 v 0 l -1.03,0.06 v 0 l -1.02,0.58 v 0 l -1.02,0.3 v 0 l -1.03,1.59 v 0 l -1.02,0.79 v 0 l -1.03,0.38 v 0 l -1.02,1.5 v 0 l -1.03,0.6 v 0 l -1.02,1.01 v 0 l -1.02,0.31 v 0 l -1.03,0.61 v 0 l -1.02,0.78 v 0 l -1.03,0.77 v 0 l -1.02,-0.77 v 0 l -1.03,0.92 v 0 l -1.02,1.86 v 0 l -1.02,0.92 v 0 l -1.03,-2 v 0 l -1.02,1.39 v 0 l -1.03,-1.55 v 0 l -1.02,1.24 v 0 l -1.03,2.47 v 0 l -1.02,-0.31 v 0 l -1.02,0.16 v 0 l -1.03,1.08 v 0 l -1.02,3.09 v 0 l -1.03,-0.62 v 0 l -1.02,-0.62 v 0 l -1.03,1.39 v 0 l -1.02,3.4 v 0 l -1.02,7.72 v 0 l -1.03,-11.12 v 0 l -1.02,5.87 v 0 l -1.03,-0.46 v 0 l -1.02,-1.24 v 0 l -1.03,0.16 v 0 h -1.02 v 0 l -1.02,-5.57 v 0 l -1.03,2.01 v 0 l -1.02,9.43 v 0 l -1.03,-1.7 v 0 l -1.02,-0.62 v 0 l -1.03,2.01 v 0 l -1.02,5.09 v 0 l -1.02,4.79 v 0 l -1.03,-10.35 v 0 l -1.02,-5.56 v 0 l -1.03,2.17 v 0 l -1.02,-4.48 v 0 l -1.03,-2.48 v 0 l -1.02,3.09 v 0 l -1.02,6.95 v 0 l -1.03,6.65 v 0 l -1.02,3.86 v 0 l -1.03,2.32 v 0 l -1.02,1.08 v 0 l -1.03,-2.63 v 0 l -1.02,-5.71 v 0 l -1.02,5.56 v 0 l -1.03,1.7 v 0 l -1.02,-5.56 v 0 l -1.03,1.08 v 0 l -1.02,-1.24 v 0 l -1.03,-16.99 v 0 l -1.02,1.85 v 0 l -1.02,-0.77 v 0 l -1.03,0.93 v 0 l -1.02,-1.55 v 0 l -1.03,0.93 v 0 l -1.02,-1.86 v 0 l -1.03,-5.4 v 0 l -1.02,-2.16 v 0 l -1.02,2 v 0 l -1.03,0.93 v 0 l -1.02,-0.62 v 0 l -1.03,1.55 v 0 l -1.02,1.23 v 0 l -1.03,-4.79 v 0 l -1.02,-2 v 0 l -1.02,-1.67 v 0 l -1.03,0.12 v 0 l -1.02,-0.62 v 0 l -1.03,-4.55 v 0 l -1.02,-0.71 v 0 l -1.03,-1.32 v 0 l -1.02,-1.13 v 0 l -1.02,-0.35 v 0 l -1.03,0.45 v 0 l -1.02,-0.91 v 0 l -1.03,-0.93 v 0 l -1.02,-0.06 v 0 l -1.03,-0.14 v 0 L 160.1,82.5 v 0 l -1.02,-0.02 v 0 l -1.03,-0.21 v 0 l -1.02,-0.1 v 0 L 156,82.05 v 0 l -1.02,-0.19 v 0 l -1.03,0.13 v 0 l -1.02,-0.11 v 0 l -1.02,0.49 v 0 l -1.03,-0.46 v 0 l -1.02,0.12 v 0 l -1.03,-0.12 v 0 l -1.02,0.56 v 0 l -1.03,0.24 v 0 l -1.02,-0.13 v 0 l -1.02,-0.41 v 0 l -1.03,-0.35 v 0 l -1.02,-0.51 v 0 l -1.03,-0.23 v 0 l -1.02,-0.17 v 0 l -1.03,-0.02 v 0 l -1.02,-0.06 v 0 l -1.03,0.25 v 0 l -1.02,0.26 v 0 l -1.02,-0.23 v 0 l -1.03,0.48 v 0 l -1.02,-0.02 v 0 l -1.03,0.05 v 0 l -1.02,-0.36 v 0 l -1.03,-0.15 v 0 l -1.02,-0.23 v 0 l -1.02,-0.21 v 0 l -1.03,0.11 v 0 l -1.02,-0.15 v 0 l -1.03,0.04 v 0 l -1.02,-0.04 v 0 l -1.03,-0.05 v 0 l -1.02,-0.03 v 0 h -1.02 v 0 l -1.03,-0.23 v 0 l -1.02,0.35 v 0 h -1.03 v 0 l -1.02,0.07 v 0 l -1.03,-0.16 v 0 l -1.02,0.09 v 0 l -1.02,-0.06 v 0 l -1.03,-0.09 v 0 l -1.02,-0.03 v 0 l -1.03,0.05 v 0 l -1.02,0.18 v 0 l -1.03,-0.32 v 0 l -1.02,0.14 v 0 l -1.02,-0.3 v 0 l -1.03,0.22 v 0 l -1.02,-0.05 v 0 l -1.03,0.17 v 0 l -1.02,-0.17 v 0 l -1.03,0.03 v 0 l -1.02,-0.03 v 0 l -1.02,-0.07 v 0 l -1.03,-0.16 v 0 l -1.02,0.37 v 0 l -1.03,0.08 v 0 l -1.02,-0.14 v 0 l -1.03,-0.08 v 0 l -1.02,0.22 v 0 L 92.5,80.49 v 0 l -1.03,0.09 v 0 l -1.02,-0.09 v 0 l -1.03,-0.34 v 0 L 88.4,80.03 v 0 l -1.03,-0.02 v 0 l -1.02,0.11 v 0 l -1.02,-0.17 v 0 l -1.03,0.08 v 0 l -1.02,0.01 v 0 l -1.03,0.17 v 0 l -1.02,-0.03 v 0 L 80.2,79.9 v 0 l -1.02,-0.15 v 0 l -1.02,0.12 v 0 l -1.03,-0.15 v 0 l -1.02,-0.06 v 0 l -1.03,0.12 v 0 l -1.02,0.03 v 0 l -1.03,0.03 v 0 l -1.02,0.14 v 0 l -1.02,-0.11 v 0 l -1.03,-0.03 v 0 z"
       style="fill:#88d7d8;fill-opacity:0.251;fill-rule:nonzero;stroke:none"
       id="path764"
       clip-path="url(#clipPath1797)" />
    <path
       d="m 69.96,79.58 v 0 l 1.03,0.24 v 0 l 1.02,0.04 v 0 l 1.02,-0.14 v 0 l 1.03,-0.06 v 0 l 1.02,0.2 v 0 l 1.03,0.26 v 0 l 1.02,-0.29 v 0 l 1.03,0.37 v 0 l 1.02,0.09 v 0 l 1.02,0.03 v 0 l 1.03,-0.08 v 0 h 1.02 v 0 l 1.03,0.01 v 0 l 1.02,0.02 v 0 l 1.03,-0.24 v 0 l 1.02,-0.06 v 0 l 1.02,0.01 v 0 h 1.03 v 0 l 1.02,0.07 v 0 l 1.03,0.01 v 0 L 91.47,80 v 0 l 1.03,0.02 v 0 l 1.02,0.01 v 0 l 1.02,-0.09 v 0 l 1.03,0.09 v 0 l 1.02,0.14 v 0 l 1.03,-0.11 v 0 l 1.02,0.09 v 0 l 1.03,-0.04 v 0 h 1.02 v 0 l 1.02,0.29 v 0 l 1.03,-0.07 v 0 l 1.02,0.26 v 0 l 1.03,-0.18 v 0 l 1.02,-0.07 v 0 l 1.03,-0.02 v 0 l 1.02,0.03 v 0 l 1.02,0.1 v 0 l 1.03,0.14 v 0 l 1.02,-0.03 v 0 l 1.03,0.13 v 0 l 1.02,-0.15 v 0 l 1.03,-0.03 v 0 l 1.02,0.04 v 0 l 1.02,0.81 v 0 l 1.03,-0.17 v 0 l 1.02,-0.07 v 0 l 1.03,-0.24 v 0 l 1.02,-0.19 v 0 l 1.03,-0.11 v 0 l 1.02,-0.09 v 0 l 1.02,-0.02 v 0 l 1.03,0.27 v 0 h 1.02 v 0 l 1.03,-0.19 v 0 l 1.02,-0.07 v 0 l 1.03,-0.15 v 0 l 1.02,0.67 v 0 l 1.02,0.17 v 0 l 1.03,-0.14 v 0 l 1.02,0.02 v 0 l 1.03,0.02 v 0 l 1.02,0.13 v 0 h 1.03 v 0 l 1.02,0.03 v 0 l 1.02,-0.15 v 0 l 1.03,0.49 v 0 l 1.02,-0.4 v 0 l 1.03,-0.07 v 0 l 1.02,0.29 v 0 l 1.03,1.61 v 0 l 1.02,1.21 v 0 l 1.03,0.63 v 0 l 1.02,-1.45 v 0 l 1.02,-0.49 v 0 l 1.03,0.01 v 0 l 1.02,0.72 v 0 l 1.03,0.47 v 0 l 1.02,0.34 v 0 l 1.03,0.44 v 0 l 1.02,0.22 v 0 l 1.02,0.22 v 0 l 1.03,-0.23 v 0 L 156,84.14 v 0 l 1.03,-0.82 v 0 l 1.02,0.09 v 0 l 1.03,0.77 v 0 l 1.02,0.58 v 0 l 1.02,0.04 v 0 l 1.03,-0.38 v 0 l 1.02,-0.25 v 0 L 164.2,84 v 0 l 1.02,0.25 v 0 l 1.03,1.26 v 0 l 1.02,2.76 v 0 l 1.02,2.52 v 0 l 1.03,1.15 v 0 l 1.02,2.66 v 0 l 1.03,2.14 v 0 l 1.02,1.28 v 0 l 1.03,-1.89 v 0 l 1.02,-2.59 v 0 l 1.02,-1.09 v 0 l 1.03,0.37 v 0 l 1.02,2.41 v 0 l 1.03,1.28 v 0 l 1.02,0.87 v 0 l 1.03,-0.88 v 0 l 1.02,-0.68 v 0 l 1.02,-1.02 v 0 l 1.03,-0.19 v 0 l 1.02,-0.45 v 0 l 1.03,0.16 v 0 l 1.02,0.29 v 0 l 1.03,0.81 v 0 l 1.02,1.11 v 0 l 1.02,-0.3 v 0 l 1.03,0.26 v 0 l 1.02,-0.55 v 0 l 1.03,-1.22 v 0 l 1.02,-0.08 v 0 l 1.03,-0.09 v 0 l 1.02,0.47 v 0 l 1.02,-1.83 v 0 l 1.03,0.15 v 0 l 1.02,1.32 v 0 l 1.03,2 v 0 l 1.02,-0.42 v 0 l 1.03,-0.88 v 0 l 1.02,2.89 v 0 l 1.02,1.28 v 0 l 1.03,-0.89 v 0 l 1.02,-1.78 v 0 l 1.03,0.27 v 0 l 1.02,1.39 v 0 l 1.03,1.55 v 0 l 1.02,0.97 v 0 l 1.02,-1.24 v 0 l 1.03,-1 v 0 l 1.02,-1.51 v 0 l 1.03,0.19 v 0 l 1.02,-0.19 v 0 l 1.03,-0.08 v 0 l 1.02,-1.23 v 0 l 1.02,-0.39 v 0 l 1.03,-0.43 v 0 l 1.02,-0.88 v 0 l 1.03,-1.46 v 0 l 1.02,-1.44 v 0 l 1.03,-0.72 v 0 l 1.02,0.27 v 0 l 1.02,1.2 v 0 l 1.03,2.22 v 0 l 1.02,0.66 v 0 l 1.03,3.32 v 0 l 1.02,11.12 v 0 l 1.03,3.21 v 0 l 1.02,0.66 v 0 l 1.02,-0.7 v 0 l 1.03,-0.73 v 0 l 1.02,-0.16 v 0 l 1.03,4.1 v 0 l 1.02,-0.97 v 0 l 1.03,-3.86 v 0 l 1.02,-3.86 v 0 l 1.02,-2.2 v 0 l 1.03,-1.05 v 0 l 1.02,-0.19 v 0 l 1.03,-0.31 v 0 l 1.02,-1.39 v 0 l 1.03,1.35 v 0 l 1.02,-0.96 v 0 l 1.02,-2.09 v 0 l 1.03,-2.28 v 0 l 1.02,-1.85 v 0 l 1.03,-1.82 v 0 l 1.02,-1.06 v 0 l 1.03,-1.51 v 0 l 1.02,-1.09 v 0 l 1.02,-1.46 v 0 l 1.03,-0.92 v 0 l 1.02,1.71 v 0 l 1.03,1.25 v 0 l 1.02,0.28 v 0 l 1.03,0.64 v 0 l 1.02,-1.38 v 0 l 1.02,-1.78 v 0 l 1.03,0.38 v 0 l 1.02,-1.22 v 0 l 1.03,-0.96 v 0 l 1.02,-1.02 v 0 l 1.03,-0.51 v 0 l 1.02,1.53 v 0 l 1.02,0.34 v 0 l 1.03,1.61 v 0 l 1.02,-1.9 v 0 l 1.03,-1.83 v 0 l 1.02,-0.65 v 0 l 1.03,-0.41 v 0 l 1.02,0.32 v 0 l 1.02,-0.08 v 0 l 1.03,0.51 v 0 l 1.02,-0.48 v 0 l 1.03,-0.37 v 0 l 1.02,1.63 v 0 l 1.03,-1.85 v 0 l 1.02,0.59 v 0 l 1.02,-0.02 v 0 l 1.03,-1.2 v 0 l 1.02,0.8 v 0 l 1.03,0.43 v 0 l 1.02,-0.1 v 0 l 1.03,-0.8 v 0 l 1.02,1.57 v 0 l 1.02,-0.66 v 0 l 1.03,-1.49 v 0 l 1.02,0.23 v 0 l 1.03,0.51 v 0 l 1.02,1.25 v 0 l 1.03,-0.76 v 0 l 1.02,-1.27 v 0 l 1.02,-0.68 v 0 h 1.03 v 0 l 1.02,0.17 v 0 l 1.03,-0.81 v 0 l 1.02,-0.07 v 0 l 1.03,-0.39 v 0 l 1.02,-0.3 v 0 l 1.02,-0.02 v 0 l 1.03,0.63 v 0 l 1.02,0.32 v 0 l 1.03,-0.17 v 0 l 1.02,-0.45 v 0 l 1.03,-0.6 v 0 l 1.02,-0.06 v 0 l 1.02,-0.25 v 0 l 1.03,-0.08 v 0 l 1.02,2.3 v 0 l 1.03,-1.33 v 0 l 1.02,-0.43 v 0 l 1.03,-0.5 v 0 l 1.02,-0.26 v 0 l 1.02,-0.15 v 0 l 1.03,0.03 v 0 l 1.02,-0.14 v 0 l 1.03,-0.06 v 0 l 1.02,0.18 v 0 l 1.03,0.15 v 0 l 1.02,-0.16 v 0 L 326.03,80 v 0 l 1.03,-0.04 v 0 l 1.02,-0.12 v 0 l 1.03,0.04 v 0 l 1.02,0.23 v 0 l 1.03,-0.16 v 0 l 1.02,-0.16 v 0 l 1.02,-0.2 v 0 l 1.03,-0.09 v 0 l 1.02,0.22 v 0 l 1.03,-0.11 v 0 l 1.02,-0.3 v 0 l 1.03,-0.11 v 0 l 1.02,-0.14 v 0 l 1.02,0.07 v 0 l 1.03,0.1 v 0 l 1.02,0.21 v 0 l 1.03,0.19 v 0 l 1.02,0.01 v 0 l 1.03,-0.24 v 0 l 1.02,-0.16 v 0 l 1.02,0.22 v 0 l 1.03,0.22 v 0 l 1.02,-0.21 v 0 l 1.03,-0.06 v 0 h 1.02 v 0 l 1.03,-0.04 v 0 l 1.02,0.55 v 0 l 1.02,0.02 v 0 l 1.03,1.42 v 0 l 1.02,-0.64 v 0 l 1.03,-0.3 v 0 l 1.02,-0.22 v 0 l 1.03,-0.03 v 0 l 1.02,-0.15 v 0 L 361.88,80 v 0 l 1.03,0.04 v 0 l 1.02,0.05 v 0 h 1.03 v 0 l 1.02,0.01 v 0 h 1.03 v 0 l 1.02,0.03 v 0 h 1.02 v 0 l 1.03,0.13 v 0 l 1.02,-0.06 v 0 l 1.03,-0.01 v 0 l 1.02,0.01 v 0 l 1.03,0.04 v 0 l 1.02,-0.01 v 0 l 1.02,0.06 v 0 l 1.03,0.05 v 0 l 1.02,-0.04 v 0 h 1.03 v 0 l 1.02,-0.03 v 0 l 1.03,-0.08 v 0 h 1.02 v 0 l 1.02,0.06 v 0 l 1.03,-0.06 v 0 l 1.02,-0.06 v 0 l 1.03,-0.01 v 0 l 1.02,0.03 v 0 l 1.03,0.03 v 0 l 1.02,-0.01 v 0 h 1.02 v 0 l 1.03,-0.06 v 0 l 1.02,-0.08 v 0 l 1.03,0.01 v 0 L 394.66,80 v 0 h 1.03 v 0 l 1.02,-0.07 v 0 l 1.02,-0.01 v 0 l 1.03,0.05 v 0 l 1.02,0.01 v 0 h 1.03 v 0 l 1.02,0.16 v 0 l 1.03,0.23 v 0 l 1.02,-0.09 v 0 l 1.02,0.14 v 0 l 1.03,-0.29 v 0 l 1.02,-0.07 v 0 l 1.03,0.07 v 0 L 409,80 v 0 l 1.03,0.11 v 0 l 1.02,0.12 v 0 l 1.02,0.05 v 0 l 1.03,-0.41 v 0 l 1.02,-0.01 v 0 l 1.03,0.11 v 0 l 1.02,-0.04 v 0 l 1.03,-0.25 v 0 l 1.02,0.09 v 0 l 1.02,0.09 v 0 l 1.03,-0.03 v 0 l 1.02,0.17 v 0 l 1.03,0.14 v 0 l 1.02,-0.05 v 0 l 1.03,-0.03 v 0 l 1.02,0.29 v 0 l 1.02,-0.07 v 0 l 1.03,-0.13 v 0 l 1.02,-0.21 v 0 l 1.03,0.1 v 0 l 1.02,-0.11 v 0 h 1.03 v 0 l 1.02,0.07 v 0 l 1.02,-0.11 v 0 l 1.03,0.1 v 0 l 1.02,-0.11 v 0 l 1.03,0.23 v 0 l 1.02,-0.01 v 0 l 1.03,-0.02 v 0 l 1.02,-0.27 v 0 l 1.02,0.07 v 0 l 1.03,-0.07 v 0 l 1.02,-0.21 v 0 l 1.03,0.39 v 0 -0.36 0 l -1.03,-0.59 v 0 l -1.02,-0.05 v 0 L 440.75,79 v 0 l -1.02,0.21 v 0 l -1.02,0.01 v 0 l -1.03,0.03 v 0 l -1.02,0.04 v 0 l -1.03,-0.17 v 0 l -1.02,0.09 v 0 l -1.03,-0.22 v 0 l -1.02,-0.1 v 0 l -1.02,0.16 v 0 l -1.03,-0.03 v 0 l -1.02,-0.01 v 0 l -1.03,0.06 v 0 l -1.02,-0.03 v 0 l -1.03,0.02 v 0 l -1.02,0.01 v 0 l -1.02,-0.06 v 0 l -1.03,-0.04 v 0 l -1.02,0.16 v 0 l -1.03,0.15 v 0 h -1.02 v 0 l -1.03,-0.17 v 0 l -1.02,-0.08 v 0 l -1.02,0.03 v 0 l -1.03,0.07 v 0 l -1.02,0.13 v 0 l -1.03,0.02 v 0 l -1.02,0.17 v 0 l -1.03,0.26 v 0 l -1.02,-0.03 v 0 l -1.02,-0.39 v 0 L 409,79.33 v 0 l -1.02,0.04 v 0 l -1.03,0.21 v 0 l -1.02,-0.06 v 0 l -1.03,-0.16 v 0 l -1.02,0.02 v 0 l -1.02,-0.12 v 0 l -1.03,0.16 v 0 l -1.02,0.06 v 0 l -1.03,0.2 v 0 l -1.02,-0.07 v 0 l -1.03,-0.09 v 0 l -1.02,-0.15 v 0 l -1.02,-0.06 v 0 l -1.03,0.06 v 0 l -1.02,0.18 v 0 l -1.03,0.02 v 0 l -1.02,0.02 v 0 l -1.03,-0.07 v 0 l -1.02,-0.04 v 0 l -1.02,0.01 v 0 l -1.03,0.02 v 0 l -1.02,-0.01 v 0 l -1.03,0.1 v 0 l -1.02,0.03 v 0 l -1.03,0.01 v 0 l -1.02,0.01 v 0 l -1.02,0.04 v 0 l -1.03,-0.05 v 0 l -1.02,-0.03 v 0 l -1.03,0.02 v 0 l -1.02,0.11 v 0 l -1.03,0.02 v 0 l -1.02,-0.07 v 0 l -1.02,-0.01 v 0 l -1.03,-0.03 v 0 l -1.02,-0.08 v 0 l -1.03,-0.02 v 0 l -1.02,0.03 v 0 l -1.03,0.04 v 0 l -1.02,0.02 v 0 l -1.02,-0.05 v 0 l -1.03,-0.14 v 0 l -1.02,-0.09 v 0 l -1.03,0.05 v 0 l -1.02,0.1 v 0 l -1.03,0.2 v 0 l -1.02,0.02 v 0 l -1.02,0.03 v 0 l -1.03,-0.42 v 0 l -1.02,-0.02 v 0 l -1.03,-0.07 v 0 l -1.02,0.01 v 0 l -1.03,-0.06 v 0 l -1.02,-0.18 v 0 l -1.02,-0.43 v 0 l -1.03,-0.13 v 0 l -1.02,-0.06 v 0 l -1.03,-0.01 v 0 l -1.02,0.09 v 0 l -1.03,0.03 v 0 l -1.02,-0.13 v 0 l -1.02,0.01 v 0 l -1.03,0.02 v 0 l -1.02,0.02 v 0 l -1.03,0.04 v 0 l -1.02,0.08 v 0 l -1.03,0.04 v 0 l -1.02,-0.13 v 0 h -1.02 v 0 l -1.03,0.04 v 0 l -1.02,0.09 v 0 l -1.03,0.05 v 0 l -1.02,-0.1 v 0 l -1.03,0.01 v 0 l -1.02,-0.18 v 0 l -1.02,-0.03 v 0 l -1.03,0.02 v 0 l -1.02,0.15 v 0 l -1.03,-0.07 v 0 l -1.02,0.05 v 0 l -1.03,0.14 v 0 l -1.02,0.27 v 0 l -1.02,-0.09 v 0 l -1.03,0.2 v 0 l -1.02,0.06 v 0 l -1.03,-0.03 v 0 l -1.02,-0.52 v 0 h -1.03 v 0 l -1.02,-0.01 v 0 l -1.02,0.09 v 0 l -1.03,0.31 v 0 l -1.02,0.47 v 0 l -1.03,0.05 v 0 l -1.02,-0.58 v 0 l -1.03,0.17 v 0 l -1.02,0.32 v 0 l -1.02,0.44 v 0 l -1.03,0.28 v 0 l -1.02,-0.24 v 0 l -1.03,0.09 v 0 l -1.02,0.07 v 0 l -1.03,-1.46 v 0 l -1.02,-0.03 v 0 l -1.02,0.09 v 0 l -1.03,0.07 v 0 l -1.02,0.07 v 0 l -1.03,-0.26 v 0 l -1.02,0.08 v 0 l -1.03,-0.03 v 0 l -1.02,0.03 v 0 l -1.02,0.1 v 0 l -1.03,0.27 v 0 l -1.02,0.2 v 0 l -1.03,0.33 v 0 l -1.02,0.2 v 0 l -1.03,0.17 v 0 l -1.02,0.24 v 0 l -1.02,0.04 v 0 l -1.03,0.22 v 0 l -1.02,0.77 v 0 l -1.03,-0.2 v 0 l -1.02,-0.16 v 0 l -1.03,0.15 v 0 l -1.02,-0.55 v 0 l -1.02,-1.42 v 0 l -1.03,-0.33 v 0 l -1.02,-0.04 v 0 l -1.03,-0.02 v 0 l -1.02,0.03 v 0 l -1.03,0.03 v 0 l -1.02,0.01 v 0 l -1.02,0.08 v 0 l -1.03,0.1 v 0 l -1.02,0.51 v 0 l -1.03,0.42 v 0 L 269.7,78.7 v 0 l -1.03,-0.01 v 0 l -1.02,0.07 v 0 l -1.02,0.08 v 0 L 265.6,79 v 0 l -1.02,0.15 v 0 l -1.03,0.18 v 0 l -1.02,0.15 v 0 l -1.03,0.09 v 0 l -1.02,-0.03 v 0 l -1.02,0.08 v 0 l -1.03,0.32 v 0 l -1.02,-0.04 v 0 l -1.03,-0.06 v 0 l -1.02,0.08 v 0 l -1.03,0.14 v 0 l -1.02,0.32 v 0 l -1.02,0.36 v 0 l -1.03,0.07 v 0 L 250.24,81 v 0 l -1.03,0.11 v 0 l -1.02,0.03 v 0 l -1.03,0.52 v 0 l -1.02,-0.19 v 0 l -1.02,0.78 v 0 l -1.03,0.82 v 0 l -1.02,-0.57 v 0 l -1.03,0.17 v 0 l -1.02,0.75 v 0 l -1.03,0.33 v 0 l -1.02,-0.43 v 0 l -1.02,-0.14 v 0 l -1.03,-0.02 v 0 l -1.02,0.61 v 0 l -1.03,0.82 v 0 l -1.02,0.31 v 0 l -1.03,1.57 v 0 l -1.02,-0.78 v 0 l -1.02,-0.39 v 0 l -1.03,-0.28 v 0 l -1.02,-0.57 v 0 l -1.03,-0.33 v 0 l -1.02,-0.43 v 0 l -1.03,-0.49 v 0 l -1.02,0.07 v 0 l -1.02,0.98 v 0 l -1.03,-1.03 v 0 l -1.02,-0.58 v 0 l -1.03,-0.27 v 0 l -1.02,0.28 v 0 l -1.03,-0.3 v 0 l -1.02,0.62 v 0 l -1.02,0.52 v 0 l -1.03,0.67 v 0 l -1.02,0.58 v 0 l -1.03,-0.64 v 0 l -1.02,-0.48 v 0 l -1.03,-0.38 v 0 l -1.02,0.05 v 0 l -1.02,0.09 v 0 l -1.03,0.08 v 0 l -1.02,0.34 v 0 l -1.03,0.26 v 0 l -1.02,0.56 v 0 l -1.03,-0.57 v 0 l -1.02,-0.23 v 0 l -1.02,0.28 v 0 l -1.03,0.24 v 0 l -1.02,-0.11 v 0 l -1.03,-0.35 v 0 L 198,82.78 v 0 l -1.03,-0.68 v 0 l -1.02,-0.32 v 0 l -1.02,-0.33 v 0 l -1.03,-0.7 v 0 l -1.02,-0.18 v 0 l -1.03,-0.06 v 0 l -1.02,0.07 v 0 l -1.03,0.11 v 0 l -1.02,-0.13 v 0 l -1.02,-0.34 v 0 l -1.03,-0.13 v 0 l -1.02,0.07 v 0 l -1.03,0.19 v 0 l -1.02,0.41 v 0 l -1.03,0.25 v 0 l -1.02,-0.03 v 0 h -1.02 v 0 l -1.03,0.25 v 0 l -1.02,0.06 v 0 l -1.03,0.09 v 0 l -1.02,0.61 v 0 l -1.03,0.33 v 0 l -1.02,0.03 v 0 l -1.02,0.07 v 0 l -1.03,-0.11 v 0 l -1.02,-0.05 v 0 l -1.03,-0.35 v 0 l -1.02,-0.52 v 0 l -1.03,0.05 v 0 l -1.02,-0.49 v 0 l -1.02,-0.04 v 0 l -1.03,-0.22 v 0 l -1.02,-0.44 v 0 l -1.03,0.39 v 0 l -1.02,-0.01 v 0 l -1.03,-0.02 v 0 l -1.02,0.03 v 0 l -1.02,0.07 v 0 l -1.03,-0.4 v 0 l -1.02,-0.03 v 0 L 156,80.36 v 0 l -1.02,0.04 v 0 l -1.03,0.05 v 0 l -1.02,0.03 v 0 l -1.02,-0.13 v 0 l -1.03,0.08 v 0 l -1.02,-0.01 v 0 l -1.03,-0.47 v 0 l -1.02,0.01 v 0 l -1.03,0.08 v 0 l -1.02,-0.18 v 0 l -1.02,-0.17 v 0 l -1.03,0.01 v 0 l -1.02,-0.1 v 0 l -1.03,0.02 v 0 l -1.02,-0.04 v 0 l -1.03,0.06 v 0 l -1.02,0.01 v 0 l -1.03,0.19 v 0 h -1.02 v 0 l -1.02,0.07 v 0 L 134.49,80 v 0 l -1.02,-0.12 v 0 l -1.03,-0.03 v 0 l -1.02,-0.01 v 0 h -1.03 v 0 h -1.02 v 0 l -1.02,-0.15 v 0 l -1.03,-0.19 v 0 l -1.02,0.1 v 0 l -1.03,0.18 v 0 l -1.02,0.03 v 0 l -1.03,-0.06 v 0 l -1.02,-0.03 v 0 l -1.02,-0.04 v 0 l -1.03,-0.1 v 0 l -1.02,0.14 v 0 l -1.03,0.12 v 0 l -1.02,-0.08 v 0 l -1.03,0.02 v 0 l -1.02,-0.06 v 0 l -1.02,-0.06 v 0 l -1.03,0.08 v 0 l -1.02,-0.03 v 0 l -1.03,-0.12 v 0 l -1.02,-0.02 v 0 l -1.03,0.06 v 0 l -1.02,0.11 v 0 l -1.02,0.07 v 0 l -1.03,0.07 v 0 l -1.02,0.07 v 0 l -1.03,-0.14 v 0 l -1.02,-0.31 v 0 h -1.03 v 0 l -1.02,0.09 v 0 l -1.02,-0.14 v 0 l -1.03,-0.22 v 0 l -1.02,-0.07 v 0 l -1.03,-0.04 v 0 l -1.02,-0.04 v 0 l -1.03,-0.02 v 0 l -1.02,0.05 v 0 l -1.02,0.03 v 0 l -1.03,-0.01 v 0 l -1.02,0.05 v 0 l -1.03,0.12 v 0 L 88.4,79.27 v 0 l -1.03,-0.03 v 0 l -1.02,-0.1 v 0 l -1.02,-0.03 v 0 L 84.3,79.06 v 0 l -1.02,-0.01 v 0 h -1.03 v 0 l -1.02,0.03 v 0 L 80.2,79.07 v 0 l -1.02,-0.01 v 0 l -1.02,0.05 v 0 l -1.03,0.12 v 0 l -1.02,0.06 v 0 l -1.03,-0.25 v 0 l -1.02,0.09 v 0 l -1.03,0.06 v 0 l -1.02,-0.01 v 0 l -1.02,0.03 v 0 L 69.96,79.2 v 0 z"
       style="fill:#dbab92;fill-opacity:0.251;fill-rule:nonzero;stroke:none"
       id="path766"
       clip-path="url(#clipPath1791)" />
    <path
       d="m 69.96,79.41 1.03,0.1 1.02,-0.01 1.02,-0.04 1.03,-0.05 1.02,0.12 1.03,0.15 1.02,-0.07 1.03,0.08 1.02,0.12 1.02,0.03 1.03,-0.12 1.02,-0.04 h 1.03 l 1.02,-0.02 1.03,-0.04 1.02,-0.01 h 1.02 1.03 l 1.02,0.02 1.03,0.01 1.02,-0.03 1.03,-0.02 1.02,-0.01 1.02,-0.09 1.03,0.04 1.02,0.06 1.03,-0.04 1.02,0.05 1.03,0.06 1.02,0.11 1.02,0.06 1.03,0.02 1.02,0.22 1.03,0.34 1.02,-0.34 1.03,-0.06 1.02,-0.08 h 1.02 l 1.03,0.05 1.02,0.01 1.03,0.08 1.02,-0.03 1.03,0.04 1.02,0.09 1.02,0.61 1.03,0.68 1.02,-0.9 1.03,-0.24 1.02,0.03 1.03,-0.09 1.02,-0.1 1.02,0.03 1.03,0.07 1.02,-0.01 1.03,-0.12 1.02,-0.11 1.03,0.02 1.02,0.23 1.02,0.34 1.03,0.32 1.02,0.65 1.03,-0.46 1.02,-0.35 1.03,-0.13 1.02,0.08 1.02,0.09 1.03,0.19 1.02,-0.16 1.03,-0.14 1.02,-0.02 1.03,1.26 1.02,0.54 1.03,-0.49 1.02,0.05 1.02,0.46 1.03,0.33 1.02,0.55 1.03,0.66 1.02,0.34 1.03,0.01 1.02,0.21 1.02,-0.24 1.03,-0.4 1.02,-0.41 1.03,0.01 1.02,-0.2 1.03,0.39 1.02,0.46 1.02,0.46 1.03,0.61 1.02,0.45 h 1.03 l 1.02,0.29 1.03,0.22 1.02,0.88 1.02,0.89 1.03,0.71 1.02,1.09 1.03,1.08 1.02,-0.19 1.03,-1.19 1.02,-0.65 1.02,-0.2 h 1.03 l 1.02,1.02 1.03,0.63 1.02,0.83 1.03,1.18 1.02,1.01 1.02,-0.49 1.03,-0.54 1.02,-0.38 1.03,0.06 1.02,-0.45 1.03,0.48 1.02,0.66 1.02,-0.1 1.03,-0.34 1.02,0.91 1.03,0.95 1.02,-0.23 1.03,-0.5 1.02,-1.17 1.02,0.78 1.03,0.8 1.02,0.92 1.03,0.92 1.02,-0.58 1.03,-1.38 1.02,-1.19 1.02,-0.97 1.03,-0.76 1.02,-0.02 1.03,0.28 1.02,0.28 1.03,0.92 1.02,0.38 1.02,-0.39 1.03,-0.25 1.02,-0.42 1.03,-0.17 1.02,-0.47 1.03,0.52 1.02,0.02 1.02,-0.31 1.03,-0.13 1.02,-0.21 1.03,0.06 1.02,-0.61 1.03,-0.2 1.02,-0.63 1.02,0.46 1.03,1.04 1.02,0.87 1.03,1.47 1.02,2.44 1.03,2.96 1.02,1.32 1.02,0.61 1.03,0.75 1.02,1.28 1.03,0.61 1.02,-0.41 1.03,-0.55 1.02,-0.77 1.02,-0.84 1.03,-1.11 1.02,-1.66 1.03,-1.92 1.02,-1.07 1.03,0.72 1.02,-0.44 1.02,-0.69 1.03,-1.68 1.02,-2.11 1.03,-0.81 1.02,-0.44 1.03,-0.03 1.02,-0.58 1.02,0.5 1.03,0.33 1.02,0.2 1.03,-0.18 1.02,-0.44 1.03,-0.99 1.02,-0.99 1.02,-0.45 1.03,0.06 1.02,-0.97 1.03,-0.86 1.02,-0.78 1.03,-0.74 1.02,0.07 1.02,-0.05 1.03,0.44 1.02,-0.17 1.03,-0.88 1.02,-0.34 1.03,-0.38 1.02,-0.16 1.02,0.01 1.03,0.15 1.02,-0.03 1.03,-0.08 1.02,0.7 1.03,-0.16 1.02,0.66 1.02,-0.18 1.03,-0.58 1.02,0.09 1.03,-0.22 1.02,-0.12 1.03,-0.12 1.02,1.29 1.02,-1.11 1.03,-0.54 1.02,0.03 1.03,0.29 1.02,0.36 1.03,-0.17 1.02,-1 1.02,-0.52 1.03,-0.11 1.02,-0.01 1.03,-0.28 1.02,-0.03 1.03,-0.17 1.02,-0.13 1.02,-0.01 1.03,0.57 1.02,1.99 1.03,-1.14 1.02,-0.75 1.03,-0.53 1.02,-0.04 1.02,-0.15 1.03,0.03 1.02,1.26 1.03,-0.47 1.02,-0.65 1.03,-0.22 1.02,-0.12 1.02,-0.15 1.03,-0.07 1.02,0.08 1.03,-0.07 1.02,0.18 1.03,-0.02 1.02,-0.03 1.02,-0.3 1.03,-0.14 1.02,-0.1 h 1.03 l 1.02,0.19 1.03,-0.19 1.02,-0.06 1.02,0.03 1.03,-0.09 1.02,0.08 1.03,-0.14 1.02,-0.16 1.03,-0.04 1.02,-0.04 1.02,0.05 1.03,0.51 1.02,-0.08 1.03,-0.16 1.02,0.03 1.03,-0.12 1.02,-0.08 1.02,0.13 1.03,0.08 1.02,-0.16 1.03,0.01 1.02,0.05 h 1.03 l 1.02,0.41 1.02,0.43 1.03,0.45 1.02,0.05 1.03,-0.45 1.02,-0.22 1.03,0.15 1.02,-0.12 1.02,-0.04 1.03,-0.03 1.02,0.09 1.03,-0.07 1.02,0.01 1.03,0.04 1.02,0.03 1.02,0.03 1.03,0.19 1.02,0.11 1.03,0.57 1.02,-0.34 1.03,-0.19 1.02,-0.1 1.02,0.1 1.03,0.02 1.02,-0.1 1.03,-0.02 1.02,0.02 1.03,-0.03 1.02,-0.07 1.02,0.04 1.03,0.06 1.02,0.12 1.03,-0.07 1.02,-0.09 1.03,-0.04 1.02,-0.04 1.02,0.02 1.03,0.04 1.02,-0.04 1.03,-0.03 1.02,-0.1 1.03,-0.04 1.02,0.03 1.02,0.13 1.03,-0.02 1.02,-0.08 1.03,-0.04 1.02,-0.05 1.03,0.05 h 1.02 1.02 l 1.03,0.03 h 1.02 l 1.03,-0.12 1.02,-0.06 1.03,0.09 1.02,0.22 1.02,-0.03 1.03,-0.37 1.02,-0.07 1.03,0.01 1.02,-0.01 1.03,-0.11 1.02,0.05 1.02,0.1 1.03,0.03 1.02,0.09 1.03,-0.01 1.02,-0.07 h 1.03 l 1.02,0.07 h 1.02 l 1.03,0.01 1.02,-0.14 1.03,0.03 1.02,-0.04 1.03,-0.1 1.02,-0.01 1.02,0.03 1.03,0.1 1.02,-0.02 1.03,0.27 1.02,0.01 1.03,-0.07 1.02,-0.27 1.02,-0.02 1.03,0.01 1.02,0.04 1.03,0.34"
       style="fill:none;stroke:#dbab92;stroke-width:4.27;stroke-linecap:butt;stroke-linejoin:round;stroke-miterlimit:10;stroke-dasharray:none;stroke-opacity:1"
       id="path768"
       clip-path="url(#clipPath1785)" />
    <path
       d="m 69.96,80.92 1.03,-0.2 1.02,-0.15 1.02,-0.14 1.03,-0.01 1.02,0.03 1.03,0.03 1.02,0.12 1.03,0.05 1.02,-0.05 1.02,0.04 1.03,0.29 1.02,0.12 1.03,0.17 1.02,0.52 1.03,-0.54 1.02,-0.09 1.02,-0.08 1.03,-0.21 1.02,0.07 1.03,-0.02 1.02,0.17 1.03,0.09 1.02,0.14 1.02,-0.17 1.03,0.07 1.02,-0.05 1.03,-0.07 1.02,-0.07 1.03,0.03 1.02,-0.08 1.02,0.09 1.03,0.09 1.02,0.8 1.03,0.03 1.02,-0.53 1.03,-0.07 1.02,-0.15 1.02,0.17 1.03,0.03 1.02,-0.06 1.03,0.06 1.02,-0.07 1.03,0.45 1.02,-0.11 1.02,-0.24 h 1.03 1.02 l 1.03,-0.04 1.02,0.06 1.03,0.9 1.02,0.16 1.02,0.01 1.03,0.7 1.02,0.11 1.03,-0.3 1.02,0.39 1.03,0.38 1.02,-0.63 1.02,0.22 1.03,-0.54 1.02,0.25 1.03,2.08 1.02,-1.21 1.03,-0.74 1.02,-0.67 1.02,-0.33 1.03,-0.06 1.02,0.53 1.03,0.1 1.02,0.07 1.03,0.85 1.02,0.21 1.03,0.12 1.02,-0.09 1.02,-0.16 1.03,-0.18 1.02,0.51 1.03,0.45 1.02,0.15 1.03,0.76 1.02,1.02 1.02,0.91 1.03,0.34 1.02,-0.54 1.03,0.87 1.02,-0.73 1.03,-0.27 1.02,0.71 1.02,1.15 1.03,1.89 1.02,2.71 1.03,2.44 1.02,3.96 1.03,3.86 1.02,5.1 1.02,-0.8 1.03,-2.58 1.02,2.15 1.03,3.56 1.02,3.28 1.03,3.63 1.02,1.62 1.02,3.08 1.03,1.26 1.02,0.94 1.03,6.06 1.02,4.29 1.03,1.79 1.02,2.11 1.02,5.38 1.03,9.34 1.02,7.76 1.03,-1.81 1.02,-5.14 1.03,-5.43 1.02,-2.59 1.02,0.63 1.03,-0.31 1.02,3.25 1.03,0.13 1.02,-1.89 1.03,0.46 1.02,2.46 1.02,3.63 1.03,-1.91 1.02,-0.75 1.03,1.31 1.02,-1.02 1.03,-0.53 1.02,1.64 1.02,1.59 1.03,-0.47 1.02,-2.34 1.03,-1.01 1.02,-1.27 1.03,-1.73 1.02,-4.06 1.02,-3.55 1.03,-4.01 1.02,-1.92 1.03,-2.13 1.02,-2.66 1.03,-1.07 1.02,0.38 1.02,0.37 1.03,-0.71 1.02,-1.06 1.03,-0.4 1.02,-0.46 1.03,0.4 1.02,-3.29 1.02,-2.13 1.03,-0.71 1.02,-0.07 1.03,-0.54 1.02,-2.35 1.03,-1.16 1.02,-0.48 1.02,1.9 1.03,-1.56 1.02,-0.83 1.03,0.34 1.02,-1.95 1.03,-0.09 1.02,-2.03 1.02,-1.79 1.03,-0.54 1.02,1.31 1.03,2.44 1.02,1.05 1.03,-2.15 1.02,0.12 1.02,-0.22 1.03,-0.83 1.02,-1.85 1.03,-2.02 1.02,-1.74 1.03,-1.94 1.02,-1.75 1.02,-1.79 1.03,-0.91 1.02,-2.13 1.03,-1.4 1.02,-1.33 1.03,-1.05 1.02,-1.11 1.02,-0.91 1.03,-0.9 1.02,-0.42 1.03,-0.8 1.02,-0.55 1.03,-0.15 1.02,0.42 1.02,-1.78 1.03,-0.76 1.02,-0.02 1.03,-0.58 1.02,-0.17 1.03,-0.85 1.02,-0.45 1.02,-0.17 1.03,0.11 1.02,-0.61 1.03,-0.43 1.02,0.23 1.03,-0.3 1.02,-0.37 1.02,-0.39 1.03,-0.38 1.02,0.23 1.03,-0.07 h 1.02 l 1.03,-0.16 1.02,-0.43 1.02,-0.1 1.03,-0.23 1.02,0.99 1.03,0.9 1.02,-0.46 1.03,1.57 1.02,-1.07 1.02,-1.13 1.03,0.48 1.02,0.03 1.03,-0.41 1.02,-0.57 1.03,-0.21 1.02,-0.11 1.02,0.24 1.03,0.55 1.02,-0.57 1.03,-0.42 1.02,1.69 1.03,-0.18 1.02,-0.12 1.02,-0.12 1.03,-0.83 1.02,-0.17 1.03,0.43 1.02,-0.22 1.03,0.73 1.02,-0.18 1.02,0.22 1.03,-0.49 1.02,-0.33 1.03,-0.33 1.02,-0.3 1.03,0.15 1.02,0.75 1.02,-0.82 1.03,-0.95 1.02,0.6 1.03,0.44 1.02,1.53 1.03,-0.91 1.02,-1.16 1.02,-0.25 1.03,-0.4 1.02,-0.22 1.03,-0.17 1.02,0.7 1.03,-0.01 1.02,-0.25 1.02,0.08 1.03,1.95 1.02,0.73 1.03,-1.36 1.02,-0.58 1.03,-0.3 1.02,0.14 1.02,-0.33 1.03,0.99 1.02,0.98 1.03,1.77 1.02,-0.1 1.03,-0.02 1.02,-0.09 1.02,-0.46 1.03,1.84 1.02,-2.84 1.03,-0.41 1.02,-0.48 1.03,-0.25 1.02,0.04 1.02,1.45 1.03,11.41 1.02,-3.54 1.03,-4.15 1.02,-1.57 1.03,-1.12 1.02,-0.51 1.02,-0.39 1.03,1.49 1.02,1.42 1.03,-0.59 1.02,-1.14 1.03,0.16 1.02,2.1 1.02,-0.84 1.03,-1.22 1.02,-0.48 1.03,-0.26 1.02,-0.56 1.03,-0.7 1.02,-0.2 1.02,-0.48 1.03,-0.31 1.02,-0.09 1.03,-0.13 1.02,-0.02 1.03,0.08 1.02,-0.24 1.02,0.02 1.03,-0.08 1.02,-0.11 1.03,0.03 1.02,-0.08 1.03,-0.15 1.02,-0.01 1.02,0.16 1.03,-0.01 1.02,0.17 1.03,0.06 1.02,-0.14 1.03,-0.15 1.02,-0.14 1.02,-0.11 1.03,-0.06 1.02,0.1 1.03,-0.02 1.02,0.01 1.03,0.02 1.02,0.08 1.02,-0.07 1.03,0.04 1.02,0.02 1.03,-0.05 1.02,0.02 1.03,-0.15 1.02,-0.08 1.02,-0.11 1.03,0.02 1.02,0.04 1.03,-0.04 1.02,-0.11 1.03,0.27 1.02,-0.03 1.02,-0.19 1.03,-0.03 1.02,0.08 1.03,-0.11 1.02,-0.05 1.03,-0.04 1.02,0.03 1.02,0.04 1.03,0.12 1.02,0.12 1.03,0.06 1.02,0.03 1.03,-0.09 1.02,-0.11 1.02,-0.06 h 1.03 l 1.02,0.05 1.03,-0.29"
       style="fill:none;stroke:#88d7d8;stroke-width:4.27;stroke-linecap:butt;stroke-linejoin:round;stroke-miterlimit:10;stroke-dasharray:none;stroke-opacity:1"
       id="path770"
       clip-path="url(#clipPath1779)" />
    <g
       id="g772" />
    <g
       id="g774" />
    <g
       id="g776" />
    <g
       id="g778" />
    <g
       id="g780" />
    <g
       id="g782" />
    <g
       id="g784" />
    <g
       id="g786" />
    <g
       id="g788" />
    <g
       id="g790" />
    <g
       id="g792" />
    <g
       id="g794" />
    <g
       id="g796">
      <path
         d="M 51.27,72.05 V 210.52"
         style="fill:none;stroke:#ffffff;stroke-width:1.07;stroke-linecap:butt;stroke-linejoin:round;stroke-miterlimit:10;stroke-dasharray:none;stroke-opacity:1"
         id="path798" />
    </g>
    <g
       id="g800" />
    <g
       id="g802" />
    <g
       id="g804">
      <text
         xml:space="preserve"
         transform="matrix(1,0,0,-1,40.78,74.27)"
         style="font-variant:normal;font-weight:normal;font-size:10px;font-family:Helvetica;-inkscape-font-specification:Helvetica;writing-mode:lr-tb;fill:#ffffff;fill-opacity:1;fill-rule:nonzero;stroke:none"
         id="text808"><tspan
           x="0"
           y="0"
           id="tspan806">0</tspan></text>
      <text
         xml:space="preserve"
         transform="matrix(1,0,0,-1,24.1,113.22)"
         style="font-variant:normal;font-weight:normal;font-size:10px;font-family:Helvetica;-inkscape-font-specification:Helvetica;writing-mode:lr-tb;fill:#ffffff;fill-opacity:1;fill-rule:nonzero;stroke:none"
         id="text812"><tspan
           x="0 5.5599999 11.12 16.68"
           y="0"
           sodipodi:role="line"
           id="tspan810">5000</tspan></text>
      <text
         xml:space="preserve"
         transform="matrix(1,0,0,-1,18.54,152.17)"
         style="font-variant:normal;font-weight:normal;font-size:10px;font-family:Helvetica;-inkscape-font-specification:Helvetica;writing-mode:lr-tb;fill:#ffffff;fill-opacity:1;fill-rule:nonzero;stroke:none"
         id="text816"><tspan
           x="0 5.5599999 11.12 16.68 22.24"
           y="0"
           sodipodi:role="line"
           id="tspan814">10000</tspan></text>
      <text
         xml:space="preserve"
         transform="matrix(1,0,0,-1,18.54,191.13)"
         style="font-variant:normal;font-weight:normal;font-size:10px;font-family:Helvetica;-inkscape-font-specification:Helvetica;writing-mode:lr-tb;fill:#ffffff;fill-opacity:1;fill-rule:nonzero;stroke:none"
         id="text820"><tspan
           x="0 5.5599999 11.12 16.68 22.24"
           y="0"
           sodipodi:role="line"
           id="tspan818">15000</tspan></text>
    </g>
    <g
       id="g822" />
    <g
       id="g824" />
    <g
       id="g826">
      <path
         d="m 48.53,77.86 h 2.74"
         style="fill:none;stroke:#ffffff;stroke-width:1.07;stroke-linecap:butt;stroke-linejoin:round;stroke-miterlimit:10;stroke-dasharray:none;stroke-opacity:1"
         id="path828" />
      <path
         d="m 48.53,116.81 h 2.74"
         style="fill:none;stroke:#ffffff;stroke-width:1.07;stroke-linecap:butt;stroke-linejoin:round;stroke-miterlimit:10;stroke-dasharray:none;stroke-opacity:1"
         id="path830" />
      <path
         d="m 48.53,155.76 h 2.74"
         style="fill:none;stroke:#ffffff;stroke-width:1.07;stroke-linecap:butt;stroke-linejoin:round;stroke-miterlimit:10;stroke-dasharray:none;stroke-opacity:1"
         id="path832" />
      <path
         d="m 48.53,194.72 h 2.74"
         style="fill:none;stroke:#ffffff;stroke-width:1.07;stroke-linecap:butt;stroke-linejoin:round;stroke-miterlimit:10;stroke-dasharray:none;stroke-opacity:1"
         id="path834" />
    </g>
    <g
       id="g836" />
    <g
       id="g838" />
    <g
       id="g840" />
    <g
       id="g842" />
    <g
       id="g844" />
    <g
       id="g846" />
    <g
       id="g848" />
    <g
       id="g850">
      <path
         d="M 51.27,72.05 H 462.52"
         style="fill:none;stroke:#ffffff;stroke-width:1.07;stroke-linecap:butt;stroke-linejoin:round;stroke-miterlimit:10;stroke-dasharray:none;stroke-opacity:1"
         id="path852" />
    </g>
    <g
       id="g854" />
    <g
       id="g856" />
    <g
       id="g858">
      <path
         d="m 68.94,69.31 v 2.74"
         style="fill:none;stroke:#ffffff;stroke-width:1.07;stroke-linecap:butt;stroke-linejoin:round;stroke-miterlimit:10;stroke-dasharray:none;stroke-opacity:1"
         id="path860" />
      <path
         d="m 171.37,69.31 v 2.74"
         style="fill:none;stroke:#ffffff;stroke-width:1.07;stroke-linecap:butt;stroke-linejoin:round;stroke-miterlimit:10;stroke-dasharray:none;stroke-opacity:1"
         id="path862" />
      <path
         d="m 273.8,69.31 v 2.74"
         style="fill:none;stroke:#ffffff;stroke-width:1.07;stroke-linecap:butt;stroke-linejoin:round;stroke-miterlimit:10;stroke-dasharray:none;stroke-opacity:1"
         id="path864" />
      <path
         d="m 376.22,69.31 v 2.74"
         style="fill:none;stroke:#ffffff;stroke-width:1.07;stroke-linecap:butt;stroke-linejoin:round;stroke-miterlimit:10;stroke-dasharray:none;stroke-opacity:1"
         id="path866" />
    </g>
    <g
       id="g868" />
    <g
       id="g870">
      <text
         xml:space="preserve"
         transform="matrix(1,0,0,-1,66.16,59.93)"
         style="font-variant:normal;font-weight:normal;font-size:10px;font-family:Helvetica;-inkscape-font-specification:Helvetica;writing-mode:lr-tb;fill:#ffffff;fill-opacity:1;fill-rule:nonzero;stroke:none"
         id="text874"><tspan
           x="0"
           y="0"
           id="tspan872">0</tspan></text>
      <text
         xml:space="preserve"
         transform="matrix(1,0,0,-1,163.03,59.93)"
         style="font-variant:normal;font-weight:normal;font-size:10px;font-family:Helvetica;-inkscape-font-specification:Helvetica;writing-mode:lr-tb;fill:#ffffff;fill-opacity:1;fill-rule:nonzero;stroke:none"
         id="text878"><tspan
           x="0 5.5599999 11.12"
           y="0"
           sodipodi:role="line"
           id="tspan876">100</tspan></text>
      <text
         xml:space="preserve"
         transform="matrix(1,0,0,-1,265.46,59.93)"
         style="font-variant:normal;font-weight:normal;font-size:10px;font-family:Helvetica;-inkscape-font-specification:Helvetica;writing-mode:lr-tb;fill:#ffffff;fill-opacity:1;fill-rule:nonzero;stroke:none"
         id="text882"><tspan
           x="0 5.5599999 11.12"
           y="0"
           sodipodi:role="line"
           id="tspan880">200</tspan></text>
      <text
         xml:space="preserve"
         transform="matrix(1,0,0,-1,367.88,59.93)"
         style="font-variant:normal;font-weight:normal;font-size:10px;font-family:Helvetica;-inkscape-font-specification:Helvetica;writing-mode:lr-tb;fill:#ffffff;fill-opacity:1;fill-rule:nonzero;stroke:none"
         id="text886"><tspan
           x="0 5.5599999 11.12"
           y="0"
           sodipodi:role="line"
           id="tspan884">300</tspan></text>
    </g>
    <g
       id="g888" />
    <g
       id="g890" />
    <g
       id="g892" />
    <g
       id="g894" />
    <g
       id="g896" />
    <g
       id="g898" />
    <g
       id="g900" />
    <g
       id="g902">
      <text
         xml:space="preserve"
         transform="matrix(1,0,0,-1,227.18,47.1)"
         style="font-variant:normal;font-weight:bold;font-size:11px;font-family:Helvetica;-inkscape-font-specification:Helvetica-Bold;writing-mode:lr-tb;fill:#ffffff;fill-opacity:1;fill-rule:nonzero;stroke:none"
         id="text906"><tspan
           x="0 7.9419999 13.838 19.954 23.011999 29.733 33.396 36.453999 42.910999 49.027 55.143002"
           y="0"
           sodipodi:role="line"
           id="tspan904">Day of Year</tspan></text>
    </g>
    <g
       id="g908" />
    <g
       id="g910" />
    <g
       id="g912">
      <text
         xml:space="preserve"
         transform="matrix(0,1,1,0,13.38,89.96)"
         style="font-variant:normal;font-weight:bold;font-size:11px;font-family:Helvetica;-inkscape-font-specification:Helvetica-Bold;writing-mode:lr-tb;fill:#ffffff;fill-opacity:1;fill-rule:nonzero;stroke:none"
         id="text916"><tspan
           x="0 9.1630001 15.279 21.395 28.115999 31.174 37.895 40.952999 47.069 53.075001 59.796001 63.91 70.740997 76.967003 80.025002 83.083 89.198997 92.862 95.919998"
           y="0"
           sodipodi:role="line"
           id="tspan914">Mean dischrge, af/d</tspan></text>
    </g>
    <g
       id="g918" />
    <g
       id="g920" />
    <g
       id="g922" />
    <g
       id="g924" />
    <g
       id="g926" />
    <g
       id="g928" />
    <g
       id="g930" />
    <g
       id="g932" />
    <g
       id="g938" />
    <g
       id="g940" />
    <g
       id="g942" />
    <g
       id="g950" />
    <g
       id="g952" />
    <g
       id="g954" />
    <g
       id="g956" />
    <g
       id="g958" />
    <g
       id="g964" />
    <g
       id="g970" />
    <g
       id="g972" />
    <g
       id="g974" />
    <g
       id="g980" />
    <g
       id="g986" />
    <g
       id="g988" />
    <g
       id="g990" />
    <g
       id="g998" />
    <g
       id="g1000" />
    <g
       id="g1002" />
    <g
       id="g1004" />
    <g
       id="g1006" />
    <g
       id="g1014" />
    <g
       id="g1016" />
    <g
       id="g1018" />
    <g
       id="g1020" />
    <g
       id="g1022" />
    <g
       id="g1024" />
    <g
       id="g1030" />
    <g
       id="g1032" />
    <g
       id="g1034" />
    <g
       id="g1042" />
    <g
       id="g1044" />
    <g
       id="g1046" />
    <g
       id="g1048" />
    <g
       id="g1050" />
    <g
       id="g1818"
       transform="translate(0.99932938)">
      <g
         id="g976"
         transform="translate(200.44068,160.1695)">
        <path
           d="m 173.56,11.67 h 15.86 v 15.86 h -15.86 z"
           style="fill:#dbab92;fill-opacity:0.251;fill-rule:nonzero;stroke:none"
           id="path978" />
      </g>
      <g
         id="g982"
         transform="translate(200.44068,160.1695)">
        <path
           d="m 173.56,11.67 h 15.86 v 15.86 h -15.86 z"
           style="fill:#dbab92;fill-opacity:0.251;fill-rule:nonzero;stroke:none"
           id="path984" />
      </g>
      <g
         id="g1008"
         transform="translate(200.44068,160.1695)">
        <text
           xml:space="preserve"
           transform="matrix(1,0,0,-1,195.62,16.01)"
           style="font-variant:normal;font-weight:normal;font-size:10px;font-family:Helvetica;-inkscape-font-specification:Helvetica;writing-mode:lr-tb;fill:#ffffff;fill-opacity:1;fill-rule:nonzero;stroke:none"
           id="text1012"><tspan
             x="0 5.5599999 11.12 16.68 22.24 28.08 33.639999 39.200001 44.759998"
             y="0"
             sodipodi:role="line"
             id="tspan1010"
             style="font-weight:bold">2000−2021</tspan></text>
      </g>
      <g
         id="g1052"
         transform="translate(41.05068,160.1695)">
        <path
           d="m 333.97,19.6 h 13.82"
           style="fill:none;stroke:#dbab92;stroke-width:4.27;stroke-linecap:butt;stroke-linejoin:round;stroke-miterlimit:10;stroke-dasharray:none;stroke-opacity:1"
           id="path1054" />
      </g>
    </g>
    <g
       id="g1056" />
    <g
       id="g1058" />
    <g
       id="g1060" />
    <g
       id="g1829"
       transform="translate(0.83745938)">
      <g
         id="g960"
         transform="translate(279.15255,134.54238)">
        <path
           d="m 95.01,11.67 h 15.86 V 27.53 H 95.01 Z"
           style="fill:#88d7d8;fill-opacity:0.251;fill-rule:nonzero;stroke:none"
           id="path962" />
      </g>
      <g
         id="g966"
         transform="translate(279.15255,134.54238)">
        <path
           d="m 95.01,11.67 h 15.86 V 27.53 H 95.01 Z"
           style="fill:#88d7d8;fill-opacity:0.251;fill-rule:nonzero;stroke:none"
           id="path968" />
      </g>
      <g
         id="g992"
         transform="translate(279.15255,134.54238)">
        <text
           xml:space="preserve"
           transform="matrix(1,0,0,-1,117.06,16.01)"
           style="font-variant:normal;font-weight:normal;font-size:10px;font-family:Helvetica;-inkscape-font-specification:Helvetica;writing-mode:lr-tb;fill:#ffffff;fill-opacity:1;fill-rule:nonzero;stroke:none"
           id="text996"><tspan
             x="0 5.5599999 11.12 16.68 22.24 28.08 33.639999 39.200001 44.759998"
             y="0"
             sodipodi:role="line"
             id="tspan994"
             style="font-weight:bold">1930−1949</tspan></text>
      </g>
      <g
         id="g1062"
         transform="translate(-37.34245,134.54238)">
        <path
           d="m 412.52,19.6 h 13.83"
           style="fill:none;stroke:#88d7d8;stroke-width:4.27;stroke-linecap:butt;stroke-linejoin:round;stroke-miterlimit:10;stroke-dasharray:none;stroke-opacity:1"
           id="path1064" />
      </g>
    </g>
    <g
       id="g1066" />
    <g
       id="g1068" />
    <g
       id="g1070" />
    <g
       id="g1078" />
    <g
       id="g1080" />
    <g
       id="g1082" />
    <g
       id="g1084" />
    <g
       id="g1086" />
    <g
       id="g1094" />
    <g
       id="g1096" />
    <g
       id="g1098" />
    <g
       id="g1100" />
    <g
       id="g1102" />
    <g
       id="g1104" />
    <g
       id="g1106" />
    <g
       id="g1108" />
    <g
       id="g1110" />
    <g
       id="g1112" />
    <g
       id="g1114" />
    <g
       id="g1116" />
    <g
       id="g1118" />
    <g
       id="g1120" />
    <g
       id="g1122" />
    <g
       id="g1124" />
  </g>
</svg>
