<?xml version="1.0" encoding="UTF-8" standalone="no"?>
<!-- Created with Inkscape (http://www.inkscape.org/) -->

<svg
   version="1.1"
   id="svg352591"
   width="609.73157"
   height="221.05153"
   viewBox="0 0 609.73157 221.05153"
   sodipodi:docname="dolo_comparison_simple.svg"
   inkscape:version="1.2.1 (9c6d41e, 2022-07-14)"
   xmlns:inkscape="http://www.inkscape.org/namespaces/inkscape"
   xmlns:sodipodi="http://sodipodi.sourceforge.net/DTD/sodipodi-0.dtd"
   xmlns="http://www.w3.org/2000/svg"
   xmlns:svg="http://www.w3.org/2000/svg">
  <defs
     id="defs352595">
    <clipPath
       clipPathUnits="userSpaceOnUse"
       id="clipPath352653">
      <path
         d="M 0,0 H 468 V 216 H 0 Z"
         id="path352651" />
    </clipPath>
    <clipPath
       clipPathUnits="userSpaceOnUse"
       id="clipPath353526">
      <g
         id="g353530">
        <path
           d="M 51.27,72.05 H 462.52 V 210.52 H 51.27 Z"
           id="path353528" />
      </g>
    </clipPath>
    <clipPath
       clipPathUnits="userSpaceOnUse"
       id="clipPath353532">
      <g
         id="g353536">
        <path
           d="M 51.27,72.05 H 462.52 V 210.52 H 51.27 Z"
           id="path353534" />
      </g>
    </clipPath>
    <clipPath
       clipPathUnits="userSpaceOnUse"
       id="clipPath353538">
      <g
         id="g353542">
        <path
           d="M 51.27,72.05 H 462.52 V 210.52 H 51.27 Z"
           id="path353540" />
      </g>
    </clipPath>
    <clipPath
       clipPathUnits="userSpaceOnUse"
       id="clipPath353544">
      <g
         id="g353548">
        <path
           d="M 51.27,72.05 H 462.52 V 210.52 H 51.27 Z"
           id="path353546" />
      </g>
    </clipPath>
    <clipPath
       clipPathUnits="userSpaceOnUse"
       id="clipPath353550">
      <g
         id="g353554">
        <path
           d="M 51.27,72.05 H 462.52 V 210.52 H 51.27 Z"
           id="path353552" />
      </g>
    </clipPath>
  </defs>
  <sodipodi:namedview
     id="namedview352593"
     pagecolor="#ffffff"
     bordercolor="#000000"
     borderopacity="0.25"
     inkscape:showpageshadow="2"
     inkscape:pageopacity="0.0"
     inkscape:pagecheckerboard="0"
     inkscape:deskcolor="#d1d1d1"
     showgrid="false"
     inkscape:zoom="1.8009829"
     inkscape:cx="346.47746"
     inkscape:cy="104.94269"
     inkscape:window-width="1419"
     inkscape:window-height="700"
     inkscape:window-x="0"
     inkscape:window-y="25"
     inkscape:window-maximized="0"
     inkscape:current-layer="g352599">
    <inkscape:page
       x="0"
       y="0"
       id="page352597"
       width="609.73157"
       height="221.05153"
       inkscape:export-filename="dolo_comp.png"
       inkscape:export-xdpi="96"
       inkscape:export-ydpi="96" />
  </sodipodi:namedview>
  <g
     id="g352599"
     inkscape:groupmode="layer"
     inkscape:label="Page 1"
     transform="matrix(1.3333333,0,0,-1.3333333,-6.9617446,280.69333)">
    <g
       id="g352605" />
    <g
       id="g352607" />
    <g
       id="g352609" />
    <g
       id="g352611" />
    <g
       id="g352613" />
    <g
       id="g352615" />
    <g
       id="g352617" />
    <g
       id="g352619" />
    <g
       id="g352621" />
    <g
       id="g352623" />
    <g
       id="g352625" />
    <g
       id="g352627" />
    <g
       id="g352629" />
    <g
       id="g352631" />
    <g
       id="g352633" />
    <g
       id="g352635" />
    <g
       id="g352637" />
    <g
       id="g352639" />
    <g
       id="g352641" />
    <g
       id="g352643" />
    <g
       id="g352645" />
    <g
       id="g352657" />
    <path
       d="m 69.96,80.86 v 0 l 1.03,0.19 v 0 l 1.02,-0.41 v 0 l 1.02,0.13 v 0 l 1.03,0.34 v 0 l 1.02,-0.05 v 0 l 1.03,-0.05 v 0 l 1.02,-0.34 v 0 l 1.03,-0.06 v 0 l 1.02,0.03 v 0 l 1.02,0.03 v 0 l 1.03,0.56 v 0 l 1.02,0.74 v 0 l 1.03,-0.15 v 0 l 1.02,-0.23 v 0 l 1.03,0.21 v 0 l 1.02,-0.23 v 0 l 1.02,-0.54 v 0 l 1.03,0.29 v 0 l 1.02,-0.31 v 0 l 1.03,-0.24 v 0 l 1.02,0.57 v 0 l 1.03,0.2 v 0 l 1.02,0.05 v 0 l 1.02,-0.3 v 0 l 1.03,0.31 v 0 l 1.02,-0.29 v 0 l 1.03,-0.2 v 0 l 1.02,0.06 v 0 l 1.03,0.09 v 0 l 1.02,-0.52 v 0 l 1.02,0.52 v 0 h 1.03 v 0 l 1.02,0.23 v 0 l 1.03,-0.12 v 0 l 1.02,-0.11 v 0 l 1.03,0.2 v 0 l 1.02,0.23 v 0 l 1.02,-0.07 v 0 l 1.03,0.14 v 0 l 1.02,-0.03 v 0 l 1.03,-0.13 v 0 l 1.02,-0.06 v 0 l 1.03,-0.06 v 0 l 1.02,-0.19 v 0 l 1.02,0.1 v 0 l 1.03,0.37 v 0 l 1.02,-0.05 v 0 l 1.03,0.19 v 0 l 1.02,-0.14 v 0 l 1.03,0.34 v 0 l 1.02,0.18 v 0 l 1.02,0.76 v 0 l 1.03,1.85 v 0 l 1.02,-0.49 v 0 l 1.03,-0.13 v 0 l 1.02,0.25 v 0 l 1.03,-0.49 v 0 l 1.02,0.49 v 0 l 1.02,-0.12 v 0 l 1.03,-0.31 v 0 l 1.02,0.56 v 0 l 1.03,0.67 v 0 l 1.02,-0.66 v 0 l 1.03,-0.57 v 0 l 1.02,-0.62 v 0 l 1.02,-0.18 v 0 l 1.03,-0.05 v 0 l 1.02,0.26 v 0 l 1.03,-0.46 v 0 l 1.02,0.08 v 0 l 1.03,0.46 v 0 l 1.02,0.39 v 0 l 1.03,2.34 v 0 l 1.02,-1.22 v 0 l 1.02,0.06 v 0 l 1.03,0.27 v 0 l 1.02,0.79 v 0 l 1.03,0.98 v 0 l 1.02,-1.88 v 0 l 1.03,1.19 v 0 l 1.02,0.59 v 0 l 1.02,-1.47 v 0 l 1.03,-0.22 v 0 l 1.02,1.79 v 0 l 1.03,4.04 v 0 l 1.02,-0.7 v 0 l 1.03,-1.28 v 0 l 1.02,1.16 v 0 l 1.02,6.61 v 0 l 1.03,-0.31 v 0 l 1.02,1.7 v 0 l 1.03,11.28 v 0 l 1.02,-3.09 v 0 l 1.03,-6.8 v 0 l 1.02,5.1 v 0 l 1.02,-2.01 v 0 l 1.03,0.77 v 0 l 1.02,5.41 v 0 l 1.03,3.71 v 0 l 1.02,0.77 v 0 l 1.03,10.97 v 0 l 1.02,-7.11 v 0 l 1.02,5.72 v 0 l 1.03,5.87 v 0 l 1.02,-1.7 v 0 l 1.03,15.6 v 0 l 1.02,11.43 v 0 l 1.03,41.09 v 0 l 1.02,4.79 v 0 l 1.02,-13.59 v 0 l 1.03,8.34 v 0 l 1.02,9.27 v 0 l 1.03,-7.26 v 0 l 1.02,-4.64 v 0 l 1.03,-24.87 v 0 l 1.02,12.98 v 0 l 1.02,-1.55 v 0 l 1.03,-6.8 v 0 l 1.02,2.32 v 0 l 1.03,4.17 v 0 l 1.02,-1.7 v 0 l 1.03,-6.33 v 0 l 1.02,-2.93 v 0 l 1.02,6.48 v 0 l 1.03,-8.18 v 0 l 1.02,-1.09 v 0 l 1.03,12.52 v 0 l 1.02,6.79 v 0 l 1.03,-3.7 v 0 l 1.02,1.85 v 0 l 1.02,4.33 v 0 l 1.03,-8.81 v 0 l 1.02,-6.64 v 0 l 1.03,-3.86 v 0 l 1.02,-6.03 v 0 l 1.03,-4.01 v 0 l 1.02,-2.17 v 0 l 1.02,-0.31 v 0 l 1.03,0.93 v 0 l 1.02,6.02 v 0 l 1.03,8.96 v 0 l 1.02,2.63 v 0 l 1.03,-4.94 v 0 l 1.02,-11.59 v 0 l 1.02,-12.82 v 0 l 1.03,-11.28 v 0 l 1.02,0.47 v 0 l 1.03,6.79 v 0 l 1.02,11.13 v 0 l 1.03,3.7 v 0 l 1.02,-4.17 v 0 l 1.02,-4.94 v 0 l 1.03,-2.94 v 0 l 1.02,-0.92 v 0 l 1.03,3.86 v 0 l 1.02,-6.49 v 0 l 1.03,-2.93 v 0 l 1.02,5.56 v 0 l 1.02,-7.73 v 0 l 1.03,-6.64 v 0 l 1.02,-2.63 v 0 l 1.03,-1.54 v 0 l 1.02,4.02 v 0 l 1.03,5.4 v 0 l 1.02,-2.16 v 0 l 1.02,-9.11 v 0 l 1.03,-2.17 v 0 l 1.02,2.94 v 0 l 1.03,5.71 v 0 l 1.02,2.63 v 0 l 1.03,-1.54 v 0 l 1.02,1.69 v 0 l 1.02,0.62 v 0 l 1.03,-4.79 v 0 l 1.02,-8.18 v 0 l 1.03,-3.4 v 0 l 1.02,-2.32 v 0 l 1.03,-0.46 v 0 l 1.02,-2.47 v 0 l 1.02,4.94 v 0 l 1.03,-1.85 v 0 l 1.02,-1.86 v 0 l 1.03,-6.95 v 0 l 1.02,-4.63 v 0 l 1.03,-1.7 v 0 l 1.02,-2.17 v 0 l 1.02,0.31 v 0 l 1.03,1.39 v 0 l 1.02,-2.16 v 0 l 1.03,0.93 v 0 l 1.02,-1.39 v 0 l 1.03,1.23 v 0 l 1.02,-1.08 v 0 l 1.02,-1.64 v 0 l 1.03,-3.39 v 0 l 1.02,0.98 v 0 l 1.03,-0.89 v 0 l 1.02,-0.77 v 0 l 1.03,-0.65 v 0 l 1.02,-0.33 v 0 l 1.02,-0.43 v 0 l 1.03,-0.22 v 0 l 1.02,-0.6 v 0 l 1.03,-0.83 v 0 l 1.02,0.74 v 0 l 1.03,-1.59 v 0 l 1.02,0.35 v 0 l 1.02,-0.69 v 0 l 1.03,-0.57 v 0 l 1.02,0.86 v 0 l 1.03,-0.85 v 0 l 1.02,0.16 v 0 l 1.03,-0.67 v 0 l 1.02,0.06 v 0 l 1.02,-0.37 v 0 l 1.03,-0.49 v 0 l 1.02,1.17 v 0 l 1.03,0.42 v 0 l 1.02,0.6 v 0 l 1.03,1.73 v 0 l 1.02,-2.89 v 0 l 1.02,-0.51 v 0 l 1.03,2.34 v 0 l 1.02,0.2 v 0 l 1.03,-0.02 v 0 l 1.02,-1.65 v 0 l 1.03,-0.93 v 0 l 1.02,-0.74 v 0 l 1.02,0.25 v 0 l 1.03,0.54 v 0 l 1.02,-1.3 v 0 l 1.03,0.91 v 0 l 1.02,-0.55 v 0 l 1.03,1.29 v 0 l 1.02,0.16 v 0 l 1.02,-0.73 v 0 l 1.03,-0.65 v 0 l 1.02,-0.17 v 0 l 1.03,1.55 v 0 l 1.02,0.01 v 0 l 1.03,-0.77 v 0 l 1.02,-1.22 v 0 l 1.02,3.88 v 0 l 1.03,1.59 v 0 l 1.02,-1.82 v 0 l 1.03,-2.32 v 0 l 1.02,-0.06 v 0 l 1.03,-0.3 v 0 l 1.02,0.58 v 0 l 1.02,-1.32 v 0 l 1.03,-0.32 v 0 l 1.02,-0.09 v 0 l 1.03,-0.44 v 0 l 1.02,-0.21 v 0 l 1.03,1.2 v 0 l 1.02,-1.02 v 0 l 1.02,2.35 v 0 l 1.03,-1.14 v 0 L 335.25,82 v 0 l 1.03,-0.6 v 0 l 1.02,1.39 v 0 l 1.03,-0.42 v 0 l 1.02,-0.34 v 0 l 1.02,-0.2 v 0 l 1.03,-0.03 v 0 l 1.02,-0.23 v 0 l 1.03,-0.26 v 0 l 1.02,-0.11 v 0 l 1.03,-0.12 v 0 l 1.02,0.89 v 0 l 1.02,-0.65 v 0 l 1.03,0.9 v 0 l 1.02,-0.77 v 0 l 1.03,-0.08 v 0 l 1.02,-0.39 v 0 l 1.03,-0.31 v 0 l 1.02,-0.06 v 0 l 1.02,0.22 v 0 l 1.03,0.15 v 0 l 1.02,0.51 v 0 h 1.03 v 0 h 1.02 v 0 h 1.03 v 0 l 1.02,1.87 v 0 l 1.02,0.79 v 0 l 1.03,-0.86 v 0 l 1.02,-0.25 v 0 l 1.03,-0.31 v 0 l 1.02,0.45 v 0 l 1.03,-0.93 v 0 l 1.02,-0.22 v 0 l 1.02,-0.26 v 0 l 1.03,-0.04 v 0 l 1.02,-0.1 v 0 l 1.03,-0.04 v 0 l 1.02,-0.1 v 0 l 1.03,-0.07 v 0 l 1.02,-0.16 v 0 l 1.02,0.23 v 0 h 1.03 v 0 h 1.02 v 0 l 1.03,0.3 v 0 l 1.02,-0.3 v 0 h 1.03 v 0 l 1.02,-0.44 v 0 l 1.02,0.1 v 0 l 1.03,-0.2 v 0 h 1.02 v 0 h 1.03 v 0 h 1.02 v 0 h 1.03 v 0 h 1.02 v 0 h 1.02 v 0 l 1.03,0.2 v 0 l 1.02,-0.2 v 0 l 1.03,0.53 v 0 l 1.02,-0.28 v 0 l 1.03,-0.25 v 0 l 1.02,-0.01 v 0 l 1.02,0.09 v 0 l 1.03,-0.08 v 0 h 1.02 v 0 l 1.03,0.42 v 0 h 1.02 v 0 l 1.03,-0.17 v 0 l 1.02,-0.25 v 0 l 1.02,0.45 v 0 l 1.03,-0.26 v 0 l 1.02,-0.03 v 0 l 1.03,-0.28 v 0 l 1.02,0.12 v 0 h 1.03 v 0 l 1.02,0.03 v 0 l 1.02,-0.03 v 0 l 1.03,0.03 v 0 l 1.02,0.11 v 0 l 1.03,-0.04 v 0 l 1.02,0.26 v 0 l 1.03,-0.36 v 0 h 1.02 v 0 l 1.02,-0.03 v 0 l 1.03,0.13 v 0 l 1.02,-0.17 v 0 h 1.03 v 0 l 1.02,-0.08 v 0 l 1.03,-0.16 v 0 l 1.02,0.39 v 0 l 1.02,-0.11 v 0 l 1.03,-0.04 v 0 l 1.02,-0.02 v 0 l 1.03,-0.06 v 0 l 1.02,0.15 v 0 l 1.03,0.08 v 0 l 1.02,0.15 v 0 l 1.02,-0.23 v 0 l 1.03,0.19 v 0 l 1.02,-0.03 v 0 l 1.03,0.51 v 0 l 1.02,0.34 v 0 l 1.03,-0.33 v 0 l 1.02,-0.26 v 0 l 1.02,-0.15 v 0 l 1.03,-0.07 v 0 l 1.02,-0.09 v 0 h 1.03 v 0 -1.05 0 L 442.8,79.7 v 0 l -1.02,0.28 v 0 l -1.03,0.32 v 0 l -1.02,-0.09 v 0 l -1.02,0.34 v 0 l -1.03,-0.11 v 0 l -1.02,-0.18 v 0 l -1.03,0.32 v 0 l -1.02,-0.41 v 0 l -1.03,-0.24 v 0 l -1.02,-0.14 v 0 l -1.02,0.08 v 0 l -1.03,-0.08 v 0 l -1.02,0.24 v 0 l -1.03,0.31 v 0 l -1.02,-0.04 v 0 l -1.03,-0.06 v 0 l -1.02,-0.12 v 0 h -1.02 v 0 l -1.03,-0.22 v 0 l -1.02,0.05 v 0 l -1.03,0.15 v 0 l -1.02,0.05 v 0 l -1.03,0.03 v 0 h -1.02 v 0 l -1.02,0.03 v 0 l -1.03,-0.06 v 0 l -1.02,-0.26 v 0 l -1.03,0.14 v 0 l -1.02,0.14 v 0 l -1.03,-0.27 v 0 l -1.02,0.17 v 0 l -1.02,-0.17 v 0 L 409,80.09 v 0 l -1.02,0.17 v 0 l -1.03,0.08 v 0 L 405.93,80 v 0 l -1.03,-0.11 v 0 l -1.02,0.18 v 0 l -1.02,0.23 v 0 l -1.03,-0.15 v 0 h -1.02 v 0 l -1.03,0.11 v 0 h -1.02 v 0 l -1.03,-0.05 v 0 l -1.02,-0.06 v 0 L 395.69,80 v 0 l -1.03,0.12 v 0 l -1.02,0.06 v 0 l -1.03,-0.08 v 0 l -1.02,0.05 v 0 h -1.03 v 0 l -1.02,-0.05 v 0 l -1.02,0.11 v 0 l -1.03,0.05 v 0 l -1.02,-0.08 v 0 l -1.03,0.03 v 0 l -1.02,-0.03 v 0 l -1.03,0.19 v 0 l -1.02,0.12 v 0 l -1.02,0.08 v 0 l -1.03,-0.2 v 0 l -1.02,-0.22 v 0 l -1.03,-0.11 v 0 l -1.02,0.06 v 0 l -1.03,0.08 v 0 L 375.2,79.9 v 0 h -1.02 v 0 h -1.03 v 0 h -1.02 v 0 L 371.1,80 v 0 h -1.02 v 0 l -1.03,0.07 v 0 l -1.02,-0.01 v 0 L 367.01,80 v 0 h -1.03 v 0 l -1.02,0.03 v 0 l -1.03,-0.08 v 0 l -1.02,-0.2 v 0 l -1.03,0.04 v 0 l -1.02,-0.04 v 0 l -1.02,-0.03 v 0 l -1.03,-0.05 v 0 h -1.02 v 0 l -1.03,0.08 v 0 l -1.02,-0.05 v 0 l -1.03,0.26 v 0 l -1.02,0.08 v 0 l -1.02,-0.23 v 0 l -1.03,-0.02 v 0 l -1.02,0.1 v 0 l -1.03,-0.18 v 0 l -1.02,0.04 v 0 l -1.03,-0.19 v 0 l -1.02,-0.28 v 0 l -1.02,-0.09 v 0 l -1.03,-0.15 v 0 l -1.02,-0.1 v 0 l -1.03,0.04 v 0 h -1.02 v 0 l -1.03,0.07 v 0 l -1.02,0.03 v 0 l -1.02,0.17 v 0 L 337.3,79.1 v 0 l -1.02,0.06 v 0 h -1.03 v 0 l -1.02,0.09 v 0 l -1.03,-0.09 v 0 h -1.02 v 0 l -1.02,0.06 v 0 l -1.03,-0.03 v 0 l -1.02,-0.01 v 0 l -1.03,-0.03 v 0 l -1.02,0.06 v 0 l -1.03,0.04 v 0 l -1.02,0.2 v 0 l -1.02,0.11 v 0 l -1.03,-0.15 v 0 l -1.02,0.09 v 0 l -1.03,-0.01 v 0 l -1.02,0.13 v 0 l -1.03,0.19 v 0 l -1.02,0.17 v 0 l -1.02,0.15 v 0 l -1.03,0.28 v 0 l -1.02,0.06 v 0 l -1.03,-0.38 v 0 l -1.02,-0.11 v 0 l -1.03,0.22 v 0 l -1.02,-0.22 v 0 l -1.02,-0.05 v 0 l -1.03,0.19 v 0 l -1.02,0.18 v 0 l -1.03,-0.12 v 0 l -1.02,0.2 v 0 l -1.03,0.36 v 0 l -1.02,0.15 v 0 l -1.02,0.22 v 0 l -1.03,0.14 v 0 l -1.02,0.23 v 0 h -1.03 v 0 l -1.02,0.29 v 0 l -1.03,-1.13 v 0 l -1.02,0.7 v 0 l -1.02,0.35 v 0 l -1.03,0.16 v 0 l -1.02,-0.31 v 0 l -1.03,0.56 v 0 l -1.02,-0.76 v 0 l -1.03,-0.6 v 0 l -1.02,0.09 v 0 l -1.02,0.97 v 0 l -1.03,-0.11 v 0 l -1.02,0.36 v 0 l -1.03,-0.79 v 0 l -1.02,-0.03 v 0 l -1.03,0.37 v 0 l -1.02,-1.11 v 0 l -1.02,0.18 v 0 l -1.03,0.24 v 0 l -1.02,0.44 v 0 l -1.03,0.22 v 0 l -1.02,0.74 v 0 l -1.03,0.13 v 0 l -1.02,-0.19 v 0 l -1.02,-0.37 v 0 l -1.03,1.02 v 0 l -1.02,-0.66 v 0 l -1.03,0.37 v 0 l -1.02,0.12 v 0 l -1.03,1.48 v 0 l -1.02,0.51 v 0 l -1.02,-1.7 v 0 l -1.03,0.71 v 0 l -1.02,0.07 v 0 l -1.03,0.43 v 0 l -1.02,-0.53 v 0 l -1.03,0.2 v 0 l -1.02,0.17 v 0 l -1.02,0.31 v 0 l -1.03,0.45 v 0 l -1.02,0.56 v 0 l -1.03,0.4 v 0 l -1.02,1.64 v 0 l -1.03,0.06 v 0 l -1.02,0.58 v 0 l -1.02,0.3 v 0 l -1.03,1.59 v 0 l -1.02,0.79 v 0 l -1.03,0.38 v 0 l -1.02,1.5 v 0 l -1.03,0.6 v 0 l -1.02,1.01 v 0 l -1.02,0.31 v 0 l -1.03,0.61 v 0 l -1.02,0.78 v 0 l -1.03,0.77 v 0 l -1.02,-0.77 v 0 l -1.03,0.92 v 0 l -1.02,1.86 v 0 l -1.02,0.92 v 0 l -1.03,-2 v 0 l -1.02,1.39 v 0 l -1.03,-1.55 v 0 l -1.02,1.24 v 0 l -1.03,2.47 v 0 l -1.02,-0.31 v 0 l -1.02,0.16 v 0 l -1.03,1.08 v 0 l -1.02,3.09 v 0 l -1.03,-0.62 v 0 l -1.02,-0.62 v 0 l -1.03,1.39 v 0 l -1.02,3.4 v 0 l -1.02,7.72 v 0 l -1.03,-11.12 v 0 l -1.02,5.87 v 0 l -1.03,-0.46 v 0 l -1.02,-1.24 v 0 l -1.03,0.16 v 0 h -1.02 v 0 l -1.02,-5.57 v 0 l -1.03,2.01 v 0 l -1.02,9.43 v 0 l -1.03,-1.7 v 0 l -1.02,-0.62 v 0 l -1.03,2.01 v 0 l -1.02,5.09 v 0 l -1.02,4.79 v 0 l -1.03,-10.35 v 0 l -1.02,-5.56 v 0 l -1.03,2.17 v 0 l -1.02,-4.48 v 0 l -1.03,-2.48 v 0 l -1.02,3.09 v 0 l -1.02,6.95 v 0 l -1.03,6.65 v 0 l -1.02,3.86 v 0 l -1.03,2.32 v 0 l -1.02,1.08 v 0 l -1.03,-2.63 v 0 l -1.02,-5.71 v 0 l -1.02,5.56 v 0 l -1.03,1.7 v 0 l -1.02,-5.56 v 0 l -1.03,1.08 v 0 l -1.02,-1.24 v 0 l -1.03,-16.99 v 0 l -1.02,1.85 v 0 l -1.02,-0.77 v 0 l -1.03,0.93 v 0 l -1.02,-1.55 v 0 l -1.03,0.93 v 0 l -1.02,-1.86 v 0 l -1.03,-5.4 v 0 l -1.02,-2.16 v 0 l -1.02,2 v 0 l -1.03,0.93 v 0 l -1.02,-0.62 v 0 l -1.03,1.55 v 0 l -1.02,1.23 v 0 l -1.03,-4.79 v 0 l -1.02,-2 v 0 l -1.02,-1.67 v 0 l -1.03,0.12 v 0 l -1.02,-0.62 v 0 l -1.03,-4.55 v 0 l -1.02,-0.71 v 0 l -1.03,-1.32 v 0 l -1.02,-1.13 v 0 l -1.02,-0.35 v 0 l -1.03,0.45 v 0 l -1.02,-0.91 v 0 l -1.03,-0.93 v 0 l -1.02,-0.06 v 0 l -1.03,-0.14 v 0 L 160.1,82.5 v 0 l -1.02,-0.02 v 0 l -1.03,-0.21 v 0 l -1.02,-0.1 v 0 L 156,82.05 v 0 l -1.02,-0.19 v 0 l -1.03,0.13 v 0 l -1.02,-0.11 v 0 l -1.02,0.49 v 0 l -1.03,-0.46 v 0 l -1.02,0.12 v 0 l -1.03,-0.12 v 0 l -1.02,0.56 v 0 l -1.03,0.24 v 0 l -1.02,-0.13 v 0 l -1.02,-0.41 v 0 l -1.03,-0.35 v 0 l -1.02,-0.51 v 0 l -1.03,-0.23 v 0 l -1.02,-0.17 v 0 l -1.03,-0.02 v 0 l -1.02,-0.06 v 0 l -1.03,0.25 v 0 l -1.02,0.26 v 0 l -1.02,-0.23 v 0 l -1.03,0.48 v 0 l -1.02,-0.02 v 0 l -1.03,0.05 v 0 l -1.02,-0.36 v 0 l -1.03,-0.15 v 0 l -1.02,-0.23 v 0 l -1.02,-0.21 v 0 l -1.03,0.11 v 0 l -1.02,-0.15 v 0 l -1.03,0.04 v 0 l -1.02,-0.04 v 0 l -1.03,-0.05 v 0 l -1.02,-0.03 v 0 h -1.02 v 0 l -1.03,-0.23 v 0 l -1.02,0.35 v 0 h -1.03 v 0 l -1.02,0.07 v 0 l -1.03,-0.16 v 0 l -1.02,0.09 v 0 l -1.02,-0.06 v 0 l -1.03,-0.09 v 0 l -1.02,-0.03 v 0 l -1.03,0.05 v 0 l -1.02,0.18 v 0 l -1.03,-0.32 v 0 l -1.02,0.14 v 0 l -1.02,-0.3 v 0 l -1.03,0.22 v 0 l -1.02,-0.05 v 0 l -1.03,0.17 v 0 l -1.02,-0.17 v 0 l -1.03,0.03 v 0 l -1.02,-0.03 v 0 l -1.02,-0.07 v 0 l -1.03,-0.16 v 0 l -1.02,0.37 v 0 l -1.03,0.08 v 0 l -1.02,-0.14 v 0 l -1.03,-0.08 v 0 l -1.02,0.22 v 0 L 92.5,80.49 v 0 l -1.03,0.09 v 0 l -1.02,-0.09 v 0 l -1.03,-0.34 v 0 L 88.4,80.03 v 0 l -1.03,-0.02 v 0 l -1.02,0.11 v 0 l -1.02,-0.17 v 0 l -1.03,0.08 v 0 l -1.02,0.01 v 0 l -1.03,0.17 v 0 l -1.02,-0.03 v 0 L 80.2,79.9 v 0 l -1.02,-0.15 v 0 l -1.02,0.12 v 0 l -1.03,-0.15 v 0 l -1.02,-0.06 v 0 l -1.03,0.12 v 0 l -1.02,0.03 v 0 l -1.03,0.03 v 0 l -1.02,0.14 v 0 l -1.02,-0.11 v 0 l -1.03,-0.03 v 0 z"
       style="fill:#00c4a3;fill-opacity:0.251;fill-rule:nonzero;stroke:none"
       id="path352669"
       clip-path="url(#clipPath353544)" />
    <path
       d="m 69.96,79.58 v 0 l 1.03,0.24 v 0 l 1.02,0.04 v 0 l 1.02,-0.14 v 0 l 1.03,-0.06 v 0 l 1.02,0.2 v 0 l 1.03,0.26 v 0 l 1.02,-0.29 v 0 l 1.03,0.37 v 0 l 1.02,0.09 v 0 l 1.02,0.03 v 0 l 1.03,-0.08 v 0 h 1.02 v 0 l 1.03,0.01 v 0 l 1.02,0.02 v 0 l 1.03,-0.24 v 0 l 1.02,-0.06 v 0 l 1.02,0.01 v 0 h 1.03 v 0 l 1.02,0.07 v 0 l 1.03,0.01 v 0 L 91.47,80 v 0 l 1.03,0.02 v 0 l 1.02,0.01 v 0 l 1.02,-0.09 v 0 l 1.03,0.09 v 0 l 1.02,0.14 v 0 l 1.03,-0.11 v 0 l 1.02,0.09 v 0 l 1.03,-0.04 v 0 h 1.02 v 0 l 1.02,0.29 v 0 l 1.03,-0.07 v 0 l 1.02,0.26 v 0 l 1.03,-0.18 v 0 l 1.02,-0.07 v 0 l 1.03,-0.02 v 0 l 1.02,0.03 v 0 l 1.02,0.1 v 0 l 1.03,0.14 v 0 l 1.02,-0.03 v 0 l 1.03,0.13 v 0 l 1.02,-0.15 v 0 l 1.03,-0.03 v 0 l 1.02,0.04 v 0 l 1.02,0.81 v 0 l 1.03,-0.17 v 0 l 1.02,-0.07 v 0 l 1.03,-0.24 v 0 l 1.02,-0.19 v 0 l 1.03,-0.11 v 0 l 1.02,-0.09 v 0 l 1.02,-0.02 v 0 l 1.03,0.27 v 0 h 1.02 v 0 l 1.03,-0.19 v 0 l 1.02,-0.07 v 0 l 1.03,-0.15 v 0 l 1.02,0.67 v 0 l 1.02,0.17 v 0 l 1.03,-0.14 v 0 l 1.02,0.02 v 0 l 1.03,0.02 v 0 l 1.02,0.13 v 0 h 1.03 v 0 l 1.02,0.03 v 0 l 1.02,-0.15 v 0 l 1.03,0.49 v 0 l 1.02,-0.4 v 0 l 1.03,-0.07 v 0 l 1.02,0.29 v 0 l 1.03,1.61 v 0 l 1.02,1.21 v 0 l 1.03,0.63 v 0 l 1.02,-1.45 v 0 l 1.02,-0.49 v 0 l 1.03,0.01 v 0 l 1.02,0.72 v 0 l 1.03,0.47 v 0 l 1.02,0.34 v 0 l 1.03,0.44 v 0 l 1.02,0.22 v 0 l 1.02,0.22 v 0 l 1.03,-0.23 v 0 L 156,84.14 v 0 l 1.03,-0.82 v 0 l 1.02,0.09 v 0 l 1.03,0.77 v 0 l 1.02,0.58 v 0 l 1.02,0.04 v 0 l 1.03,-0.38 v 0 l 1.02,-0.25 v 0 L 164.2,84 v 0 l 1.02,0.25 v 0 l 1.03,1.26 v 0 l 1.02,2.76 v 0 l 1.02,2.52 v 0 l 1.03,1.15 v 0 l 1.02,2.66 v 0 l 1.03,2.14 v 0 l 1.02,1.28 v 0 l 1.03,-1.89 v 0 l 1.02,-2.59 v 0 l 1.02,-1.09 v 0 l 1.03,0.37 v 0 l 1.02,2.41 v 0 l 1.03,1.28 v 0 l 1.02,0.87 v 0 l 1.03,-0.88 v 0 l 1.02,-0.68 v 0 l 1.02,-1.02 v 0 l 1.03,-0.19 v 0 l 1.02,-0.45 v 0 l 1.03,0.16 v 0 l 1.02,0.29 v 0 l 1.03,0.81 v 0 l 1.02,1.11 v 0 l 1.02,-0.3 v 0 l 1.03,0.26 v 0 l 1.02,-0.55 v 0 l 1.03,-1.22 v 0 l 1.02,-0.08 v 0 l 1.03,-0.09 v 0 l 1.02,0.47 v 0 l 1.02,-1.83 v 0 l 1.03,0.15 v 0 l 1.02,1.32 v 0 l 1.03,2 v 0 l 1.02,-0.42 v 0 l 1.03,-0.88 v 0 l 1.02,2.89 v 0 l 1.02,1.28 v 0 l 1.03,-0.89 v 0 l 1.02,-1.78 v 0 l 1.03,0.27 v 0 l 1.02,1.39 v 0 l 1.03,1.55 v 0 l 1.02,0.97 v 0 l 1.02,-1.24 v 0 l 1.03,-1 v 0 l 1.02,-1.51 v 0 l 1.03,0.19 v 0 l 1.02,-0.19 v 0 l 1.03,-0.08 v 0 l 1.02,-1.23 v 0 l 1.02,-0.39 v 0 l 1.03,-0.43 v 0 l 1.02,-0.88 v 0 l 1.03,-1.46 v 0 l 1.02,-1.44 v 0 l 1.03,-0.72 v 0 l 1.02,0.27 v 0 l 1.02,1.2 v 0 l 1.03,2.22 v 0 l 1.02,0.66 v 0 l 1.03,3.32 v 0 l 1.02,11.12 v 0 l 1.03,3.21 v 0 l 1.02,0.66 v 0 l 1.02,-0.7 v 0 l 1.03,-0.73 v 0 l 1.02,-0.16 v 0 l 1.03,4.1 v 0 l 1.02,-0.97 v 0 l 1.03,-3.86 v 0 l 1.02,-3.86 v 0 l 1.02,-2.2 v 0 l 1.03,-1.05 v 0 l 1.02,-0.19 v 0 l 1.03,-0.31 v 0 l 1.02,-1.39 v 0 l 1.03,1.35 v 0 l 1.02,-0.96 v 0 l 1.02,-2.09 v 0 l 1.03,-2.28 v 0 l 1.02,-1.85 v 0 l 1.03,-1.82 v 0 l 1.02,-1.06 v 0 l 1.03,-1.51 v 0 l 1.02,-1.09 v 0 l 1.02,-1.46 v 0 l 1.03,-0.92 v 0 l 1.02,1.71 v 0 l 1.03,1.25 v 0 l 1.02,0.28 v 0 l 1.03,0.64 v 0 l 1.02,-1.38 v 0 l 1.02,-1.78 v 0 l 1.03,0.38 v 0 l 1.02,-1.22 v 0 l 1.03,-0.96 v 0 l 1.02,-1.02 v 0 l 1.03,-0.51 v 0 l 1.02,1.53 v 0 l 1.02,0.34 v 0 l 1.03,1.61 v 0 l 1.02,-1.9 v 0 l 1.03,-1.83 v 0 l 1.02,-0.65 v 0 l 1.03,-0.41 v 0 l 1.02,0.32 v 0 l 1.02,-0.08 v 0 l 1.03,0.51 v 0 l 1.02,-0.48 v 0 l 1.03,-0.37 v 0 l 1.02,1.63 v 0 l 1.03,-1.85 v 0 l 1.02,0.59 v 0 l 1.02,-0.02 v 0 l 1.03,-1.2 v 0 l 1.02,0.8 v 0 l 1.03,0.43 v 0 l 1.02,-0.1 v 0 l 1.03,-0.8 v 0 l 1.02,1.57 v 0 l 1.02,-0.66 v 0 l 1.03,-1.49 v 0 l 1.02,0.23 v 0 l 1.03,0.51 v 0 l 1.02,1.25 v 0 l 1.03,-0.76 v 0 l 1.02,-1.27 v 0 l 1.02,-0.68 v 0 h 1.03 v 0 l 1.02,0.17 v 0 l 1.03,-0.81 v 0 l 1.02,-0.07 v 0 l 1.03,-0.39 v 0 l 1.02,-0.3 v 0 l 1.02,-0.02 v 0 l 1.03,0.63 v 0 l 1.02,0.32 v 0 l 1.03,-0.17 v 0 l 1.02,-0.45 v 0 l 1.03,-0.6 v 0 l 1.02,-0.06 v 0 l 1.02,-0.25 v 0 l 1.03,-0.08 v 0 l 1.02,2.3 v 0 l 1.03,-1.33 v 0 l 1.02,-0.43 v 0 l 1.03,-0.5 v 0 l 1.02,-0.26 v 0 l 1.02,-0.15 v 0 l 1.03,0.03 v 0 l 1.02,-0.14 v 0 l 1.03,-0.06 v 0 l 1.02,0.18 v 0 l 1.03,0.15 v 0 l 1.02,-0.16 v 0 L 326.03,80 v 0 l 1.03,-0.04 v 0 l 1.02,-0.12 v 0 l 1.03,0.04 v 0 l 1.02,0.23 v 0 l 1.03,-0.16 v 0 l 1.02,-0.16 v 0 l 1.02,-0.2 v 0 l 1.03,-0.09 v 0 l 1.02,0.22 v 0 l 1.03,-0.11 v 0 l 1.02,-0.3 v 0 l 1.03,-0.11 v 0 l 1.02,-0.14 v 0 l 1.02,0.07 v 0 l 1.03,0.1 v 0 l 1.02,0.21 v 0 l 1.03,0.19 v 0 l 1.02,0.01 v 0 l 1.03,-0.24 v 0 l 1.02,-0.16 v 0 l 1.02,0.22 v 0 l 1.03,0.22 v 0 l 1.02,-0.21 v 0 l 1.03,-0.06 v 0 h 1.02 v 0 l 1.03,-0.04 v 0 l 1.02,0.55 v 0 l 1.02,0.02 v 0 l 1.03,1.42 v 0 l 1.02,-0.64 v 0 l 1.03,-0.3 v 0 l 1.02,-0.22 v 0 l 1.03,-0.03 v 0 l 1.02,-0.15 v 0 L 361.88,80 v 0 l 1.03,0.04 v 0 l 1.02,0.05 v 0 h 1.03 v 0 l 1.02,0.01 v 0 h 1.03 v 0 l 1.02,0.03 v 0 h 1.02 v 0 l 1.03,0.13 v 0 l 1.02,-0.06 v 0 l 1.03,-0.01 v 0 l 1.02,0.01 v 0 l 1.03,0.04 v 0 l 1.02,-0.01 v 0 l 1.02,0.06 v 0 l 1.03,0.05 v 0 l 1.02,-0.04 v 0 h 1.03 v 0 l 1.02,-0.03 v 0 l 1.03,-0.08 v 0 h 1.02 v 0 l 1.02,0.06 v 0 l 1.03,-0.06 v 0 l 1.02,-0.06 v 0 l 1.03,-0.01 v 0 l 1.02,0.03 v 0 l 1.03,0.03 v 0 l 1.02,-0.01 v 0 h 1.02 v 0 l 1.03,-0.06 v 0 l 1.02,-0.08 v 0 l 1.03,0.01 v 0 L 394.66,80 v 0 h 1.03 v 0 l 1.02,-0.07 v 0 l 1.02,-0.01 v 0 l 1.03,0.05 v 0 l 1.02,0.01 v 0 h 1.03 v 0 l 1.02,0.16 v 0 l 1.03,0.23 v 0 l 1.02,-0.09 v 0 l 1.02,0.14 v 0 l 1.03,-0.29 v 0 l 1.02,-0.07 v 0 l 1.03,0.07 v 0 L 409,80 v 0 l 1.03,0.11 v 0 l 1.02,0.12 v 0 l 1.02,0.05 v 0 l 1.03,-0.41 v 0 l 1.02,-0.01 v 0 l 1.03,0.11 v 0 l 1.02,-0.04 v 0 l 1.03,-0.25 v 0 l 1.02,0.09 v 0 l 1.02,0.09 v 0 l 1.03,-0.03 v 0 l 1.02,0.17 v 0 l 1.03,0.14 v 0 l 1.02,-0.05 v 0 l 1.03,-0.03 v 0 l 1.02,0.29 v 0 l 1.02,-0.07 v 0 l 1.03,-0.13 v 0 l 1.02,-0.21 v 0 l 1.03,0.1 v 0 l 1.02,-0.11 v 0 h 1.03 v 0 l 1.02,0.07 v 0 l 1.02,-0.11 v 0 l 1.03,0.1 v 0 l 1.02,-0.11 v 0 l 1.03,0.23 v 0 l 1.02,-0.01 v 0 l 1.03,-0.02 v 0 l 1.02,-0.27 v 0 l 1.02,0.07 v 0 l 1.03,-0.07 v 0 l 1.02,-0.21 v 0 l 1.03,0.39 v 0 -0.36 0 l -1.03,-0.59 v 0 l -1.02,-0.05 v 0 L 440.75,79 v 0 l -1.02,0.21 v 0 l -1.02,0.01 v 0 l -1.03,0.03 v 0 l -1.02,0.04 v 0 l -1.03,-0.17 v 0 l -1.02,0.09 v 0 l -1.03,-0.22 v 0 l -1.02,-0.1 v 0 l -1.02,0.16 v 0 l -1.03,-0.03 v 0 l -1.02,-0.01 v 0 l -1.03,0.06 v 0 l -1.02,-0.03 v 0 l -1.03,0.02 v 0 l -1.02,0.01 v 0 l -1.02,-0.06 v 0 l -1.03,-0.04 v 0 l -1.02,0.16 v 0 l -1.03,0.15 v 0 h -1.02 v 0 l -1.03,-0.17 v 0 l -1.02,-0.08 v 0 l -1.02,0.03 v 0 l -1.03,0.07 v 0 l -1.02,0.13 v 0 l -1.03,0.02 v 0 l -1.02,0.17 v 0 l -1.03,0.26 v 0 l -1.02,-0.03 v 0 l -1.02,-0.39 v 0 L 409,79.33 v 0 l -1.02,0.04 v 0 l -1.03,0.21 v 0 l -1.02,-0.06 v 0 l -1.03,-0.16 v 0 l -1.02,0.02 v 0 l -1.02,-0.12 v 0 l -1.03,0.16 v 0 l -1.02,0.06 v 0 l -1.03,0.2 v 0 l -1.02,-0.07 v 0 l -1.03,-0.09 v 0 l -1.02,-0.15 v 0 l -1.02,-0.06 v 0 l -1.03,0.06 v 0 l -1.02,0.18 v 0 l -1.03,0.02 v 0 l -1.02,0.02 v 0 l -1.03,-0.07 v 0 l -1.02,-0.04 v 0 l -1.02,0.01 v 0 l -1.03,0.02 v 0 l -1.02,-0.01 v 0 l -1.03,0.1 v 0 l -1.02,0.03 v 0 l -1.03,0.01 v 0 l -1.02,0.01 v 0 l -1.02,0.04 v 0 l -1.03,-0.05 v 0 l -1.02,-0.03 v 0 l -1.03,0.02 v 0 l -1.02,0.11 v 0 l -1.03,0.02 v 0 l -1.02,-0.07 v 0 l -1.02,-0.01 v 0 l -1.03,-0.03 v 0 l -1.02,-0.08 v 0 l -1.03,-0.02 v 0 l -1.02,0.03 v 0 l -1.03,0.04 v 0 l -1.02,0.02 v 0 l -1.02,-0.05 v 0 l -1.03,-0.14 v 0 l -1.02,-0.09 v 0 l -1.03,0.05 v 0 l -1.02,0.1 v 0 l -1.03,0.2 v 0 l -1.02,0.02 v 0 l -1.02,0.03 v 0 l -1.03,-0.42 v 0 l -1.02,-0.02 v 0 l -1.03,-0.07 v 0 l -1.02,0.01 v 0 l -1.03,-0.06 v 0 l -1.02,-0.18 v 0 l -1.02,-0.43 v 0 l -1.03,-0.13 v 0 l -1.02,-0.06 v 0 l -1.03,-0.01 v 0 l -1.02,0.09 v 0 l -1.03,0.03 v 0 l -1.02,-0.13 v 0 l -1.02,0.01 v 0 l -1.03,0.02 v 0 l -1.02,0.02 v 0 l -1.03,0.04 v 0 l -1.02,0.08 v 0 l -1.03,0.04 v 0 l -1.02,-0.13 v 0 h -1.02 v 0 l -1.03,0.04 v 0 l -1.02,0.09 v 0 l -1.03,0.05 v 0 l -1.02,-0.1 v 0 l -1.03,0.01 v 0 l -1.02,-0.18 v 0 l -1.02,-0.03 v 0 l -1.03,0.02 v 0 l -1.02,0.15 v 0 l -1.03,-0.07 v 0 l -1.02,0.05 v 0 l -1.03,0.14 v 0 l -1.02,0.27 v 0 l -1.02,-0.09 v 0 l -1.03,0.2 v 0 l -1.02,0.06 v 0 l -1.03,-0.03 v 0 l -1.02,-0.52 v 0 h -1.03 v 0 l -1.02,-0.01 v 0 l -1.02,0.09 v 0 l -1.03,0.31 v 0 l -1.02,0.47 v 0 l -1.03,0.05 v 0 l -1.02,-0.58 v 0 l -1.03,0.17 v 0 l -1.02,0.32 v 0 l -1.02,0.44 v 0 l -1.03,0.28 v 0 l -1.02,-0.24 v 0 l -1.03,0.09 v 0 l -1.02,0.07 v 0 l -1.03,-1.46 v 0 l -1.02,-0.03 v 0 l -1.02,0.09 v 0 l -1.03,0.07 v 0 l -1.02,0.07 v 0 l -1.03,-0.26 v 0 l -1.02,0.08 v 0 l -1.03,-0.03 v 0 l -1.02,0.03 v 0 l -1.02,0.1 v 0 l -1.03,0.27 v 0 l -1.02,0.2 v 0 l -1.03,0.33 v 0 l -1.02,0.2 v 0 l -1.03,0.17 v 0 l -1.02,0.24 v 0 l -1.02,0.04 v 0 l -1.03,0.22 v 0 l -1.02,0.77 v 0 l -1.03,-0.2 v 0 l -1.02,-0.16 v 0 l -1.03,0.15 v 0 l -1.02,-0.55 v 0 l -1.02,-1.42 v 0 l -1.03,-0.33 v 0 l -1.02,-0.04 v 0 l -1.03,-0.02 v 0 l -1.02,0.03 v 0 l -1.03,0.03 v 0 l -1.02,0.01 v 0 l -1.02,0.08 v 0 l -1.03,0.1 v 0 l -1.02,0.51 v 0 l -1.03,0.42 v 0 L 269.7,78.7 v 0 l -1.03,-0.01 v 0 l -1.02,0.07 v 0 l -1.02,0.08 v 0 L 265.6,79 v 0 l -1.02,0.15 v 0 l -1.03,0.18 v 0 l -1.02,0.15 v 0 l -1.03,0.09 v 0 l -1.02,-0.03 v 0 l -1.02,0.08 v 0 l -1.03,0.32 v 0 l -1.02,-0.04 v 0 l -1.03,-0.06 v 0 l -1.02,0.08 v 0 l -1.03,0.14 v 0 l -1.02,0.32 v 0 l -1.02,0.36 v 0 l -1.03,0.07 v 0 L 250.24,81 v 0 l -1.03,0.11 v 0 l -1.02,0.03 v 0 l -1.03,0.52 v 0 l -1.02,-0.19 v 0 l -1.02,0.78 v 0 l -1.03,0.82 v 0 l -1.02,-0.57 v 0 l -1.03,0.17 v 0 l -1.02,0.75 v 0 l -1.03,0.33 v 0 l -1.02,-0.43 v 0 l -1.02,-0.14 v 0 l -1.03,-0.02 v 0 l -1.02,0.61 v 0 l -1.03,0.82 v 0 l -1.02,0.31 v 0 l -1.03,1.57 v 0 l -1.02,-0.78 v 0 l -1.02,-0.39 v 0 l -1.03,-0.28 v 0 l -1.02,-0.57 v 0 l -1.03,-0.33 v 0 l -1.02,-0.43 v 0 l -1.03,-0.49 v 0 l -1.02,0.07 v 0 l -1.02,0.98 v 0 l -1.03,-1.03 v 0 l -1.02,-0.58 v 0 l -1.03,-0.27 v 0 l -1.02,0.28 v 0 l -1.03,-0.3 v 0 l -1.02,0.62 v 0 l -1.02,0.52 v 0 l -1.03,0.67 v 0 l -1.02,0.58 v 0 l -1.03,-0.64 v 0 l -1.02,-0.48 v 0 l -1.03,-0.38 v 0 l -1.02,0.05 v 0 l -1.02,0.09 v 0 l -1.03,0.08 v 0 l -1.02,0.34 v 0 l -1.03,0.26 v 0 l -1.02,0.56 v 0 l -1.03,-0.57 v 0 l -1.02,-0.23 v 0 l -1.02,0.28 v 0 l -1.03,0.24 v 0 l -1.02,-0.11 v 0 l -1.03,-0.35 v 0 L 198,82.78 v 0 l -1.03,-0.68 v 0 l -1.02,-0.32 v 0 l -1.02,-0.33 v 0 l -1.03,-0.7 v 0 l -1.02,-0.18 v 0 l -1.03,-0.06 v 0 l -1.02,0.07 v 0 l -1.03,0.11 v 0 l -1.02,-0.13 v 0 l -1.02,-0.34 v 0 l -1.03,-0.13 v 0 l -1.02,0.07 v 0 l -1.03,0.19 v 0 l -1.02,0.41 v 0 l -1.03,0.25 v 0 l -1.02,-0.03 v 0 h -1.02 v 0 l -1.03,0.25 v 0 l -1.02,0.06 v 0 l -1.03,0.09 v 0 l -1.02,0.61 v 0 l -1.03,0.33 v 0 l -1.02,0.03 v 0 l -1.02,0.07 v 0 l -1.03,-0.11 v 0 l -1.02,-0.05 v 0 l -1.03,-0.35 v 0 l -1.02,-0.52 v 0 l -1.03,0.05 v 0 l -1.02,-0.49 v 0 l -1.02,-0.04 v 0 l -1.03,-0.22 v 0 l -1.02,-0.44 v 0 l -1.03,0.39 v 0 l -1.02,-0.01 v 0 l -1.03,-0.02 v 0 l -1.02,0.03 v 0 l -1.02,0.07 v 0 l -1.03,-0.4 v 0 l -1.02,-0.03 v 0 L 156,80.36 v 0 l -1.02,0.04 v 0 l -1.03,0.05 v 0 l -1.02,0.03 v 0 l -1.02,-0.13 v 0 l -1.03,0.08 v 0 l -1.02,-0.01 v 0 l -1.03,-0.47 v 0 l -1.02,0.01 v 0 l -1.03,0.08 v 0 l -1.02,-0.18 v 0 l -1.02,-0.17 v 0 l -1.03,0.01 v 0 l -1.02,-0.1 v 0 l -1.03,0.02 v 0 l -1.02,-0.04 v 0 l -1.03,0.06 v 0 l -1.02,0.01 v 0 l -1.03,0.19 v 0 h -1.02 v 0 l -1.02,0.07 v 0 L 134.49,80 v 0 l -1.02,-0.12 v 0 l -1.03,-0.03 v 0 l -1.02,-0.01 v 0 h -1.03 v 0 h -1.02 v 0 l -1.02,-0.15 v 0 l -1.03,-0.19 v 0 l -1.02,0.1 v 0 l -1.03,0.18 v 0 l -1.02,0.03 v 0 l -1.03,-0.06 v 0 l -1.02,-0.03 v 0 l -1.02,-0.04 v 0 l -1.03,-0.1 v 0 l -1.02,0.14 v 0 l -1.03,0.12 v 0 l -1.02,-0.08 v 0 l -1.03,0.02 v 0 l -1.02,-0.06 v 0 l -1.02,-0.06 v 0 l -1.03,0.08 v 0 l -1.02,-0.03 v 0 l -1.03,-0.12 v 0 l -1.02,-0.02 v 0 l -1.03,0.06 v 0 l -1.02,0.11 v 0 l -1.02,0.07 v 0 l -1.03,0.07 v 0 l -1.02,0.07 v 0 l -1.03,-0.14 v 0 l -1.02,-0.31 v 0 h -1.03 v 0 l -1.02,0.09 v 0 l -1.02,-0.14 v 0 l -1.03,-0.22 v 0 l -1.02,-0.07 v 0 l -1.03,-0.04 v 0 l -1.02,-0.04 v 0 l -1.03,-0.02 v 0 l -1.02,0.05 v 0 l -1.02,0.03 v 0 l -1.03,-0.01 v 0 l -1.02,0.05 v 0 l -1.03,0.12 v 0 L 88.4,79.27 v 0 l -1.03,-0.03 v 0 l -1.02,-0.1 v 0 l -1.02,-0.03 v 0 L 84.3,79.06 v 0 l -1.02,-0.01 v 0 h -1.03 v 0 l -1.02,0.03 v 0 L 80.2,79.07 v 0 l -1.02,-0.01 v 0 l -1.02,0.05 v 0 l -1.03,0.12 v 0 l -1.02,0.06 v 0 l -1.03,-0.25 v 0 l -1.02,0.09 v 0 l -1.03,0.06 v 0 l -1.02,-0.01 v 0 l -1.02,0.03 v 0 L 69.96,79.2 v 0 z"
       style="fill:#f05d22;fill-opacity:0.25098;fill-rule:nonzero;stroke:none;stroke-width:0.99975;stroke-dasharray:none"
       id="path352671"
       clip-path="url(#clipPath353538)" />
    <path
       d="m 69.96,79.41 1.03,0.1 1.02,-0.01 1.02,-0.04 1.03,-0.05 1.02,0.12 1.03,0.15 1.02,-0.07 1.03,0.08 1.02,0.12 1.02,0.03 1.03,-0.12 1.02,-0.04 h 1.03 l 1.02,-0.02 1.03,-0.04 1.02,-0.01 h 1.02 1.03 l 1.02,0.02 1.03,0.01 1.02,-0.03 1.03,-0.02 1.02,-0.01 1.02,-0.09 1.03,0.04 1.02,0.06 1.03,-0.04 1.02,0.05 1.03,0.06 1.02,0.11 1.02,0.06 1.03,0.02 1.02,0.22 1.03,0.34 1.02,-0.34 1.03,-0.06 1.02,-0.08 h 1.02 l 1.03,0.05 1.02,0.01 1.03,0.08 1.02,-0.03 1.03,0.04 1.02,0.09 1.02,0.61 1.03,0.68 1.02,-0.9 1.03,-0.24 1.02,0.03 1.03,-0.09 1.02,-0.1 1.02,0.03 1.03,0.07 1.02,-0.01 1.03,-0.12 1.02,-0.11 1.03,0.02 1.02,0.23 1.02,0.34 1.03,0.32 1.02,0.65 1.03,-0.46 1.02,-0.35 1.03,-0.13 1.02,0.08 1.02,0.09 1.03,0.19 1.02,-0.16 1.03,-0.14 1.02,-0.02 1.03,1.26 1.02,0.54 1.03,-0.49 1.02,0.05 1.02,0.46 1.03,0.33 1.02,0.55 1.03,0.66 1.02,0.34 1.03,0.01 1.02,0.21 1.02,-0.24 1.03,-0.4 1.02,-0.41 1.03,0.01 1.02,-0.2 1.03,0.39 1.02,0.46 1.02,0.46 1.03,0.61 1.02,0.45 h 1.03 l 1.02,0.29 1.03,0.22 1.02,0.88 1.02,0.89 1.03,0.71 1.02,1.09 1.03,1.08 1.02,-0.19 1.03,-1.19 1.02,-0.65 1.02,-0.2 h 1.03 l 1.02,1.02 1.03,0.63 1.02,0.83 1.03,1.18 1.02,1.01 1.02,-0.49 1.03,-0.54 1.02,-0.38 1.03,0.06 1.02,-0.45 1.03,0.48 1.02,0.66 1.02,-0.1 1.03,-0.34 1.02,0.91 1.03,0.95 1.02,-0.23 1.03,-0.5 1.02,-1.17 1.02,0.78 1.03,0.8 1.02,0.92 1.03,0.92 1.02,-0.58 1.03,-1.38 1.02,-1.19 1.02,-0.97 1.03,-0.76 1.02,-0.02 1.03,0.28 1.02,0.28 1.03,0.92 1.02,0.38 1.02,-0.39 1.03,-0.25 1.02,-0.42 1.03,-0.17 1.02,-0.47 1.03,0.52 1.02,0.02 1.02,-0.31 1.03,-0.13 1.02,-0.21 1.03,0.06 1.02,-0.61 1.03,-0.2 1.02,-0.63 1.02,0.46 1.03,1.04 1.02,0.87 1.03,1.47 1.02,2.44 1.03,2.96 1.02,1.32 1.02,0.61 1.03,0.75 1.02,1.28 1.03,0.61 1.02,-0.41 1.03,-0.55 1.02,-0.77 1.02,-0.84 1.03,-1.11 1.02,-1.66 1.03,-1.92 1.02,-1.07 1.03,0.72 1.02,-0.44 1.02,-0.69 1.03,-1.68 1.02,-2.11 1.03,-0.81 1.02,-0.44 1.03,-0.03 1.02,-0.58 1.02,0.5 1.03,0.33 1.02,0.2 1.03,-0.18 1.02,-0.44 1.03,-0.99 1.02,-0.99 1.02,-0.45 1.03,0.06 1.02,-0.97 1.03,-0.86 1.02,-0.78 1.03,-0.74 1.02,0.07 1.02,-0.05 1.03,0.44 1.02,-0.17 1.03,-0.88 1.02,-0.34 1.03,-0.38 1.02,-0.16 1.02,0.01 1.03,0.15 1.02,-0.03 1.03,-0.08 1.02,0.7 1.03,-0.16 1.02,0.66 1.02,-0.18 1.03,-0.58 1.02,0.09 1.03,-0.22 1.02,-0.12 1.03,-0.12 1.02,1.29 1.02,-1.11 1.03,-0.54 1.02,0.03 1.03,0.29 1.02,0.36 1.03,-0.17 1.02,-1 1.02,-0.52 1.03,-0.11 1.02,-0.01 1.03,-0.28 1.02,-0.03 1.03,-0.17 1.02,-0.13 1.02,-0.01 1.03,0.57 1.02,1.99 1.03,-1.14 1.02,-0.75 1.03,-0.53 1.02,-0.04 1.02,-0.15 1.03,0.03 1.02,1.26 1.03,-0.47 1.02,-0.65 1.03,-0.22 1.02,-0.12 1.02,-0.15 1.03,-0.07 1.02,0.08 1.03,-0.07 1.02,0.18 1.03,-0.02 1.02,-0.03 1.02,-0.3 1.03,-0.14 1.02,-0.1 h 1.03 l 1.02,0.19 1.03,-0.19 1.02,-0.06 1.02,0.03 1.03,-0.09 1.02,0.08 1.03,-0.14 1.02,-0.16 1.03,-0.04 1.02,-0.04 1.02,0.05 1.03,0.51 1.02,-0.08 1.03,-0.16 1.02,0.03 1.03,-0.12 1.02,-0.08 1.02,0.13 1.03,0.08 1.02,-0.16 1.03,0.01 1.02,0.05 h 1.03 l 1.02,0.41 1.02,0.43 1.03,0.45 1.02,0.05 1.03,-0.45 1.02,-0.22 1.03,0.15 1.02,-0.12 1.02,-0.04 1.03,-0.03 1.02,0.09 1.03,-0.07 1.02,0.01 1.03,0.04 1.02,0.03 1.02,0.03 1.03,0.19 1.02,0.11 1.03,0.57 1.02,-0.34 1.03,-0.19 1.02,-0.1 1.02,0.1 1.03,0.02 1.02,-0.1 1.03,-0.02 1.02,0.02 1.03,-0.03 1.02,-0.07 1.02,0.04 1.03,0.06 1.02,0.12 1.03,-0.07 1.02,-0.09 1.03,-0.04 1.02,-0.04 1.02,0.02 1.03,0.04 1.02,-0.04 1.03,-0.03 1.02,-0.1 1.03,-0.04 1.02,0.03 1.02,0.13 1.03,-0.02 1.02,-0.08 1.03,-0.04 1.02,-0.05 1.03,0.05 h 1.02 1.02 l 1.03,0.03 h 1.02 l 1.03,-0.12 1.02,-0.06 1.03,0.09 1.02,0.22 1.02,-0.03 1.03,-0.37 1.02,-0.07 1.03,0.01 1.02,-0.01 1.03,-0.11 1.02,0.05 1.02,0.1 1.03,0.03 1.02,0.09 1.03,-0.01 1.02,-0.07 h 1.03 l 1.02,0.07 h 1.02 l 1.03,0.01 1.02,-0.14 1.03,0.03 1.02,-0.04 1.03,-0.1 1.02,-0.01 1.02,0.03 1.03,0.1 1.02,-0.02 1.03,0.27 1.02,0.01 1.03,-0.07 1.02,-0.27 1.02,-0.02 1.03,0.01 1.02,0.04 1.03,0.34"
       style="fill:none;stroke:#f05d22;stroke-width:4.27;stroke-linecap:butt;stroke-linejoin:round;stroke-miterlimit:10;stroke-dasharray:none;stroke-opacity:1"
       id="path352673"
       clip-path="url(#clipPath353532)" />
    <path
       d="m 69.96,80.92 1.03,-0.2 1.02,-0.15 1.02,-0.14 1.03,-0.01 1.02,0.03 1.03,0.03 1.02,0.12 1.03,0.05 1.02,-0.05 1.02,0.04 1.03,0.29 1.02,0.12 1.03,0.17 1.02,0.52 1.03,-0.54 1.02,-0.09 1.02,-0.08 1.03,-0.21 1.02,0.07 1.03,-0.02 1.02,0.17 1.03,0.09 1.02,0.14 1.02,-0.17 1.03,0.07 1.02,-0.05 1.03,-0.07 1.02,-0.07 1.03,0.03 1.02,-0.08 1.02,0.09 1.03,0.09 1.02,0.8 1.03,0.03 1.02,-0.53 1.03,-0.07 1.02,-0.15 1.02,0.17 1.03,0.03 1.02,-0.06 1.03,0.06 1.02,-0.07 1.03,0.45 1.02,-0.11 1.02,-0.24 h 1.03 1.02 l 1.03,-0.04 1.02,0.06 1.03,0.9 1.02,0.16 1.02,0.01 1.03,0.7 1.02,0.11 1.03,-0.3 1.02,0.39 1.03,0.38 1.02,-0.63 1.02,0.22 1.03,-0.54 1.02,0.25 1.03,2.08 1.02,-1.21 1.03,-0.74 1.02,-0.67 1.02,-0.33 1.03,-0.06 1.02,0.53 1.03,0.1 1.02,0.07 1.03,0.85 1.02,0.21 1.03,0.12 1.02,-0.09 1.02,-0.16 1.03,-0.18 1.02,0.51 1.03,0.45 1.02,0.15 1.03,0.76 1.02,1.02 1.02,0.91 1.03,0.34 1.02,-0.54 1.03,0.87 1.02,-0.73 1.03,-0.27 1.02,0.71 1.02,1.15 1.03,1.89 1.02,2.71 1.03,2.44 1.02,3.96 1.03,3.86 1.02,5.1 1.02,-0.8 1.03,-2.58 1.02,2.15 1.03,3.56 1.02,3.28 1.03,3.63 1.02,1.62 1.02,3.08 1.03,1.26 1.02,0.94 1.03,6.06 1.02,4.29 1.03,1.79 1.02,2.11 1.02,5.38 1.03,9.34 1.02,7.76 1.03,-1.81 1.02,-5.14 1.03,-5.43 1.02,-2.59 1.02,0.63 1.03,-0.31 1.02,3.25 1.03,0.13 1.02,-1.89 1.03,0.46 1.02,2.46 1.02,3.63 1.03,-1.91 1.02,-0.75 1.03,1.31 1.02,-1.02 1.03,-0.53 1.02,1.64 1.02,1.59 1.03,-0.47 1.02,-2.34 1.03,-1.01 1.02,-1.27 1.03,-1.73 1.02,-4.06 1.02,-3.55 1.03,-4.01 1.02,-1.92 1.03,-2.13 1.02,-2.66 1.03,-1.07 1.02,0.38 1.02,0.37 1.03,-0.71 1.02,-1.06 1.03,-0.4 1.02,-0.46 1.03,0.4 1.02,-3.29 1.02,-2.13 1.03,-0.71 1.02,-0.07 1.03,-0.54 1.02,-2.35 1.03,-1.16 1.02,-0.48 1.02,1.9 1.03,-1.56 1.02,-0.83 1.03,0.34 1.02,-1.95 1.03,-0.09 1.02,-2.03 1.02,-1.79 1.03,-0.54 1.02,1.31 1.03,2.44 1.02,1.05 1.03,-2.15 1.02,0.12 1.02,-0.22 1.03,-0.83 1.02,-1.85 1.03,-2.02 1.02,-1.74 1.03,-1.94 1.02,-1.75 1.02,-1.79 1.03,-0.91 1.02,-2.13 1.03,-1.4 1.02,-1.33 1.03,-1.05 1.02,-1.11 1.02,-0.91 1.03,-0.9 1.02,-0.42 1.03,-0.8 1.02,-0.55 1.03,-0.15 1.02,0.42 1.02,-1.78 1.03,-0.76 1.02,-0.02 1.03,-0.58 1.02,-0.17 1.03,-0.85 1.02,-0.45 1.02,-0.17 1.03,0.11 1.02,-0.61 1.03,-0.43 1.02,0.23 1.03,-0.3 1.02,-0.37 1.02,-0.39 1.03,-0.38 1.02,0.23 1.03,-0.07 h 1.02 l 1.03,-0.16 1.02,-0.43 1.02,-0.1 1.03,-0.23 1.02,0.99 1.03,0.9 1.02,-0.46 1.03,1.57 1.02,-1.07 1.02,-1.13 1.03,0.48 1.02,0.03 1.03,-0.41 1.02,-0.57 1.03,-0.21 1.02,-0.11 1.02,0.24 1.03,0.55 1.02,-0.57 1.03,-0.42 1.02,1.69 1.03,-0.18 1.02,-0.12 1.02,-0.12 1.03,-0.83 1.02,-0.17 1.03,0.43 1.02,-0.22 1.03,0.73 1.02,-0.18 1.02,0.22 1.03,-0.49 1.02,-0.33 1.03,-0.33 1.02,-0.3 1.03,0.15 1.02,0.75 1.02,-0.82 1.03,-0.95 1.02,0.6 1.03,0.44 1.02,1.53 1.03,-0.91 1.02,-1.16 1.02,-0.25 1.03,-0.4 1.02,-0.22 1.03,-0.17 1.02,0.7 1.03,-0.01 1.02,-0.25 1.02,0.08 1.03,1.95 1.02,0.73 1.03,-1.36 1.02,-0.58 1.03,-0.3 1.02,0.14 1.02,-0.33 1.03,0.99 1.02,0.98 1.03,1.77 1.02,-0.1 1.03,-0.02 1.02,-0.09 1.02,-0.46 1.03,1.84 1.02,-2.84 1.03,-0.41 1.02,-0.48 1.03,-0.25 1.02,0.04 1.02,1.45 1.03,11.41 1.02,-3.54 1.03,-4.15 1.02,-1.57 1.03,-1.12 1.02,-0.51 1.02,-0.39 1.03,1.49 1.02,1.42 1.03,-0.59 1.02,-1.14 1.03,0.16 1.02,2.1 1.02,-0.84 1.03,-1.22 1.02,-0.48 1.03,-0.26 1.02,-0.56 1.03,-0.7 1.02,-0.2 1.02,-0.48 1.03,-0.31 1.02,-0.09 1.03,-0.13 1.02,-0.02 1.03,0.08 1.02,-0.24 1.02,0.02 1.03,-0.08 1.02,-0.11 1.03,0.03 1.02,-0.08 1.03,-0.15 1.02,-0.01 1.02,0.16 1.03,-0.01 1.02,0.17 1.03,0.06 1.02,-0.14 1.03,-0.15 1.02,-0.14 1.02,-0.11 1.03,-0.06 1.02,0.1 1.03,-0.02 1.02,0.01 1.03,0.02 1.02,0.08 1.02,-0.07 1.03,0.04 1.02,0.02 1.03,-0.05 1.02,0.02 1.03,-0.15 1.02,-0.08 1.02,-0.11 1.03,0.02 1.02,0.04 1.03,-0.04 1.02,-0.11 1.03,0.27 1.02,-0.03 1.02,-0.19 1.03,-0.03 1.02,0.08 1.03,-0.11 1.02,-0.05 1.03,-0.04 1.02,0.03 1.02,0.04 1.03,0.12 1.02,0.12 1.03,0.06 1.02,0.03 1.03,-0.09 1.02,-0.11 1.02,-0.06 h 1.03 l 1.02,0.05 1.03,-0.29"
       style="fill:none;stroke:#00c4a3;stroke-width:4.27;stroke-linecap:butt;stroke-linejoin:round;stroke-miterlimit:10;stroke-dasharray:none;stroke-opacity:1"
       id="path352675"
       clip-path="url(#clipPath353526)" />
    <g
       id="g352677" />
    <g
       id="g352679" />
    <g
       id="g352681" />
    <g
       id="g352683" />
    <g
       id="g352685" />
    <g
       id="g352687" />
    <g
       id="g352689" />
    <g
       id="g352691" />
    <g
       id="g352693" />
    <g
       id="g352695" />
    <g
       id="g352697" />
    <g
       id="g352699" />
    <g
       id="g352701"
       style="stroke-width:1.50000004;stroke-dasharray:none;stroke:#ffffff;stroke-opacity:1">
      <path
         d="M 51.27,72.05 V 210.52"
         style="fill:none;stroke:#ffffff;stroke-width:1.50000004;stroke-linecap:butt;stroke-linejoin:round;stroke-miterlimit:10;stroke-dasharray:none;stroke-opacity:1"
         id="path352703" />
    </g>
    <g
       id="g352705" />
    <g
       id="g352707" />
    <g
       id="g352709">
      <text
         xml:space="preserve"
         transform="matrix(1,0,0,-1,40.78,74.27)"
         style="font-variant:normal;font-weight:normal;font-size:10px;font-family:Helvetica;-inkscape-font-specification:Helvetica;writing-mode:lr-tb;fill:#4d4d4d;fill-opacity:1;fill-rule:nonzero;stroke:none"
         id="text352713"><tspan
           x="0"
           y="0"
           id="tspan352711"
           style="font-weight:bold;fill:#ffffff">0</tspan></text>
      <text
         xml:space="preserve"
         transform="matrix(1,0,0,-1,24.1,113.22)"
         style="font-variant:normal;font-weight:normal;font-size:10px;font-family:Helvetica;-inkscape-font-specification:Helvetica;writing-mode:lr-tb;fill:#4d4d4d;fill-opacity:1;fill-rule:nonzero;stroke:none"
         id="text352717"><tspan
           x="0 5.5599999 11.12 16.68"
           y="0"
           sodipodi:role="line"
           id="tspan352715"
           style="font-weight:bold;fill:#ffffff">5000</tspan></text>
      <text
         xml:space="preserve"
         transform="matrix(1,0,0,-1,18.54,191.13)"
         style="font-variant:normal;font-weight:normal;font-size:10px;font-family:Helvetica;-inkscape-font-specification:Helvetica;writing-mode:lr-tb;fill:#4d4d4d;fill-opacity:1;fill-rule:nonzero;stroke:none"
         id="text352725"><tspan
           x="0 5.5599999 11.12 16.68 22.24"
           y="0"
           sodipodi:role="line"
           id="tspan352723"
           style="font-weight:bold;fill:#ffffff">15000</tspan></text>
    </g>
    <g
       id="g352727" />
    <g
       id="g352729" />
    <g
       id="g352731"
       style="stroke:#ffffff;stroke-opacity:1">
      <path
         d="m 48.53,77.86 h 2.74"
         style="fill:none;stroke:#ffffff;stroke-width:1.07;stroke-linecap:butt;stroke-linejoin:round;stroke-miterlimit:10;stroke-dasharray:none;stroke-opacity:1"
         id="path352733" />
      <path
         d="m 48.53,116.81 h 2.74"
         style="fill:none;stroke:#ffffff;stroke-width:1.07;stroke-linecap:butt;stroke-linejoin:round;stroke-miterlimit:10;stroke-dasharray:none;stroke-opacity:1"
         id="path352735" />
      <path
         d="m 48.53,155.76 h 2.74"
         style="fill:none;stroke:#ffffff;stroke-width:1.07;stroke-linecap:butt;stroke-linejoin:round;stroke-miterlimit:10;stroke-dasharray:none;stroke-opacity:1"
         id="path352737" />
      <path
         d="m 48.53,194.72 h 2.74"
         style="fill:none;stroke:#ffffff;stroke-width:1.07;stroke-linecap:butt;stroke-linejoin:round;stroke-miterlimit:10;stroke-dasharray:none;stroke-opacity:1"
         id="path352739" />
    </g>
    <g
       id="g352741" />
    <g
       id="g352743" />
    <g
       id="g352745" />
    <g
       id="g352747" />
    <g
       id="g352749" />
    <g
       id="g352751" />
    <g
       id="g352753" />
    <g
       id="g352755"
       style="stroke:#ffffff;stroke-opacity:1;stroke-width:1.50000004;stroke-dasharray:none">
      <path
         d="M 51.27,72.05 H 462.52"
         style="fill:none;stroke:#ffffff;stroke-width:1.50000004;stroke-linecap:butt;stroke-linejoin:round;stroke-miterlimit:10;stroke-dasharray:none;stroke-opacity:1"
         id="path352757" />
    </g>
    <g
       id="g352759" />
    <g
       id="g352761" />
    <g
       id="g352763"
       style="fill:#ffffff;stroke:#ffffff;stroke-opacity:1">
      <path
         d="m 68.94,69.31 v 2.74"
         style="fill:#ffffff;stroke:#ffffff;stroke-width:1.07;stroke-linecap:butt;stroke-linejoin:round;stroke-miterlimit:10;stroke-dasharray:none;stroke-opacity:1"
         id="path352765" />
      <path
         d="m 171.37,69.31 v 2.74"
         style="fill:#ffffff;stroke:#ffffff;stroke-width:1.07;stroke-linecap:butt;stroke-linejoin:round;stroke-miterlimit:10;stroke-dasharray:none;stroke-opacity:1"
         id="path352767" />
      <path
         d="m 273.8,69.31 v 2.74"
         style="fill:#ffffff;stroke:#ffffff;stroke-width:1.07;stroke-linecap:butt;stroke-linejoin:round;stroke-miterlimit:10;stroke-dasharray:none;stroke-opacity:1"
         id="path352769" />
      <path
         d="m 376.22,69.31 v 2.74"
         style="fill:#ffffff;stroke:#ffffff;stroke-width:1.07;stroke-linecap:butt;stroke-linejoin:round;stroke-miterlimit:10;stroke-dasharray:none;stroke-opacity:1"
         id="path352771" />
    </g>
    <g
       id="g352773" />
    <g
       id="g352775">
      <text
         xml:space="preserve"
         transform="matrix(1,0,0,-1,66.16,59.93)"
         style="font-variant:normal;font-weight:normal;font-size:10px;font-family:Helvetica;-inkscape-font-specification:Helvetica;writing-mode:lr-tb;fill:#4d4d4d;fill-opacity:1;fill-rule:nonzero;stroke:none"
         id="text352779"><tspan
           x="0"
           y="0"
           id="tspan352777"
           style="font-weight:bold;fill:#ffffff">0</tspan></text>
      <text
         xml:space="preserve"
         transform="matrix(1,0,0,-1,163.03,59.93)"
         style="font-variant:normal;font-weight:normal;font-size:10px;font-family:Helvetica;-inkscape-font-specification:Helvetica;writing-mode:lr-tb;fill:#4d4d4d;fill-opacity:1;fill-rule:nonzero;stroke:none"
         id="text352783"><tspan
           x="0 5.5599999 11.12"
           y="0"
           sodipodi:role="line"
           id="tspan352781"
           style="font-weight:bold;fill:#ffffff">100</tspan></text>
      <text
         xml:space="preserve"
         transform="matrix(1,0,0,-1,265.46,59.93)"
         style="font-variant:normal;font-weight:normal;font-size:10px;font-family:Helvetica;-inkscape-font-specification:Helvetica;writing-mode:lr-tb;fill:#4d4d4d;fill-opacity:1;fill-rule:nonzero;stroke:none"
         id="text352787"><tspan
           x="0 5.5599999 11.12"
           y="0"
           sodipodi:role="line"
           id="tspan352785"
           style="font-weight:bold;fill:#ffffff">200</tspan></text>
      <text
         xml:space="preserve"
         transform="matrix(1,0,0,-1,367.88,59.93)"
         style="font-variant:normal;font-weight:normal;font-size:10px;font-family:Helvetica;-inkscape-font-specification:Helvetica;writing-mode:lr-tb;fill:#4d4d4d;fill-opacity:1;fill-rule:nonzero;stroke:none"
         id="text352791"><tspan
           x="0 5.5599999 11.12"
           y="0"
           sodipodi:role="line"
           id="tspan352789"
           style="font-weight:bold;fill:#ffffff">300</tspan></text>
    </g>
    <g
       id="g352793" />
    <g
       id="g352795" />
    <g
       id="g352797" />
    <g
       id="g352799" />
    <g
       id="g352801" />
    <g
       id="g352803" />
    <g
       id="g352805" />
    <g
       id="g352807">
      <text
         xml:space="preserve"
         transform="matrix(1,0,0,-1,227.18,47.1)"
         style="font-variant:normal;font-weight:bold;font-size:11px;font-family:Helvetica;-inkscape-font-specification:Helvetica-Bold;writing-mode:lr-tb;fill:#000000;fill-opacity:1;fill-rule:nonzero;stroke:none"
         id="text352811"><tspan
           x="0 7.9419999 13.838 19.954 23.011999 29.733 33.396 36.453999 42.910999 49.027 55.143002"
           y="0"
           sodipodi:role="line"
           id="tspan352809"
           style="fill:#ffffff">Day of Year</tspan></text>
    </g>
    <g
       id="g352813" />
    <g
       id="g352815" />
    <g
       id="g352817">
      <text
         xml:space="preserve"
         transform="matrix(0,1,1,0,13.38,89.96)"
         style="font-variant:normal;font-weight:bold;font-size:11px;font-family:Helvetica;-inkscape-font-specification:Helvetica-Bold;writing-mode:lr-tb;fill:#000000;fill-opacity:1;fill-rule:nonzero;stroke:none"
         id="text352821"><tspan
           x="0 9.1630001 15.279 21.395 28.115999 31.174 37.895 40.952999 47.069 53.075001 59.796001 63.91 70.740997 76.967003 80.025002 83.083 89.198997 92.862 95.919998"
           y="0"
           sodipodi:role="line"
           id="tspan352819"
           style="fill:#ffffff">Mean dischrge, af/d</tspan></text>
    </g>
    <g
       id="g352823" />
    <g
       id="g352825" />
    <g
       id="g352827" />
    <g
       id="g352829" />
    <g
       id="g352831" />
    <g
       id="g352833" />
    <g
       id="g352835" />
    <g
       id="g352837" />
    <g
       id="g352843" />
    <g
       id="g352845" />
    <g
       id="g352847" />
    <g
       id="g352855" />
    <g
       id="g352857" />
    <g
       id="g352859" />
    <g
       id="g352861" />
    <g
       id="g352863" />
    <g
       id="g352869" />
    <g
       id="g352875" />
    <g
       id="g352877" />
    <g
       id="g352879" />
    <g
       id="g352885" />
    <g
       id="g352891" />
    <g
       id="g352893" />
    <g
       id="g352895" />
    <g
       id="g352903" />
    <g
       id="g352905" />
    <g
       id="g352907" />
    <g
       id="g352909" />
    <g
       id="g352911" />
    <g
       id="g352919" />
    <g
       id="g352921" />
    <g
       id="g352923" />
    <g
       id="g352925" />
    <g
       id="g352927" />
    <g
       id="g352929" />
    <g
       id="g352935" />
    <g
       id="g352937" />
    <g
       id="g352939" />
    <g
       id="g352947" />
    <g
       id="g352949" />
    <g
       id="g352951" />
    <g
       id="g352953" />
    <g
       id="g352955" />
    <g
       id="g352961" />
    <g
       id="g352963" />
    <g
       id="g352965" />
    <g
       id="g352971" />
    <g
       id="g352973" />
    <g
       id="g354324"
       transform="translate(286.47458,177.55933)">
      <g
         id="g354302"
         transform="translate(-1.2599977)">
        <g
           id="g352865">
          <path
             d="m 95.01,11.67 h 15.86 V 27.53 H 95.01 Z"
             style="fill:#00c4a3;fill-opacity:0.251;fill-rule:nonzero;stroke:none"
             id="path352867" />
        </g>
        <g
           id="g352871">
          <path
             d="m 95.01,11.67 h 15.86 V 27.53 H 95.01 Z"
             style="fill:#00c4a3;fill-opacity:0.251;fill-rule:nonzero;stroke:none"
             id="path352873" />
        </g>
        <g
           id="g352897">
          <text
             xml:space="preserve"
             transform="matrix(1,0,0,-1,117.06,16.01)"
             style="font-variant:normal;font-weight:normal;font-size:10px;font-family:Helvetica;-inkscape-font-specification:Helvetica;writing-mode:lr-tb;fill:#000000;fill-opacity:1;fill-rule:nonzero;stroke:none"
             id="text352901"><tspan
               x="0 5.5599999 11.12 16.68 22.24 28.08 33.639999 39.200001 44.759998"
               y="0"
               sodipodi:role="line"
               id="tspan352899"
               style="font-weight:bold;fill:#00c4a3;fill-opacity:1">1930−1949</tspan></text>
        </g>
        <g
           id="g352967"
           transform="translate(-316.495)">
          <path
             d="m 412.52,19.6 h 13.83"
             style="fill:none;stroke:#00c4a3;stroke-width:4.27;stroke-linecap:butt;stroke-linejoin:round;stroke-miterlimit:10;stroke-dasharray:none;stroke-opacity:1"
             id="path352969" />
        </g>
      </g>
      <g
         id="g354291"
         transform="translate(-79.825503,-22.881357)">
        <g
           id="g352881"
           transform="translate(0.015505)">
          <path
             d="m 173.56,11.67 h 15.86 v 15.86 h -15.86 z"
             style="fill:#f05d22;fill-opacity:0.251;fill-rule:nonzero;stroke:none"
             id="path352883" />
        </g>
        <g
           id="g352887"
           transform="translate(0.015505)">
          <path
             d="m 173.56,11.67 h 15.86 v 15.86 h -15.86 z"
             style="fill:#f05d22;fill-opacity:0.251;fill-rule:nonzero;stroke:none"
             id="path352889" />
        </g>
        <g
           id="g352913">
          <text
             xml:space="preserve"
             transform="matrix(1,0,0,-1,195.62,16.01)"
             style="font-variant:normal;font-weight:normal;font-size:10px;font-family:Helvetica;-inkscape-font-specification:Helvetica;writing-mode:lr-tb;fill:#f05d22;fill-opacity:1;fill-rule:nonzero;stroke:none"
             id="text352917"><tspan
               x="0 5.5599999 11.12 16.68 22.24 28.08 33.639999 39.200001 44.759998"
               y="0"
               sodipodi:role="line"
               id="tspan352915"
               style="font-weight:bold;fill:#f05d22;fill-opacity:1">2000−2021</tspan></text>
        </g>
        <g
           id="g352957"
           transform="translate(-159.3745)">
          <path
             d="m 333.97,19.6 h 13.82"
             style="fill:none;stroke:#f05d22;stroke-width:4.27;stroke-linecap:butt;stroke-linejoin:round;stroke-miterlimit:10;stroke-dasharray:none;stroke-opacity:1"
             id="path352959" />
        </g>
      </g>
    </g>
    <g
       id="g352975" />
    <g
       id="g352983" />
    <g
       id="g352985" />
    <g
       id="g352987" />
    <g
       id="g352989" />
    <g
       id="g352991" />
    <g
       id="g352999" />
    <g
       id="g353001" />
    <g
       id="g353003" />
    <g
       id="g353005" />
    <g
       id="g353007" />
    <g
       id="g353009" />
    <g
       id="g353011" />
    <g
       id="g353013" />
    <g
       id="g353015" />
    <g
       id="g353017" />
    <g
       id="g353019" />
    <g
       id="g353021" />
    <g
       id="g353023" />
    <g
       id="g353025" />
    <g
       id="g353027" />
    <g
       id="g353029" />
  </g>
</svg>
