<?xml version="1.0" encoding="UTF-8" standalone="no"?>
<!-- Created with Inkscape (http://www.inkscape.org/) -->

<svg
   version="1.1"
   id="svg686"
   width="624"
   height="864"
   viewBox="0 0 624 864"
   sodipodi:docname="meas_nat_comp_IS.svg"
   inkscape:version="1.2.1 (9c6d41e, 2022-07-14)"
   xmlns:inkscape="http://www.inkscape.org/namespaces/inkscape"
   xmlns:sodipodi="http://sodipodi.sourceforge.net/DTD/sodipodi-0.dtd"
   xmlns="http://www.w3.org/2000/svg"
   xmlns:svg="http://www.w3.org/2000/svg">
  <defs
     id="defs690">
    <clipPath
       clipPathUnits="userSpaceOnUse"
       id="clipPath760">
      <path
         d="M 0,0 H 468 V 648 H 0 Z"
         id="path758" />
    </clipPath>
    <clipPath
       clipPathUnits="userSpaceOnUse"
       id="clipPath772">
      <path
         d="m 62.39,532.81 h 400.13 v 92.5 H 62.39 Z"
         id="path770" />
    </clipPath>
    <clipPath
       clipPathUnits="userSpaceOnUse"
       id="clipPath800">
      <path
         d="m 62.39,417.62 h 400.13 v 92.5 H 62.39 Z"
         id="path798" />
    </clipPath>
    <clipPath
       clipPathUnits="userSpaceOnUse"
       id="clipPath828">
      <path
         d="m 62.39,302.43 h 400.13 v 92.5 H 62.39 Z"
         id="path826" />
    </clipPath>
    <clipPath
       clipPathUnits="userSpaceOnUse"
       id="clipPath856">
      <path
         d="m 62.39,187.24 h 400.13 v 92.5 H 62.39 Z"
         id="path854" />
    </clipPath>
    <clipPath
       clipPathUnits="userSpaceOnUse"
       id="clipPath884">
      <path
         d="m 62.39,72.05 h 400.13 v 92.5 H 62.39 Z"
         id="path882" />
    </clipPath>
    <clipPath
       clipPathUnits="userSpaceOnUse"
       id="clipPath912">
      <path
         d="m 62.39,164.55 h 400.13 v 17.21 H 62.39 Z"
         id="path910" />
    </clipPath>
    <clipPath
       clipPathUnits="userSpaceOnUse"
       id="clipPath934">
      <path
         d="m 62.39,164.55 h 400.13 v 17.21 H 62.39 Z"
         id="path932" />
    </clipPath>
    <clipPath
       clipPathUnits="userSpaceOnUse"
       id="clipPath942">
      <path
         d="m 62.39,164.55 h 400.13 v 17.21 H 62.39 Z"
         id="path940" />
    </clipPath>
    <clipPath
       clipPathUnits="userSpaceOnUse"
       id="clipPath950">
      <path
         d="m 62.39,164.55 h 400.13 v 17.21 H 62.39 Z"
         id="path948" />
    </clipPath>
    <clipPath
       clipPathUnits="userSpaceOnUse"
       id="clipPath960">
      <path
         d="m 62.39,279.74 h 400.13 v 17.21 H 62.39 Z"
         id="path958" />
    </clipPath>
    <clipPath
       clipPathUnits="userSpaceOnUse"
       id="clipPath982">
      <path
         d="m 62.39,279.74 h 400.13 v 17.21 H 62.39 Z"
         id="path980" />
    </clipPath>
    <clipPath
       clipPathUnits="userSpaceOnUse"
       id="clipPath990">
      <path
         d="m 62.39,279.74 h 400.13 v 17.21 H 62.39 Z"
         id="path988" />
    </clipPath>
    <clipPath
       clipPathUnits="userSpaceOnUse"
       id="clipPath998">
      <path
         d="m 62.39,279.74 h 400.13 v 17.21 H 62.39 Z"
         id="path996" />
    </clipPath>
    <clipPath
       clipPathUnits="userSpaceOnUse"
       id="clipPath1008">
      <path
         d="m 62.39,394.93 h 400.13 v 17.21 H 62.39 Z"
         id="path1006" />
    </clipPath>
    <clipPath
       clipPathUnits="userSpaceOnUse"
       id="clipPath1030">
      <path
         d="m 62.39,394.93 h 400.13 v 17.21 H 62.39 Z"
         id="path1028" />
    </clipPath>
    <clipPath
       clipPathUnits="userSpaceOnUse"
       id="clipPath1038">
      <path
         d="m 62.39,394.93 h 400.13 v 17.21 H 62.39 Z"
         id="path1036" />
    </clipPath>
    <clipPath
       clipPathUnits="userSpaceOnUse"
       id="clipPath1046">
      <path
         d="m 62.39,394.93 h 400.13 v 17.21 H 62.39 Z"
         id="path1044" />
    </clipPath>
    <clipPath
       clipPathUnits="userSpaceOnUse"
       id="clipPath1056">
      <path
         d="m 62.39,510.12 h 400.13 v 17.21 H 62.39 Z"
         id="path1054" />
    </clipPath>
    <clipPath
       clipPathUnits="userSpaceOnUse"
       id="clipPath1078">
      <path
         d="m 62.39,510.12 h 400.13 v 17.21 H 62.39 Z"
         id="path1076" />
    </clipPath>
    <clipPath
       clipPathUnits="userSpaceOnUse"
       id="clipPath1086">
      <path
         d="m 62.39,510.12 h 400.13 v 17.21 H 62.39 Z"
         id="path1084" />
    </clipPath>
    <clipPath
       clipPathUnits="userSpaceOnUse"
       id="clipPath1094">
      <path
         d="m 62.39,510.12 h 400.13 v 17.21 H 62.39 Z"
         id="path1092" />
    </clipPath>
    <clipPath
       clipPathUnits="userSpaceOnUse"
       id="clipPath1104">
      <path
         d="m 62.39,625.31 h 400.13 v 17.21 H 62.39 Z"
         id="path1102" />
    </clipPath>
    <clipPath
       clipPathUnits="userSpaceOnUse"
       id="clipPath1126">
      <path
         d="m 62.39,625.31 h 400.13 v 17.21 H 62.39 Z"
         id="path1124" />
    </clipPath>
    <clipPath
       clipPathUnits="userSpaceOnUse"
       id="clipPath1134">
      <path
         d="m 62.39,625.31 h 400.13 v 17.21 H 62.39 Z"
         id="path1132" />
    </clipPath>
    <clipPath
       clipPathUnits="userSpaceOnUse"
       id="clipPath1142">
      <path
         d="m 62.39,625.31 h 400.13 v 17.21 H 62.39 Z"
         id="path1140" />
    </clipPath>
    <clipPath
       clipPathUnits="userSpaceOnUse"
       id="clipPath3183">
      <g
         id="g3187">
        <path
           d="m 62.39,625.31 h 400.13 v 17.21 H 62.39 Z"
           id="path3185" />
      </g>
    </clipPath>
    <clipPath
       clipPathUnits="userSpaceOnUse"
       id="clipPath3200">
      <g
         id="g3204">
        <path
           d="m 62.39,510.12 h 400.13 v 17.21 H 62.39 Z"
           id="path3202" />
      </g>
    </clipPath>
    <clipPath
       clipPathUnits="userSpaceOnUse"
       id="clipPath3217">
      <g
         id="g3221">
        <path
           d="m 62.39,394.93 h 400.13 v 17.21 H 62.39 Z"
           id="path3219" />
      </g>
    </clipPath>
    <clipPath
       clipPathUnits="userSpaceOnUse"
       id="clipPath3234">
      <g
         id="g3238">
        <path
           d="m 62.39,279.74 h 400.13 v 17.21 H 62.39 Z"
           id="path3236" />
      </g>
    </clipPath>
    <clipPath
       clipPathUnits="userSpaceOnUse"
       id="clipPath3251">
      <g
         id="g3255">
        <path
           d="m 62.39,164.55 h 400.13 v 17.21 H 62.39 Z"
           id="path3253" />
      </g>
    </clipPath>
  </defs>
  <sodipodi:namedview
     id="namedview688"
     pagecolor="#ffffff"
     bordercolor="#000000"
     borderopacity="0.25"
     inkscape:showpageshadow="2"
     inkscape:pageopacity="0.0"
     inkscape:pagecheckerboard="0"
     inkscape:deskcolor="#d1d1d1"
     showgrid="false"
     inkscape:zoom="0.67592593"
     inkscape:cx="347.67123"
     inkscape:cy="446.79452"
     inkscape:window-width="1419"
     inkscape:window-height="778"
     inkscape:window-x="0"
     inkscape:window-y="25"
     inkscape:window-maximized="0"
     inkscape:current-layer="g694">
    <inkscape:page
       x="0"
       y="0"
       id="page692"
       width="624"
       height="864"
       inkscape:export-filename="meas_nat_comp.jpg"
       inkscape:export-xdpi="300"
       inkscape:export-ydpi="300" />
  </sodipodi:namedview>
  <g
     id="g694"
     inkscape:groupmode="layer"
     inkscape:label="Page 1"
     transform="matrix(1.3333333,0,0,-1.3333333,0,864)">
    <g
       id="g696">
      <path
         d="M 0,0 H 468 V 648 H 0 Z"
         style="fill:#ffffff;fill-opacity:1;fill-rule:nonzero;stroke:none"
         id="path698" />
    </g>
    <g
       id="g700" />
    <g
       id="g702" />
    <g
       id="g704" />
    <g
       id="g706" />
    <g
       id="g708" />
    <g
       id="g710" />
    <g
       id="g712" />
    <g
       id="g714" />
    <g
       id="g716" />
    <g
       id="g718" />
    <g
       id="g720" />
    <g
       id="g722" />
    <g
       id="g724" />
    <g
       id="g726" />
    <g
       id="g728" />
    <g
       id="g730" />
    <g
       id="g732" />
    <g
       id="g734" />
    <g
       id="g736" />
    <g
       id="g738" />
    <g
       id="g740" />
    <g
       id="g742" />
    <g
       id="g744" />
    <g
       id="g746" />
    <g
       id="g748" />
    <g
       id="g750" />
    <g
       id="g752" />
    <g
       id="g754">
      <g
         id="g756"
         clip-path="url(#clipPath760)">
        <path
           d="M 0,0 H 468 V 648 H 0 Z"
           style="fill:#ffffff;fill-opacity:1;fill-rule:nonzero;stroke:#ffffff;stroke-width:1.07;stroke-linecap:round;stroke-linejoin:round;stroke-miterlimit:10;stroke-dasharray:none;stroke-opacity:1"
           id="path762" />
      </g>
    </g>
    <g
       id="g764" />
    <g
       id="g766">
      <g
         id="g768"
         clip-path="url(#clipPath772)">
        <path
           d="m 62.39,532.81 h 400.13 v 92.5 H 62.39 Z"
           style="fill:#ffffff;fill-opacity:1;fill-rule:nonzero;stroke:none"
           id="path774" />
        <path
           d="m 80.58,562.92 5.27,-11.16 5.27,48.88 5.27,-41.4 5.27,-4.95 5.28,7.09 5.27,-4.13 5.27,45.94 5.27,-7.1 5.27,-44.66 5.27,17.55 5.28,-5.47 5.27,9.31 5.27,-16.89 5.27,4.54 5.27,28.63 5.28,-20.79 5.27,-11.73 5.27,14.47 5.27,5.37 5.27,-2.53 5.27,-10.99 5.28,-10.22 5.27,52.42 5.27,-42.78 5.27,29.64 5.27,-26.85 5.28,-18.17 5.27,36.19 5.27,18.58 5.27,-2.52 5.27,-41.32 5.28,26.18 5.27,37.06 5.27,-8.35 5.27,-1.96 5.27,-9.24 5.27,-1.2 5.28,-33.16 5.27,-3.85 5.27,-7.39 5.27,11.78 5.27,8.71 5.28,38.04 5.27,-46.41 5.27,28.24 5.27,-35.12 5.27,38.92 5.27,-19.48 5.28,-2.35 5.27,-13.54 5.27,-0.24 5.27,-16.43 5.27,11.53 5.28,6.05 5.27,25.62 5.27,-25.35 5.27,6.81 5.27,11.91 5.27,-15.77 5.28,3.81 5.27,6.97 5.27,-15.97 5.27,-3.74 5.27,9.04 5.28,1.69 5.27,5.45 15.81,18.92 v -25.23 l -15.81,-15.09 -5.27,-4.17 -5.28,-0.77 -5.27,-4.78 -5.27,-0.64 -5.27,13.15 -5.27,-3.69 -5.28,-1.1 -5.27,13.29 -5.27,-11.87 -5.27,-4.35 -5.27,22.13 -5.27,-23.55 -5.28,-2.64 -5.27,-5.2 -5.27,7.79 -5.27,4.36 -5.27,9.13 -5.28,6.76 -5.27,14.25 -5.27,-35.25 -5.27,33.31 -5.27,-25.14 -5.27,46.4 -5.28,-39.03 -5.27,-11.84 -5.27,-6.65 -5.27,6.49 -5.27,3.9 -5.28,32.29 -5.27,-3.44 -5.27,10.82 -5.27,6.67 -5.27,9.99 -5.27,-38.03 -5.28,-25.43 -5.27,41.78 -5.27,2.71 -5.27,-18.19 -5.27,-32.27 -5.28,13.78 -5.27,26.44 -5.27,-28.69 -5.27,48.98 -5.27,-52.06 -5.28,9.6 -5.27,5.26 -5.27,2 -5.27,-5.03 -5.27,-13.92 -5.27,12.02 -5.28,19.68 -5.27,-28.01 -5.27,-3.26 -5.27,14.98 -5.27,-8.34 -5.28,5.81 -5.27,-15.89 -5.27,43.26 -5.27,6.85 -5.27,-45.23 -5.27,3.98 -5.28,-6.85 -5.27,4.72 -5.27,40.55 -5.27,-47.61 -5.27,-7.93 z"
           style="fill:#bebebe;fill-opacity:0.251;fill-rule:nonzero;stroke:none"
           id="path776" />
        <path
           d="m 80.58,562.92 5.27,-11.16 5.27,48.88 5.27,-41.4 5.27,-4.95 5.28,7.09 5.27,-4.13 5.27,45.94 5.27,-7.1 5.27,-44.66 5.27,17.55 5.28,-5.47 5.27,9.31 5.27,-16.89 5.27,4.54 5.27,28.63 5.28,-20.79 5.27,-11.73 5.27,14.47 5.27,5.37 5.27,-2.53 5.27,-10.99 5.28,-10.22 5.27,52.42 5.27,-42.78 5.27,29.64 5.27,-26.85 5.28,-18.17 5.27,36.19 5.27,18.58 5.27,-2.52 5.27,-41.32 5.28,26.18 5.27,37.06 5.27,-8.35 5.27,-1.96 5.27,-9.24 5.27,-1.2 5.28,-33.16 5.27,-3.85 5.27,-7.39 5.27,11.78 5.27,8.71 5.28,38.04 5.27,-46.41 5.27,28.24 5.27,-35.12 5.27,38.92 5.27,-19.48 5.28,-2.35 5.27,-13.54 5.27,-0.24 5.27,-16.43 5.27,11.53 5.28,6.05 5.27,25.62 5.27,-25.35 5.27,6.81 5.27,11.91 5.27,-15.77 5.28,3.81 5.27,6.97 5.27,-15.97 5.27,-3.74 5.27,9.04 5.28,1.69 5.27,5.45 15.81,18.92"
           style="fill:none;stroke:#d95f02;stroke-width:1.07;stroke-linecap:round;stroke-linejoin:round;stroke-miterlimit:10;stroke-dasharray:none;stroke-opacity:1"
           id="path778" />
        <path
           d="m 444.33,569.82 -15.81,-15.09 -5.27,-4.17 -5.28,-0.77 -5.27,-4.78 -5.27,-0.64 -5.27,13.15 -5.27,-3.69 -5.28,-1.1 -5.27,13.29 -5.27,-11.87 -5.27,-4.35 -5.27,22.13 -5.27,-23.55 -5.28,-2.64 -5.27,-5.2 -5.27,7.79 -5.27,4.36 -5.27,9.13 -5.28,6.76 -5.27,14.25 -5.27,-35.25 -5.27,33.31 -5.27,-25.14 -5.27,46.4 -5.28,-39.03 -5.27,-11.84 -5.27,-6.65 -5.27,6.49 -5.27,3.9 -5.28,32.29 -5.27,-3.44 -5.27,10.82 -5.27,6.67 -5.27,9.99 -5.27,-38.03 -5.28,-25.43 -5.27,41.78 -5.27,2.71 -5.27,-18.19 -5.27,-32.27 -5.28,13.78 -5.27,26.44 -5.27,-28.69 -5.27,48.98 -5.27,-52.06 -5.28,9.6 -5.27,5.26 -5.27,2 -5.27,-5.03 -5.27,-13.92 -5.27,12.02 -5.28,19.68 -5.27,-28.01 -5.27,-3.26 -5.27,14.98 -5.27,-8.34 -5.28,5.81 -5.27,-15.89 -5.27,43.26 -5.27,6.85 -5.27,-45.23 -5.27,3.98 -5.28,-6.85 -5.27,4.72 -5.27,40.55 -5.27,-47.61 -5.27,-7.93"
           style="fill:none;stroke:#d95f02;stroke-width:1.07;stroke-linecap:round;stroke-linejoin:round;stroke-miterlimit:10;stroke-dasharray:none;stroke-opacity:1"
           id="path780" />
        <path
           d="m 80.58,562.92 5.27,-11.16 5.27,48.88 5.27,-41.4 5.27,-4.95 5.28,7.09 5.27,-4.13 5.27,45.94 5.27,-7.1 5.27,-44.66 5.27,17.55 5.28,-5.47 5.27,9.31 5.27,-16.89 5.27,4.54 5.27,28.63 5.28,-20.79 5.27,-11.73 5.27,14.47 5.27,5.37 5.27,-2.53 5.27,-10.99 5.28,-10.22 5.27,52.42 5.27,-42.78 5.27,29.64 5.27,-26.85 5.28,-18.17 5.27,36.19 5.27,18.58 5.27,-2.52 5.27,-41.32 5.28,26.18 5.27,37.06 5.27,-8.35 5.27,-1.96 5.27,-9.24 5.27,-1.2 5.28,-33.16 5.27,-3.85 5.27,-7.39 5.27,11.78 5.27,8.71 5.28,38.04 5.27,-46.41 5.27,28.24 5.27,-35.12 5.27,38.92 5.27,-19.48 5.28,-2.35 5.27,-13.54 5.27,-0.24 5.27,-16.43 5.27,11.53 5.28,6.05 5.27,25.62 5.27,-25.35 5.27,6.81 5.27,11.91 5.27,-15.77 5.28,3.81 5.27,6.97 5.27,-15.97 5.27,-3.74 5.27,9.04 5.28,1.69 5.27,5.45 15.81,18.92 v -25.23 l -15.81,-15.09 -5.27,-4.17 -5.28,-0.77 -5.27,-4.78 -5.27,-0.64 -5.27,13.15 -5.27,-3.69 -5.28,-1.1 -5.27,13.29 -5.27,-11.87 -5.27,-4.35 -5.27,22.13 -5.27,-23.55 -5.28,-2.64 -5.27,-5.2 -5.27,7.79 -5.27,4.36 -5.27,9.13 -5.28,6.76 -5.27,14.25 -5.27,-35.25 -5.27,33.31 -5.27,-25.14 -5.27,46.4 -5.28,-39.03 -5.27,-11.84 -5.27,-6.65 -5.27,6.49 -5.27,3.9 -5.28,32.29 -5.27,-3.44 -5.27,10.82 -5.27,6.67 -5.27,9.99 -5.27,-38.03 -5.28,-25.43 -5.27,41.78 -5.27,2.71 -5.27,-18.19 -5.27,-32.27 -5.28,13.78 -5.27,26.44 -5.27,-28.69 -5.27,48.98 -5.27,-52.06 -5.28,9.6 -5.27,5.26 -5.27,2 -5.27,-5.03 -5.27,-13.92 -5.27,12.02 -5.28,19.68 -5.27,-28.01 -5.27,-3.26 -5.27,14.98 -5.27,-8.34 -5.28,5.81 -5.27,-15.89 -5.27,43.26 -5.27,6.85 -5.27,-45.23 -5.27,3.98 -5.28,-6.85 -5.27,4.72 -5.27,40.55 -5.27,-47.61 -5.27,-7.93 z"
           style="fill:#bebebe;fill-opacity:0.251;fill-rule:nonzero;stroke:none"
           id="path782" />
        <path
           d="m 80.58,562.92 5.27,-11.16 5.27,48.88 5.27,-41.4 5.27,-4.95 5.28,7.09 5.27,-4.13 5.27,45.94 5.27,-7.1 5.27,-44.66 5.27,17.55 5.28,-5.47 5.27,9.31 5.27,-16.89 5.27,4.54 5.27,28.63 5.28,-20.79 5.27,-11.73 5.27,14.47 5.27,5.37 5.27,-2.53 5.27,-10.99 5.28,-10.22 5.27,52.42 5.27,-42.78 5.27,29.64 5.27,-26.85 5.28,-18.17 5.27,36.19 5.27,18.58 5.27,-2.52 5.27,-41.32 5.28,26.18 5.27,37.06 5.27,-8.35 5.27,-1.96 5.27,-9.24 5.27,-1.2 5.28,-33.16 5.27,-3.85 5.27,-7.39 5.27,11.78 5.27,8.71 5.28,38.04 5.27,-46.41 5.27,28.24 5.27,-35.12 5.27,38.92 5.27,-19.48 5.28,-2.35 5.27,-13.54 5.27,-0.24 5.27,-16.43 5.27,11.53 5.28,6.05 5.27,25.62 5.27,-25.35 5.27,6.81 5.27,11.91 5.27,-15.77 5.28,3.81 5.27,6.97 5.27,-15.97 5.27,-3.74 5.27,9.04 5.28,1.69 5.27,5.45 15.81,18.92"
           style="fill:none;stroke:#7570b3;stroke-width:1.07;stroke-linecap:round;stroke-linejoin:round;stroke-miterlimit:10;stroke-dasharray:none;stroke-opacity:1"
           id="path784" />
        <path
           d="m 444.33,569.82 -15.81,-15.09 -5.27,-4.17 -5.28,-0.77 -5.27,-4.78 -5.27,-0.64 -5.27,13.15 -5.27,-3.69 -5.28,-1.1 -5.27,13.29 -5.27,-11.87 -5.27,-4.35 -5.27,22.13 -5.27,-23.55 -5.28,-2.64 -5.27,-5.2 -5.27,7.79 -5.27,4.36 -5.27,9.13 -5.28,6.76 -5.27,14.25 -5.27,-35.25 -5.27,33.31 -5.27,-25.14 -5.27,46.4 -5.28,-39.03 -5.27,-11.84 -5.27,-6.65 -5.27,6.49 -5.27,3.9 -5.28,32.29 -5.27,-3.44 -5.27,10.82 -5.27,6.67 -5.27,9.99 -5.27,-38.03 -5.28,-25.43 -5.27,41.78 -5.27,2.71 -5.27,-18.19 -5.27,-32.27 -5.28,13.78 -5.27,26.44 -5.27,-28.69 -5.27,48.98 -5.27,-52.06 -5.28,9.6 -5.27,5.26 -5.27,2 -5.27,-5.03 -5.27,-13.92 -5.27,12.02 -5.28,19.68 -5.27,-28.01 -5.27,-3.26 -5.27,14.98 -5.27,-8.34 -5.28,5.81 -5.27,-15.89 -5.27,43.26 -5.27,6.85 -5.27,-45.23 -5.27,3.98 -5.28,-6.85 -5.27,4.72 -5.27,40.55 -5.27,-47.61 -5.27,-7.93"
           style="fill:none;stroke:#7570b3;stroke-width:1.07;stroke-linecap:round;stroke-linejoin:round;stroke-miterlimit:10;stroke-dasharray:none;stroke-opacity:1"
           id="path786" />
        <path
           d="m 80.58,537.01 5.27,7.93 5.27,47.61 5.27,-40.55 5.27,-4.72 5.28,6.85 5.27,-3.98 5.27,45.23 5.27,-6.85 5.27,-43.26 5.27,15.89 5.28,-5.81 5.27,8.34 5.27,-14.98 5.27,3.26 5.27,28.01 5.28,-19.68 5.27,-12.02 5.27,13.92 5.27,5.03 5.27,-2 5.27,-5.26 5.28,-9.6 5.27,52.06 5.27,-48.98 5.27,28.69 5.27,-26.44 5.28,-13.78 5.27,32.27 5.27,18.19 5.27,-2.71 5.27,-41.78 5.28,25.43 5.27,38.03 5.27,-9.99 5.27,-6.67 5.27,-10.82 5.27,3.44 5.28,-32.29 5.27,-3.9 5.27,-6.49 5.27,6.65 5.27,11.84 5.28,39.03 5.27,-46.4 5.27,25.14 5.27,-33.31 5.27,35.25 5.27,-14.25 5.28,-6.76 5.27,-9.13 5.27,-4.36 5.27,-7.79 5.27,5.2 5.28,2.64 5.27,23.55 5.27,-22.13 5.27,4.35 5.27,11.87 5.27,-13.29 5.28,1.1 5.27,3.69 5.27,-13.15 5.27,0.64 5.27,4.78 5.28,0.77 5.27,4.17 15.81,15.09"
           style="fill:none;stroke:#d95f02;stroke-width:1.6;stroke-linecap:butt;stroke-linejoin:round;stroke-miterlimit:10;stroke-dasharray:none;stroke-opacity:1"
           id="path788" />
        <path
           d="m 80.58,562.92 5.27,-11.16 5.27,48.88 5.27,-41.4 5.27,-4.95 5.28,7.09 5.27,-4.13 5.27,45.94 5.27,-7.1 5.27,-44.66 5.27,17.55 5.28,-5.47 5.27,9.31 5.27,-16.89 5.27,4.54 5.27,28.63 5.28,-20.79 5.27,-11.73 5.27,14.47 5.27,5.37 5.27,-2.53 5.27,-10.99 5.28,-10.22 5.27,52.42 5.27,-42.78 5.27,29.64 5.27,-26.85 5.28,-18.17 5.27,36.19 5.27,18.58 5.27,-2.52 5.27,-41.32 5.28,26.18 5.27,37.06 5.27,-8.35 5.27,-1.96 5.27,-9.24 5.27,-1.2 5.28,-33.16 5.27,-3.85 5.27,-7.39 5.27,11.78 5.27,8.71 5.28,38.04 5.27,-46.41 5.27,28.24 5.27,-35.12 5.27,38.92 5.27,-19.48 5.28,-2.35 5.27,-13.54 5.27,-0.24 5.27,-16.43 5.27,11.53 5.28,6.05 5.27,25.62 5.27,-25.35 5.27,6.81 5.27,11.91 5.27,-15.77 5.28,3.81 5.27,6.97 5.27,-15.97 5.27,-3.74 5.27,9.04 5.28,1.69 5.27,5.45 15.81,18.92"
           style="fill:none;stroke:#7570b3;stroke-width:1.6;stroke-linecap:butt;stroke-linejoin:round;stroke-miterlimit:10;stroke-dasharray:none;stroke-opacity:1"
           id="path790" />
      </g>
    </g>
    <g
       id="g792" />
    <g
       id="g794">
      <g
         id="g796"
         clip-path="url(#clipPath800)">
        <path
           d="m 62.39,417.62 h 400.13 v 92.5 H 62.39 Z"
           style="fill:#ffffff;fill-opacity:1;fill-rule:nonzero;stroke:none"
           id="path802" />
        <path
           d="m 80.58,470.73 5.27,-7.58 5.27,38 5.27,-47.49 5.27,-6.83 5.28,3.75 5.27,5.86 5.27,8.64 5.27,-2.6 5.27,-18.1 5.27,0.6 5.28,-1.57 5.27,26.56 5.27,-19.47 5.27,8.63 5.27,32.08 5.28,-36.94 5.27,20.93 5.27,-2.8 5.27,4.62 5.27,-23.79 5.27,16.76 5.28,-2.57 5.27,13.03 5.27,-21.76 5.27,16.91 5.27,-24.34 5.28,-17.7 5.27,25.12 5.27,-0.75 5.27,17.35 5.27,-32.94 5.28,31.59 5.27,31.99 5.27,-22.77 5.27,-20.13 5.27,36.51 5.27,-32.92 5.28,-20.12 5.27,-2.09 5.27,3.96 5.27,3.98 5.27,-7.51 5.28,20.07 5.27,-14.14 5.27,34.98 5.27,-21.07 5.27,26.32 5.27,-0.66 5.28,-11.66 5.27,-27.99 5.27,5.77 5.27,-13.77 5.27,4.77 5.28,-0.28 5.27,44.18 5.27,-25.98 5.27,-19.29 5.27,6.71 5.27,1.91 5.28,-1.6 5.27,51.41 5.27,-57.15 5.27,1.24 5.27,0.42 5.28,-2.85 5.27,10.28 15.81,26.55 v -36.88 l -15.81,-15.51 -5.27,-3.86 -5.28,-1.88 -5.27,-1.88 -5.27,2.98 -5.27,58.03 -5.27,-56.37 -5.28,1.32 -5.27,-2.7 -5.27,-2.27 -5.27,10.33 -5.27,21.28 -5.27,-32.4 -5.28,-1.37 -5.27,0.55 -5.27,5.59 -5.27,-0.9 -5.27,27.5 -5.28,8.99 -5.27,-5.64 -5.27,-26.35 -5.27,18.08 -5.27,-25.09 -5.27,5.41 -5.28,-5.79 -5.27,0.87 -5.27,-1.43 -5.27,0.57 -5.27,4.59 -5.28,16.39 -5.27,21.91 -5.27,-24.12 -5.27,25.84 -5.27,26.55 -5.27,-38.58 -5.28,-26.72 -5.27,10.82 -5.27,-0.92 -5.27,-5.64 -5.27,-10.85 -5.28,7.7 -5.27,14.38 -5.27,-9.29 -5.27,16.21 -5.27,-11.49 -5.28,-0.37 -5.27,-11.36 -5.27,26.34 -5.27,-2.22 -5.27,0.54 -5.27,-16.36 -5.28,34.45 -5.27,-31.61 -5.27,-8.44 -5.27,17.03 -5.27,-20.77 -5.28,0.93 -5.27,0.36 -5.27,14.4 -5.27,2.21 -5.27,-8.74 -5.27,-3.37 -5.28,-3.21 -5.27,7.91 -5.27,40.7 -5.27,-33.63 -5.27,7.18 z"
           style="fill:#bebebe;fill-opacity:0.251;fill-rule:nonzero;stroke:none"
           id="path804" />
        <path
           d="m 80.58,470.73 5.27,-7.58 5.27,38 5.27,-47.49 5.27,-6.83 5.28,3.75 5.27,5.86 5.27,8.64 5.27,-2.6 5.27,-18.1 5.27,0.6 5.28,-1.57 5.27,26.56 5.27,-19.47 5.27,8.63 5.27,32.08 5.28,-36.94 5.27,20.93 5.27,-2.8 5.27,4.62 5.27,-23.79 5.27,16.76 5.28,-2.57 5.27,13.03 5.27,-21.76 5.27,16.91 5.27,-24.34 5.28,-17.7 5.27,25.12 5.27,-0.75 5.27,17.35 5.27,-32.94 5.28,31.59 5.27,31.99 5.27,-22.77 5.27,-20.13 5.27,36.51 5.27,-32.92 5.28,-20.12 5.27,-2.09 5.27,3.96 5.27,3.98 5.27,-7.51 5.28,20.07 5.27,-14.14 5.27,34.98 5.27,-21.07 5.27,26.32 5.27,-0.66 5.28,-11.66 5.27,-27.99 5.27,5.77 5.27,-13.77 5.27,4.77 5.28,-0.28 5.27,44.18 5.27,-25.98 5.27,-19.29 5.27,6.71 5.27,1.91 5.28,-1.6 5.27,51.41 5.27,-57.15 5.27,1.24 5.27,0.42 5.28,-2.85 5.27,10.28 15.81,26.55"
           style="fill:none;stroke:#d95f02;stroke-width:1.07;stroke-linecap:round;stroke-linejoin:round;stroke-miterlimit:10;stroke-dasharray:none;stroke-opacity:1"
           id="path806" />
        <path
           d="m 444.33,446.12 -15.81,-15.51 -5.27,-3.86 -5.28,-1.88 -5.27,-1.88 -5.27,2.98 -5.27,58.03 -5.27,-56.37 -5.28,1.32 -5.27,-2.7 -5.27,-2.27 -5.27,10.33 -5.27,21.28 -5.27,-32.4 -5.28,-1.37 -5.27,0.55 -5.27,5.59 -5.27,-0.9 -5.27,27.5 -5.28,8.99 -5.27,-5.64 -5.27,-26.35 -5.27,18.08 -5.27,-25.09 -5.27,5.41 -5.28,-5.79 -5.27,0.87 -5.27,-1.43 -5.27,0.57 -5.27,4.59 -5.28,16.39 -5.27,21.91 -5.27,-24.12 -5.27,25.84 -5.27,26.55 -5.27,-38.58 -5.28,-26.72 -5.27,10.82 -5.27,-0.92 -5.27,-5.64 -5.27,-10.85 -5.28,7.7 -5.27,14.38 -5.27,-9.29 -5.27,16.21 -5.27,-11.49 -5.28,-0.37 -5.27,-11.36 -5.27,26.34 -5.27,-2.22 -5.27,0.54 -5.27,-16.36 -5.28,34.45 -5.27,-31.61 -5.27,-8.44 -5.27,17.03 -5.27,-20.77 -5.28,0.93 -5.27,0.36 -5.27,14.4 -5.27,2.21 -5.27,-8.74 -5.27,-3.37 -5.28,-3.21 -5.27,7.91 -5.27,40.7 -5.27,-33.63 -5.27,7.18"
           style="fill:none;stroke:#d95f02;stroke-width:1.07;stroke-linecap:round;stroke-linejoin:round;stroke-miterlimit:10;stroke-dasharray:none;stroke-opacity:1"
           id="path808" />
        <path
           d="m 80.58,470.73 5.27,-7.58 5.27,38 5.27,-47.49 5.27,-6.83 5.28,3.75 5.27,5.86 5.27,8.64 5.27,-2.6 5.27,-18.1 5.27,0.6 5.28,-1.57 5.27,26.56 5.27,-19.47 5.27,8.63 5.27,32.08 5.28,-36.94 5.27,20.93 5.27,-2.8 5.27,4.62 5.27,-23.79 5.27,16.76 5.28,-2.57 5.27,13.03 5.27,-21.76 5.27,16.91 5.27,-24.34 5.28,-17.7 5.27,25.12 5.27,-0.75 5.27,17.35 5.27,-32.94 5.28,31.59 5.27,31.99 5.27,-22.77 5.27,-20.13 5.27,36.51 5.27,-32.92 5.28,-20.12 5.27,-2.09 5.27,3.96 5.27,3.98 5.27,-7.51 5.28,20.07 5.27,-14.14 5.27,34.98 5.27,-21.07 5.27,26.32 5.27,-0.66 5.28,-11.66 5.27,-27.99 5.27,5.77 5.27,-13.77 5.27,4.77 5.28,-0.28 5.27,44.18 5.27,-25.98 5.27,-19.29 5.27,6.71 5.27,1.91 5.28,-1.6 5.27,51.41 5.27,-57.15 5.27,1.24 5.27,0.42 5.28,-2.85 5.27,10.28 15.81,26.55 v -36.88 l -15.81,-15.51 -5.27,-3.86 -5.28,-1.88 -5.27,-1.88 -5.27,2.98 -5.27,58.03 -5.27,-56.37 -5.28,1.32 -5.27,-2.7 -5.27,-2.27 -5.27,10.33 -5.27,21.28 -5.27,-32.4 -5.28,-1.37 -5.27,0.55 -5.27,5.59 -5.27,-0.9 -5.27,27.5 -5.28,8.99 -5.27,-5.64 -5.27,-26.35 -5.27,18.08 -5.27,-25.09 -5.27,5.41 -5.28,-5.79 -5.27,0.87 -5.27,-1.43 -5.27,0.57 -5.27,4.59 -5.28,16.39 -5.27,21.91 -5.27,-24.12 -5.27,25.84 -5.27,26.55 -5.27,-38.58 -5.28,-26.72 -5.27,10.82 -5.27,-0.92 -5.27,-5.64 -5.27,-10.85 -5.28,7.7 -5.27,14.38 -5.27,-9.29 -5.27,16.21 -5.27,-11.49 -5.28,-0.37 -5.27,-11.36 -5.27,26.34 -5.27,-2.22 -5.27,0.54 -5.27,-16.36 -5.28,34.45 -5.27,-31.61 -5.27,-8.44 -5.27,17.03 -5.27,-20.77 -5.28,0.93 -5.27,0.36 -5.27,14.4 -5.27,2.21 -5.27,-8.74 -5.27,-3.37 -5.28,-3.21 -5.27,7.91 -5.27,40.7 -5.27,-33.63 -5.27,7.18 z"
           style="fill:#bebebe;fill-opacity:0.251;fill-rule:nonzero;stroke:none"
           id="path810" />
        <path
           d="m 80.58,470.73 5.27,-7.58 5.27,38 5.27,-47.49 5.27,-6.83 5.28,3.75 5.27,5.86 5.27,8.64 5.27,-2.6 5.27,-18.1 5.27,0.6 5.28,-1.57 5.27,26.56 5.27,-19.47 5.27,8.63 5.27,32.08 5.28,-36.94 5.27,20.93 5.27,-2.8 5.27,4.62 5.27,-23.79 5.27,16.76 5.28,-2.57 5.27,13.03 5.27,-21.76 5.27,16.91 5.27,-24.34 5.28,-17.7 5.27,25.12 5.27,-0.75 5.27,17.35 5.27,-32.94 5.28,31.59 5.27,31.99 5.27,-22.77 5.27,-20.13 5.27,36.51 5.27,-32.92 5.28,-20.12 5.27,-2.09 5.27,3.96 5.27,3.98 5.27,-7.51 5.28,20.07 5.27,-14.14 5.27,34.98 5.27,-21.07 5.27,26.32 5.27,-0.66 5.28,-11.66 5.27,-27.99 5.27,5.77 5.27,-13.77 5.27,4.77 5.28,-0.28 5.27,44.18 5.27,-25.98 5.27,-19.29 5.27,6.71 5.27,1.91 5.28,-1.6 5.27,51.41 5.27,-57.15 5.27,1.24 5.27,0.42 5.28,-2.85 5.27,10.28 15.81,26.55"
           style="fill:none;stroke:#7570b3;stroke-width:1.07;stroke-linecap:round;stroke-linejoin:round;stroke-miterlimit:10;stroke-dasharray:none;stroke-opacity:1"
           id="path812" />
        <path
           d="m 444.33,446.12 -15.81,-15.51 -5.27,-3.86 -5.28,-1.88 -5.27,-1.88 -5.27,2.98 -5.27,58.03 -5.27,-56.37 -5.28,1.32 -5.27,-2.7 -5.27,-2.27 -5.27,10.33 -5.27,21.28 -5.27,-32.4 -5.28,-1.37 -5.27,0.55 -5.27,5.59 -5.27,-0.9 -5.27,27.5 -5.28,8.99 -5.27,-5.64 -5.27,-26.35 -5.27,18.08 -5.27,-25.09 -5.27,5.41 -5.28,-5.79 -5.27,0.87 -5.27,-1.43 -5.27,0.57 -5.27,4.59 -5.28,16.39 -5.27,21.91 -5.27,-24.12 -5.27,25.84 -5.27,26.55 -5.27,-38.58 -5.28,-26.72 -5.27,10.82 -5.27,-0.92 -5.27,-5.64 -5.27,-10.85 -5.28,7.7 -5.27,14.38 -5.27,-9.29 -5.27,16.21 -5.27,-11.49 -5.28,-0.37 -5.27,-11.36 -5.27,26.34 -5.27,-2.22 -5.27,0.54 -5.27,-16.36 -5.28,34.45 -5.27,-31.61 -5.27,-8.44 -5.27,17.03 -5.27,-20.77 -5.28,0.93 -5.27,0.36 -5.27,14.4 -5.27,2.21 -5.27,-8.74 -5.27,-3.37 -5.28,-3.21 -5.27,7.91 -5.27,40.7 -5.27,-33.63 -5.27,7.18"
           style="fill:none;stroke:#7570b3;stroke-width:1.07;stroke-linecap:round;stroke-linejoin:round;stroke-miterlimit:10;stroke-dasharray:none;stroke-opacity:1"
           id="path814" />
        <path
           d="m 80.58,452.93 5.27,-7.18 5.27,33.63 5.27,-40.7 5.27,-7.91 5.28,3.21 5.27,3.37 5.27,8.74 5.27,-2.21 5.27,-14.4 5.27,-0.36 5.28,-0.93 5.27,20.77 5.27,-17.03 5.27,8.44 5.27,31.61 5.28,-34.45 5.27,16.36 5.27,-0.54 5.27,2.22 5.27,-26.34 5.27,11.36 5.28,0.37 5.27,11.49 5.27,-16.21 5.27,9.29 5.27,-14.38 5.28,-7.7 5.27,10.85 5.27,5.64 5.27,0.92 5.27,-10.82 5.28,26.72 5.27,38.58 5.27,-26.55 5.27,-25.84 5.27,24.12 5.27,-21.91 5.28,-16.39 5.27,-4.59 5.27,-0.57 5.27,1.43 5.27,-0.87 5.28,5.79 5.27,-5.41 5.27,25.09 5.27,-18.08 5.27,26.35 5.27,5.64 5.28,-8.99 5.27,-27.5 5.27,0.9 5.27,-5.59 5.27,-0.55 5.28,1.37 5.27,32.4 5.27,-21.28 5.27,-10.33 5.27,2.27 5.27,2.7 5.28,-1.32 5.27,56.37 5.27,-58.03 5.27,-2.98 5.27,1.88 5.28,1.88 5.27,3.86 15.81,15.51"
           style="fill:none;stroke:#d95f02;stroke-width:1.6;stroke-linecap:butt;stroke-linejoin:round;stroke-miterlimit:10;stroke-dasharray:none;stroke-opacity:1"
           id="path816" />
        <path
           d="m 80.58,470.73 5.27,-7.58 5.27,38 5.27,-47.49 5.27,-6.83 5.28,3.75 5.27,5.86 5.27,8.64 5.27,-2.6 5.27,-18.1 5.27,0.6 5.28,-1.57 5.27,26.56 5.27,-19.47 5.27,8.63 5.27,32.08 5.28,-36.94 5.27,20.93 5.27,-2.8 5.27,4.62 5.27,-23.79 5.27,16.76 5.28,-2.57 5.27,13.03 5.27,-21.76 5.27,16.91 5.27,-24.34 5.28,-17.7 5.27,25.12 5.27,-0.75 5.27,17.35 5.27,-32.94 5.28,31.59 5.27,31.99 5.27,-22.77 5.27,-20.13 5.27,36.51 5.27,-32.92 5.28,-20.12 5.27,-2.09 5.27,3.96 5.27,3.98 5.27,-7.51 5.28,20.07 5.27,-14.14 5.27,34.98 5.27,-21.07 5.27,26.32 5.27,-0.66 5.28,-11.66 5.27,-27.99 5.27,5.77 5.27,-13.77 5.27,4.77 5.28,-0.28 5.27,44.18 5.27,-25.98 5.27,-19.29 5.27,6.71 5.27,1.91 5.28,-1.6 5.27,51.41 5.27,-57.15 5.27,1.24 5.27,0.42 5.28,-2.85 5.27,10.28 15.81,26.55"
           style="fill:none;stroke:#7570b3;stroke-width:1.6;stroke-linecap:butt;stroke-linejoin:round;stroke-miterlimit:10;stroke-dasharray:none;stroke-opacity:1"
           id="path818" />
      </g>
    </g>
    <g
       id="g820" />
    <g
       id="g822">
      <g
         id="g824"
         clip-path="url(#clipPath828)">
        <path
           d="m 62.39,302.43 h 400.13 v 92.5 H 62.39 Z"
           style="fill:#ffffff;fill-opacity:1;fill-rule:nonzero;stroke:none"
           id="path830" />
        <path
           d="m 101.66,332.52 5.28,-1.65 5.27,0.56 5.27,46.93 5.27,-13.88 5.27,-36.89 5.27,25.43 5.28,-11.35 5.27,7.01 5.27,-17.37 5.27,-0.96 5.27,44.76 5.28,-26.02 5.27,-14.97 5.27,11.56 5.27,13.79 5.27,-14.93 5.27,-11.32 5.28,3.67 5.27,46.63 5.27,-55.88 5.27,41.87 5.27,-29.27 5.28,-22 5.27,22.22 5.27,50.27 5.27,-21.13 5.27,-36.55 5.28,29.77 5.27,5.52 5.27,-5.74 5.27,25.64 5.27,-6.52 5.27,-8.84 5.28,-31.32 5.27,-0.42 5.27,1.41 5.27,6.37 5.27,3.87 5.28,20.39 5.27,-22.79 5.27,20.13 5.27,-44.26 5.27,45.16 5.27,-24.5 5.28,12.47 5.27,-32.63 5.27,23.65 5.27,-37.32 5.27,16.39 5.28,15.31 5.27,30.21 5.27,-34.57 5.27,8.53 5.27,15.67 5.27,-21.53 5.28,1.8 5.27,-5.13 5.27,-10.98 5.27,7.49 5.27,3.18 5.28,7.65 5.27,-2.68 15.81,22.17 v -39.57 l -15.81,5.85 -5.27,-14.58 -5.28,-1.08 -5.27,1.95 -5.27,8.22 -5.27,-2.2 -5.27,-1.9 -5.28,4.6 -5.27,25.61 -5.27,-18.58 -5.27,-9.95 -5.27,9.5 -5.27,-17.04 -5.28,1.75 -5.27,5.04 -5.27,10.18 -5.27,-8.64 -5.27,16.91 -5.28,-3.74 -5.27,1.62 -5.27,-15.25 -5.27,28.66 -5.27,-10.3 -5.27,12.93 -5.28,-16.1 -5.27,-12.53 -5.27,-6.16 -5.27,3.14 -5.27,-0.27 -5.28,49.01 -5.27,-5.12 -5.27,13.32 -5.27,-31.1 -5.27,0.53 -5.27,-11.24 -5.28,-10.26 -5.27,20.68 -5.27,26.13 -5.27,-55.06 -5.27,2.52 -5.28,8.29 -5.27,18.58 -5.27,-20.32 -5.27,38.77 -5.27,-38.22 -5.28,0.35 -5.27,8.15 -5.27,11.75 -5.27,-29.2 -5.27,0.4 -5.27,22.97 -5.28,22.62 -5.27,-44.15 -5.27,-8.42 -5.27,26.31 -5.27,-5.02 -5.28,11.46 -5.27,-24.35 -5.27,36.81 -5.27,12.96 -5.27,-45.56 -5.27,-0.08 -5.28,-21.55 z"
           style="fill:#bebebe;fill-opacity:0.251;fill-rule:nonzero;stroke:none"
           id="path832" />
        <path
           d="m 101.66,332.52 5.28,-1.65 5.27,0.56 5.27,46.93 5.27,-13.88 5.27,-36.89 5.27,25.43 5.28,-11.35 5.27,7.01 5.27,-17.37 5.27,-0.96 5.27,44.76 5.28,-26.02 5.27,-14.97 5.27,11.56 5.27,13.79 5.27,-14.93 5.27,-11.32 5.28,3.67 5.27,46.63 5.27,-55.88 5.27,41.87 5.27,-29.27 5.28,-22 5.27,22.22 5.27,50.27 5.27,-21.13 5.27,-36.55 5.28,29.77 5.27,5.52 5.27,-5.74 5.27,25.64 5.27,-6.52 5.27,-8.84 5.28,-31.32 5.27,-0.42 5.27,1.41 5.27,6.37 5.27,3.87 5.28,20.39 5.27,-22.79 5.27,20.13 5.27,-44.26 5.27,45.16 5.27,-24.5 5.28,12.47 5.27,-32.63 5.27,23.65 5.27,-37.32 5.27,16.39 5.28,15.31 5.27,30.21 5.27,-34.57 5.27,8.53 5.27,15.67 5.27,-21.53 5.28,1.8 5.27,-5.13 5.27,-10.98 5.27,7.49 5.27,3.18 5.28,7.65 5.27,-2.68 15.81,22.17"
           style="fill:none;stroke:#d95f02;stroke-width:1.07;stroke-linecap:round;stroke-linejoin:round;stroke-miterlimit:10;stroke-dasharray:none;stroke-opacity:1"
           id="path834" />
        <path
           d="m 444.33,327.03 -15.81,5.85 -5.27,-14.58 -5.28,-1.08 -5.27,1.95 -5.27,8.22 -5.27,-2.2 -5.27,-1.9 -5.28,4.6 -5.27,25.61 -5.27,-18.58 -5.27,-9.95 -5.27,9.5 -5.27,-17.04 -5.28,1.75 -5.27,5.04 -5.27,10.18 -5.27,-8.64 -5.27,16.91 -5.28,-3.74 -5.27,1.62 -5.27,-15.25 -5.27,28.66 -5.27,-10.3 -5.27,12.93 -5.28,-16.1 -5.27,-12.53 -5.27,-6.16 -5.27,3.14 -5.27,-0.27 -5.28,49.01 -5.27,-5.12 -5.27,13.32 -5.27,-31.1 -5.27,0.53 -5.27,-11.24 -5.28,-10.26 -5.27,20.68 -5.27,26.13 -5.27,-55.06 -5.27,2.52 -5.28,8.29 -5.27,18.58 -5.27,-20.32 -5.27,38.77 -5.27,-38.22 -5.28,0.35 -5.27,8.15 -5.27,11.75 -5.27,-29.2 -5.27,0.4 -5.27,22.97 -5.28,22.62 -5.27,-44.15 -5.27,-8.42 -5.27,26.31 -5.27,-5.02 -5.28,11.46 -5.27,-24.35 -5.27,36.81 -5.27,12.96 -5.27,-45.56 -5.27,-0.08 -5.28,-21.55"
           style="fill:none;stroke:#d95f02;stroke-width:1.07;stroke-linecap:round;stroke-linejoin:round;stroke-miterlimit:10;stroke-dasharray:none;stroke-opacity:1"
           id="path836" />
        <path
           d="m 101.66,332.52 5.28,-1.65 5.27,0.56 5.27,46.93 5.27,-13.88 5.27,-36.89 5.27,25.43 5.28,-11.35 5.27,7.01 5.27,-17.37 5.27,-0.96 5.27,44.76 5.28,-26.02 5.27,-14.97 5.27,11.56 5.27,13.79 5.27,-14.93 5.27,-11.32 5.28,3.67 5.27,46.63 5.27,-55.88 5.27,41.87 5.27,-29.27 5.28,-22 5.27,22.22 5.27,50.27 5.27,-21.13 5.27,-36.55 5.28,29.77 5.27,5.52 5.27,-5.74 5.27,25.64 5.27,-6.52 5.27,-8.84 5.28,-31.32 5.27,-0.42 5.27,1.41 5.27,6.37 5.27,3.87 5.28,20.39 5.27,-22.79 5.27,20.13 5.27,-44.26 5.27,45.16 5.27,-24.5 5.28,12.47 5.27,-32.63 5.27,23.65 5.27,-37.32 5.27,16.39 5.28,15.31 5.27,30.21 5.27,-34.57 5.27,8.53 5.27,15.67 5.27,-21.53 5.28,1.8 5.27,-5.13 5.27,-10.98 5.27,7.49 5.27,3.18 5.28,7.65 5.27,-2.68 15.81,22.17 v -39.57 l -15.81,5.85 -5.27,-14.58 -5.28,-1.08 -5.27,1.95 -5.27,8.22 -5.27,-2.2 -5.27,-1.9 -5.28,4.6 -5.27,25.61 -5.27,-18.58 -5.27,-9.95 -5.27,9.5 -5.27,-17.04 -5.28,1.75 -5.27,5.04 -5.27,10.18 -5.27,-8.64 -5.27,16.91 -5.28,-3.74 -5.27,1.62 -5.27,-15.25 -5.27,28.66 -5.27,-10.3 -5.27,12.93 -5.28,-16.1 -5.27,-12.53 -5.27,-6.16 -5.27,3.14 -5.27,-0.27 -5.28,49.01 -5.27,-5.12 -5.27,13.32 -5.27,-31.1 -5.27,0.53 -5.27,-11.24 -5.28,-10.26 -5.27,20.68 -5.27,26.13 -5.27,-55.06 -5.27,2.52 -5.28,8.29 -5.27,18.58 -5.27,-20.32 -5.27,38.77 -5.27,-38.22 -5.28,0.35 -5.27,8.15 -5.27,11.75 -5.27,-29.2 -5.27,0.4 -5.27,22.97 -5.28,22.62 -5.27,-44.15 -5.27,-8.42 -5.27,26.31 -5.27,-5.02 -5.28,11.46 -5.27,-24.35 -5.27,36.81 -5.27,12.96 -5.27,-45.56 -5.27,-0.08 -5.28,-21.55 z"
           style="fill:#bebebe;fill-opacity:0.251;fill-rule:nonzero;stroke:none"
           id="path838" />
        <path
           d="m 101.66,332.52 5.28,-1.65 5.27,0.56 5.27,46.93 5.27,-13.88 5.27,-36.89 5.27,25.43 5.28,-11.35 5.27,7.01 5.27,-17.37 5.27,-0.96 5.27,44.76 5.28,-26.02 5.27,-14.97 5.27,11.56 5.27,13.79 5.27,-14.93 5.27,-11.32 5.28,3.67 5.27,46.63 5.27,-55.88 5.27,41.87 5.27,-29.27 5.28,-22 5.27,22.22 5.27,50.27 5.27,-21.13 5.27,-36.55 5.28,29.77 5.27,5.52 5.27,-5.74 5.27,25.64 5.27,-6.52 5.27,-8.84 5.28,-31.32 5.27,-0.42 5.27,1.41 5.27,6.37 5.27,3.87 5.28,20.39 5.27,-22.79 5.27,20.13 5.27,-44.26 5.27,45.16 5.27,-24.5 5.28,12.47 5.27,-32.63 5.27,23.65 5.27,-37.32 5.27,16.39 5.28,15.31 5.27,30.21 5.27,-34.57 5.27,8.53 5.27,15.67 5.27,-21.53 5.28,1.8 5.27,-5.13 5.27,-10.98 5.27,7.49 5.27,3.18 5.28,7.65 5.27,-2.68 15.81,22.17"
           style="fill:none;stroke:#7570b3;stroke-width:1.07;stroke-linecap:round;stroke-linejoin:round;stroke-miterlimit:10;stroke-dasharray:none;stroke-opacity:1"
           id="path840" />
        <path
           d="m 444.33,327.03 -15.81,5.85 -5.27,-14.58 -5.28,-1.08 -5.27,1.95 -5.27,8.22 -5.27,-2.2 -5.27,-1.9 -5.28,4.6 -5.27,25.61 -5.27,-18.58 -5.27,-9.95 -5.27,9.5 -5.27,-17.04 -5.28,1.75 -5.27,5.04 -5.27,10.18 -5.27,-8.64 -5.27,16.91 -5.28,-3.74 -5.27,1.62 -5.27,-15.25 -5.27,28.66 -5.27,-10.3 -5.27,12.93 -5.28,-16.1 -5.27,-12.53 -5.27,-6.16 -5.27,3.14 -5.27,-0.27 -5.28,49.01 -5.27,-5.12 -5.27,13.32 -5.27,-31.1 -5.27,0.53 -5.27,-11.24 -5.28,-10.26 -5.27,20.68 -5.27,26.13 -5.27,-55.06 -5.27,2.52 -5.28,8.29 -5.27,18.58 -5.27,-20.32 -5.27,38.77 -5.27,-38.22 -5.28,0.35 -5.27,8.15 -5.27,11.75 -5.27,-29.2 -5.27,0.4 -5.27,22.97 -5.28,22.62 -5.27,-44.15 -5.27,-8.42 -5.27,26.31 -5.27,-5.02 -5.28,11.46 -5.27,-24.35 -5.27,36.81 -5.27,12.96 -5.27,-45.56 -5.27,-0.08 -5.28,-21.55"
           style="fill:none;stroke:#7570b3;stroke-width:1.07;stroke-linecap:round;stroke-linejoin:round;stroke-miterlimit:10;stroke-dasharray:none;stroke-opacity:1"
           id="path842" />
        <path
           d="m 101.66,306.63 5.28,21.55 5.27,0.08 5.27,45.56 5.27,-12.96 5.27,-36.81 5.27,24.35 5.28,-11.46 5.27,5.02 5.27,-26.31 5.27,8.42 5.27,44.15 5.28,-22.62 5.27,-22.97 5.27,-0.4 5.27,29.2 5.27,-11.75 5.27,-8.15 5.28,-0.35 5.27,38.22 5.27,-38.77 5.27,20.32 5.27,-18.58 5.28,-8.29 5.27,-2.52 5.27,55.06 5.27,-26.13 5.27,-20.68 5.28,10.26 5.27,11.24 5.27,-0.53 5.27,31.1 5.27,-13.32 5.27,5.12 5.28,-49.01 5.27,0.27 5.27,-3.14 5.27,6.16 5.27,12.53 5.28,16.1 5.27,-12.93 5.27,10.3 5.27,-28.66 5.27,15.25 5.27,-1.62 5.28,3.74 5.27,-16.91 5.27,8.64 5.27,-10.18 5.27,-5.04 5.28,-1.75 5.27,17.04 5.27,-9.5 5.27,9.95 5.27,18.58 5.27,-25.61 5.28,-4.6 5.27,1.9 5.27,2.2 5.27,-8.22 5.27,-1.95 5.28,1.08 5.27,14.58 15.81,-5.85"
           style="fill:none;stroke:#d95f02;stroke-width:1.6;stroke-linecap:butt;stroke-linejoin:round;stroke-miterlimit:10;stroke-dasharray:none;stroke-opacity:1"
           id="path844" />
        <path
           d="m 101.66,332.52 5.28,-1.65 5.27,0.56 5.27,46.93 5.27,-13.88 5.27,-36.89 5.27,25.43 5.28,-11.35 5.27,7.01 5.27,-17.37 5.27,-0.96 5.27,44.76 5.28,-26.02 5.27,-14.97 5.27,11.56 5.27,13.79 5.27,-14.93 5.27,-11.32 5.28,3.67 5.27,46.63 5.27,-55.88 5.27,41.87 5.27,-29.27 5.28,-22 5.27,22.22 5.27,50.27 5.27,-21.13 5.27,-36.55 5.28,29.77 5.27,5.52 5.27,-5.74 5.27,25.64 5.27,-6.52 5.27,-8.84 5.28,-31.32 5.27,-0.42 5.27,1.41 5.27,6.37 5.27,3.87 5.28,20.39 5.27,-22.79 5.27,20.13 5.27,-44.26 5.27,45.16 5.27,-24.5 5.28,12.47 5.27,-32.63 5.27,23.65 5.27,-37.32 5.27,16.39 5.28,15.31 5.27,30.21 5.27,-34.57 5.27,8.53 5.27,15.67 5.27,-21.53 5.28,1.8 5.27,-5.13 5.27,-10.98 5.27,7.49 5.27,3.18 5.28,7.65 5.27,-2.68 15.81,22.17"
           style="fill:none;stroke:#7570b3;stroke-width:1.6;stroke-linecap:butt;stroke-linejoin:round;stroke-miterlimit:10;stroke-dasharray:none;stroke-opacity:1"
           id="path846" />
      </g>
    </g>
    <g
       id="g848" />
    <g
       id="g850">
      <g
         id="g852"
         clip-path="url(#clipPath856)">
        <path
           d="m 62.39,187.24 h 400.13 v 92.5 H 62.39 Z"
           style="fill:#ffffff;fill-opacity:1;fill-rule:nonzero;stroke:none"
           id="path858" />
        <path
           d="m 80.58,205.37 5.27,-3.04 5.27,50.54 5.27,-43.87 5.27,2.38 5.28,-4.27 5.27,-0.4 5.27,54.43 5.27,-14.65 5.27,-42.61 5.27,24.52 5.28,-10.16 5.27,7.4 5.27,-17.55 5.27,-1.07 5.27,46.81 5.28,-27.59 5.27,-16.38 5.27,15.6 5.27,13.92 5.27,-12.97 5.27,-9.05 5.28,5.49 5.27,49.29 5.27,-68.93 5.27,45.76 5.27,-34.94 5.28,-20.31 5.27,27.08 5.27,54.73 5.27,-21.85 5.27,-44.6 5.28,32.51 5.27,12.94 5.27,-11.68 5.27,21.51 5.27,3.37 5.27,-9.05 5.28,-34.79 5.27,-6.91 5.27,1.75 5.27,5.27 5.27,4.81 5.28,26.1 5.27,-33.76 5.27,24.94 5.27,-42.7 5.27,51.84 5.27,-30.17 5.28,14.98 5.27,-34.81 5.27,18.28 5.27,-31.95 5.27,15.94 5.28,11.49 5.27,34.6 5.27,-34.19 5.27,5.4 5.27,13.05 5.27,-20.91 5.28,2.86 5.27,-5.83 5.27,-12 5.27,10.96 5.27,2.51 5.28,11.43 5.27,-7.23 15.81,22.25 v -27.97 l -15.81,-4.01 -5.27,-5.16 -5.28,-8.69 -5.27,-0.2 -5.27,-0.45 -5.27,5.75 -5.27,-0.17 -5.28,0.98 -5.27,23.89 -5.27,-14.57 -5.27,-5.93 -5.27,17.46 -5.27,-25.11 -5.28,-2.99 -5.27,-3.28 -5.27,16.04 -5.27,-7.68 -5.27,24.26 -5.28,-8.48 -5.27,13.67 -5.27,-30.64 -5.27,32.74 -5.27,-19.39 -5.27,26.88 -5.28,-21.93 -5.27,-11.19 -5.27,-6.77 -5.27,0.98 -5.27,6.63 -5.28,46.92 -5.27,0.6 -5.27,1.09 -5.27,-24.67 -5.27,7.82 -5.27,-17.04 -5.28,-18.51 -5.27,33.16 -5.27,24.76 -5.27,-56.75 -5.27,-11.3 -5.28,11.92 -5.27,27.28 -5.27,-31.45 -5.27,54.54 -5.27,-44.04 -5.28,-1.85 -5.27,9.13 -5.27,11.1 -5.27,-23.5 -5.27,-7.2 -5.27,20.27 -5.28,26.71 -5.27,-46.86 -5.27,-5.78 -5.27,24.1 -5.27,-5.77 -5.28,9.19 -5.27,-23.96 -5.27,42.43 -5.27,16.35 -5.27,-55.41 -5.27,1.93 -5.28,2.7 -5.27,-1.18 -5.27,42.46 -5.27,-49.85 -5.27,4.37 z"
           style="fill:#bebebe;fill-opacity:0.251;fill-rule:nonzero;stroke:none"
           id="path860" />
        <path
           d="m 80.58,205.37 5.27,-3.04 5.27,50.54 5.27,-43.87 5.27,2.38 5.28,-4.27 5.27,-0.4 5.27,54.43 5.27,-14.65 5.27,-42.61 5.27,24.52 5.28,-10.16 5.27,7.4 5.27,-17.55 5.27,-1.07 5.27,46.81 5.28,-27.59 5.27,-16.38 5.27,15.6 5.27,13.92 5.27,-12.97 5.27,-9.05 5.28,5.49 5.27,49.29 5.27,-68.93 5.27,45.76 5.27,-34.94 5.28,-20.31 5.27,27.08 5.27,54.73 5.27,-21.85 5.27,-44.6 5.28,32.51 5.27,12.94 5.27,-11.68 5.27,21.51 5.27,3.37 5.27,-9.05 5.28,-34.79 5.27,-6.91 5.27,1.75 5.27,5.27 5.27,4.81 5.28,26.1 5.27,-33.76 5.27,24.94 5.27,-42.7 5.27,51.84 5.27,-30.17 5.28,14.98 5.27,-34.81 5.27,18.28 5.27,-31.95 5.27,15.94 5.28,11.49 5.27,34.6 5.27,-34.19 5.27,5.4 5.27,13.05 5.27,-20.91 5.28,2.86 5.27,-5.83 5.27,-12 5.27,10.96 5.27,2.51 5.28,11.43 5.27,-7.23 15.81,22.25"
           style="fill:none;stroke:#d95f02;stroke-width:1.07;stroke-linecap:round;stroke-linejoin:round;stroke-miterlimit:10;stroke-dasharray:none;stroke-opacity:1"
           id="path862" />
        <path
           d="m 444.33,213.92 -15.81,-4.01 -5.27,-5.16 -5.28,-8.69 -5.27,-0.2 -5.27,-0.45 -5.27,5.75 -5.27,-0.17 -5.28,0.98 -5.27,23.89 -5.27,-14.57 -5.27,-5.93 -5.27,17.46 -5.27,-25.11 -5.28,-2.99 -5.27,-3.28 -5.27,16.04 -5.27,-7.68 -5.27,24.26 -5.28,-8.48 -5.27,13.67 -5.27,-30.64 -5.27,32.74 -5.27,-19.39 -5.27,26.88 -5.28,-21.93 -5.27,-11.19 -5.27,-6.77 -5.27,0.98 -5.27,6.63 -5.28,46.92 -5.27,0.6 -5.27,1.09 -5.27,-24.67 -5.27,7.82 -5.27,-17.04 -5.28,-18.51 -5.27,33.16 -5.27,24.76 -5.27,-56.75 -5.27,-11.3 -5.28,11.92 -5.27,27.28 -5.27,-31.45 -5.27,54.54 -5.27,-44.04 -5.28,-1.85 -5.27,9.13 -5.27,11.1 -5.27,-23.5 -5.27,-7.2 -5.27,20.27 -5.28,26.71 -5.27,-46.86 -5.27,-5.78 -5.27,24.1 -5.27,-5.77 -5.28,9.19 -5.27,-23.96 -5.27,42.43 -5.27,16.35 -5.27,-55.41 -5.27,1.93 -5.28,2.7 -5.27,-1.18 -5.27,42.46 -5.27,-49.85 -5.27,4.37"
           style="fill:none;stroke:#d95f02;stroke-width:1.07;stroke-linecap:round;stroke-linejoin:round;stroke-miterlimit:10;stroke-dasharray:none;stroke-opacity:1"
           id="path864" />
        <path
           d="m 80.58,205.37 5.27,-3.04 5.27,50.54 5.27,-43.87 5.27,2.38 5.28,-4.27 5.27,-0.4 5.27,54.43 5.27,-14.65 5.27,-42.61 5.27,24.52 5.28,-10.16 5.27,7.4 5.27,-17.55 5.27,-1.07 5.27,46.81 5.28,-27.59 5.27,-16.38 5.27,15.6 5.27,13.92 5.27,-12.97 5.27,-9.05 5.28,5.49 5.27,49.29 5.27,-68.93 5.27,45.76 5.27,-34.94 5.28,-20.31 5.27,27.08 5.27,54.73 5.27,-21.85 5.27,-44.6 5.28,32.51 5.27,12.94 5.27,-11.68 5.27,21.51 5.27,3.37 5.27,-9.05 5.28,-34.79 5.27,-6.91 5.27,1.75 5.27,5.27 5.27,4.81 5.28,26.1 5.27,-33.76 5.27,24.94 5.27,-42.7 5.27,51.84 5.27,-30.17 5.28,14.98 5.27,-34.81 5.27,18.28 5.27,-31.95 5.27,15.94 5.28,11.49 5.27,34.6 5.27,-34.19 5.27,5.4 5.27,13.05 5.27,-20.91 5.28,2.86 5.27,-5.83 5.27,-12 5.27,10.96 5.27,2.51 5.28,11.43 5.27,-7.23 15.81,22.25 v -27.97 l -15.81,-4.01 -5.27,-5.16 -5.28,-8.69 -5.27,-0.2 -5.27,-0.45 -5.27,5.75 -5.27,-0.17 -5.28,0.98 -5.27,23.89 -5.27,-14.57 -5.27,-5.93 -5.27,17.46 -5.27,-25.11 -5.28,-2.99 -5.27,-3.28 -5.27,16.04 -5.27,-7.68 -5.27,24.26 -5.28,-8.48 -5.27,13.67 -5.27,-30.64 -5.27,32.74 -5.27,-19.39 -5.27,26.88 -5.28,-21.93 -5.27,-11.19 -5.27,-6.77 -5.27,0.98 -5.27,6.63 -5.28,46.92 -5.27,0.6 -5.27,1.09 -5.27,-24.67 -5.27,7.82 -5.27,-17.04 -5.28,-18.51 -5.27,33.16 -5.27,24.76 -5.27,-56.75 -5.27,-11.3 -5.28,11.92 -5.27,27.28 -5.27,-31.45 -5.27,54.54 -5.27,-44.04 -5.28,-1.85 -5.27,9.13 -5.27,11.1 -5.27,-23.5 -5.27,-7.2 -5.27,20.27 -5.28,26.71 -5.27,-46.86 -5.27,-5.78 -5.27,24.1 -5.27,-5.77 -5.28,9.19 -5.27,-23.96 -5.27,42.43 -5.27,16.35 -5.27,-55.41 -5.27,1.93 -5.28,2.7 -5.27,-1.18 -5.27,42.46 -5.27,-49.85 -5.27,4.37 z"
           style="fill:#bebebe;fill-opacity:0.251;fill-rule:nonzero;stroke:none"
           id="path866" />
        <path
           d="m 80.58,205.37 5.27,-3.04 5.27,50.54 5.27,-43.87 5.27,2.38 5.28,-4.27 5.27,-0.4 5.27,54.43 5.27,-14.65 5.27,-42.61 5.27,24.52 5.28,-10.16 5.27,7.4 5.27,-17.55 5.27,-1.07 5.27,46.81 5.28,-27.59 5.27,-16.38 5.27,15.6 5.27,13.92 5.27,-12.97 5.27,-9.05 5.28,5.49 5.27,49.29 5.27,-68.93 5.27,45.76 5.27,-34.94 5.28,-20.31 5.27,27.08 5.27,54.73 5.27,-21.85 5.27,-44.6 5.28,32.51 5.27,12.94 5.27,-11.68 5.27,21.51 5.27,3.37 5.27,-9.05 5.28,-34.79 5.27,-6.91 5.27,1.75 5.27,5.27 5.27,4.81 5.28,26.1 5.27,-33.76 5.27,24.94 5.27,-42.7 5.27,51.84 5.27,-30.17 5.28,14.98 5.27,-34.81 5.27,18.28 5.27,-31.95 5.27,15.94 5.28,11.49 5.27,34.6 5.27,-34.19 5.27,5.4 5.27,13.05 5.27,-20.91 5.28,2.86 5.27,-5.83 5.27,-12 5.27,10.96 5.27,2.51 5.28,11.43 5.27,-7.23 15.81,22.25"
           style="fill:none;stroke:#7570b3;stroke-width:1.07;stroke-linecap:round;stroke-linejoin:round;stroke-miterlimit:10;stroke-dasharray:none;stroke-opacity:1"
           id="path868" />
        <path
           d="m 444.33,213.92 -15.81,-4.01 -5.27,-5.16 -5.28,-8.69 -5.27,-0.2 -5.27,-0.45 -5.27,5.75 -5.27,-0.17 -5.28,0.98 -5.27,23.89 -5.27,-14.57 -5.27,-5.93 -5.27,17.46 -5.27,-25.11 -5.28,-2.99 -5.27,-3.28 -5.27,16.04 -5.27,-7.68 -5.27,24.26 -5.28,-8.48 -5.27,13.67 -5.27,-30.64 -5.27,32.74 -5.27,-19.39 -5.27,26.88 -5.28,-21.93 -5.27,-11.19 -5.27,-6.77 -5.27,0.98 -5.27,6.63 -5.28,46.92 -5.27,0.6 -5.27,1.09 -5.27,-24.67 -5.27,7.82 -5.27,-17.04 -5.28,-18.51 -5.27,33.16 -5.27,24.76 -5.27,-56.75 -5.27,-11.3 -5.28,11.92 -5.27,27.28 -5.27,-31.45 -5.27,54.54 -5.27,-44.04 -5.28,-1.85 -5.27,9.13 -5.27,11.1 -5.27,-23.5 -5.27,-7.2 -5.27,20.27 -5.28,26.71 -5.27,-46.86 -5.27,-5.78 -5.27,24.1 -5.27,-5.77 -5.28,9.19 -5.27,-23.96 -5.27,42.43 -5.27,16.35 -5.27,-55.41 -5.27,1.93 -5.28,2.7 -5.27,-1.18 -5.27,42.46 -5.27,-49.85 -5.27,4.37"
           style="fill:none;stroke:#7570b3;stroke-width:1.07;stroke-linecap:round;stroke-linejoin:round;stroke-miterlimit:10;stroke-dasharray:none;stroke-opacity:1"
           id="path870" />
        <path
           d="m 80.58,200.27 5.27,-4.37 5.27,49.85 5.27,-42.46 5.27,1.18 5.28,-2.7 5.27,-1.93 5.27,55.41 5.27,-16.35 5.27,-42.43 5.27,23.96 5.28,-9.19 5.27,5.77 5.27,-24.1 5.27,5.78 5.27,46.86 5.28,-26.71 5.27,-20.27 5.27,7.2 5.27,23.5 5.27,-11.1 5.27,-9.13 5.28,1.85 5.27,44.04 5.27,-54.54 5.27,31.45 5.27,-27.28 5.28,-11.92 5.27,11.3 5.27,56.75 5.27,-24.76 5.27,-33.16 5.28,18.51 5.27,17.04 5.27,-7.82 5.27,24.67 5.27,-1.09 5.27,-0.6 5.28,-46.92 5.27,-6.63 5.27,-0.98 5.27,6.77 5.27,11.19 5.28,21.93 5.27,-26.88 5.27,19.39 5.27,-32.74 5.27,30.64 5.27,-13.67 5.28,8.48 5.27,-24.26 5.27,7.68 5.27,-16.04 5.27,3.28 5.28,2.99 5.27,25.11 5.27,-17.46 5.27,5.93 5.27,14.57 5.27,-23.89 5.28,-0.98 5.27,0.17 5.27,-5.75 5.27,0.45 5.27,0.2 5.28,8.69 5.27,5.16 15.81,4.01"
           style="fill:none;stroke:#d95f02;stroke-width:1.6;stroke-linecap:butt;stroke-linejoin:round;stroke-miterlimit:10;stroke-dasharray:none;stroke-opacity:1"
           id="path872" />
        <path
           d="m 80.58,205.37 5.27,-3.04 5.27,50.54 5.27,-43.87 5.27,2.38 5.28,-4.27 5.27,-0.4 5.27,54.43 5.27,-14.65 5.27,-42.61 5.27,24.52 5.28,-10.16 5.27,7.4 5.27,-17.55 5.27,-1.07 5.27,46.81 5.28,-27.59 5.27,-16.38 5.27,15.6 5.27,13.92 5.27,-12.97 5.27,-9.05 5.28,5.49 5.27,49.29 5.27,-68.93 5.27,45.76 5.27,-34.94 5.28,-20.31 5.27,27.08 5.27,54.73 5.27,-21.85 5.27,-44.6 5.28,32.51 5.27,12.94 5.27,-11.68 5.27,21.51 5.27,3.37 5.27,-9.05 5.28,-34.79 5.27,-6.91 5.27,1.75 5.27,5.27 5.27,4.81 5.28,26.1 5.27,-33.76 5.27,24.94 5.27,-42.7 5.27,51.84 5.27,-30.17 5.28,14.98 5.27,-34.81 5.27,18.28 5.27,-31.95 5.27,15.94 5.28,11.49 5.27,34.6 5.27,-34.19 5.27,5.4 5.27,13.05 5.27,-20.91 5.28,2.86 5.27,-5.83 5.27,-12 5.27,10.96 5.27,2.51 5.28,11.43 5.27,-7.23 15.81,22.25"
           style="fill:none;stroke:#7570b3;stroke-width:1.6;stroke-linecap:butt;stroke-linejoin:round;stroke-miterlimit:10;stroke-dasharray:none;stroke-opacity:1"
           id="path874" />
      </g>
    </g>
    <g
       id="g876" />
    <g
       id="g878">
      <g
         id="g880"
         clip-path="url(#clipPath884)">
        <path
           d="m 62.39,72.05 h 400.13 v 92.5 H 62.39 Z"
           style="fill:#ffffff;fill-opacity:1;fill-rule:nonzero;stroke:none"
           id="path886" />
        <path
           d="m 80.58,96.76 5.27,3.91 5.27,46.82 5.27,-47.11 5.27,-9.16 5.28,0.68 5.27,-0.8 5.27,29.32 5.27,-0.95 5.27,-31.57 5.27,5.99 5.28,-0.23 5.27,15.07 5.27,-13.54 5.27,2.56 5.27,23.68 5.28,-27.23 5.27,4.82 5.27,2.57 5.27,14.57 5.27,-10.83 5.27,-8.35 5.28,-1.48 5.27,21.2 5.27,-19.45 5.27,10.49 5.27,-18.84 5.28,-5.95 5.27,20.97 5.27,0.65 5.27,17.16 5.27,-27.47 5.28,19.04 5.27,42.78 5.27,4.26 5.27,-37.88 5.27,-6.42 5.27,-16.44 5.28,-5.69 5.27,-3.15 5.27,-1.32 5.27,9.26 5.27,-3.13 5.28,12.6 5.27,-10.69 5.27,19.89 5.27,-15.29 5.27,12.53 5.27,-2.24 5.28,-6.95 5.27,-10.21 5.27,-0.36 5.27,-5.2 5.27,4.4 5.28,-0.36 5.27,18.63 5.27,7.48 5.27,-19.45 5.27,1.15 5.27,-0.78 5.28,-1.42 5.27,35.68 5.27,-37.05 5.27,5.01 5.27,-2.69 5.28,-2.15 5.27,-1.77 15.81,27.2 V 97.89 l -15.81,-17.95 -5.27,2.46 -5.28,-0.16 -5.27,-1.59 -5.27,-2 -5.27,33.83 -5.27,-31.5 -5.28,1.23 -5.27,-0.47 -5.27,-3.96 -5.27,16.49 -5.27,1.68 -5.27,-17.89 -5.28,-1.81 -5.27,1.41 -5.27,2.11 -5.27,0.73 -5.27,10.03 -5.28,5.87 -5.27,2.85 -5.27,-11.92 -5.27,7.49 -5.27,-16.23 -5.27,6.66 -5.28,-6.29 -5.27,1.25 -5.27,-2.42 -5.27,0.81 -5.27,2.21 -5.28,5.26 -5.27,17.11 -5.27,1.47 -5.27,36.92 -5.27,-0.03 -5.27,-47.06 -5.28,-12.44 -5.27,22.44 -5.27,-16.64 -5.27,-1.5 -5.27,-9.06 -5.28,1.76 -5.27,13.06 -5.27,-9.99 -5.27,18.44 -5.27,-19.26 -5.28,1.79 -5.27,10.37 -5.27,6.56 -5.27,-11.33 -5.27,-3.3 -5.27,-3.76 -5.28,28.11 -5.27,-23.42 -5.27,-2.53 -5.27,12.64 -5.27,-12.22 -5.28,-0.47 -5.27,-4.8 -5.27,28.66 -5.27,3.3 -5.27,-29.62 -5.27,-0.71 -5.28,1.42 -5.27,8.35 -5.27,44.01 -5.27,-45.16 -5.27,-4.13 z"
           style="fill:#bebebe;fill-opacity:0.251;fill-rule:nonzero;stroke:none"
           id="path888" />
        <path
           d="m 80.58,96.76 5.27,3.91 5.27,46.82 5.27,-47.11 5.27,-9.16 5.28,0.68 5.27,-0.8 5.27,29.32 5.27,-0.95 5.27,-31.57 5.27,5.99 5.28,-0.23 5.27,15.07 5.27,-13.54 5.27,2.56 5.27,23.68 5.28,-27.23 5.27,4.82 5.27,2.57 5.27,14.57 5.27,-10.83 5.27,-8.35 5.28,-1.48 5.27,21.2 5.27,-19.45 5.27,10.49 5.27,-18.84 5.28,-5.95 5.27,20.97 5.27,0.65 5.27,17.16 5.27,-27.47 5.28,19.04 5.27,42.78 5.27,4.26 5.27,-37.88 5.27,-6.42 5.27,-16.44 5.28,-5.69 5.27,-3.15 5.27,-1.32 5.27,9.26 5.27,-3.13 5.28,12.6 5.27,-10.69 5.27,19.89 5.27,-15.29 5.27,12.53 5.27,-2.24 5.28,-6.95 5.27,-10.21 5.27,-0.36 5.27,-5.2 5.27,4.4 5.28,-0.36 5.27,18.63 5.27,7.48 5.27,-19.45 5.27,1.15 5.27,-0.78 5.28,-1.42 5.27,35.68 5.27,-37.05 5.27,5.01 5.27,-2.69 5.28,-2.15 5.27,-1.77 15.81,27.2"
           style="fill:none;stroke:#d95f02;stroke-width:1.07;stroke-linecap:round;stroke-linejoin:round;stroke-miterlimit:10;stroke-dasharray:none;stroke-opacity:1"
           id="path890" />
        <path
           d="m 444.33,97.89 -15.81,-17.95 -5.27,2.46 -5.28,-0.16 -5.27,-1.59 -5.27,-2 -5.27,33.83 -5.27,-31.5 -5.28,1.23 -5.27,-0.47 -5.27,-3.96 -5.27,16.49 -5.27,1.68 -5.27,-17.89 -5.28,-1.81 -5.27,1.41 -5.27,2.11 -5.27,0.73 -5.27,10.03 -5.28,5.87 -5.27,2.85 -5.27,-11.92 -5.27,7.49 -5.27,-16.23 -5.27,6.66 -5.28,-6.29 -5.27,1.25 -5.27,-2.42 -5.27,0.81 -5.27,2.21 -5.28,5.26 -5.27,17.11 -5.27,1.47 -5.27,36.92 -5.27,-0.03 -5.27,-47.06 -5.28,-12.44 -5.27,22.44 -5.27,-16.64 -5.27,-1.5 -5.27,-9.06 -5.28,1.76 -5.27,13.06 -5.27,-9.99 -5.27,18.44 -5.27,-19.26 -5.28,1.79 -5.27,10.37 -5.27,6.56 -5.27,-11.33 -5.27,-3.3 -5.27,-3.76 -5.28,28.11 -5.27,-23.42 -5.27,-2.53 -5.27,12.64 -5.27,-12.22 -5.28,-0.47 -5.27,-4.8 -5.27,28.66 -5.27,3.3 -5.27,-29.62 -5.27,-0.71 -5.28,1.42 -5.27,8.35 -5.27,44.01 -5.27,-45.16 -5.27,-4.13"
           style="fill:none;stroke:#d95f02;stroke-width:1.07;stroke-linecap:round;stroke-linejoin:round;stroke-miterlimit:10;stroke-dasharray:none;stroke-opacity:1"
           id="path892" />
        <path
           d="m 80.58,96.76 5.27,3.91 5.27,46.82 5.27,-47.11 5.27,-9.16 5.28,0.68 5.27,-0.8 5.27,29.32 5.27,-0.95 5.27,-31.57 5.27,5.99 5.28,-0.23 5.27,15.07 5.27,-13.54 5.27,2.56 5.27,23.68 5.28,-27.23 5.27,4.82 5.27,2.57 5.27,14.57 5.27,-10.83 5.27,-8.35 5.28,-1.48 5.27,21.2 5.27,-19.45 5.27,10.49 5.27,-18.84 5.28,-5.95 5.27,20.97 5.27,0.65 5.27,17.16 5.27,-27.47 5.28,19.04 5.27,42.78 5.27,4.26 5.27,-37.88 5.27,-6.42 5.27,-16.44 5.28,-5.69 5.27,-3.15 5.27,-1.32 5.27,9.26 5.27,-3.13 5.28,12.6 5.27,-10.69 5.27,19.89 5.27,-15.29 5.27,12.53 5.27,-2.24 5.28,-6.95 5.27,-10.21 5.27,-0.36 5.27,-5.2 5.27,4.4 5.28,-0.36 5.27,18.63 5.27,7.48 5.27,-19.45 5.27,1.15 5.27,-0.78 5.28,-1.42 5.27,35.68 5.27,-37.05 5.27,5.01 5.27,-2.69 5.28,-2.15 5.27,-1.77 15.81,27.2 V 97.89 l -15.81,-17.95 -5.27,2.46 -5.28,-0.16 -5.27,-1.59 -5.27,-2 -5.27,33.83 -5.27,-31.5 -5.28,1.23 -5.27,-0.47 -5.27,-3.96 -5.27,16.49 -5.27,1.68 -5.27,-17.89 -5.28,-1.81 -5.27,1.41 -5.27,2.11 -5.27,0.73 -5.27,10.03 -5.28,5.87 -5.27,2.85 -5.27,-11.92 -5.27,7.49 -5.27,-16.23 -5.27,6.66 -5.28,-6.29 -5.27,1.25 -5.27,-2.42 -5.27,0.81 -5.27,2.21 -5.28,5.26 -5.27,17.11 -5.27,1.47 -5.27,36.92 -5.27,-0.03 -5.27,-47.06 -5.28,-12.44 -5.27,22.44 -5.27,-16.64 -5.27,-1.5 -5.27,-9.06 -5.28,1.76 -5.27,13.06 -5.27,-9.99 -5.27,18.44 -5.27,-19.26 -5.28,1.79 -5.27,10.37 -5.27,6.56 -5.27,-11.33 -5.27,-3.3 -5.27,-3.76 -5.28,28.11 -5.27,-23.42 -5.27,-2.53 -5.27,12.64 -5.27,-12.22 -5.28,-0.47 -5.27,-4.8 -5.27,28.66 -5.27,3.3 -5.27,-29.62 -5.27,-0.71 -5.28,1.42 -5.27,8.35 -5.27,44.01 -5.27,-45.16 -5.27,-4.13 z"
           style="fill:#bebebe;fill-opacity:0.251;fill-rule:nonzero;stroke:none"
           id="path894" />
        <path
           d="m 80.58,96.76 5.27,3.91 5.27,46.82 5.27,-47.11 5.27,-9.16 5.28,0.68 5.27,-0.8 5.27,29.32 5.27,-0.95 5.27,-31.57 5.27,5.99 5.28,-0.23 5.27,15.07 5.27,-13.54 5.27,2.56 5.27,23.68 5.28,-27.23 5.27,4.82 5.27,2.57 5.27,14.57 5.27,-10.83 5.27,-8.35 5.28,-1.48 5.27,21.2 5.27,-19.45 5.27,10.49 5.27,-18.84 5.28,-5.95 5.27,20.97 5.27,0.65 5.27,17.16 5.27,-27.47 5.28,19.04 5.27,42.78 5.27,4.26 5.27,-37.88 5.27,-6.42 5.27,-16.44 5.28,-5.69 5.27,-3.15 5.27,-1.32 5.27,9.26 5.27,-3.13 5.28,12.6 5.27,-10.69 5.27,19.89 5.27,-15.29 5.27,12.53 5.27,-2.24 5.28,-6.95 5.27,-10.21 5.27,-0.36 5.27,-5.2 5.27,4.4 5.28,-0.36 5.27,18.63 5.27,7.48 5.27,-19.45 5.27,1.15 5.27,-0.78 5.28,-1.42 5.27,35.68 5.27,-37.05 5.27,5.01 5.27,-2.69 5.28,-2.15 5.27,-1.77 15.81,27.2"
           style="fill:none;stroke:#7570b3;stroke-width:1.07;stroke-linecap:round;stroke-linejoin:round;stroke-miterlimit:10;stroke-dasharray:none;stroke-opacity:1"
           id="path896" />
        <path
           d="m 444.33,97.89 -15.81,-17.95 -5.27,2.46 -5.28,-0.16 -5.27,-1.59 -5.27,-2 -5.27,33.83 -5.27,-31.5 -5.28,1.23 -5.27,-0.47 -5.27,-3.96 -5.27,16.49 -5.27,1.68 -5.27,-17.89 -5.28,-1.81 -5.27,1.41 -5.27,2.11 -5.27,0.73 -5.27,10.03 -5.28,5.87 -5.27,2.85 -5.27,-11.92 -5.27,7.49 -5.27,-16.23 -5.27,6.66 -5.28,-6.29 -5.27,1.25 -5.27,-2.42 -5.27,0.81 -5.27,2.21 -5.28,5.26 -5.27,17.11 -5.27,1.47 -5.27,36.92 -5.27,-0.03 -5.27,-47.06 -5.28,-12.44 -5.27,22.44 -5.27,-16.64 -5.27,-1.5 -5.27,-9.06 -5.28,1.76 -5.27,13.06 -5.27,-9.99 -5.27,18.44 -5.27,-19.26 -5.28,1.79 -5.27,10.37 -5.27,6.56 -5.27,-11.33 -5.27,-3.3 -5.27,-3.76 -5.28,28.11 -5.27,-23.42 -5.27,-2.53 -5.27,12.64 -5.27,-12.22 -5.28,-0.47 -5.27,-4.8 -5.27,28.66 -5.27,3.3 -5.27,-29.62 -5.27,-0.71 -5.28,1.42 -5.27,8.35 -5.27,44.01 -5.27,-45.16 -5.27,-4.13"
           style="fill:none;stroke:#7570b3;stroke-width:1.07;stroke-linecap:round;stroke-linejoin:round;stroke-miterlimit:10;stroke-dasharray:none;stroke-opacity:1"
           id="path898" />
        <path
           d="m 80.58,85.05 5.27,4.13 5.27,45.16 5.27,-44.01 5.27,-8.35 5.28,-1.42 5.27,0.71 5.27,29.62 5.27,-3.3 5.27,-28.66 5.27,4.8 5.28,0.47 5.27,12.22 5.27,-12.64 5.27,2.53 5.27,23.42 5.28,-28.11 5.27,3.76 5.27,3.3 5.27,11.33 5.27,-6.56 5.27,-10.37 5.28,-1.79 5.27,19.26 5.27,-18.44 5.27,9.99 5.27,-13.06 5.28,-1.76 5.27,9.06 5.27,1.5 5.27,16.64 5.27,-22.44 5.28,12.44 5.27,47.06 5.27,0.03 5.27,-36.92 5.27,-1.47 5.27,-17.11 5.28,-5.26 5.27,-2.21 5.27,-0.81 5.27,2.42 5.27,-1.25 5.28,6.29 5.27,-6.66 5.27,16.23 5.27,-7.49 5.27,11.92 5.27,-2.85 5.28,-5.87 5.27,-10.03 5.27,-0.73 5.27,-2.11 5.27,-1.41 5.28,1.81 5.27,17.89 5.27,-1.68 5.27,-16.49 5.27,3.96 5.27,0.47 5.28,-1.23 5.27,31.5 5.27,-33.83 5.27,2 5.27,1.59 5.28,0.16 5.27,-2.46 15.81,17.95"
           style="fill:none;stroke:#d95f02;stroke-width:1.6;stroke-linecap:butt;stroke-linejoin:round;stroke-miterlimit:10;stroke-dasharray:none;stroke-opacity:1"
           id="path900" />
        <path
           d="m 80.58,96.76 5.27,3.91 5.27,46.82 5.27,-47.11 5.27,-9.16 5.28,0.68 5.27,-0.8 5.27,29.32 5.27,-0.95 5.27,-31.57 5.27,5.99 5.28,-0.23 5.27,15.07 5.27,-13.54 5.27,2.56 5.27,23.68 5.28,-27.23 5.27,4.82 5.27,2.57 5.27,14.57 5.27,-10.83 5.27,-8.35 5.28,-1.48 5.27,21.2 5.27,-19.45 5.27,10.49 5.27,-18.84 5.28,-5.95 5.27,20.97 5.27,0.65 5.27,17.16 5.27,-27.47 5.28,19.04 5.27,42.78 5.27,4.26 5.27,-37.88 5.27,-6.42 5.27,-16.44 5.28,-5.69 5.27,-3.15 5.27,-1.32 5.27,9.26 5.27,-3.13 5.28,12.6 5.27,-10.69 5.27,19.89 5.27,-15.29 5.27,12.53 5.27,-2.24 5.28,-6.95 5.27,-10.21 5.27,-0.36 5.27,-5.2 5.27,4.4 5.28,-0.36 5.27,18.63 5.27,7.48 5.27,-19.45 5.27,1.15 5.27,-0.78 5.28,-1.42 5.27,35.68 5.27,-37.05 5.27,5.01 5.27,-2.69 5.28,-2.15 5.27,-1.77 15.81,27.2"
           style="fill:none;stroke:#7570b3;stroke-width:1.6;stroke-linecap:butt;stroke-linejoin:round;stroke-miterlimit:10;stroke-dasharray:none;stroke-opacity:1"
           id="path902" />
      </g>
    </g>
    <g
       id="g904" />
    <g
       id="g906">
      <g
         id="g908"
         clip-path="url(#clipPath912)" />
    </g>
    <path
       d="m 62.39,164.55 h 400.13 v 17.21 H 62.39 Z"
       style="fill:#ffffff;fill-opacity:1;fill-rule:nonzero;stroke:#000000;stroke-width:2.13;stroke-linecap:round;stroke-linejoin:round;stroke-miterlimit:10;stroke-dasharray:none;stroke-opacity:1"
       id="path922"
       clip-path="url(#clipPath3251)" />
    <text
       xml:space="preserve"
       transform="scale(1,-1)"
       style="font-variant:normal;font-weight:normal;font-size:10px;font-family:Helvetica;-inkscape-font-specification:Helvetica;writing-mode:lr-tb;fill:#1a1a1a;fill-opacity:1;fill-rule:nonzero;stroke:none"
       id="text926"
       x="185.3261"
       y="-170.29855"><tspan
         sodipodi:role="line"
         id="tspan924"
         x="185.3261"
         y="-170.29855"
         style="font-weight:bold;font-size:10px">San Rafael Near Green River, UT</tspan></text>
    <g
       id="g928">
      <g
         id="g930"
         clip-path="url(#clipPath934)" />
    </g>
    <g
       id="g936">
      <g
         id="g938"
         clip-path="url(#clipPath942)" />
    </g>
    <g
       id="g944">
      <g
         id="g946"
         clip-path="url(#clipPath950)" />
    </g>
    <g
       id="g952" />
    <g
       id="g954">
      <g
         id="g956"
         clip-path="url(#clipPath960)" />
    </g>
    <path
       d="m 62.39,279.74 h 400.13 v 17.21 H 62.39 Z"
       style="fill:#ffffff;fill-opacity:1;fill-rule:nonzero;stroke:#000000;stroke-width:2.13;stroke-linecap:round;stroke-linejoin:round;stroke-miterlimit:10;stroke-dasharray:none;stroke-opacity:1"
       id="path970"
       clip-path="url(#clipPath3234)" />
    <text
       xml:space="preserve"
       transform="scale(1,-1)"
       style="font-variant:normal;font-weight:normal;font-size:10px;font-family:Helvetica;-inkscape-font-specification:Helvetica;writing-mode:lr-tb;fill:#1a1a1a;fill-opacity:1;fill-rule:nonzero;stroke:none"
       id="text974"
       x="205.35295"
       y="-285.48856"><tspan
         sodipodi:role="line"
         id="tspan972"
         x="205.35295"
         y="-285.48856"
         style="font-weight:bold;font-size:10px">San Juan Near Bluff, UT</tspan></text>
    <g
       id="g976">
      <g
         id="g978"
         clip-path="url(#clipPath982)" />
    </g>
    <g
       id="g984">
      <g
         id="g986"
         clip-path="url(#clipPath990)" />
    </g>
    <g
       id="g992">
      <g
         id="g994"
         clip-path="url(#clipPath998)" />
    </g>
    <g
       id="g1000" />
    <g
       id="g1002">
      <g
         id="g1004"
         clip-path="url(#clipPath1008)" />
    </g>
    <path
       d="m 62.39,394.93 h 400.13 v 17.21 H 62.39 Z"
       style="fill:#ffffff;fill-opacity:1;fill-rule:nonzero;stroke:#000000;stroke-width:2.13;stroke-linecap:round;stroke-linejoin:round;stroke-miterlimit:10;stroke-dasharray:none;stroke-opacity:1"
       id="path1018"
       clip-path="url(#clipPath3217)" />
    <text
       xml:space="preserve"
       transform="scale(1,-1)"
       style="font-variant:normal;font-weight:normal;font-size:10px;font-family:Helvetica;-inkscape-font-specification:Helvetica;writing-mode:lr-tb;fill:#1a1a1a;fill-opacity:1;fill-rule:nonzero;stroke:none"
       id="text1022"
       x="193.00676"
       y="-400.67856"><tspan
         sodipodi:role="line"
         id="tspan1020"
         x="193.00676"
         y="-400.67856"
         style="font-weight:bold;font-size:10px">San Juan Near Archuleta, NM</tspan></text>
    <g
       id="g1024">
      <g
         id="g1026"
         clip-path="url(#clipPath1030)" />
    </g>
    <g
       id="g1032">
      <g
         id="g1034"
         clip-path="url(#clipPath1038)" />
    </g>
    <g
       id="g1040">
      <g
         id="g1042"
         clip-path="url(#clipPath1046)" />
    </g>
    <g
       id="g1048" />
    <g
       id="g1050">
      <g
         id="g1052"
         clip-path="url(#clipPath1056)" />
    </g>
    <path
       d="m 62.39,510.12 h 400.13 v 17.21 H 62.39 Z"
       style="fill:#ffffff;fill-opacity:1;fill-rule:nonzero;stroke:#000000;stroke-width:2.13;stroke-linecap:round;stroke-linejoin:round;stroke-miterlimit:10;stroke-dasharray:none;stroke-opacity:1"
       id="path1066"
       clip-path="url(#clipPath3200)" />
    <text
       xml:space="preserve"
       transform="scale(1,-1)"
       style="font-variant:normal;font-weight:normal;font-size:10px;font-family:Helvetica;-inkscape-font-specification:Helvetica;writing-mode:lr-tb;fill:#1a1a1a;fill-opacity:1;fill-rule:nonzero;stroke:none"
       id="text1070"
       x="194.89641"
       y="-515.97351"><tspan
         sodipodi:role="line"
         id="tspan1068"
         x="194.89641"
         y="-515.97351"
         style="font-weight:bold;font-size:10px">Duchesne Near Randlett, UT</tspan></text>
    <g
       id="g1072">
      <g
         id="g1074"
         clip-path="url(#clipPath1078)" />
    </g>
    <g
       id="g1080">
      <g
         id="g1082"
         clip-path="url(#clipPath1086)" />
    </g>
    <g
       id="g1088">
      <g
         id="g1090"
         clip-path="url(#clipPath1094)" />
    </g>
    <g
       id="g1096" />
    <g
       id="g1098">
      <g
         id="g1100"
         clip-path="url(#clipPath1104)" />
    </g>
    <path
       d="m 62.39,625.31 h 400.13 v 17.21 H 62.39 Z"
       style="fill:#ffffff;fill-opacity:1;fill-rule:nonzero;stroke:#000000;stroke-width:2.13;stroke-linecap:round;stroke-linejoin:round;stroke-miterlimit:10;stroke-dasharray:none;stroke-opacity:1"
       id="path1114"
       clip-path="url(#clipPath3183)" />
    <text
       xml:space="preserve"
       transform="scale(1,-1)"
       style="font-variant:normal;font-weight:normal;font-size:10px;font-family:Helvetica;-inkscape-font-specification:Helvetica;writing-mode:lr-tb;fill:#1a1a1a;fill-opacity:1;fill-rule:nonzero;stroke:none"
       id="text1118"
       x="206.56145"
       y="-631.09515"><tspan
         sodipodi:role="line"
         id="tspan1116"
         x="206.56145"
         y="-631.09515"
         style="font-weight:bold;font-size:10px">Dolores Near Cisco, UT</tspan></text>
    <g
       id="g1120">
      <g
         id="g1122"
         clip-path="url(#clipPath1126)" />
    </g>
    <g
       id="g1128">
      <g
         id="g1130"
         clip-path="url(#clipPath1134)" />
    </g>
    <g
       id="g1136">
      <g
         id="g1138"
         clip-path="url(#clipPath1142)" />
    </g>
    <g
       id="g1144" />
    <g
       id="g1146" />
    <g
       id="g1148" />
    <g
       id="g1150" />
    <g
       id="g1152" />
    <g
       id="g1154" />
    <g
       id="g1156" />
    <g
       id="g1158" />
    <g
       id="g1160" />
    <g
       id="g1162" />
    <g
       id="g1164" />
    <g
       id="g1166" />
    <g
       id="g1168">
      <path
         d="M 62.39,72.05 H 462.52"
         style="fill:none;stroke:#000000;stroke-width:1.07;stroke-linecap:butt;stroke-linejoin:round;stroke-miterlimit:10;stroke-dasharray:none;stroke-opacity:1"
         id="path1170" />
    </g>
    <g
       id="g1172" />
    <g
       id="g1174" />
    <g
       id="g1176">
      <path
         d="m 133.29,69.31 v 2.74"
         style="fill:none;stroke:#333333;stroke-width:1.07;stroke-linecap:butt;stroke-linejoin:round;stroke-miterlimit:10;stroke-dasharray:none;stroke-opacity:1"
         id="path1178" />
      <path
         d="m 238.73,69.31 v 2.74"
         style="fill:none;stroke:#333333;stroke-width:1.07;stroke-linecap:butt;stroke-linejoin:round;stroke-miterlimit:10;stroke-dasharray:none;stroke-opacity:1"
         id="path1180" />
      <path
         d="m 344.17,69.31 v 2.74"
         style="fill:none;stroke:#333333;stroke-width:1.07;stroke-linecap:butt;stroke-linejoin:round;stroke-miterlimit:10;stroke-dasharray:none;stroke-opacity:1"
         id="path1182" />
      <path
         d="m 449.6,69.31 v 2.74"
         style="fill:none;stroke:#333333;stroke-width:1.07;stroke-linecap:butt;stroke-linejoin:round;stroke-miterlimit:10;stroke-dasharray:none;stroke-opacity:1"
         id="path1184" />
    </g>
    <g
       id="g1186" />
    <g
       id="g1188">
      <text
         xml:space="preserve"
         transform="matrix(1,0,0,-1,122.17,59.93)"
         style="font-variant:normal;font-weight:normal;font-size:10px;font-family:Helvetica;-inkscape-font-specification:Helvetica;writing-mode:lr-tb;fill:#4d4d4d;fill-opacity:1;fill-rule:nonzero;stroke:none"
         id="text1192"><tspan
           x="0 5.5599999 11.12 16.68"
           y="0"
           sodipodi:role="line"
           id="tspan1190">1960</tspan></text>
      <text
         xml:space="preserve"
         transform="matrix(1,0,0,-1,227.61,59.93)"
         style="font-variant:normal;font-weight:normal;font-size:10px;font-family:Helvetica;-inkscape-font-specification:Helvetica;writing-mode:lr-tb;fill:#4d4d4d;fill-opacity:1;fill-rule:nonzero;stroke:none"
         id="text1196"><tspan
           x="0 5.5599999 11.12 16.68"
           y="0"
           sodipodi:role="line"
           id="tspan1194">1980</tspan></text>
      <text
         xml:space="preserve"
         transform="matrix(1,0,0,-1,333.05,59.93)"
         style="font-variant:normal;font-weight:normal;font-size:10px;font-family:Helvetica;-inkscape-font-specification:Helvetica;writing-mode:lr-tb;fill:#4d4d4d;fill-opacity:1;fill-rule:nonzero;stroke:none"
         id="text1200"><tspan
           x="0 5.5599999 11.12 16.68"
           y="0"
           sodipodi:role="line"
           id="tspan1198">2000</tspan></text>
      <text
         xml:space="preserve"
         transform="matrix(1,0,0,-1,438.48,59.93)"
         style="font-variant:normal;font-weight:normal;font-size:10px;font-family:Helvetica;-inkscape-font-specification:Helvetica;writing-mode:lr-tb;fill:#4d4d4d;fill-opacity:1;fill-rule:nonzero;stroke:none"
         id="text1204"><tspan
           x="0 5.5599999 11.12 16.68"
           y="0"
           sodipodi:role="line"
           id="tspan1202">2020</tspan></text>
    </g>
    <g
       id="g1206" />
    <g
       id="g1208" />
    <g
       id="g1210" />
    <g
       id="g1212" />
    <g
       id="g1214" />
    <g
       id="g1216" />
    <g
       id="g1218" />
    <g
       id="g1220" />
    <g
       id="g1222" />
    <g
       id="g1224" />
    <g
       id="g1226" />
    <g
       id="g1228" />
    <g
       id="g1230" />
    <g
       id="g1232" />
    <g
       id="g1234">
      <path
         d="m 62.39,532.81 v 92.5"
         style="fill:none;stroke:#000000;stroke-width:1.07;stroke-linecap:butt;stroke-linejoin:round;stroke-miterlimit:10;stroke-dasharray:none;stroke-opacity:1"
         id="path1236" />
    </g>
    <g
       id="g1238" />
    <g
       id="g1240" />
    <g
       id="g1242">
      <text
         xml:space="preserve"
         transform="matrix(1,0,0,-1,51.9,533.04)"
         style="font-variant:normal;font-weight:normal;font-size:10px;font-family:Helvetica;-inkscape-font-specification:Helvetica;writing-mode:lr-tb;fill:#4d4d4d;fill-opacity:1;fill-rule:nonzero;stroke:none"
         id="text1246"><tspan
           x="0"
           y="0"
           id="tspan1244">0</tspan></text>
      <text
         xml:space="preserve"
         transform="matrix(1,0,0,-1,24.1,558.58)"
         style="font-variant:normal;font-weight:normal;font-size:10px;font-family:Helvetica;-inkscape-font-specification:Helvetica;writing-mode:lr-tb;fill:#4d4d4d;fill-opacity:1;fill-rule:nonzero;stroke:none"
         id="text1250"><tspan
           x="0 5.5599999 11.12 16.68 22.24 27.799999"
           y="0"
           sodipodi:role="line"
           id="tspan1248">500000</tspan></text>
      <text
         xml:space="preserve"
         transform="matrix(1,0,0,-1,18.54,584.12)"
         style="font-variant:normal;font-weight:normal;font-size:10px;font-family:Helvetica;-inkscape-font-specification:Helvetica;writing-mode:lr-tb;fill:#4d4d4d;fill-opacity:1;fill-rule:nonzero;stroke:none"
         id="text1254"><tspan
           x="0 5.5599999 11.12 16.68 22.24 27.799999 33.360001"
           y="0"
           sodipodi:role="line"
           id="tspan1252">1000000</tspan></text>
      <text
         xml:space="preserve"
         transform="matrix(1,0,0,-1,18.54,609.65)"
         style="font-variant:normal;font-weight:normal;font-size:10px;font-family:Helvetica;-inkscape-font-specification:Helvetica;writing-mode:lr-tb;fill:#4d4d4d;fill-opacity:1;fill-rule:nonzero;stroke:none"
         id="text1258"><tspan
           x="0 5.5599999 11.12 16.68 22.24 27.799999 33.360001"
           y="0"
           sodipodi:role="line"
           id="tspan1256">1500000</tspan></text>
    </g>
    <g
       id="g1260" />
    <g
       id="g1262" />
    <g
       id="g1264">
      <path
         d="m 59.65,536.63 h 2.74"
         style="fill:none;stroke:#333333;stroke-width:1.07;stroke-linecap:butt;stroke-linejoin:round;stroke-miterlimit:10;stroke-dasharray:none;stroke-opacity:1"
         id="path1266" />
      <path
         d="m 59.65,562.17 h 2.74"
         style="fill:none;stroke:#333333;stroke-width:1.07;stroke-linecap:butt;stroke-linejoin:round;stroke-miterlimit:10;stroke-dasharray:none;stroke-opacity:1"
         id="path1268" />
      <path
         d="m 59.65,587.71 h 2.74"
         style="fill:none;stroke:#333333;stroke-width:1.07;stroke-linecap:butt;stroke-linejoin:round;stroke-miterlimit:10;stroke-dasharray:none;stroke-opacity:1"
         id="path1270" />
      <path
         d="m 59.65,613.24 h 2.74"
         style="fill:none;stroke:#333333;stroke-width:1.07;stroke-linecap:butt;stroke-linejoin:round;stroke-miterlimit:10;stroke-dasharray:none;stroke-opacity:1"
         id="path1272" />
    </g>
    <g
       id="g1274" />
    <g
       id="g1276" />
    <g
       id="g1278" />
    <g
       id="g1280" />
    <g
       id="g1282" />
    <g
       id="g1284">
      <path
         d="m 62.39,417.62 v 92.5"
         style="fill:none;stroke:#000000;stroke-width:1.07;stroke-linecap:butt;stroke-linejoin:round;stroke-miterlimit:10;stroke-dasharray:none;stroke-opacity:1"
         id="path1286" />
    </g>
    <g
       id="g1288" />
    <g
       id="g1290" />
    <g
       id="g1292">
      <text
         xml:space="preserve"
         transform="matrix(1,0,0,-1,51.9,416.31)"
         style="font-variant:normal;font-weight:normal;font-size:10px;font-family:Helvetica;-inkscape-font-specification:Helvetica;writing-mode:lr-tb;fill:#4d4d4d;fill-opacity:1;fill-rule:nonzero;stroke:none"
         id="text1296"><tspan
           x="0"
           y="0"
           id="tspan1294">0</tspan></text>
      <text
         xml:space="preserve"
         transform="matrix(1,0,0,-1,24.1,445.06)"
         style="font-variant:normal;font-weight:normal;font-size:10px;font-family:Helvetica;-inkscape-font-specification:Helvetica;writing-mode:lr-tb;fill:#4d4d4d;fill-opacity:1;fill-rule:nonzero;stroke:none"
         id="text1300"><tspan
           x="0 5.5599999 11.12 16.68 22.24 27.799999"
           y="0"
           sodipodi:role="line"
           id="tspan1298">500000</tspan></text>
      <text
         xml:space="preserve"
         transform="matrix(1,0,0,-1,18.54,473.81)"
         style="font-variant:normal;font-weight:normal;font-size:10px;font-family:Helvetica;-inkscape-font-specification:Helvetica;writing-mode:lr-tb;fill:#4d4d4d;fill-opacity:1;fill-rule:nonzero;stroke:none"
         id="text1304"><tspan
           x="0 5.5599999 11.12 16.68 22.24 27.799999 33.360001"
           y="0"
           sodipodi:role="line"
           id="tspan1302">1000000</tspan></text>
      <text
         xml:space="preserve"
         transform="matrix(1,0,0,-1,18.54,502.56)"
         style="font-variant:normal;font-weight:normal;font-size:10px;font-family:Helvetica;-inkscape-font-specification:Helvetica;writing-mode:lr-tb;fill:#4d4d4d;fill-opacity:1;fill-rule:nonzero;stroke:none"
         id="text1308"><tspan
           x="0 5.5599999 11.12 16.68 22.24 27.799999 33.360001"
           y="0"
           sodipodi:role="line"
           id="tspan1306">1500000</tspan></text>
    </g>
    <g
       id="g1310" />
    <g
       id="g1312" />
    <g
       id="g1314">
      <path
         d="m 59.65,419.9 h 2.74"
         style="fill:none;stroke:#333333;stroke-width:1.07;stroke-linecap:butt;stroke-linejoin:round;stroke-miterlimit:10;stroke-dasharray:none;stroke-opacity:1"
         id="path1316" />
      <path
         d="m 59.65,448.65 h 2.74"
         style="fill:none;stroke:#333333;stroke-width:1.07;stroke-linecap:butt;stroke-linejoin:round;stroke-miterlimit:10;stroke-dasharray:none;stroke-opacity:1"
         id="path1318" />
      <path
         d="m 59.65,477.4 h 2.74"
         style="fill:none;stroke:#333333;stroke-width:1.07;stroke-linecap:butt;stroke-linejoin:round;stroke-miterlimit:10;stroke-dasharray:none;stroke-opacity:1"
         id="path1320" />
      <path
         d="m 59.65,506.15 h 2.74"
         style="fill:none;stroke:#333333;stroke-width:1.07;stroke-linecap:butt;stroke-linejoin:round;stroke-miterlimit:10;stroke-dasharray:none;stroke-opacity:1"
         id="path1322" />
    </g>
    <g
       id="g1324" />
    <g
       id="g1326" />
    <g
       id="g1328" />
    <g
       id="g1330" />
    <g
       id="g1332" />
    <g
       id="g1334">
      <path
         d="m 62.39,302.43 v 92.5"
         style="fill:none;stroke:#000000;stroke-width:1.07;stroke-linecap:butt;stroke-linejoin:round;stroke-miterlimit:10;stroke-dasharray:none;stroke-opacity:1"
         id="path1336" />
    </g>
    <g
       id="g1338" />
    <g
       id="g1340" />
    <g
       id="g1342">
      <text
         xml:space="preserve"
         transform="matrix(1,0,0,-1,51.9,302.53)"
         style="font-variant:normal;font-weight:normal;font-size:10px;font-family:Helvetica;-inkscape-font-specification:Helvetica;writing-mode:lr-tb;fill:#4d4d4d;fill-opacity:1;fill-rule:nonzero;stroke:none"
         id="text1346"><tspan
           x="0"
           y="0"
           id="tspan1344">0</tspan></text>
      <text
         xml:space="preserve"
         transform="matrix(1,0,0,-1,24.1,323.08)"
         style="font-variant:normal;font-weight:normal;font-size:10px;font-family:Helvetica;-inkscape-font-specification:Helvetica;writing-mode:lr-tb;fill:#4d4d4d;fill-opacity:1;fill-rule:nonzero;stroke:none"
         id="text1350"><tspan
           x="0 5.5599999 11.12 16.68 22.24 27.799999"
           y="0"
           sodipodi:role="line"
           id="tspan1348">500000</tspan></text>
      <text
         xml:space="preserve"
         transform="matrix(1,0,0,-1,18.54,343.64)"
         style="font-variant:normal;font-weight:normal;font-size:10px;font-family:Helvetica;-inkscape-font-specification:Helvetica;writing-mode:lr-tb;fill:#4d4d4d;fill-opacity:1;fill-rule:nonzero;stroke:none"
         id="text1354"><tspan
           x="0 5.5599999 11.12 16.68 22.24 27.799999 33.360001"
           y="0"
           sodipodi:role="line"
           id="tspan1352">1000000</tspan></text>
      <text
         xml:space="preserve"
         transform="matrix(1,0,0,-1,18.54,364.19)"
         style="font-variant:normal;font-weight:normal;font-size:10px;font-family:Helvetica;-inkscape-font-specification:Helvetica;writing-mode:lr-tb;fill:#4d4d4d;fill-opacity:1;fill-rule:nonzero;stroke:none"
         id="text1358"><tspan
           x="0 5.5599999 11.12 16.68 22.24 27.799999 33.360001"
           y="0"
           sodipodi:role="line"
           id="tspan1356">1500000</tspan></text>
      <text
         xml:space="preserve"
         transform="matrix(1,0,0,-1,18.54,384.74)"
         style="font-variant:normal;font-weight:normal;font-size:10px;font-family:Helvetica;-inkscape-font-specification:Helvetica;writing-mode:lr-tb;fill:#4d4d4d;fill-opacity:1;fill-rule:nonzero;stroke:none"
         id="text1362"><tspan
           x="0 5.5599999 11.12 16.68 22.24 27.799999 33.360001"
           y="0"
           sodipodi:role="line"
           id="tspan1360">2000000</tspan></text>
    </g>
    <g
       id="g1364" />
    <g
       id="g1366" />
    <g
       id="g1368">
      <path
         d="m 59.65,306.12 h 2.74"
         style="fill:none;stroke:#333333;stroke-width:1.07;stroke-linecap:butt;stroke-linejoin:round;stroke-miterlimit:10;stroke-dasharray:none;stroke-opacity:1"
         id="path1370" />
      <path
         d="m 59.65,326.67 h 2.74"
         style="fill:none;stroke:#333333;stroke-width:1.07;stroke-linecap:butt;stroke-linejoin:round;stroke-miterlimit:10;stroke-dasharray:none;stroke-opacity:1"
         id="path1372" />
      <path
         d="m 59.65,347.23 h 2.74"
         style="fill:none;stroke:#333333;stroke-width:1.07;stroke-linecap:butt;stroke-linejoin:round;stroke-miterlimit:10;stroke-dasharray:none;stroke-opacity:1"
         id="path1374" />
      <path
         d="m 59.65,367.78 h 2.74"
         style="fill:none;stroke:#333333;stroke-width:1.07;stroke-linecap:butt;stroke-linejoin:round;stroke-miterlimit:10;stroke-dasharray:none;stroke-opacity:1"
         id="path1376" />
      <path
         d="m 59.65,388.33 h 2.74"
         style="fill:none;stroke:#333333;stroke-width:1.07;stroke-linecap:butt;stroke-linejoin:round;stroke-miterlimit:10;stroke-dasharray:none;stroke-opacity:1"
         id="path1378" />
    </g>
    <g
       id="g1380" />
    <g
       id="g1382" />
    <g
       id="g1384" />
    <g
       id="g1386" />
    <g
       id="g1388" />
    <g
       id="g1390">
      <path
         d="m 62.39,187.24 v 92.5"
         style="fill:none;stroke:#000000;stroke-width:1.07;stroke-linecap:butt;stroke-linejoin:round;stroke-miterlimit:10;stroke-dasharray:none;stroke-opacity:1"
         id="path1392" />
    </g>
    <g
       id="g1394" />
    <g
       id="g1396" />
    <g
       id="g1398">
      <text
         xml:space="preserve"
         transform="matrix(1,0,0,-1,29.38,200.59)"
         style="font-variant:normal;font-weight:normal;font-size:10px;font-family:Helvetica;-inkscape-font-specification:Helvetica;writing-mode:lr-tb;fill:#4d4d4d;fill-opacity:1;fill-rule:nonzero;stroke:none"
         id="text1402"><tspan
           x="0 5.5599999 11.12 16.959999 22.52"
           y="0"
           sodipodi:role="line"
           id="tspan1400">1e+06</tspan></text>
      <text
         xml:space="preserve"
         transform="matrix(1,0,0,-1,29.38,227.36)"
         style="font-variant:normal;font-weight:normal;font-size:10px;font-family:Helvetica;-inkscape-font-specification:Helvetica;writing-mode:lr-tb;fill:#4d4d4d;fill-opacity:1;fill-rule:nonzero;stroke:none"
         id="text1406"><tspan
           x="0 5.5599999 11.12 16.959999 22.52"
           y="0"
           sodipodi:role="line"
           id="tspan1404">2e+06</tspan></text>
      <text
         xml:space="preserve"
         transform="matrix(1,0,0,-1,29.38,254.12)"
         style="font-variant:normal;font-weight:normal;font-size:10px;font-family:Helvetica;-inkscape-font-specification:Helvetica;writing-mode:lr-tb;fill:#4d4d4d;fill-opacity:1;fill-rule:nonzero;stroke:none"
         id="text1410"><tspan
           x="0 5.5599999 11.12 16.959999 22.52"
           y="0"
           sodipodi:role="line"
           id="tspan1408">3e+06</tspan></text>
    </g>
    <g
       id="g1412" />
    <g
       id="g1414" />
    <g
       id="g1416">
      <path
         d="m 59.65,204.18 h 2.74"
         style="fill:none;stroke:#333333;stroke-width:1.07;stroke-linecap:butt;stroke-linejoin:round;stroke-miterlimit:10;stroke-dasharray:none;stroke-opacity:1"
         id="path1418" />
      <path
         d="m 59.65,230.95 h 2.74"
         style="fill:none;stroke:#333333;stroke-width:1.07;stroke-linecap:butt;stroke-linejoin:round;stroke-miterlimit:10;stroke-dasharray:none;stroke-opacity:1"
         id="path1420" />
      <path
         d="m 59.65,257.71 h 2.74"
         style="fill:none;stroke:#333333;stroke-width:1.07;stroke-linecap:butt;stroke-linejoin:round;stroke-miterlimit:10;stroke-dasharray:none;stroke-opacity:1"
         id="path1422" />
    </g>
    <g
       id="g1424" />
    <g
       id="g1426" />
    <g
       id="g1428" />
    <g
       id="g1430" />
    <g
       id="g1432" />
    <g
       id="g1434">
      <path
         d="m 62.39,72.05 v 92.5"
         style="fill:none;stroke:#000000;stroke-width:1.07;stroke-linecap:butt;stroke-linejoin:round;stroke-miterlimit:10;stroke-dasharray:none;stroke-opacity:1"
         id="path1436" />
    </g>
    <g
       id="g1438" />
    <g
       id="g1440" />
    <g
       id="g1442">
      <text
         xml:space="preserve"
         transform="matrix(1,0,0,-1,29.38,71.51)"
         style="font-variant:normal;font-weight:normal;font-size:10px;font-family:Helvetica;-inkscape-font-specification:Helvetica;writing-mode:lr-tb;fill:#4d4d4d;fill-opacity:1;fill-rule:nonzero;stroke:none"
         id="text1446"><tspan
           x="0 5.5599999 11.12 16.959999 22.52"
           y="0"
           sodipodi:role="line"
           id="tspan1444">0e+00</tspan></text>
      <text
         xml:space="preserve"
         transform="matrix(1,0,0,-1,29.38,90.41)"
         style="font-variant:normal;font-weight:normal;font-size:10px;font-family:Helvetica;-inkscape-font-specification:Helvetica;writing-mode:lr-tb;fill:#4d4d4d;fill-opacity:1;fill-rule:nonzero;stroke:none"
         id="text1450"><tspan
           x="0 5.5599999 11.12 16.959999 22.52"
           y="0"
           sodipodi:role="line"
           id="tspan1448">1e+05</tspan></text>
      <text
         xml:space="preserve"
         transform="matrix(1,0,0,-1,29.38,109.31)"
         style="font-variant:normal;font-weight:normal;font-size:10px;font-family:Helvetica;-inkscape-font-specification:Helvetica;writing-mode:lr-tb;fill:#4d4d4d;fill-opacity:1;fill-rule:nonzero;stroke:none"
         id="text1454"><tspan
           x="0 5.5599999 11.12 16.959999 22.52"
           y="0"
           sodipodi:role="line"
           id="tspan1452">2e+05</tspan></text>
      <text
         xml:space="preserve"
         transform="matrix(1,0,0,-1,29.38,128.2)"
         style="font-variant:normal;font-weight:normal;font-size:10px;font-family:Helvetica;-inkscape-font-specification:Helvetica;writing-mode:lr-tb;fill:#4d4d4d;fill-opacity:1;fill-rule:nonzero;stroke:none"
         id="text1458"><tspan
           x="0 5.5599999 11.12 16.959999 22.52"
           y="0"
           sodipodi:role="line"
           id="tspan1456">3e+05</tspan></text>
      <text
         xml:space="preserve"
         transform="matrix(1,0,0,-1,29.38,147.1)"
         style="font-variant:normal;font-weight:normal;font-size:10px;font-family:Helvetica;-inkscape-font-specification:Helvetica;writing-mode:lr-tb;fill:#4d4d4d;fill-opacity:1;fill-rule:nonzero;stroke:none"
         id="text1462"><tspan
           x="0 5.5599999 11.12 16.959999 22.52"
           y="0"
           sodipodi:role="line"
           id="tspan1460">4e+05</tspan></text>
    </g>
    <g
       id="g1464" />
    <g
       id="g1466" />
    <g
       id="g1468">
      <path
         d="m 59.65,75.1 h 2.74"
         style="fill:none;stroke:#333333;stroke-width:1.07;stroke-linecap:butt;stroke-linejoin:round;stroke-miterlimit:10;stroke-dasharray:none;stroke-opacity:1"
         id="path1470" />
      <path
         d="m 59.65,94 h 2.74"
         style="fill:none;stroke:#333333;stroke-width:1.07;stroke-linecap:butt;stroke-linejoin:round;stroke-miterlimit:10;stroke-dasharray:none;stroke-opacity:1"
         id="path1472" />
      <path
         d="m 59.65,112.9 h 2.74"
         style="fill:none;stroke:#333333;stroke-width:1.07;stroke-linecap:butt;stroke-linejoin:round;stroke-miterlimit:10;stroke-dasharray:none;stroke-opacity:1"
         id="path1474" />
      <path
         d="m 59.65,131.79 h 2.74"
         style="fill:none;stroke:#333333;stroke-width:1.07;stroke-linecap:butt;stroke-linejoin:round;stroke-miterlimit:10;stroke-dasharray:none;stroke-opacity:1"
         id="path1476" />
      <path
         d="m 59.65,150.69 h 2.74"
         style="fill:none;stroke:#333333;stroke-width:1.07;stroke-linecap:butt;stroke-linejoin:round;stroke-miterlimit:10;stroke-dasharray:none;stroke-opacity:1"
         id="path1478" />
    </g>
    <g
       id="g1480" />
    <g
       id="g1482" />
    <g
       id="g1484" />
    <g
       id="g1486" />
    <g
       id="g1488" />
    <g
       id="g1490" />
    <g
       id="g1492" />
    <g
       id="g1494" />
    <g
       id="g1496" />
    <g
       id="g1498" />
    <g
       id="g1500" />
    <g
       id="g1502" />
    <g
       id="g1504" />
    <g
       id="g1506" />
    <g
       id="g1508" />
    <g
       id="g1510" />
    <g
       id="g1512">
      <text
         xml:space="preserve"
         transform="matrix(1,0,0,-1,251.61,47.1)"
         style="font-variant:normal;font-weight:normal;font-size:11px;font-family:Helvetica;-inkscape-font-specification:Helvetica;writing-mode:lr-tb;fill:#000000;fill-opacity:1;fill-rule:nonzero;stroke:none"
         id="text1516"><tspan
           x="0 5.7969999 11.913 18.028999"
           y="0"
           sodipodi:role="line"
           id="tspan1514"
           style="font-weight:bold">Year</tspan></text>
    </g>
    <g
       id="g1518" />
    <g
       id="g1520" />
    <g
       id="g1522">
      <text
         xml:space="preserve"
         transform="matrix(0,1,1,0,13.38,308.72)"
         style="font-variant:normal;font-weight:normal;font-size:11px;font-family:Helvetica;-inkscape-font-specification:Helvetica;writing-mode:lr-tb;fill:#000000;fill-opacity:1;fill-rule:nonzero;stroke:none"
         id="text1526"><tspan
           x="0 7.9419999 10.384 15.884 21.384001 27.5 33.616001 37.278999 43.395 49.346001 52.403999 55.462002 62.799 69.519997 72.578003"
           y="0"
           sodipodi:role="line"
           id="tspan1524"
           style="font-weight:bold">Discharge, AF/Y</tspan></text>
    </g>
    <g
       id="g1528" />
    <g
       id="g1530" />
    <g
       id="g1532" />
    <g
       id="g1534" />
    <g
       id="g1536" />
    <g
       id="g1538" />
    <g
       id="g1540" />
    <g
       id="g1542" />
    <g
       id="g1548" />
    <g
       id="g1550" />
    <g
       id="g1552" />
    <g
       id="g1554" />
    <g
       id="g1556" />
    <g
       id="g1558" />
    <g
       id="g1560" />
    <g
       id="g1562" />
    <g
       id="g1564" />
    <g
       id="g1570" />
    <g
       id="g1572" />
    <g
       id="g1574" />
    <g
       id="g1582" />
    <g
       id="g1584" />
    <g
       id="g1586" />
    <g
       id="g1588" />
    <g
       id="g1590" />
    <g
       id="g1592" />
    <g
       id="g1598" />
    <g
       id="g1600" />
    <g
       id="g1602" />
    <g
       id="g1610" />
    <g
       id="g1612" />
    <g
       id="g1614" />
    <g
       id="g1616" />
    <g
       id="g1618" />
    <g
       id="g1624" />
    <g
       id="g1630" />
    <g
       id="g1632" />
    <g
       id="g1634" />
    <g
       id="g1640" />
    <g
       id="g1646" />
    <g
       id="g1648" />
    <g
       id="g1650" />
    <g
       id="g1658" />
    <g
       id="g1660" />
    <g
       id="g1662" />
    <g
       id="g1664" />
    <g
       id="g1666" />
    <g
       id="g1674" />
    <g
       id="g1676" />
    <g
       id="g1678" />
    <g
       id="g1680" />
    <g
       id="g1682" />
    <g
       id="g1684" />
    <g
       id="g1686" />
    <g
       id="g1688" />
    <g
       id="g1690" />
    <g
       id="g1692" />
    <g
       id="g1694" />
    <g
       id="g1696" />
    <g
       id="g1698" />
    <g
       id="g1700" />
    <g
       id="g1702" />
    <g
       id="g1704" />
    <g
       id="g4543"
       transform="translate(13.625626,-4.7222514)">
      <g
         id="g1594"
         transform="matrix(1.4781642,0,0,1,-255.71154,9.5218069)"
         style="stroke:#000000;stroke-opacity:1">
        <path
           d="M 205.48,5.48 H 466.79 V 33.72 H 205.48 Z"
           style="fill:#ffffff;fill-opacity:1;fill-rule:nonzero;stroke:#000000;stroke-opacity:1"
           id="path1596" />
      </g>
      <g
         id="g4520"
         transform="translate(0.92181653)">
        <g
           id="g1604"
           transform="translate(-159.78083,10.729864)">
          <text
             xml:space="preserve"
             transform="matrix(1,0,0,-1,210.96,15.65)"
             style="font-variant:normal;font-weight:normal;font-size:11px;font-family:Helvetica;-inkscape-font-specification:Helvetica;writing-mode:lr-tb;fill:#000000;fill-opacity:1;fill-rule:nonzero;stroke:none"
             id="text1608"><tspan
               x="0 6.1160002 12.232 18.348 24.464001 30.58"
               y="0"
               sodipodi:role="line"
               id="tspan1606">Legend</tspan></text>
        </g>
        <g
           id="g1626"
           transform="translate(-159.78083,9.5218069)">
          <path
             d="m 254.86,19.6 h 13.83"
             style="fill:none;stroke:#d95f02;stroke-width:1.6;stroke-linecap:butt;stroke-linejoin:round;stroke-miterlimit:10;stroke-dasharray:none;stroke-opacity:1"
             id="path1628" />
        </g>
        <g
           id="g1642"
           transform="translate(-159.78083,9.5218069)">
          <path
             d="M 344.48,19.6 H 358.3"
             style="fill:none;stroke:#7570b3;stroke-width:1.6;stroke-linecap:butt;stroke-linejoin:round;stroke-miterlimit:10;stroke-dasharray:none;stroke-opacity:1"
             id="path1644" />
        </g>
        <g
           id="g1652"
           transform="translate(-159.78083,9.6031253)">
          <text
             xml:space="preserve"
             transform="matrix(1,0,0,-1,275.89,16.37)"
             style="font-variant:normal;font-weight:normal;font-size:9px;font-family:Helvetica;-inkscape-font-specification:Helvetica;writing-mode:lr-tb;fill:#000000;fill-opacity:1;fill-rule:nonzero;stroke:none"
             id="text1656"><tspan
               x="0 7.4970002 12.501 17.504999 22.004999 27.009001 30.006001 35.009998 40.014 42.515999 48.014999 50.013 54.882"
               y="0"
               sodipodi:role="line"
               id="tspan1654">Measured Flow</tspan></text>
        </g>
        <g
           id="g1668"
           transform="translate(-159.78083,9.5372073)">
          <text
             xml:space="preserve"
             transform="matrix(1,0,0,-1,365.51,16.37)"
             style="font-variant:normal;font-weight:normal;font-size:9px;font-family:Helvetica;-inkscape-font-specification:Helvetica;writing-mode:lr-tb;fill:#000000;fill-opacity:1;fill-rule:nonzero;stroke:none"
             id="text1672"><tspan
               x="0 6.4980001 12.501 18.504 25.002001 27.504 33.507 38.007 40.508999 43.011002 45.513 52.011002 57.014999 59.516998 64.521004 67.428001 72.431999 74.43 76.931999 82.431 84.429001 89.297997"
               y="0"
               sodipodi:role="line"
               id="tspan1670">USBR Est. Natural Flow</tspan></text>
        </g>
        <g
           id="g1566"
           transform="translate(237.6667,9.5218069)">
          <path
             d="M 69.79,11.67 H 85.65 V 27.53 H 69.79 Z"
             style="fill:#bebebe;fill-opacity:0.251;fill-rule:nonzero;stroke:none"
             id="path1568" />
        </g>
        <g
           id="g1576"
           transform="translate(239.98917,9.6031253)">
          <text
             xml:space="preserve"
             transform="matrix(1,0,0,-1,91.84,16.37)"
             style="font-variant:normal;font-weight:normal;font-size:9px;font-family:Helvetica;-inkscape-font-specification:Helvetica;writing-mode:lr-tb;fill:#000000;fill-opacity:1;fill-rule:nonzero;stroke:none"
             id="text1580"><tspan
               sodipodi:role="line"
               id="tspan1578"
               x="0"
               y="0">Est. Consumptive uses</tspan></text>
        </g>
      </g>
    </g>
  </g>
</svg>
