<?xml version="1.0" encoding="UTF-8" standalone="no"?>
<!-- Created with Inkscape (http://www.inkscape.org/) -->

<svg
   version="1.1"
   id="svg686"
   width="240"
   height="1056"
   viewBox="0 0 240 1056"
   sodipodi:docname="mgmt_comp.svg"
   inkscape:version="1.2.1 (9c6d41e, 2022-07-14)"
   xmlns:inkscape="http://www.inkscape.org/namespaces/inkscape"
   xmlns:sodipodi="http://sodipodi.sourceforge.net/DTD/sodipodi-0.dtd"
   xmlns="http://www.w3.org/2000/svg"
   xmlns:svg="http://www.w3.org/2000/svg">
  <defs
     id="defs690">
    <clipPath
       clipPathUnits="userSpaceOnUse"
       id="clipPath758">
      <path
         d="m 8.22,264 h 166.3 v 0 z"
         id="path756" />
    </clipPath>
    <clipPath
       clipPathUnits="userSpaceOnUse"
       id="clipPath768">
      <path
         d="m 8.22,525.26 h 166.3 v 0 z"
         id="path766" />
    </clipPath>
    <clipPath
       clipPathUnits="userSpaceOnUse"
       id="clipPath778">
      <path
         d="m 8.22,786.52 h 166.3 v 0 z"
         id="path776" />
    </clipPath>
    <clipPath
       clipPathUnits="userSpaceOnUse"
       id="clipPath1567">
      <g
         id="g1571">
        <path
           d="m 8.22,530.74 h 166.3 V 786.52 H 8.22 Z"
           id="path1569" />
      </g>
    </clipPath>
    <clipPath
       clipPathUnits="userSpaceOnUse"
       id="clipPath1573">
      <g
         id="g1577">
        <path
           d="m 8.22,530.74 h 166.3 V 786.52 H 8.22 Z"
           id="path1575" />
      </g>
    </clipPath>
    <clipPath
       clipPathUnits="userSpaceOnUse"
       id="clipPath1588">
      <g
         id="g1592">
        <path
           d="m 8.22,269.48 h 166.3 V 525.26 H 8.22 Z"
           id="path1590" />
      </g>
    </clipPath>
    <clipPath
       clipPathUnits="userSpaceOnUse"
       id="clipPath1594">
      <g
         id="g1598">
        <path
           d="m 8.22,269.48 h 166.3 V 525.26 H 8.22 Z"
           id="path1596" />
      </g>
    </clipPath>
    <clipPath
       clipPathUnits="userSpaceOnUse"
       id="clipPath1609">
      <g
         id="g1613">
        <path
           d="m 8.22,8.22 h 166.3 V 264 H 8.22 Z"
           id="path1611" />
      </g>
    </clipPath>
    <clipPath
       clipPathUnits="userSpaceOnUse"
       id="clipPath1615">
      <g
         id="g1619">
        <path
           d="m 8.22,8.22 h 166.3 V 264 H 8.22 Z"
           id="path1617" />
      </g>
    </clipPath>
  </defs>
  <sodipodi:namedview
     id="namedview688"
     pagecolor="#ffffff"
     bordercolor="#000000"
     borderopacity="0.25"
     inkscape:showpageshadow="2"
     inkscape:pageopacity="0.0"
     inkscape:pagecheckerboard="0"
     inkscape:deskcolor="#d1d1d1"
     showgrid="false"
     inkscape:zoom="0.43585331"
     inkscape:cx="139.95534"
     inkscape:cy="516.22873"
     inkscape:window-width="1419"
     inkscape:window-height="776"
     inkscape:window-x="0"
     inkscape:window-y="25"
     inkscape:window-maximized="0"
     inkscape:current-layer="g694">
    <inkscape:page
       x="0"
       y="0"
       id="page692"
       width="240"
       height="1056"
       inkscape:export-filename="mgmt_comp.png"
       inkscape:export-xdpi="300"
       inkscape:export-ydpi="300" />
  </sodipodi:namedview>
  <g
     id="g694"
     inkscape:groupmode="layer"
     inkscape:label="Page 1"
     transform="matrix(1.3333333,0,0,-1.3333333,0,1056)">
    <g
       id="g700" />
    <g
       id="g702" />
    <g
       id="g708" />
    <path
       d="m 15.78,542.72 0.41,-0.14 0.42,-0.11 0.41,-0.1 h 0.42 l 0.41,0.02 0.41,0.02 0.42,0.08 0.41,0.04 0.42,-0.04 0.41,0.03 0.41,0.2 0.42,0.09 0.41,0.11 0.42,0.37 0.41,-0.38 0.42,-0.06 0.41,-0.06 0.41,-0.15 0.42,0.05 0.41,-0.01 0.42,0.12 0.41,0.06 0.41,0.1 0.42,-0.12 0.41,0.05 0.42,-0.04 0.41,-0.05 0.42,-0.04 0.41,0.02 0.41,-0.06 0.42,0.06 0.41,0.07 0.42,0.56 0.41,0.02 0.42,-0.38 0.41,-0.04 0.41,-0.11 0.42,0.12 0.41,0.03 0.42,-0.05 0.41,0.04 0.41,-0.04 0.42,0.31 0.41,-0.08 0.42,-0.16 h 0.41 l 0.42,-0.01 0.41,-0.02 0.41,0.04 0.42,0.63 0.41,0.11 0.42,0.01 0.41,0.49 0.42,0.07 0.41,-0.21 0.41,0.28 0.42,0.26 0.41,-0.44 0.42,0.16 0.41,-0.38 0.41,0.17 0.42,1.45 0.41,-0.84 0.42,-0.52 0.41,-0.46 0.42,-0.24 0.41,-0.04 0.41,0.37 0.42,0.07 0.41,0.05 0.42,0.6 0.41,0.14 0.41,0.08 0.42,-0.06 0.41,-0.11 0.42,-0.13 0.41,0.36 0.42,0.31 0.41,0.11 0.41,0.53 0.42,0.71 0.41,0.64 0.42,0.23 0.41,-0.37 0.42,0.61 0.41,-0.51 0.41,-0.19 0.42,0.49 0.41,0.8 0.42,1.32 0.41,1.89 0.41,1.71 0.42,2.77 0.41,2.69 0.42,3.56 0.41,-0.56 0.42,-1.8 0.41,1.5 0.41,2.49 0.42,2.28 0.41,2.54 0.42,1.13 0.41,2.15 0.42,0.88 0.41,0.66 0.41,4.23 0.42,2.99 0.41,1.25 0.42,1.47 0.41,3.76 0.41,6.52 0.42,5.42 0.41,-1.26 0.42,-3.59 0.41,-3.79 0.42,-1.81 0.41,0.44 0.41,-0.22 0.42,2.27 0.41,0.1 0.42,-1.32 0.41,0.31 0.41,1.72 0.42,2.54 0.41,-1.34 0.42,-0.52 0.41,0.91 0.42,-0.71 0.41,-0.37 0.41,1.15 0.42,1.11 0.41,-0.33 0.42,-1.64 0.41,-0.7 0.42,-0.89 0.41,-1.21 0.41,-2.83 0.42,-2.48 0.41,-2.8 0.42,-1.34 0.41,-1.49 0.41,-1.85 0.42,-0.75 0.41,0.27 0.42,0.26 0.41,-0.5 0.42,-0.74 0.41,-0.28 0.41,-0.32 0.42,0.27 0.41,-2.29 0.42,-1.49 0.41,-0.49 0.42,-0.05 0.41,-0.38 0.41,-1.64 0.42,-0.81 0.41,-0.34 0.42,1.33 0.41,-1.09 0.41,-0.58 0.42,0.24 0.41,-1.36 0.42,-0.06 0.41,-1.42 0.42,-1.25 0.41,-0.38 0.41,0.92 0.42,1.7 0.41,0.73 0.42,-1.5 0.41,0.09 0.41,-0.16 0.42,-0.57 0.41,-1.3 0.42,-1.41 0.41,-1.21 0.42,-1.35 0.41,-1.23 0.41,-1.25 0.42,-0.63 0.41,-1.49 0.42,-0.98 0.41,-0.93 0.42,-0.73 0.41,-0.77 0.41,-0.64 0.42,-0.63 0.41,-0.29 0.42,-0.56 0.41,-0.38 0.41,-0.11 0.42,0.29 0.41,-1.24 0.42,-0.53 0.41,-0.01 0.42,-0.41 0.41,-0.12 0.41,-0.59 0.42,-0.31 0.41,-0.12 0.42,0.07 0.41,-0.42 0.42,-0.3 0.41,0.16 0.41,-0.21 0.42,-0.26 0.41,-0.27 0.42,-0.27 0.41,0.17 0.41,-0.05 h 0.42 l 0.41,-0.11 0.42,-0.31 0.41,-0.07 0.42,-0.16 0.41,0.69 0.41,0.63 0.42,-0.32 0.41,1.1 0.42,-0.75 0.41,-0.79 0.41,0.34 0.42,0.01 0.41,-0.28 0.42,-0.4 0.41,-0.15 0.42,-0.07 0.41,0.17 0.41,0.38 0.42,-0.4 0.41,-0.29 0.42,1.18 0.41,-0.13 0.42,-0.08 0.41,-0.08 0.41,-0.58 0.42,-0.12 0.41,0.3 0.42,-0.16 0.41,0.52 0.41,-0.13 0.42,0.15 0.41,-0.34 0.42,-0.23 0.41,-0.23 0.42,-0.21 0.41,0.11 0.41,0.52 0.42,-0.57 0.41,-0.67 0.42,0.42 0.41,0.31 0.42,1.07 0.41,-0.64 0.41,-0.81 0.42,-0.17 0.41,-0.28 0.42,-0.15 0.41,-0.12 0.41,0.48 h 0.42 l 0.41,-0.18 0.42,0.06 0.41,1.36 0.42,0.51 0.41,-0.95 0.41,-0.4 0.42,-0.21 0.41,0.1 0.42,-0.24 0.41,0.7 0.41,0.68 0.42,1.23 0.41,-0.07 0.42,-0.01 0.41,-0.06 0.42,-0.32 0.41,1.28 0.41,-1.98 0.42,-0.29 0.41,-0.33 0.42,-0.18 0.41,0.03 0.42,1.01 0.41,7.97 0.41,-2.47 0.42,-2.9 0.41,-1.09 0.42,-0.79 0.41,-0.35 0.41,-0.28 0.42,1.04 0.41,1 0.42,-0.42 0.41,-0.79 0.42,0.11 0.41,1.47 0.41,-0.59 0.42,-0.85 0.41,-0.34 0.42,-0.18 0.41,-0.39 0.42,-0.49 0.41,-0.14 0.41,-0.33 0.42,-0.22 0.41,-0.06 0.42,-0.09 0.41,-0.02 0.41,0.06 0.42,-0.17 0.41,0.01 0.42,-0.05 0.41,-0.08 0.42,0.02 0.41,-0.05 0.41,-0.11 h 0.42 l 0.41,0.11 0.42,-0.01 0.41,0.12 0.41,0.04 0.42,-0.1 0.41,-0.1 0.42,-0.1 0.41,-0.08 0.42,-0.04 0.41,0.07 0.41,-0.01 0.42,0.01 0.41,0.01 0.42,0.05 0.41,-0.05 0.42,0.03 0.41,0.02 0.41,-0.04 0.42,0.01 0.41,-0.1 0.42,-0.05 0.41,-0.08 0.41,0.01 0.42,0.03 0.41,-0.02 0.42,-0.08 0.41,0.19 0.42,-0.02 0.41,-0.14 0.41,-0.02 0.42,0.06 0.41,-0.08 0.42,-0.04 0.41,-0.03 0.42,0.03 0.41,0.02 0.41,0.09 0.42,0.09 0.41,0.03 0.42,0.03 0.41,-0.07 0.41,-0.07 0.42,-0.04 h 0.41 l 0.42,0.03 0.41,-0.2"
       style="fill:none;stroke:#dbab92;stroke-width:4.27;stroke-linecap:butt;stroke-linejoin:round;stroke-miterlimit:10;stroke-dasharray:none;stroke-opacity:1"
       id="path720"
       clip-path="url(#clipPath1567)" />
    <g
       id="g722" />
    <path
       d="m 15.78,283.6 0.41,-0.28 0.42,-0.22 0.41,-0.2 0.42,-0.01 0.41,0.04 0.41,0.04 0.42,0.17 0.41,0.08 0.42,-0.08 0.41,0.06 0.41,0.4 0.42,0.18 0.41,0.23 0.42,0.73 0.41,-0.77 0.42,-0.12 0.41,-0.1 0.41,-0.31 0.42,0.1 0.41,-0.02 0.42,0.24 0.41,0.12 0.41,0.19 0.42,-0.23 0.41,0.09 0.42,-0.07 0.41,-0.1 0.42,-0.09 0.41,0.05 0.41,-0.12 0.42,0.12 0.41,0.14 0.42,1.11 0.41,0.04 0.42,-0.74 0.41,-0.1 0.41,-0.2 0.42,0.23 0.41,0.05 0.42,-0.09 0.41,0.09 0.41,-0.1 0.42,0.62 0.41,-0.14 0.42,-0.34 h 0.41 0.42 l 0.41,-0.05 0.41,0.07 0.42,1.26 0.41,0.22 0.42,0.02 0.41,0.98 0.42,0.16 0.41,-0.43 0.41,0.55 0.42,0.52 0.41,-0.87 0.42,0.31 0.41,-0.75 0.41,0.33 0.42,2.91 0.41,-1.69 0.42,-1.03 0.41,-0.93 0.42,-0.47 0.41,-0.08 0.41,0.74 0.42,0.13 0.41,0.11 0.42,1.19 0.41,0.29 0.41,0.16 0.42,-0.12 0.41,-0.23 0.42,-0.24 0.41,0.71 0.42,0.63 0.41,0.2 0.41,1.07 0.42,1.42 0.41,1.28 0.42,0.46 0.41,-0.75 0.42,1.22 0.41,-1.02 0.41,-0.38 0.42,0.99 0.41,1.6 0.42,2.64 0.41,3.79 0.41,3.4 0.42,5.54 0.41,5.39 0.42,7.12 0.41,-1.12 0.42,-3.6 0.41,3.01 0.41,4.96 0.42,4.58 0.41,5.06 0.42,2.27 0.41,4.3 0.42,1.77 0.41,1.3 0.41,8.46 0.42,6 0.41,2.49 0.42,2.95 0.41,7.51 0.41,13.04 0.42,10.84 0.41,-2.52 0.42,-7.19 0.41,-7.58 0.42,-3.62 0.41,0.88 0.41,-0.43 0.42,4.55 0.41,0.18 0.42,-2.64 0.41,0.63 0.41,3.44 0.42,5.07 0.41,-2.67 0.42,-1.04 0.41,1.82 0.42,-1.43 0.41,-0.73 0.41,2.29 0.42,2.23 0.41,-0.67 0.42,-3.27 0.41,-1.41 0.42,-1.77 0.41,-2.42 0.41,-5.66 0.42,-4.96 0.41,-5.6 0.42,-2.67 0.41,-2.98 0.41,-3.71 0.42,-1.5 0.41,0.53 0.42,0.52 0.41,-0.99 0.42,-1.48 0.41,-0.56 0.41,-0.64 0.42,0.55 0.41,-4.59 0.42,-2.98 0.41,-0.99 0.42,-0.09 0.41,-0.76 0.41,-3.28 0.42,-1.62 0.41,-0.67 0.42,2.65 0.41,-2.18 0.41,-1.15 0.42,0.47 0.41,-2.73 0.42,-0.12 0.41,-2.83 0.42,-2.49 0.41,-0.77 0.41,1.84 0.42,3.4 0.41,1.46 0.42,-3 0.41,0.17 0.41,-0.31 0.42,-1.15 0.41,-2.59 0.42,-2.81 0.41,-2.44 0.42,-2.7 0.41,-2.44 0.41,-2.51 0.42,-1.26 0.41,-2.99 0.42,-1.95 0.41,-1.86 0.42,-1.46 0.41,-1.55 0.41,-1.27 0.42,-1.26 0.41,-0.59 0.42,-1.11 0.41,-0.77 0.41,-0.21 0.42,0.58 0.41,-2.48 0.42,-1.06 0.41,-0.02 0.42,-0.82 0.41,-0.24 0.41,-1.17 0.42,-0.64 0.41,-0.23 0.42,0.14 0.41,-0.84 0.42,-0.61 0.41,0.33 0.41,-0.42 0.42,-0.51 0.41,-0.55 0.42,-0.54 0.41,0.33 0.41,-0.1 h 0.42 l 0.41,-0.22 0.42,-0.61 0.41,-0.13 0.42,-0.32 0.41,1.37 0.41,1.26 0.42,-0.64 0.41,2.19 0.42,-1.49 0.41,-1.58 0.41,0.68 0.42,0.03 0.41,-0.56 0.42,-0.81 0.41,-0.29 0.42,-0.15 0.41,0.33 0.41,0.77 0.42,-0.8 0.41,-0.57 0.42,2.34 0.41,-0.25 0.42,-0.16 0.41,-0.16 0.41,-1.17 0.42,-0.23 0.41,0.6 0.42,-0.32 0.41,1.03 0.41,-0.25 0.42,0.3 0.41,-0.68 0.42,-0.46 0.41,-0.46 0.42,-0.41 0.41,0.2 0.41,1.04 0.42,-1.14 0.41,-1.32 0.42,0.83 0.41,0.61 0.42,2.15 0.41,-1.28 0.41,-1.62 0.42,-0.35 0.41,-0.55 0.42,-0.31 0.41,-0.24 0.41,0.97 h 0.42 l 0.41,-0.36 0.42,0.12 0.41,2.72 0.42,1.02 0.41,-1.9 0.41,-0.81 0.42,-0.42 0.41,0.2 0.42,-0.47 0.41,1.39 0.41,1.36 0.42,2.47 0.41,-0.13 0.42,-0.02 0.41,-0.14 0.42,-0.64 0.41,2.58 0.41,-3.97 0.42,-0.57 0.41,-0.68 0.42,-0.35 0.41,0.06 0.42,2.02 0.41,15.94 0.41,-4.94 0.42,-5.8 0.41,-2.19 0.42,-1.57 0.41,-0.7 0.41,-0.55 0.42,2.07 0.41,1.99 0.42,-0.83 0.41,-1.59 0.42,0.22 0.41,2.94 0.41,-1.18 0.42,-1.7 0.41,-0.66 0.42,-0.36 0.41,-0.79 0.42,-0.97 0.41,-0.29 0.41,-0.66 0.42,-0.44 0.41,-0.13 0.42,-0.18 0.41,-0.03 0.41,0.11 0.42,-0.34 0.41,0.03 0.42,-0.1 0.41,-0.16 0.42,0.05 0.41,-0.12 0.41,-0.21 h 0.42 l 0.41,0.22 0.42,-0.02 0.41,0.23 0.41,0.09 0.42,-0.2 0.41,-0.2 0.42,-0.2 0.41,-0.16 0.42,-0.08 0.41,0.14 0.41,-0.02 0.42,0.01 0.41,0.03 0.42,0.11 0.41,-0.11 0.42,0.06 0.41,0.04 0.41,-0.08 0.42,0.02 0.41,-0.19 0.42,-0.12 0.41,-0.15 0.41,0.02 0.42,0.06 0.41,-0.05 0.42,-0.15 0.41,0.37 0.42,-0.04 0.41,-0.27 0.41,-0.04 0.42,0.11 0.41,-0.15 0.42,-0.07 0.41,-0.06 0.42,0.05 0.41,0.04 0.41,0.17 0.42,0.18 0.41,0.08 0.42,0.04 0.41,-0.13 0.41,-0.15 0.42,-0.08 h 0.41 l 0.42,0.07 0.41,-0.41"
       style="fill:none;stroke:#ffffff;stroke-width:4.27;stroke-linecap:butt;stroke-linejoin:round;stroke-miterlimit:10;stroke-dasharray:none;stroke-opacity:1"
       id="path734"
       clip-path="url(#clipPath1588)" />
    <g
       id="g736" />
    <path
       d="m 15.78,26.61 0.41,-0.56 0.42,-0.44 0.41,-0.39 0.42,-0.02 0.41,0.09 0.41,0.07 0.42,0.33 0.41,0.16 0.42,-0.16 0.41,0.13 0.41,0.81 0.42,0.34 0.41,0.46 0.42,1.46 0.41,-1.52 0.42,-0.24 0.41,-0.22 0.41,-0.6 0.42,0.19 0.41,-0.04 0.42,0.47 0.41,0.25 0.41,0.39 0.42,-0.47 0.41,0.19 0.42,-0.15 0.41,-0.19 0.42,-0.19 0.41,0.1 0.41,-0.23 0.42,0.24 0.41,0.26 0.42,2.23 0.41,0.09 0.42,-1.5 0.41,-0.19 0.41,-0.41 0.42,0.47 0.41,0.1 0.42,-0.19 0.41,0.18 0.41,-0.18 0.42,1.23 0.41,-0.29 0.42,-0.66 0.41,-0.01 0.42,-0.01 0.41,-0.1 0.41,0.15 0.42,2.52 0.41,0.45 0.42,0.03 0.41,1.96 0.42,0.31 0.41,-0.86 0.41,1.1 0.42,1.05 0.41,-1.74 0.42,0.62 0.41,-1.51 0.41,0.68 0.42,5.81 0.41,-3.39 0.42,-2.04 0.41,-1.87 0.42,-0.94 0.41,-0.16 0.41,1.49 0.42,0.26 0.41,0.22 0.42,2.37 0.41,0.58 0.41,0.32 0.42,-0.25 0.41,-0.45 0.42,-0.49 0.41,1.42 0.42,1.26 0.41,0.41 0.41,2.14 0.42,2.85 0.41,2.54 0.42,0.94 0.41,-1.51 0.42,2.44 0.41,-2.04 0.41,-0.75 0.42,1.97 0.41,3.2 0.42,5.29 0.41,7.56 0.41,6.82 0.42,11.07 0.41,10.77 0.42,14.25 0.41,-2.24 0.42,-7.21 0.41,6.02 0.41,9.93 0.42,9.15 0.41,10.14 0.42,4.52 0.41,8.61 0.42,3.53 0.41,2.61 0.41,16.92 0.42,11.99 0.41,4.99 0.42,5.89 0.41,15.03 0.41,26.08 0.42,21.67 0.41,-5.04 0.42,-14.37 0.41,-15.16 0.42,-7.24 0.41,1.76 0.41,-0.86 0.42,9.09 0.41,0.37 0.42,-5.28 0.41,1.26 0.41,6.87 0.42,10.15 0.41,-5.34 0.42,-2.09 0.41,3.65 0.42,-2.85 0.41,-1.46 0.41,4.58 0.42,4.44 0.41,-1.32 0.42,-6.54 0.41,-2.82 0.42,-3.55 0.41,-4.83 0.41,-11.32 0.42,-9.92 0.41,-11.21 0.42,-5.35 0.41,-5.96 0.41,-7.41 0.42,-3.01 0.41,1.07 0.42,1.04 0.41,-1.99 0.42,-2.95 0.41,-1.12 0.41,-1.28 0.42,1.09 0.41,-9.16 0.42,-5.96 0.41,-1.98 0.42,-0.19 0.41,-1.52 0.41,-6.56 0.42,-3.24 0.41,-1.35 0.42,5.31 0.41,-4.36 0.41,-2.31 0.42,0.95 0.41,-5.45 0.42,-0.25 0.41,-5.66 0.42,-4.99 0.41,-1.53 0.41,3.67 0.42,6.8 0.41,2.93 0.42,-6 0.41,0.35 0.41,-0.63 0.42,-2.3 0.41,-5.19 0.42,-5.62 0.41,-4.87 0.42,-5.4 0.41,-4.89 0.41,-5.02 0.42,-2.52 0.41,-5.96 0.42,-3.92 0.41,-3.71 0.42,-2.92 0.41,-3.1 0.41,-2.55 0.42,-2.51 0.41,-1.18 0.42,-2.22 0.41,-1.54 0.41,-0.42 0.42,1.17 0.41,-4.98 0.42,-2.12 0.41,-0.04 0.42,-1.63 0.41,-0.48 0.41,-2.35 0.42,-1.27 0.41,-0.46 0.42,0.29 0.41,-1.7 0.42,-1.21 0.41,0.65 0.41,-0.82 0.42,-1.04 0.41,-1.09 0.42,-1.08 0.41,0.66 0.41,-0.19 0.42,-0.01 0.41,-0.44 0.42,-1.22 0.41,-0.27 0.42,-0.64 0.41,2.75 0.41,2.51 0.42,-1.27 0.41,4.38 0.42,-2.97 0.41,-3.16 0.41,1.34 0.42,0.06 0.41,-1.12 0.42,-1.61 0.41,-0.59 0.42,-0.3 0.41,0.67 0.41,1.53 0.42,-1.58 0.41,-1.16 0.42,4.69 0.41,-0.5 0.42,-0.32 0.41,-0.33 0.41,-2.33 0.42,-0.47 0.41,1.21 0.42,-0.63 0.41,2.06 0.41,-0.51 0.42,0.6 0.41,-1.36 0.42,-0.92 0.41,-0.92 0.42,-0.83 0.41,0.42 0.41,2.07 0.42,-2.27 0.41,-2.66 0.42,1.68 0.41,1.22 0.42,4.28 0.41,-2.56 0.41,-3.24 0.42,-0.69 0.41,-1.11 0.42,-0.61 0.41,-0.48 0.41,1.95 0.42,-0.01 0.41,-0.72 0.42,0.23 0.41,5.45 0.42,2.04 0.41,-3.81 0.41,-1.61 0.42,-0.83 0.41,0.39 0.42,-0.93 0.41,2.78 0.41,2.71 0.42,4.95 0.41,-0.28 0.42,-0.04 0.41,-0.26 0.42,-1.29 0.41,5.15 0.41,-7.93 0.42,-1.15 0.41,-1.34 0.42,-0.7 0.41,0.11 0.42,4.05 0.41,31.87 0.41,-9.88 0.42,-11.6 0.41,-4.37 0.42,-3.15 0.41,-1.41 0.41,-1.1 0.42,4.16 0.41,3.98 0.42,-1.67 0.41,-3.18 0.42,0.44 0.41,5.88 0.41,-2.36 0.42,-3.4 0.41,-1.33 0.42,-0.72 0.41,-1.58 0.42,-1.94 0.41,-0.58 0.41,-1.32 0.42,-0.86 0.41,-0.27 0.42,-0.36 0.41,-0.05 0.41,0.21 0.42,-0.67 0.41,0.06 0.42,-0.21 0.41,-0.31 0.42,0.08 0.41,-0.23 0.41,-0.43 h 0.42 l 0.41,0.44 0.42,-0.02 0.41,0.45 0.41,0.17 0.42,-0.39 0.41,-0.41 0.42,-0.39 0.41,-0.32 0.42,-0.17 0.41,0.28 0.41,-0.03 0.42,0.02 0.41,0.06 0.42,0.21 0.41,-0.2 0.42,0.11 0.41,0.07 0.41,-0.15 0.42,0.05 0.41,-0.4 0.42,-0.23 0.41,-0.3 0.41,0.04 0.42,0.12 0.41,-0.1 0.42,-0.31 0.41,0.75 0.42,-0.08 0.41,-0.54 0.41,-0.08 0.42,0.22 0.41,-0.29 0.42,-0.16 0.41,-0.12 0.42,0.11 0.41,0.08 0.41,0.34 0.42,0.36 0.41,0.15 0.42,0.09 0.41,-0.25 0.41,-0.31 0.42,-0.16 h 0.41 l 0.42,0.13 0.41,-0.8"
       style="fill:none;stroke:#88d7d8;stroke-width:4.27;stroke-linecap:butt;stroke-linejoin:round;stroke-miterlimit:10;stroke-dasharray:none;stroke-opacity:1"
       id="path748"
       clip-path="url(#clipPath1609)" />
    <g
       id="g750" />
    <g
       id="g752">
      <g
         id="g754"
         clip-path="url(#clipPath758)" />
    </g>
    <g
       id="g760" />
    <g
       id="g762">
      <g
         id="g764"
         clip-path="url(#clipPath768)" />
    </g>
    <g
       id="g770" />
    <g
       id="g772">
      <g
         id="g774"
         clip-path="url(#clipPath778)" />
    </g>
    <g
       id="g780" />
    <g
       id="g782" />
    <g
       id="g784" />
    <g
       id="g786" />
    <g
       id="g788" />
    <g
       id="g790" />
    <g
       id="g792" />
    <g
       id="g794">
      <path
         d="m 8.22,8.22 h 166.3"
         style="fill:none;stroke:#ffffff;stroke-width:1.07;stroke-linecap:butt;stroke-linejoin:round;stroke-miterlimit:10;stroke-dasharray:none;stroke-opacity:1"
         id="path796" />
    </g>
    <g
       id="g798" />
    <g
       id="g800" />
    <g
       id="g802" />
    <g
       id="g804" />
    <g
       id="g806" />
    <g
       id="g808" />
    <g
       id="g810" />
    <g
       id="g812" />
    <g
       id="g814" />
    <g
       id="g816" />
    <g
       id="g818" />
    <g
       id="g820">
      <path
         d="M 8.22,530.74 V 786.52"
         style="fill:none;stroke:#ffffff;stroke-width:1.07;stroke-linecap:butt;stroke-linejoin:round;stroke-miterlimit:10;stroke-dasharray:none;stroke-opacity:1"
         id="path822" />
    </g>
    <g
       id="g824" />
    <g
       id="g826" />
    <g
       id="g828" />
    <g
       id="g830" />
    <g
       id="g832" />
    <g
       id="g834" />
    <g
       id="g836" />
    <g
       id="g838">
      <path
         d="M 8.22,269.48 V 525.26"
         style="fill:none;stroke:#ffffff;stroke-width:1.07;stroke-linecap:butt;stroke-linejoin:round;stroke-miterlimit:10;stroke-dasharray:none;stroke-opacity:1"
         id="path840" />
    </g>
    <g
       id="g842" />
    <g
       id="g844" />
    <g
       id="g846" />
    <g
       id="g848" />
    <g
       id="g850" />
    <g
       id="g852" />
    <g
       id="g854" />
    <g
       id="g856">
      <path
         d="M 8.22,8.22 V 264"
         style="fill:none;stroke:#ffffff;stroke-width:1.07;stroke-linecap:butt;stroke-linejoin:round;stroke-miterlimit:10;stroke-dasharray:none;stroke-opacity:1"
         id="path858" />
    </g>
    <g
       id="g860" />
    <g
       id="g862" />
    <g
       id="g864" />
    <g
       id="g866" />
    <g
       id="g868" />
    <g
       id="g870" />
    <g
       id="g872" />
    <g
       id="g874" />
    <g
       id="g876" />
    <g
       id="g878" />
    <g
       id="g880" />
    <g
       id="g882" />
    <g
       id="g884" />
    <g
       id="g886" />
    <g
       id="g888" />
    <g
       id="g890" />
    <g
       id="g892" />
    <g
       id="g894" />
    <g
       id="g896" />
    <g
       id="g898" />
    <g
       id="g900" />
    <g
       id="g902" />
    <g
       id="g904" />
    <g
       id="g906" />
    <g
       id="g908" />
    <g
       id="g910" />
    <g
       id="g912" />
    <g
       id="g914" />
    <g
       id="g916" />
    <g
       id="g918" />
  </g>
</svg>
