<?xml version="1.0" encoding="UTF-8" standalone="no"?>
<!-- Created with Inkscape (http://www.inkscape.org/) -->

<svg
   version="1.1"
   id="svg7437"
   width="192"
   height="864"
   viewBox="0 0 192 864"
   sodipodi:docname="subset_column_nbg.svg"
   inkscape:version="1.2.1 (9c6d41e, 2022-07-14)"
   xmlns:inkscape="http://www.inkscape.org/namespaces/inkscape"
   xmlns:sodipodi="http://sodipodi.sourceforge.net/DTD/sodipodi-0.dtd"
   xmlns="http://www.w3.org/2000/svg"
   xmlns:svg="http://www.w3.org/2000/svg">
  <defs
     id="defs7441">
    <clipPath
       clipPathUnits="userSpaceOnUse"
       id="clipPath7577">
      <path
         d="m 40.99,106.36 h 97.53 v 0 z"
         id="path7575" />
    </clipPath>
    <clipPath
       clipPathUnits="userSpaceOnUse"
       id="clipPath7587">
      <path
         d="m 40.99,213.59 h 97.53 v 0 z"
         id="path7585" />
    </clipPath>
    <clipPath
       clipPathUnits="userSpaceOnUse"
       id="clipPath7597">
      <path
         d="m 40.99,320.82 h 97.53 v 0 z"
         id="path7595" />
    </clipPath>
    <clipPath
       clipPathUnits="userSpaceOnUse"
       id="clipPath7607">
      <path
         d="m 40.99,428.06 h 97.53 v 0 z"
         id="path7605" />
    </clipPath>
    <clipPath
       clipPathUnits="userSpaceOnUse"
       id="clipPath7617">
      <path
         d="m 40.99,535.29 h 97.53 v 0 z"
         id="path7615" />
    </clipPath>
    <clipPath
       clipPathUnits="userSpaceOnUse"
       id="clipPath7627">
      <path
         d="m 40.99,642.52 h 97.53 v 0 z"
         id="path7625" />
    </clipPath>
    <clipPath
       clipPathUnits="userSpaceOnUse"
       id="clipPath8587">
      <g
         id="g8591">
        <path
           d="m 40.99,556.89 h 97.53 v 85.63 H 40.99 Z"
           id="path8589" />
      </g>
    </clipPath>
    <clipPath
       clipPathUnits="userSpaceOnUse"
       id="clipPath8593">
      <g
         id="g8597">
        <path
           d="m 40.99,556.89 h 97.53 v 85.63 H 40.99 Z"
           id="path8595" />
      </g>
    </clipPath>
    <clipPath
       clipPathUnits="userSpaceOnUse"
       id="clipPath8599">
      <g
         id="g8603">
        <path
           d="m 40.99,556.89 h 97.53 v 85.63 H 40.99 Z"
           id="path8601" />
      </g>
    </clipPath>
    <clipPath
       clipPathUnits="userSpaceOnUse"
       id="clipPath8616">
      <g
         id="g8620">
        <path
           d="m 40.99,449.66 h 97.53 v 85.63 H 40.99 Z"
           id="path8618" />
      </g>
    </clipPath>
    <clipPath
       clipPathUnits="userSpaceOnUse"
       id="clipPath8622">
      <g
         id="g8626">
        <path
           d="m 40.99,449.66 h 97.53 v 85.63 H 40.99 Z"
           id="path8624" />
      </g>
    </clipPath>
    <clipPath
       clipPathUnits="userSpaceOnUse"
       id="clipPath8628">
      <g
         id="g8632">
        <path
           d="m 40.99,449.66 h 97.53 v 85.63 H 40.99 Z"
           id="path8630" />
      </g>
    </clipPath>
    <clipPath
       clipPathUnits="userSpaceOnUse"
       id="clipPath8645">
      <g
         id="g8649">
        <path
           d="m 40.99,342.42 h 97.53 v 85.63 H 40.99 Z"
           id="path8647" />
      </g>
    </clipPath>
    <clipPath
       clipPathUnits="userSpaceOnUse"
       id="clipPath8651">
      <g
         id="g8655">
        <path
           d="m 40.99,342.42 h 97.53 v 85.63 H 40.99 Z"
           id="path8653" />
      </g>
    </clipPath>
    <clipPath
       clipPathUnits="userSpaceOnUse"
       id="clipPath8657">
      <g
         id="g8661">
        <path
           d="m 40.99,342.42 h 97.53 v 85.63 H 40.99 Z"
           id="path8659" />
      </g>
    </clipPath>
    <clipPath
       clipPathUnits="userSpaceOnUse"
       id="clipPath8674">
      <g
         id="g8678">
        <path
           d="m 40.99,235.19 h 97.53 v 85.63 H 40.99 Z"
           id="path8676" />
      </g>
    </clipPath>
    <clipPath
       clipPathUnits="userSpaceOnUse"
       id="clipPath8680">
      <g
         id="g8684">
        <path
           d="m 40.99,235.19 h 97.53 v 85.63 H 40.99 Z"
           id="path8682" />
      </g>
    </clipPath>
    <clipPath
       clipPathUnits="userSpaceOnUse"
       id="clipPath8686">
      <g
         id="g8690">
        <path
           d="m 40.99,235.19 h 97.53 v 85.63 H 40.99 Z"
           id="path8688" />
      </g>
    </clipPath>
    <clipPath
       clipPathUnits="userSpaceOnUse"
       id="clipPath8703">
      <g
         id="g8707">
        <path
           d="m 40.99,127.96 h 97.53 v 85.63 H 40.99 Z"
           id="path8705" />
      </g>
    </clipPath>
    <clipPath
       clipPathUnits="userSpaceOnUse"
       id="clipPath8709">
      <g
         id="g8713">
        <path
           d="m 40.99,127.96 h 97.53 v 85.63 H 40.99 Z"
           id="path8711" />
      </g>
    </clipPath>
    <clipPath
       clipPathUnits="userSpaceOnUse"
       id="clipPath8715">
      <g
         id="g8719">
        <path
           d="m 40.99,127.96 h 97.53 v 85.63 H 40.99 Z"
           id="path8717" />
      </g>
    </clipPath>
    <clipPath
       clipPathUnits="userSpaceOnUse"
       id="clipPath8732">
      <g
         id="g8736">
        <path
           d="m 40.99,20.73 h 97.53 v 85.63 H 40.99 Z"
           id="path8734" />
      </g>
    </clipPath>
    <clipPath
       clipPathUnits="userSpaceOnUse"
       id="clipPath8738">
      <g
         id="g8742">
        <path
           d="m 40.99,20.73 h 97.53 v 85.63 H 40.99 Z"
           id="path8740" />
      </g>
    </clipPath>
    <clipPath
       clipPathUnits="userSpaceOnUse"
       id="clipPath8744">
      <g
         id="g8748">
        <path
           d="m 40.99,20.73 h 97.53 v 85.63 H 40.99 Z"
           id="path8746" />
      </g>
    </clipPath>
  </defs>
  <sodipodi:namedview
     id="namedview7439"
     pagecolor="#ffffff"
     bordercolor="#000000"
     borderopacity="0.25"
     inkscape:showpageshadow="2"
     inkscape:pageopacity="0.0"
     inkscape:pagecheckerboard="0"
     inkscape:deskcolor="#d1d1d1"
     showgrid="false"
     inkscape:zoom="0.65972222"
     inkscape:cx="83.368421"
     inkscape:cy="462.31579"
     inkscape:window-width="1419"
     inkscape:window-height="764"
     inkscape:window-x="0"
     inkscape:window-y="25"
     inkscape:window-maximized="0"
     inkscape:current-layer="g7445">
    <inkscape:page
       x="0"
       y="0"
       id="page7443"
       width="192"
       height="864"
       inkscape:export-filename="subset_col_nbg.png"
       inkscape:export-xdpi="96"
       inkscape:export-ydpi="96" />
  </sodipodi:namedview>
  <g
     id="g7445"
     inkscape:groupmode="layer"
     inkscape:label="Page 1"
     transform="matrix(1.3333333,0,0,-1.3333333,0,864)">
    <g
       id="g7451" />
    <g
       id="g7453" />
    <g
       id="g7455" />
    <g
       id="g7457" />
    <g
       id="g7459" />
    <g
       id="g7461" />
    <g
       id="g7463" />
    <g
       id="g7465" />
    <g
       id="g7467" />
    <g
       id="g7473" />
    <path
       d="m 45.42,561.39 0.25,0.09 0.24,-0.01 0.24,-0.04 0.25,-0.05 0.24,0.11 0.24,0.14 0.24,-0.06 0.25,0.08 0.24,0.11 0.24,0.03 0.25,-0.12 0.24,-0.04 0.24,0.01 0.24,-0.02 0.25,-0.04 0.24,-0.01 h 0.24 0.25 l 0.24,0.02 0.24,0.01 0.25,-0.03 0.24,-0.01 0.24,-0.01 0.24,-0.09 0.25,0.04 0.24,0.06 0.24,-0.05 0.25,0.06 0.24,0.05 0.24,0.1 0.24,0.06 0.25,0.01 0.24,0.21 0.24,0.32 0.25,-0.32 0.24,-0.06 0.24,-0.07 h 0.24 l 0.25,0.05 0.24,0.01 0.24,0.07 0.25,-0.03 0.24,0.04 0.24,0.09 0.25,0.57 0.24,0.64 0.24,-0.84 0.24,-0.23 0.25,0.03 0.24,-0.09 0.24,-0.09 0.25,0.03 0.24,0.06 0.24,-0.01 0.24,-0.11 0.25,-0.1 0.24,0.02 0.24,0.21 0.25,0.32 0.24,0.3 0.24,0.61 0.24,-0.43 0.25,-0.33 0.24,-0.12 0.24,0.07 0.25,0.08 0.24,0.18 0.24,-0.14 0.25,-0.14 0.24,-0.02 0.24,1.19 0.24,0.5 0.25,-0.46 0.24,0.05 0.24,0.43 0.25,0.31 0.24,0.52 0.24,0.61 0.24,0.33 0.25,0.01 0.24,0.19 0.24,-0.22 0.25,-0.38 0.24,-0.38 0.24,0.01 0.24,-0.19 0.25,0.36 0.24,0.44 0.24,0.43 0.25,0.57 0.24,0.42 h 0.24 l 0.25,0.28 0.24,0.2 0.24,0.83 0.24,0.83 0.25,0.67 0.24,1.02 0.24,1.01 0.25,-0.17 0.24,-1.13 0.24,-0.6 0.24,-0.19 h 0.25 l 0.24,0.95 0.24,0.6 0.25,0.78 0.24,1.1 0.24,0.95 0.24,-0.46 0.25,-0.51 0.24,-0.35 0.24,0.05 0.25,-0.42 0.24,0.45 0.24,0.62 0.24,-0.09 0.25,-0.32 0.24,0.85 0.24,0.89 0.25,-0.22 0.24,-0.46 0.24,-1.1 0.25,0.73 0.24,0.75 0.24,0.87 0.24,0.85 0.25,-0.54 0.24,-1.29 0.24,-1.12 0.25,-0.9 0.24,-0.72 0.24,-0.02 0.24,0.26 0.25,0.27 0.24,0.86 0.24,0.35 0.25,-0.36 0.24,-0.23 0.24,-0.4 0.24,-0.16 0.25,-0.44 0.24,0.49 0.24,0.02 0.25,-0.29 0.24,-0.13 0.24,-0.19 0.25,0.06 0.24,-0.58 0.24,-0.18 0.24,-0.6 0.25,0.44 0.24,0.97 0.24,0.82 0.25,1.38 0.24,2.29 0.24,2.77 0.24,1.24 0.25,0.57 0.24,0.7 0.24,1.2 0.25,0.58 0.24,-0.39 0.24,-0.51 0.24,-0.73 0.25,-0.78 0.24,-1.04 0.24,-1.56 0.25,-1.8 0.24,-1 0.24,0.67 0.25,-0.42 0.24,-0.64 0.24,-1.58 0.24,-1.97 0.25,-0.76 0.24,-0.42 0.24,-0.02 0.25,-0.55 0.24,0.47 0.24,0.31 0.24,0.18 0.25,-0.16 0.24,-0.42 0.24,-0.92 0.25,-0.93 0.24,-0.42 0.24,0.05 0.24,-0.91 0.25,-0.8 0.24,-0.74 0.24,-0.69 0.25,0.07 0.24,-0.05 0.24,0.41 0.25,-0.16 0.24,-0.82 0.24,-0.32 0.24,-0.35 0.25,-0.16 0.24,0.01 0.24,0.14 0.25,-0.03 0.24,-0.07 0.24,0.65 0.24,-0.14 0.25,0.61 0.24,-0.17 0.24,-0.54 0.25,0.09 0.24,-0.21 0.24,-0.11 0.24,-0.11 0.25,1.21 0.24,-1.04 0.24,-0.52 0.25,0.03 0.24,0.28 0.24,0.33 0.24,-0.15 0.25,-0.95 0.24,-0.48 0.24,-0.1 0.25,-0.01 0.24,-0.27 0.24,-0.02 0.25,-0.16 0.24,-0.12 0.24,-0.02 0.24,0.54 0.25,1.87 0.24,-1.07 0.24,-0.71 0.25,-0.5 0.24,-0.03 0.24,-0.14 0.24,0.03 0.25,1.18 0.24,-0.45 0.24,-0.61 0.25,-0.19 0.24,-0.12 0.24,-0.14 0.24,-0.07 0.25,0.08 0.24,-0.07 0.24,0.17 0.25,-0.02 0.24,-0.03 0.24,-0.28 0.25,-0.13 0.24,-0.09 h 0.24 l 0.24,0.18 0.25,-0.19 0.24,-0.05 0.24,0.03 0.25,-0.08 0.24,0.07 0.24,-0.13 0.24,-0.15 0.25,-0.04 0.24,-0.04 0.24,0.05 0.25,0.48 0.24,-0.08 0.24,-0.14 0.24,0.03 0.25,-0.12 0.24,-0.08 0.24,0.12 0.25,0.09 0.24,-0.16 0.24,0.01 0.25,0.05 h 0.24 l 0.24,0.38 0.24,0.4 0.25,0.43 0.24,0.05 0.24,-0.43 0.25,-0.2 0.24,0.13 0.24,-0.1 0.24,-0.04 0.25,-0.03 0.24,0.08 0.24,-0.06 0.25,0.01 0.24,0.03 0.24,0.03 0.24,0.03 0.25,0.17 0.24,0.11 0.24,0.54 0.25,-0.32 0.24,-0.18 0.24,-0.09 0.25,0.09 0.24,0.02 0.24,-0.09 0.24,-0.02 0.25,0.01 0.24,-0.03 0.24,-0.06 0.25,0.04 0.24,0.05 0.24,0.12 0.24,-0.07 0.25,-0.08 0.24,-0.04 0.24,-0.04 0.25,0.02 0.24,0.03 0.24,-0.03 0.24,-0.03 0.25,-0.09 0.24,-0.04 0.24,0.03 0.25,0.12 0.24,-0.02 0.24,-0.07 0.25,-0.04 0.24,-0.05 0.24,0.05 h 0.24 0.25 l 0.24,0.02 0.24,0.01 0.25,-0.11 0.24,-0.06 0.24,0.08 0.24,0.21 0.25,-0.03 0.24,-0.34 0.24,-0.07 0.25,0.01 0.24,-0.01 0.24,-0.11 0.24,0.05 0.25,0.1 0.24,0.02 0.24,0.09 0.25,-0.01 0.24,-0.07 h 0.24 l 0.24,0.07 h 0.25 l 0.24,0.01 0.24,-0.13 0.25,0.03 0.24,-0.04 0.24,-0.09 0.25,-0.02 0.24,0.04 0.24,0.08 0.24,-0.01 0.25,0.25 0.24,0.01 0.24,-0.07 0.25,-0.25 0.24,-0.02 0.24,0.01 0.24,0.04 0.25,0.32"
       style="fill:none;stroke:#d95f02;stroke-width:1.6;stroke-linecap:butt;stroke-linejoin:round;stroke-miterlimit:10;stroke-dasharray:none;stroke-opacity:1"
       id="path7485"
       clip-path="url(#clipPath8593)" />
    <path
       d="m 45.42,562.8 0.25,-0.18 0.24,-0.15 0.24,-0.13 0.25,-0.01 0.24,0.03 0.24,0.03 0.24,0.11 0.25,0.05 0.24,-0.05 0.24,0.04 0.25,0.27 0.24,0.12 0.24,0.15 0.24,0.49 0.25,-0.51 0.24,-0.08 0.24,-0.07 0.25,-0.21 0.24,0.07 0.24,-0.01 0.25,0.15 0.24,0.08 0.24,0.14 0.24,-0.16 0.25,0.06 0.24,-0.05 0.24,-0.06 0.25,-0.07 0.24,0.04 0.24,-0.08 0.24,0.08 0.25,0.09 0.24,0.75 0.24,0.03 0.25,-0.5 0.24,-0.07 0.24,-0.14 0.24,0.16 0.25,0.03 0.24,-0.06 0.24,0.06 0.25,-0.06 0.24,0.41 0.24,-0.09 0.25,-0.23 h 0.24 0.24 l 0.24,-0.04 0.25,0.05 0.24,0.85 0.24,0.15 0.25,0.01 0.24,0.66 0.24,0.11 0.24,-0.29 0.25,0.37 0.24,0.35 0.24,-0.59 0.25,0.21 0.24,-0.51 0.24,0.23 0.24,1.95 0.25,-1.13 0.24,-0.69 0.24,-0.63 0.25,-0.31 0.24,-0.06 0.24,0.5 0.25,0.09 0.24,0.07 0.24,0.8 0.24,0.19 0.25,0.11 0.24,-0.08 0.24,-0.15 0.25,-0.17 0.24,0.48 0.24,0.42 0.24,0.14 0.25,0.72 0.24,0.96 0.24,0.85 0.25,0.31 0.24,-0.5 0.24,0.82 0.24,-0.69 0.25,-0.25 0.24,0.66 0.24,1.08 0.25,1.77 0.24,2.54 0.24,2.29 0.25,3.72 0.24,3.62 0.24,4.79 0.24,-0.76 0.25,-2.42 0.24,2.02 0.24,3.34 0.25,3.07 0.24,3.4 0.24,1.53 0.24,2.89 0.25,1.18 0.24,0.88 0.24,5.68 0.25,4.03 0.24,1.67 0.24,1.98 0.24,5.05 0.25,8.76 0.24,7.28 0.24,-1.7 0.25,-4.82 0.24,-5.09 0.24,-2.43 0.24,0.59 0.25,-0.29 0.24,3.05 0.24,0.12 0.25,-1.77 0.24,0.42 0.24,2.31 0.25,3.41 0.24,-1.79 0.24,-0.7 0.24,1.22 0.25,-0.96 0.24,-0.49 0.24,1.54 0.25,1.49 0.24,-0.44 0.24,-2.2 0.24,-0.95 0.25,-1.19 0.24,-1.62 0.24,-3.8 0.25,-3.33 0.24,-3.77 0.24,-1.79 0.24,-2 0.25,-2.5 0.24,-1.01 0.24,0.36 0.25,0.35 0.24,-0.66 0.24,-1 0.25,-0.37 0.24,-0.43 0.24,0.37 0.24,-3.08 0.25,-2.01 0.24,-0.66 0.24,-0.06 0.25,-0.51 0.24,-2.21 0.24,-1.08 0.24,-0.46 0.25,1.79 0.24,-1.47 0.24,-0.77 0.25,0.32 0.24,-1.84 0.24,-0.08 0.24,-1.9 0.25,-1.68 0.24,-0.51 0.24,1.23 0.25,2.29 0.24,0.98 0.24,-2.01 0.25,0.11 0.24,-0.21 0.24,-0.77 0.24,-1.74 0.25,-1.89 0.24,-1.64 0.24,-1.81 0.25,-1.64 0.24,-1.69 0.24,-0.85 0.24,-2 0.25,-1.31 0.24,-1.25 0.24,-0.98 0.25,-1.04 0.24,-0.86 0.24,-0.84 0.24,-0.4 0.25,-0.74 0.24,-0.52 0.24,-0.14 0.25,0.39 0.24,-1.67 0.24,-0.71 0.25,-0.02 0.24,-0.54 0.24,-0.16 0.24,-0.8 0.25,-0.42 0.24,-0.16 0.24,0.1 0.25,-0.57 0.24,-0.41 0.24,0.22 0.24,-0.27 0.25,-0.35 0.24,-0.37 0.24,-0.36 0.25,0.22 0.24,-0.06 0.24,-0.01 0.24,-0.14 0.25,-0.42 0.24,-0.08 0.24,-0.22 0.25,0.92 0.24,0.85 0.24,-0.43 0.24,1.47 0.25,-1 0.24,-1.06 0.24,0.45 0.25,0.02 0.24,-0.37 0.24,-0.54 0.25,-0.2 0.24,-0.1 0.24,0.22 0.24,0.52 0.25,-0.54 0.24,-0.38 0.24,1.57 0.25,-0.17 0.24,-0.1 0.24,-0.12 0.24,-0.78 0.25,-0.16 0.24,0.41 0.24,-0.21 0.25,0.69 0.24,-0.17 0.24,0.2 0.24,-0.45 0.25,-0.32 0.24,-0.3 0.24,-0.28 0.25,0.14 0.24,0.7 0.24,-0.77 0.25,-0.89 0.24,0.56 0.24,0.41 0.24,1.44 0.25,-0.86 0.24,-1.09 0.24,-0.23 0.25,-0.37 0.24,-0.21 0.24,-0.16 0.24,0.65 h 0.25 l 0.24,-0.24 0.24,0.08 0.25,1.83 0.24,0.68 0.24,-1.28 0.24,-0.54 0.25,-0.28 0.24,0.13 0.24,-0.31 0.25,0.94 0.24,0.91 0.24,1.66 0.25,-0.09 0.24,-0.02 0.24,-0.09 0.24,-0.43 0.25,1.73 0.24,-2.66 0.24,-0.39 0.25,-0.45 0.24,-0.23 0.24,0.03 0.24,1.36 0.25,10.71 0.24,-3.32 0.24,-3.9 0.25,-1.47 0.24,-1.05 0.24,-0.48 0.24,-0.36 0.25,1.39 0.24,1.34 0.24,-0.56 0.25,-1.07 0.24,0.15 0.24,1.97 0.25,-0.79 0.24,-1.14 0.24,-0.45 0.24,-0.24 0.25,-0.53 0.24,-0.65 0.24,-0.2 0.25,-0.44 0.24,-0.29 0.24,-0.09 0.24,-0.12 0.25,-0.02 0.24,0.07 0.24,-0.22 0.25,0.02 0.24,-0.07 0.24,-0.11 0.24,0.03 0.25,-0.08 0.24,-0.14 h 0.24 l 0.25,0.14 h 0.24 l 0.24,0.15 0.25,0.06 0.24,-0.13 0.24,-0.14 0.24,-0.13 0.25,-0.11 0.24,-0.06 0.24,0.1 0.25,-0.01 h 0.24 l 0.24,0.02 0.24,0.08 0.25,-0.07 0.24,0.03 0.24,0.03 0.25,-0.05 0.24,0.01 0.24,-0.13 0.24,-0.08 0.25,-0.1 0.24,0.01 0.24,0.05 0.25,-0.04 0.24,-0.1 0.24,0.25 0.24,-0.03 0.25,-0.18 0.24,-0.03 0.24,0.08 0.25,-0.1 0.24,-0.05 0.24,-0.04 0.25,0.03 0.24,0.03 0.24,0.12 0.24,0.11 0.25,0.06 0.24,0.03 0.24,-0.09 0.25,-0.1 0.24,-0.05 0.24,-0.01 0.24,0.05 0.25,-0.27"
       style="fill:none;stroke:#7570b3;stroke-width:1.6;stroke-linecap:butt;stroke-linejoin:round;stroke-miterlimit:10;stroke-dasharray:none;stroke-opacity:1"
       id="path7487"
       clip-path="url(#clipPath8587)" />
    <g
       id="g7489" />
    <path
       d="m 45.42,456.44 0.25,-0.02 0.24,0.15 0.24,0.05 0.25,-0.07 0.24,-0.15 0.24,-0.09 0.24,0.1 0.25,0.07 0.24,-0.02 0.24,0.11 0.25,0.12 0.24,-0.3 0.24,0.01 0.24,0.33 0.25,-0.02 0.24,-0.13 0.24,-0.12 0.25,0.18 0.24,0.02 0.24,0.05 0.25,0.07 0.24,0.07 0.24,0.23 0.24,0.13 0.25,0.13 0.24,-0.03 0.24,-0.05 0.25,0.29 0.24,0.08 0.24,0.05 0.24,-0.13 0.25,-0.21 0.24,-0.09 0.24,0.12 0.25,0.01 0.24,0.13 0.24,0.1 0.24,0.14 0.25,0.01 0.24,-0.11 0.24,0.09 0.25,0.27 0.24,0.02 0.24,0.23 0.25,0.15 0.24,0.08 0.24,0.1 0.24,0.12 0.25,0.12 0.24,-0.04 0.24,-0.03 0.25,0.27 0.24,0.32 0.24,-0.3 0.24,-0.12 0.25,0.14 0.24,0.28 0.24,-0.13 0.25,0.06 0.24,-0.05 0.24,0.1 0.24,-0.11 0.25,0.19 0.24,-0.06 0.24,0.08 0.25,0.28 0.24,0.31 0.24,0.46 0.25,0.35 0.24,0.32 0.24,0.11 0.24,-0.12 0.25,-0.22 0.24,-0.02 0.24,-0.05 0.25,-0.3 0.24,-0.1 0.24,-0.22 0.24,-0.12 0.25,0.23 0.24,0.71 0.24,0.12 0.25,0.19 0.24,0.03 0.24,-0.22 0.24,0.02 0.25,-0.24 0.24,-0.18 0.24,0.16 0.25,0.11 0.24,-0.02 0.24,0.08 0.25,-0.25 0.24,-0.28 0.24,0.16 0.24,-0.25 0.25,0.6 0.24,0.46 0.24,-0.1 0.25,-0.06 0.24,-0.2 0.24,-0.24 0.24,-0.06 0.25,-0.24 0.24,-0.19 0.24,0.22 0.25,0.25 0.24,-0.57 0.24,-0.33 0.24,-0.09 0.25,-0.17 0.24,-0.42 0.24,-0.34 0.25,-0.04 0.24,-0.96 0.24,-0.46 0.24,-0.3 0.25,-0.27 0.24,-0.33 0.24,-0.05 0.25,-0.05 0.24,0.12 0.24,0.12 0.25,0.25 0.24,0.2 0.24,0.06 0.24,0.12 0.25,0.75 0.24,0.66 0.24,1.33 0.25,0.83 0.24,0.95 0.24,1.53 0.24,0.44 0.25,0.32 0.24,1.18 0.24,0.21 0.25,0.44 0.24,0.51 0.24,0.57 0.24,1.16 0.25,2.22 0.24,2.72 0.24,2.23 0.25,1.54 0.24,-1.77 0.24,-2.26 0.25,-0.71 0.24,-0.08 0.24,0.25 0.24,0.17 0.25,-0.15 0.24,1.08 0.24,0.3 0.25,1.78 0.24,4.71 0.24,3.53 0.24,2.88 0.25,-3.21 0.24,-1.31 0.24,0.42 0.25,0.98 0.24,-1.02 0.24,-3.26 0.24,-1.7 0.25,2.03 0.24,1.45 0.24,1.24 0.25,-0.59 0.24,1.12 0.24,-0.68 0.25,-0.98 0.24,-3.81 0.24,-2.31 0.24,0.56 0.25,-1.65 0.24,1.1 0.24,-0.27 0.25,0.68 0.24,-0.58 0.24,1.46 0.24,-0.42 0.25,-1.32 0.24,-1.57 0.24,-1.17 0.25,-1.44 0.24,-0.64 0.24,0.29 0.24,-0.13 0.25,-1.47 0.24,-0.99 0.24,-1.47 0.25,-0.53 0.24,-0.54 0.24,-0.41 0.25,-2.05 0.24,-2.62 0.24,-0.37 0.24,2.12 0.25,0.66 0.24,-1.3 0.24,-2.15 0.25,-1.5 0.24,-0.44 0.24,-0.32 0.24,-0.15 0.25,1.05 0.24,-0.05 0.24,-0.43 0.25,-0.47 0.24,-0.21 0.24,0.03 0.24,0.27 0.25,0.18 0.24,-0.25 0.24,-0.3 0.25,-0.15 0.24,-0.31 0.24,-0.01 0.24,-0.04 0.25,-0.12 0.24,-0.03 0.24,-0.12 h 0.25 l 0.24,0.07 0.24,-0.2 0.25,-0.07 0.24,-0.86 0.24,0.05 0.24,1.23 0.25,-0.18 0.24,-0.51 0.24,-0.06 0.25,0.14 0.24,-0.03 0.24,-0.35 0.24,-0.22 0.25,0.21 0.24,-0.21 0.24,-0.13 0.25,-0.08 0.24,0.14 0.24,0.12 0.24,0.18 0.25,0.24 0.24,-0.02 0.24,-0.01 0.25,0.13 0.24,-0.12 0.24,-0.01 0.25,0.53 0.24,0.68 0.24,-0.14 0.24,0.21 0.25,-0.37 0.24,-0.02 0.24,0.48 0.25,-0.32 0.24,-0.38 0.24,-0.42 0.24,-0.12 0.25,-0.18 0.24,-0.19 0.24,0.15 0.25,0.66 0.24,0.29 0.24,-0.87 0.24,-0.38 0.25,-0.16 0.24,1.22 0.24,0.53 0.25,-1.42 0.24,-0.36 0.24,-0.57 0.25,0.02 0.24,-0.02 0.24,-0.01 0.24,0.16 0.25,0.18 0.24,-0.59 0.24,0.13 0.25,0.35 0.24,-0.09 0.24,0.04 0.24,0.22 0.25,0.03 0.24,0.29 0.24,0.98 0.25,0.17 0.24,0.12 0.24,0.15 0.24,0.59 0.25,-0.08 0.24,0.01 0.24,0.01 0.25,-1 0.24,-0.13 0.24,0.31 0.25,0.12 0.24,0.67 0.24,1.39 0.24,-0.12 0.25,-0.08 0.24,-0.02 0.24,0.16 0.25,0.09 0.24,-0.06 0.24,0.29 0.24,-0.03 h 0.25 l 0.24,0.16 0.24,0.22 0.25,0.05 0.24,-0.32 0.24,-0.57 0.24,0.09 0.25,-0.03 0.24,0.43 0.24,-0.31 0.25,0.08 0.24,-0.68 0.24,0.08 0.25,0.52 0.24,0.11 0.24,0.11 0.24,0.01 0.25,-0.18 0.24,0.06 0.24,-0.07 0.25,-0.35 0.24,0.11 0.24,-0.09 0.24,-0.1 0.25,-0.11 0.24,-0.26 0.24,-0.05 0.25,-0.21 0.24,-0.03 0.24,0.07 0.24,0.26 0.25,-0.14 0.24,-0.07 0.24,0.28 0.25,0.18 0.24,0.19 0.24,0.1 0.24,0.04 0.25,-0.15 0.24,-0.23 0.24,-0.11 0.25,-0.1 h 0.24 l 0.24,0.06 0.25,-0.03 0.24,-0.21 0.24,-0.1 0.24,-0.05 0.25,-0.04 0.24,0.05 0.24,-0.03 0.25,0.2 0.24,-0.19 0.24,-0.06 0.24,-0.27 0.25,-1.33"
       style="fill:none;stroke:#d95f02;stroke-width:1.6;stroke-linecap:butt;stroke-linejoin:round;stroke-miterlimit:10;stroke-dasharray:none;stroke-opacity:1"
       id="path7501"
       clip-path="url(#clipPath8622)" />
    <path
       d="m 45.42,464.53 0.25,0.02 0.24,0.06 0.24,-0.08 0.25,0.01 0.24,0.21 0.24,0.02 0.24,-0.04 0.25,0.05 0.24,0.17 0.24,0.01 0.25,0.13 0.24,-0.26 0.24,-0.06 0.24,0.03 0.25,-0.07 0.24,-0.07 0.24,-0.4 0.25,0.12 0.24,0.17 0.24,0.15 0.25,0.17 0.24,0.3 h 0.24 l 0.24,-0.16 0.25,-0.13 0.24,-0.12 0.24,-0.06 0.25,0.03 0.24,0.15 0.24,0.24 0.24,0.23 0.25,-0.06 0.24,0.16 0.24,-0.15 0.25,-0.01 0.24,-0.1 0.24,-0.09 0.24,0.07 0.25,0.23 0.24,-0.27 0.24,0.11 0.25,0.02 0.24,-0.05 0.24,0.05 0.25,0.16 0.24,-0.04 0.24,-0.07 0.24,0.27 0.25,0.06 0.24,0.05 0.24,0.02 0.25,-0.02 0.24,0.22 0.24,0.16 0.24,-0.44 0.25,-0.34 0.24,-0.17 0.24,0.1 0.25,0.72 0.24,1.01 0.24,0.13 0.24,-0.12 0.25,-0.36 0.24,-0.6 0.24,-0.17 0.25,0.1 0.24,0.97 0.24,0.82 0.25,-0.18 0.24,0.14 0.24,0.27 0.24,0.32 0.25,-0.82 0.24,-0.97 0.24,0.61 0.25,1.21 0.24,0.1 0.24,-0.3 0.24,-0.41 0.25,-0.7 0.24,-0.1 0.24,0.2 0.25,0.18 0.24,-0.72 0.24,-0.64 0.24,-0.06 0.25,-0.07 0.24,0.44 0.24,-0.13 0.25,0.86 0.24,0.52 0.24,-0.26 0.25,0.07 0.24,0.28 0.24,-0.28 0.24,-0.84 0.25,-0.57 0.24,0.16 0.24,0.25 0.25,0.21 h 0.24 l 0.24,0.23 0.24,0.31 0.25,0.42 0.24,1.44 0.24,1.11 0.25,1.5 0.24,0.76 0.24,1.69 0.24,0.92 0.25,1.18 0.24,1.9 0.24,0.93 0.25,0.38 0.24,-0.26 0.24,-0.31 0.24,0.27 0.25,0.8 0.24,1.2 0.24,1.97 0.25,0.22 0.24,1.08 0.24,2.28 0.25,3.26 0.24,3.11 0.24,1.12 0.24,-0.33 0.25,2.71 0.24,3.21 0.24,3.11 0.25,1.84 0.24,1.02 0.24,4.04 0.24,4.43 0.25,3.61 0.24,2.68 0.24,1.6 0.25,-0.34 0.24,-4.86 0.24,-1.18 0.24,-0.26 0.25,1.92 0.24,3.06 0.24,3.41 0.25,2.75 0.24,4.15 0.24,0.27 0.25,-0.88 0.24,0.67 0.24,0.63 0.24,-1.91 0.25,2.05 0.24,-3.62 0.24,0.97 0.25,-1.87 0.24,-0.84 0.24,1.7 0.24,2.3 0.25,-0.99 0.24,-1.49 0.24,-0.08 0.25,-1.09 0.24,-0.49 0.24,0.8 0.24,-2.63 0.25,-3.01 0.24,-0.65 0.24,1.78 0.25,0.31 0.24,-0.28 0.24,-3.84 0.25,-3.22 0.24,-3.33 0.24,-3.85 0.24,-1.68 0.25,-4.84 0.24,-0.81 0.24,-4.72 0.25,-7.46 0.24,-0.33 0.24,-4.23 0.24,-3.76 0.25,-1.01 0.24,1.07 0.24,-2.28 0.25,-3.72 0.24,-3.25 0.24,-1.15 0.24,-0.49 0.25,-2.7 0.24,-0.44 0.24,1.38 0.25,-0.99 0.24,2.66 0.24,-2.52 0.25,-2.98 0.24,-0.53 0.24,0.66 0.24,0.31 0.25,0.08 0.24,-3.19 0.24,-1.16 0.25,-1.67 0.24,-0.56 0.24,0.01 0.24,-0.3 0.25,0.17 0.24,-0.8 0.24,-0.37 0.25,0.03 0.24,2.94 0.24,-2.11 0.24,0.85 0.25,1.31 0.24,-1.73 0.24,0.11 0.25,-0.26 0.24,0.12 0.24,0.71 0.24,-1.49 0.25,0.57 0.24,0.46 0.24,-1.07 0.25,-0.26 0.24,0.02 0.24,-0.79 0.25,-0.38 0.24,0.65 h 0.24 l 0.24,-0.73 0.25,-0.31 0.24,-0.48 0.24,1.81 0.25,0.66 0.24,-0.1 0.24,-1.92 0.24,0.44 0.25,-1.02 0.24,-0.24 0.24,3.02 0.25,1.55 0.24,-2.45 0.24,0.34 0.24,1.3 0.25,-1.81 0.24,3.12 0.24,-1.35 0.25,-1.84 0.24,-0.36 0.24,0.36 0.25,2.69 0.24,-3.71 0.24,-0.43 0.24,0.43 0.25,0.91 0.24,0.31 0.24,-0.52 0.25,-0.23 0.24,-0.76 0.24,-0.22 0.24,0.09 0.25,0.4 0.24,0.07 0.24,1.48 0.25,0.07 0.24,-0.3 0.24,-0.14 0.24,-0.01 0.25,-0.17 0.24,-0.19 0.24,0.56 0.25,1.91 0.24,-0.03 0.24,-0.25 0.25,0.34 0.24,-0.4 0.24,0.34 0.24,0.42 0.25,-0.42 0.24,0.28 0.24,-0.01 0.25,-0.04 0.24,-0.21 0.24,0.06 0.24,0.74 0.25,-0.03 0.24,-0.06 0.24,0.37 0.25,0.22 0.24,-0.05 0.24,1.37 0.24,-0.17 0.25,1.03 0.24,-0.73 0.24,-0.52 0.25,0.1 0.24,0.71 0.24,-0.34 0.25,-0.14 0.24,0.43 0.24,1.01 0.24,-0.41 0.25,-0.32 0.24,0.1 0.24,0.11 0.25,0.19 0.24,-0.06 0.24,0.2 0.24,-0.12 0.25,-0.22 0.24,0.57 0.24,0.27 0.25,-0.18 0.24,-0.06 0.24,0.11 0.24,0.01 0.25,0.35 0.24,0.06 0.24,0.54 0.25,0.59 0.24,0.61 0.24,-0.3 0.25,0.29 0.24,-0.47 0.24,-0.16 0.24,-0.07 0.25,0.29 0.24,0.68 0.24,-0.23 0.25,0.27 0.24,0.15 0.24,0.29 0.24,0.08 0.25,0.06 0.24,0.41 0.24,-0.09 0.25,0.09 0.24,0.09 0.24,-0.44 0.24,0.12 0.25,0.03 0.24,-0.38 0.24,0.16 0.25,-0.08 0.24,0.23 h 0.24 l 0.24,-0.6 0.25,-0.02 0.24,0.06 0.24,-0.59 0.25,-0.07 0.24,0.14 0.24,0.48 0.25,0.6 0.24,-0.11 0.24,-0.27 0.24,0.17 0.25,-0.15 0.24,-0.23 0.24,-0.3 0.25,-0.45 0.24,0.49 0.24,0.22 0.24,-0.12 0.25,-0.53"
       style="fill:none;stroke:#7570b3;stroke-width:1.6;stroke-linecap:butt;stroke-linejoin:round;stroke-miterlimit:10;stroke-dasharray:none;stroke-opacity:1"
       id="path7503"
       clip-path="url(#clipPath8616)" />
    <g
       id="g7505" />
    <path
       d="m 45.42,347.44 0.25,-0.02 0.24,0.01 0.24,0.07 0.25,0.02 0.24,-0.06 0.24,0.07 0.24,-0.01 0.25,-0.03 0.24,0.17 0.24,0.43 0.25,0.28 0.24,-0.49 0.24,-0.07 0.24,-0.11 0.25,0.06 0.24,-0.02 0.24,-0.04 0.25,0.03 0.24,0.06 0.24,-0.03 0.25,0.06 0.24,-0.03 0.24,0.09 0.24,0.05 0.25,0.03 0.24,0.41 0.24,-0.08 0.25,-0.19 0.24,-0.09 0.24,-0.08 0.24,-0.16 0.25,-0.07 0.24,0.06 0.24,0.24 0.25,0.11 0.24,-0.05 0.24,0.17 0.24,0.14 0.25,-0.02 0.24,0.3 0.24,0.41 0.25,1.2 0.24,0.81 0.24,-0.05 0.25,-0.36 0.24,0.28 0.24,-0.51 0.24,-0.34 0.25,0.51 0.24,-0.02 0.24,0.39 0.25,-0.1 0.24,-0.28 0.24,-0.42 0.24,-0.13 0.25,-0.06 0.24,0.14 0.24,0.4 0.25,0.1 0.24,0.46 0.24,-0.31 0.24,-0.74 0.25,0.14 0.24,0.19 0.24,-0.03 0.25,0.35 0.24,0.51 0.24,0.48 0.25,0.05 0.24,0.08 0.24,0.61 0.24,0.71 0.25,0.2 0.24,0.36 0.24,0.75 0.25,0.95 0.24,1.44 0.24,0.85 0.24,0.41 0.25,0.27 0.24,-0.3 0.24,-0.77 0.25,-0.73 0.24,-0.02 0.24,0.59 0.24,0.65 0.25,1.03 0.24,-0.19 0.24,0.2 0.25,0.08 0.24,-0.03 0.24,-0.4 0.25,0.81 0.24,0.82 0.24,1.2 0.24,-0.55 0.25,0.37 0.24,1.14 0.24,-0.12 0.25,-0.58 0.24,0.33 0.24,1.4 0.24,0.86 0.25,2.37 0.24,1.53 0.24,2.71 0.25,4.01 0.24,-0.83 0.24,-1.67 0.24,-2.79 0.25,-1.47 0.24,-1.47 0.24,1.44 0.25,4.09 0.24,-3.28 0.24,-2.72 0.24,0.7 0.25,-0.58 h 0.24 l 0.24,0.29 0.25,1.3 0.24,-0.82 0.24,-1.03 0.25,-1.28 0.24,0.96 0.24,1.8 0.24,1.34 0.25,1.26 0.24,0.18 0.24,-0.53 0.25,-0.85 0.24,-0.82 0.24,1.55 0.24,0.65 0.25,2.28 0.24,4.19 0.24,-1.14 0.25,-1.06 0.24,3.5 0.24,4.51 0.24,3.07 0.25,-0.56 0.24,-0.19 0.24,-3.49 0.25,-2.08 0.24,-1.91 0.24,-2.1 0.25,-1.22 0.24,0.59 0.24,-0.32 0.24,1.37 0.25,-1.04 0.24,-0.8 0.24,-1.05 0.25,-0.61 0.24,1.52 0.24,-0.31 0.24,-4.18 0.25,-0.45 0.24,-2.04 0.24,0.35 0.25,-2.28 0.24,-1.98 0.24,1.11 0.24,-1.32 0.25,0.08 0.24,-0.62 0.24,-1.02 h 0.25 l 0.24,-1.17 0.24,0.01 0.25,-0.41 0.24,-0.96 0.24,-0.87 0.24,-1.05 0.25,-0.25 0.24,-0.52 0.24,-1 0.25,-1.44 0.24,-0.4 0.24,-0.85 0.24,-0.52 0.25,0.22 0.24,-0.08 0.24,0.09 0.25,-0.95 0.24,-0.19 0.24,0.52 0.24,0.13 0.25,-1.12 0.24,0.39 0.24,-0.66 0.25,0.12 0.24,-0.65 0.24,0.23 0.25,-0.59 0.24,-0.01 0.24,-0.06 0.24,-0.4 0.25,-0.35 0.24,-0.28 0.24,0.31 0.25,-0.01 0.24,-0.16 0.24,0.3 0.24,-0.05 0.25,-0.43 0.24,0.39 0.24,-0.5 0.25,0.95 0.24,-0.47 0.24,0.15 0.24,0.3 0.25,0.79 0.24,0.39 0.24,-0.43 0.25,0.3 0.24,-0.53 0.24,-0.56 0.24,-0.27 0.25,-0.38 0.24,-0.02 0.24,-0.16 0.25,-0.04 0.24,-0.49 0.24,-0.33 0.25,-0.19 0.24,-0.05 0.24,0.26 0.24,-0.22 0.25,-0.14 0.24,0.22 0.24,-0.39 0.25,-0.13 0.24,0.21 0.24,0.37 0.24,-0.3 0.25,0.06 0.24,0.02 0.24,-0.27 0.25,-0.05 0.24,0.1 0.24,0.23 0.24,-0.29 0.25,0.08 0.24,0.05 0.24,0.08 0.25,0.06 0.24,-0.22 0.24,0.35 0.25,10.03 0.24,-7.04 0.24,-2.82 0.24,0.08 0.25,-0.09 0.24,0.81 0.24,1.41 0.25,-1.51 0.24,-0.23 0.24,0.84 0.24,-0.54 0.25,-0.18 0.24,-0.14 0.24,5.85 0.25,1.42 0.24,-6.26 0.24,-0.68 0.24,0.57 0.25,-0.07 0.24,-0.1 0.24,-0.68 0.25,0.17 0.24,0.8 0.24,-0.32 0.25,-0.02 0.24,0.18 0.24,0.35 0.24,0.23 0.25,5.51 0.24,-2.39 0.24,-1.47 0.25,0.11 0.24,-1.06 0.24,-0.57 0.24,-0.29 0.25,-0.13 0.24,-0.16 0.24,-0.05 0.25,-0.17 0.24,0.11 0.24,0.35 0.24,-0.34 0.25,-0.07 0.24,-0.07 0.24,-0.11 0.25,-0.08 0.24,-0.16 0.24,-0.06 h 0.25 l 0.24,-0.09 0.24,0.09 0.24,-0.02 0.25,-0.25 0.24,-0.12 h 0.24 l 0.25,0.03 0.24,-0.05 0.24,0.02 0.24,0.05 0.25,-0.1 0.24,-0.01 0.24,0.01 0.25,0.02 0.24,-0.01 0.24,-0.07 0.24,0.15 0.25,0.02 0.24,0.03 0.24,-0.04 0.25,-0.06 0.24,-0.05 0.24,-0.02 0.25,-0.02 0.24,-0.05 0.24,0.17 0.24,0.13 0.25,0.06 0.24,-0.18 0.24,-0.09 0.25,-0.03 0.24,0.05 0.24,0.05 0.24,-0.15 0.25,0.15 0.24,-0.04 0.24,-0.15 0.25,-0.04 0.24,-0.06 0.24,-0.09 0.24,-0.05 0.25,0.17 0.24,-0.02 0.24,-0.08 0.25,0.02 0.24,-0.02 0.24,-0.02 h 0.24 l 0.25,-0.02 0.24,0.04 0.24,0.14 0.25,0.13 0.24,-0.01 0.24,-0.09 0.25,-0.05 h 0.24 l 0.24,0.06 0.24,-0.02 h 0.25 l 0.24,0.08 0.24,-0.07 0.25,-0.04 0.24,0.1 0.24,0.07 0.24,0.18 0.25,0.49"
       style="fill:none;stroke:#d95f02;stroke-width:1.6;stroke-linecap:butt;stroke-linejoin:round;stroke-miterlimit:10;stroke-dasharray:none;stroke-opacity:1"
       id="path7517"
       clip-path="url(#clipPath8651)" />
    <path
       d="m 45.42,350.47 0.25,-0.5 0.24,0.08 0.24,-0.15 0.25,0.31 0.24,0.43 0.24,0.04 0.24,0.33 0.25,0.14 0.24,0.02 0.24,-0.05 0.25,0.63 0.24,0.53 0.24,-0.06 0.24,-0.45 0.25,-0.09 0.24,0.11 0.24,-0.58 0.25,-0.07 0.24,0.09 0.24,0.12 0.25,0.12 0.24,-0.11 0.24,-0.15 0.24,-0.03 0.25,-0.1 0.24,0.02 0.24,-0.02 0.25,-0.07 0.24,-0.32 0.24,0.1 0.24,0.63 0.25,0.27 0.24,-0.13 0.24,0.04 0.25,0.02 0.24,-0.34 0.24,0.77 0.24,-0.29 0.25,-0.19 0.24,0.14 0.24,0.19 0.25,0.78 0.24,-0.75 0.24,-0.02 0.25,0.19 0.24,-0.03 0.24,0.08 0.24,-0.42 0.25,0.33 0.24,0.22 0.24,0.31 0.25,-0.02 0.24,0.58 0.24,0.28 0.24,-0.18 0.25,0.08 0.24,-0.3 0.24,0.83 0.25,1.72 0.24,1.28 0.24,2.27 0.24,0.63 0.25,-1.41 0.24,-1.91 0.24,1.64 0.25,-0.8 0.24,1.11 0.24,1.3 0.25,-0.48 0.24,-0.92 0.24,0.89 0.24,0.81 0.25,-0.68 0.24,-0.91 0.24,0.26 0.25,-0.08 0.24,0.18 0.24,0.27 0.24,2.26 0.25,0.93 0.24,0.28 0.24,-1.1 0.25,0.07 0.24,1.81 0.24,-1.12 0.24,1.07 0.25,2.75 0.24,1.51 0.24,-0.75 0.25,3.44 0.24,2.35 0.24,4.95 0.25,4.14 0.24,3.14 0.24,4.03 0.24,-3.08 0.25,0.65 0.24,0.57 0.24,3.39 0.25,2.88 0.24,5.36 0.24,3.85 0.24,2.79 0.25,5.76 0.24,0.21 0.24,-5.27 0.25,1.95 0.24,1.12 0.24,-0.86 0.24,3.16 0.25,4.7 0.24,8.19 0.24,-4.04 0.25,-5.53 0.24,-2.4 0.24,-1.46 0.24,-3.77 0.25,-0.45 0.24,-1.18 0.24,1.88 0.25,2.59 0.24,-0.58 0.24,13.98 0.25,-9.39 0.24,-7.32 0.24,-3.83 0.24,0.13 0.25,1.71 0.24,0.65 0.24,-0.68 0.25,-1.34 0.24,1.6 0.24,1.84 0.24,0.83 0.25,-2.35 0.24,-1.48 0.24,-3.07 0.25,-4.39 0.24,-10.59 0.24,-5.9 0.24,-0.35 0.25,3.77 0.24,2.39 0.24,1.78 0.25,0.15 0.24,-2.26 0.24,1.1 0.25,-2.71 0.24,-0.73 0.24,-3.09 0.24,-3.04 0.25,-1.69 0.24,1.89 0.24,2.36 0.25,0.18 0.24,-1.62 0.24,-0.95 0.24,-1.33 0.25,-2.14 0.24,-0.12 0.24,0.05 0.25,1.78 0.24,-0.37 0.24,-3.67 0.24,0.77 0.25,-1.11 0.24,-2.54 0.24,10.8 0.25,11.29 0.24,-4.09 0.24,-3.78 0.25,-2.84 0.24,-3.12 0.24,3.21 0.24,-5.67 0.25,0.3 0.24,-3.34 0.24,0.31 0.25,-3.75 0.24,-2.93 0.24,-2.76 0.24,-1.3 0.25,1.05 0.24,-3.63 0.24,-0.85 0.25,-1.52 0.24,2.31 0.24,3.89 0.24,-3.54 0.25,1.36 0.24,-0.29 0.24,-1.87 0.25,-1.54 0.24,-1.78 0.24,-0.77 0.25,-0.98 0.24,0.24 0.24,-0.75 0.24,-1.19 0.25,-0.56 0.24,0.27 0.24,-0.1 0.25,1.01 0.24,0.93 0.24,0.2 0.24,-2.52 0.25,0.56 0.24,0.05 0.24,9.16 0.25,-8.15 0.24,0.21 0.24,-1.16 0.24,-1.57 0.25,1.72 0.24,-2.3 0.24,1.51 0.25,0.26 0.24,0.77 0.24,-0.56 0.24,-1.39 0.25,-0.34 0.24,-0.5 0.24,-0.37 0.25,-0.21 0.24,-0.24 0.24,0.41 0.25,1.01 0.24,-0.25 0.24,-1 0.24,-0.07 0.25,0.47 0.24,1.63 0.24,7.07 0.25,-7.94 0.24,-1.56 0.24,5.12 0.24,6.67 0.25,-10.89 0.24,2.43 0.24,1.41 0.25,-1.98 0.24,9.42 0.24,-10.83 0.24,-0.48 0.25,2.53 0.24,-2.06 0.24,-1.42 0.25,0.33 0.24,0.39 0.24,-0.88 0.25,0.1 0.24,2.86 0.24,-0.74 0.24,2.95 0.25,-4.84 0.24,0.16 0.24,-0.01 0.25,-0.49 0.24,-0.12 0.24,0.78 0.24,0.38 0.25,0.46 0.24,0.73 0.24,9.6 0.25,4.38 0.24,-10.1 0.24,-1.15 0.24,-0.32 0.25,-0.15 0.24,-1.87 0.24,2.72 0.25,0.2 0.24,-1.16 0.24,-0.62 0.25,4.08 0.24,0.8 0.24,-1.76 0.24,-1.86 0.25,0.71 0.24,0.88 0.24,-1.65 0.25,-0.58 0.24,0.26 0.24,0.69 0.24,13.84 0.25,0.84 0.24,-9.87 0.24,-2.12 0.25,-0.88 0.24,-0.99 0.24,-0.67 0.24,0.23 0.25,6.54 0.24,-2.54 0.24,-1.68 0.25,-1.67 0.24,15.45 0.24,-11.81 0.25,-2.27 0.24,-0.42 0.24,0.85 0.24,-1.77 0.25,-0.48 0.24,-0.54 0.24,-0.19 0.25,-0.09 0.24,-0.67 0.24,-0.08 0.24,0.05 0.25,-0.01 0.24,-0.11 0.24,0.03 0.25,-0.21 0.24,0.03 0.24,0.02 0.24,0.1 0.25,-0.09 0.24,-0.16 0.24,0.14 0.25,0.14 0.24,0.59 0.24,-0.24 0.25,-0.01 0.24,0.14 0.24,-0.38 0.24,-0.13 0.25,0.16 0.24,0.15 0.24,-0.14 0.25,-0.43 0.24,0.02 0.24,-0.14 0.24,0.25 0.25,-0.19 0.24,0.1 0.24,-0.15 0.25,-0.03 0.24,-0.1 0.24,-0.12 0.24,-0.04 0.25,-0.19 0.24,0.13 0.24,-0.01 0.25,0.12 0.24,0.15 0.24,-0.02 0.24,0.04 0.25,-0.03 0.24,-0.15 0.24,0.19 0.25,-0.05 0.24,-0.15 0.24,-0.13 0.25,0.1 0.24,-0.1 0.24,-0.47 0.24,0.18 0.25,0.22 0.24,-0.29 0.24,0.17 0.25,-0.09 0.24,0.33 0.24,0.1 0.24,0.08 0.25,-0.3"
       style="fill:none;stroke:#7570b3;stroke-width:1.6;stroke-linecap:butt;stroke-linejoin:round;stroke-miterlimit:10;stroke-dasharray:none;stroke-opacity:1"
       id="path7519"
       clip-path="url(#clipPath8645)" />
    <g
       id="g7521" />
    <path
       d="m 45.42,240.72 0.25,0.03 0.24,0.05 0.24,-0.21 0.25,0.28 0.24,-0.16 0.24,0.05 0.24,-0.01 0.25,0.19 0.24,0.36 0.24,1.67 0.25,0.92 0.24,-1.75 0.24,-0.63 0.24,-0.08 0.25,-0.11 0.24,-0.1 0.24,-0.13 0.25,0.02 0.24,-0.07 0.24,0.15 0.25,0.02 0.24,0.11 0.24,0.13 0.24,0.11 0.25,0.17 0.24,0.07 0.24,1.18 0.25,-0.56 0.24,-0.46 0.24,-0.36 0.24,-0.11 0.25,-0.12 0.24,-0.12 0.24,0.02 0.25,0.1 0.24,0.39 0.24,0.31 0.24,0.57 0.25,0.94 0.24,0.02 0.24,-0.09 0.25,1.6 0.24,4.07 0.24,-2.25 0.25,-1.91 0.24,-0.57 0.24,0.36 0.24,0.12 0.25,-0.03 0.24,1.45 0.24,0.17 0.25,-0.75 0.24,-0.14 0.24,-0.1 0.24,-0.26 0.25,-0.38 0.24,-0.15 0.24,0.09 0.25,0.15 0.24,0.44 0.24,0.58 0.24,-0.2 0.25,0.06 0.24,-0.34 0.24,-0.12 0.25,0.48 0.24,0.74 0.24,-0.32 0.25,0.21 0.24,0.91 0.24,4.11 0.24,-0.93 0.25,-0.7 0.24,0.4 0.24,0.61 0.25,0.46 0.24,0.23 0.24,0.13 0.24,-0.47 0.25,0.36 0.24,0.44 0.24,-0.12 0.25,-0.52 0.24,-0.32 0.24,0.69 0.24,0.47 0.25,0.48 0.24,-1.19 0.24,-0.78 0.25,-0.02 0.24,0.22 h 0.24 l 0.25,0.78 0.24,1.59 0.24,-0.03 0.24,0.21 0.25,0.19 0.24,1.28 0.24,0.17 0.25,-0.53 0.24,-0.73 0.24,0.2 0.24,-0.03 0.25,1.55 0.24,1.32 0.24,1.18 0.25,2.7 0.24,1.02 0.24,0.05 0.24,-0.75 0.25,0.07 0.24,-0.74 0.24,-0.72 0.25,3.98 0.24,-1.58 0.24,-2.16 0.24,-1.47 0.25,-0.65 0.24,-0.2 0.24,-0.89 0.25,0.65 0.24,2.34 0.24,-0.51 0.25,-2.49 0.24,0.55 0.24,2.18 0.24,1.9 0.25,0.53 0.24,1 0.24,0.55 0.25,-1.14 0.24,-0.35 0.24,1.6 0.24,1.21 0.25,0.31 0.24,2.1 0.24,-1.05 0.25,-3.54 0.24,1.47 0.24,0.37 0.24,2.04 0.25,1.76 0.24,-0.04 0.24,-1.07 0.25,-1.19 0.24,-1.77 0.24,-1.78 0.25,-1.48 0.24,-1.08 0.24,-1.27 0.24,-2.1 0.25,0.56 0.24,0.73 0.24,1.27 0.25,-0.37 0.24,-1.64 0.24,4.25 0.24,-0.56 0.25,-1.76 0.24,-1.12 0.24,-0.61 0.25,0.44 0.24,-3.38 0.24,-2.54 0.24,-0.31 0.25,0.01 0.24,-1.43 0.24,-0.38 0.25,-1.22 0.24,-0.54 0.24,-1.18 0.25,-0.17 0.24,-0.68 0.24,-1.21 0.24,-0.74 0.25,0.22 0.24,0.33 0.24,-0.87 0.25,-0.12 0.24,-0.24 0.24,-0.14 0.24,-0.44 0.25,2.27 0.24,-1.68 0.24,-0.77 0.25,-0.73 0.24,3.27 0.24,3.39 0.24,-6.43 0.25,-1.25 0.24,-0.14 0.24,0.14 0.25,3.49 0.24,-4.08 0.24,-0.47 0.25,0.5 0.24,-0.2 0.24,-0.5 0.24,-0.07 0.25,-0.08 0.24,0.48 0.24,1.12 0.25,-0.55 0.24,2.88 0.24,-1.03 0.24,0.04 0.25,-1.71 0.24,0.06 0.24,3.71 0.25,-2.31 0.24,4.18 0.24,-4.44 0.24,0.66 0.25,-1.23 0.24,-0.65 0.24,0.11 0.25,7.35 0.24,0.74 0.24,-4.42 0.24,-3.76 0.25,-0.18 0.24,1.07 0.24,1.73 0.25,-2.78 0.24,2.61 0.24,-1.52 0.25,-1.55 0.24,-0.26 0.24,-0.25 0.24,-0.24 0.25,-0.07 0.24,0.1 0.24,0.1 0.25,0.46 0.24,1.69 0.24,0.69 0.24,6.29 0.25,-7.2 0.24,-0.91 0.24,0.57 0.25,-0.33 0.24,-0.34 0.24,0.02 0.24,0.92 0.25,-0.14 0.24,-0.72 0.24,1.85 0.25,0.24 0.24,-2.09 0.24,2.7 0.25,9.9 0.24,18.21 0.24,-27.53 0.24,0.07 0.25,-0.32 0.24,-0.75 0.24,9.2 0.25,-9.12 0.24,-0.73 0.24,3.61 0.24,-0.04 0.25,-3.32 0.24,0.85 0.24,8.56 0.25,26.03 0.24,-29.57 0.24,-4.02 0.24,-1.33 0.25,-0.64 0.24,4.42 0.24,4.9 0.25,-5.83 0.24,-1.74 0.24,-1.58 0.25,-1.01 0.24,0.33 0.24,0.52 0.24,4.18 0.25,-1.25 0.24,-0.31 0.24,-0.93 0.25,3.22 0.24,-2.87 0.24,-2.11 0.24,-0.58 0.25,0.95 0.24,0.77 0.24,-1.57 0.25,0.18 0.24,0.49 0.24,-0.31 0.24,1.74 0.25,-0.09 0.24,1.79 0.24,-2.96 0.25,0.54 0.24,-0.61 0.24,0.49 0.25,-0.4 0.24,-0.24 0.24,-0.13 0.24,0.21 0.25,-0.06 0.24,-0.24 0.24,-0.03 0.25,0.2 0.24,-0.15 0.24,0.06 0.24,-0.16 0.25,0.14 0.24,-0.17 0.24,-0.12 0.25,0.34 0.24,-0.19 0.24,-0.02 0.24,-0.03 0.25,-0.08 0.24,0.08 0.24,0.87 0.25,0.08 0.24,-1.04 0.24,-0.18 0.25,-0.08 0.24,-0.06 0.24,0.17 0.24,0.31 0.25,0.04 0.24,-0.31 0.24,-0.37 0.25,-0.25 0.24,-0.04 0.24,0.2 0.24,0.09 0.25,0.02 0.24,0.48 0.24,-0.58 0.25,-0.15 0.24,-0.06 0.24,-0.17 0.24,-0.07 0.25,1.09 0.24,-0.02 0.24,-0.42 0.25,-0.27 0.24,-0.09 0.24,-0.19 0.24,-0.13 0.25,0.11 0.24,-0.13 0.24,-0.07 0.25,0.15 0.24,-0.21 0.24,0.06 0.25,0.1 0.24,-0.02 0.24,-0.02 0.24,0.01 0.25,-0.15 0.24,-0.08 0.24,-0.07 0.25,0.02 0.24,0.05 0.24,0.04 0.24,0.29 0.25,2.38"
       style="fill:none;stroke:#d95f02;stroke-width:1.6;stroke-linecap:butt;stroke-linejoin:round;stroke-miterlimit:10;stroke-dasharray:none;stroke-opacity:1"
       id="path7533"
       clip-path="url(#clipPath8680)" />
    <path
       d="m 45.42,241.32 0.25,0.04 0.24,0.04 0.24,-0.02 0.25,0.08 0.24,0.07 0.24,-0.09 0.24,0.09 0.25,0.14 0.24,0.02 0.24,0.1 0.25,0.04 0.24,0.01 0.24,0.06 0.24,-0.02 0.25,0.15 0.24,0.59 0.24,0.48 0.25,-0.1 0.24,0.15 0.24,-0.29 0.25,-0.33 0.24,-0.17 0.24,-0.16 0.24,-0.06 0.25,-0.12 0.24,-0.07 0.24,-0.15 0.25,-0.15 0.24,0.36 0.24,-0.18 0.24,2.54 0.25,-0.04 0.24,0.07 0.24,0.02 0.25,0.32 0.24,0.19 0.24,0.13 0.24,-0.1 0.25,0.06 0.24,-0.02 0.24,0.08 0.25,-0.13 0.24,0.39 0.24,-0.22 0.25,-0.11 0.24,0.35 0.24,0.31 0.24,1.26 0.25,-0.03 0.24,1.05 0.24,1.51 0.25,0.26 0.24,-1 0.24,-1.16 0.24,1.48 0.25,-0.11 0.24,-0.56 0.24,-0.38 0.25,3.27 0.24,0.38 0.24,1.32 0.24,3.12 0.25,-2.79 0.24,-0.85 0.24,-0.4 0.25,0.14 0.24,0.43 0.24,0.75 0.25,0.24 0.24,0.09 0.24,1.56 0.24,2.27 0.25,-0.75 0.24,-0.5 0.24,1.82 0.25,0.9 0.24,-2.01 0.24,-0.1 0.24,1.26 0.25,-0.05 0.24,2.61 0.24,0.55 0.25,-0.83 0.24,-0.71 0.24,0.17 0.24,0.73 0.25,2.84 0.24,2.12 0.24,0.38 0.25,1.09 0.24,3.19 0.24,1.72 0.25,4.28 0.24,2.13 h 0.24 l 0.24,-5.01 0.25,-3.83 0.24,1.04 0.24,4.47 0.25,-0.67 0.24,5.09 0.24,3.02 0.24,6.17 0.25,10.33 0.24,3.38 0.24,-2.81 0.25,0.19 0.24,0.75 0.24,3.5 0.24,5.27 0.25,7.68 0.24,-2.24 0.24,-6.74 0.25,-4.3 0.24,2.81 0.24,0.52 0.24,0.85 0.25,-3.21 0.24,-4.4 0.24,0.64 0.25,-5.67 0.24,2.1 0.24,9.41 0.25,8.03 0.24,-10.94 0.24,-5.32 0.24,-1.49 0.25,-1.72 0.24,5.58 0.24,5.2 0.25,1.13 0.24,0.43 0.24,1.44 0.24,-1.66 0.25,-1.44 0.24,-2.22 0.24,-1.97 0.25,1.36 0.24,-6.03 0.24,-2.9 0.24,-2.8 0.25,-3.14 0.24,-0.07 0.24,-3.58 0.25,0.14 0.24,-1.69 0.24,-2.15 0.25,-0.28 0.24,2.16 0.24,-3.45 0.24,-3.56 0.25,-1.42 0.24,-1.2 0.24,-2.86 0.25,-1.61 0.24,-0.28 0.24,0.07 0.24,-1.08 0.25,-1.65 0.24,-1.48 0.24,0.78 0.25,0.32 0.24,-1.16 0.24,-0.39 0.24,-1.4 0.25,-1.76 0.24,-1.19 0.24,-1.76 0.25,-0.65 0.24,-0.88 0.24,1.27 0.25,-0.99 0.24,2.66 0.24,-1.32 0.24,-0.55 0.25,-1.82 0.24,-0.38 0.24,-1.63 0.25,-1.18 0.24,5.6 0.24,-4.37 0.24,-1.85 0.25,3.29 0.24,-2.18 0.24,-1.82 0.25,0.35 0.24,-2.42 0.24,0.78 0.24,3.37 0.25,-3.79 0.24,5.56 0.24,-1.15 0.25,-5.06 0.24,-1.64 0.24,-0.91 0.25,-1.07 0.24,-0.71 0.24,-0.58 0.24,0.04 0.25,-1.46 0.24,1.75 0.24,-1.65 0.25,-0.65 0.24,-0.78 0.24,2.84 0.24,-2.77 0.25,3.25 0.24,12.75 0.24,-1.17 0.25,-12.77 0.24,-1.16 0.24,-0.73 0.24,-1.3 0.25,-0.42 0.24,0.07 0.24,-0.05 0.25,0.1 0.24,-0.29 0.24,1.7 0.24,0.5 0.25,-1.63 0.24,0.33 0.24,0.53 0.25,-0.09 0.24,-0.18 0.24,-0.13 0.25,1.06 0.24,-0.33 0.24,1.43 0.24,-0.81 0.25,0.03 0.24,7.46 0.24,-4.4 0.25,-3.08 0.24,0.11 0.24,0.1 0.24,14.08 0.25,-13.5 0.24,0.03 0.24,7.68 0.25,-0.17 0.24,8.52 0.24,-7.65 0.24,-4.03 0.25,1.11 0.24,1.88 0.24,-4.45 0.25,-1.79 0.24,-0.79 0.24,0.73 0.25,-0.33 0.24,1.1 0.24,4.18 0.24,-3.53 0.25,-1.02 0.24,1.23 0.24,0.87 0.25,-2.97 0.24,-0.8 0.24,3.54 0.24,-1.41 0.25,3.17 0.24,-1.65 0.24,8.16 0.25,23.64 0.24,-27.92 0.24,-0.43 0.24,-2.77 0.25,-0.35 0.24,-0.48 0.24,0.75 0.25,3.82 0.24,-4.51 0.24,1.71 0.25,-1.02 0.24,-1.09 0.24,-0.18 0.24,1.07 0.25,-1.32 0.24,5.29 0.24,-4.56 0.25,-0.59 0.24,-0.07 0.24,2.18 0.24,23.63 0.25,42.72 0.24,-55.84 0.24,-2.64 0.25,-1.86 0.24,-1.28 0.24,3.11 0.24,-2.14 0.25,8.57 0.24,-3.04 0.24,-8.03 0.25,1.12 0.24,8.47 0.24,-7.91 0.25,-3.69 0.24,-0.73 0.24,0.85 0.24,-1.89 0.25,0.64 0.24,-1.23 0.24,-0.53 0.25,-0.47 0.24,-1.15 0.24,-0.83 0.24,0.22 0.25,-0.3 0.24,-0.26 0.24,0.17 0.25,-0.2 0.24,0.19 0.24,0.68 0.24,-0.53 0.25,-0.29 0.24,-0.11 0.24,0.34 0.25,-0.09 0.24,0.09 h 0.24 l 0.25,0.07 0.24,-0.32 0.24,-0.06 0.24,-0.11 0.25,-0.22 0.24,-0.11 0.24,0.02 0.25,0.11 0.24,0.07 0.24,0.41 0.24,0.31 0.25,-0.23 0.24,-0.5 0.24,-0.31 0.25,0.05 0.24,-0.26 0.24,-0.17 0.24,-0.11 0.25,-0.04 0.24,0.13 0.24,-0.01 h 0.25 l 0.24,0.06 0.24,0.02 0.24,-0.11 0.25,-0.13 0.24,0.03 0.24,-0.12 0.25,0.15 0.24,0.02 0.24,-0.07 0.25,-0.2 0.24,0.19 0.24,0.04 0.24,-0.17 0.25,-0.02 0.24,-0.11 0.24,-0.18 0.25,0.02 0.24,-0.01 0.24,0.01 0.24,0.01 0.25,-0.19"
       style="fill:none;stroke:#7570b3;stroke-width:1.6;stroke-linecap:butt;stroke-linejoin:round;stroke-miterlimit:10;stroke-dasharray:none;stroke-opacity:1"
       id="path7535"
       clip-path="url(#clipPath8674)" />
    <g
       id="g7537" />
    <path
       d="m 45.42,134.55 h 0.25 l 0.24,-0.05 0.24,0.03 0.25,0.02 h 0.24 l 0.24,0.05 h 0.24 l 0.25,0.01 0.24,-0.03 0.24,-0.01 h 0.25 l 0.24,0.04 0.24,-0.01 0.24,-0.02 0.25,0.02 0.24,-0.07 0.24,-0.08 0.25,-0.06 0.24,-0.08 0.24,0.01 h 0.25 l 0.24,0.11 0.24,0.04 0.24,0.01 0.25,-0.01 0.24,0.08 0.24,0.06 h 0.25 l 0.24,0.04 0.24,-0.02 0.24,-0.02 h 0.25 l 0.24,0.03 0.24,-0.01 0.25,0.02 0.24,0.06 h 0.24 l 0.24,0.01 0.25,-0.04 0.24,-0.06 0.24,0.63 0.25,0.83 0.24,0.18 0.24,-0.03 0.25,0.01 0.24,-0.02 0.24,-0.02 0.24,-0.04 0.25,-0.01 0.24,-0.01 0.24,0.01 0.25,0.03 0.24,-0.01 0.24,0.03 0.24,0.03 0.25,0.03 0.24,0.02 0.24,0.02 0.25,0.02 0.24,-0.02 0.24,-0.01 0.24,0.02 0.25,-0.03 h 0.24 l 0.24,0.03 0.25,0.1 0.24,0.04 0.24,-0.05 0.25,0.35 0.24,0.29 0.24,-0.03 0.24,-0.02 h 0.25 l 0.24,-0.03 0.24,0.02 0.25,0.05 0.24,-0.01 0.24,-0.04 0.24,-0.01 0.25,0.02 0.24,-0.01 0.24,0.02 0.25,-0.17 0.24,0.12 0.24,0.25 0.24,0.01 0.25,0.02 0.24,0.06 0.24,-0.09 0.25,0.11 0.24,0.02 0.24,0.17 0.25,0.09 0.24,-0.09 0.24,0.02 0.24,0.01 0.25,-0.21 0.24,-0.45 0.24,-0.74 0.25,-0.03 0.24,0.25 0.24,0.26 0.24,0.1 0.25,0.14 0.24,0.09 0.24,0.04 0.25,-0.11 0.24,0.01 0.24,0.04 0.24,0.01 0.25,0.08 0.24,0.04 0.24,0.19 0.25,0.05 0.24,0.01 0.24,0.58 0.24,0.39 0.25,0.05 0.24,0.28 0.24,0.43 0.25,0.36 0.24,1.01 0.24,1.42 0.25,1.28 0.24,0.82 0.24,-0.13 0.24,-0.04 0.25,-0.3 0.24,-0.29 0.24,0.83 0.25,0.47 0.24,0.12 0.24,-0.49 0.24,0.24 0.25,0.45 0.24,-0.27 0.24,0.11 0.25,0.56 0.24,0.37 0.24,0.96 0.24,1.28 0.25,1.78 0.24,2.11 0.24,1.66 0.25,0.49 0.24,-0.36 0.24,0.99 0.25,1.97 0.24,1.03 0.24,-0.36 0.24,0.04 0.25,0.27 0.24,0.17 0.24,1.04 0.25,1.07 0.24,1.84 0.24,0.41 0.24,0.26 0.25,-0.76 0.24,-0.99 0.24,-0.91 0.25,-0.69 0.24,-0.25 0.24,-1.35 0.24,-2.19 0.25,-2.48 0.24,-1.11 0.24,-0.84 0.25,-0.71 0.24,-1.18 0.24,-1.21 0.25,-0.61 0.24,-0.76 0.24,-0.79 0.24,-0.67 0.25,-1.01 0.24,-0.67 0.24,-0.52 0.25,-0.51 0.24,-0.26 0.24,-0.05 0.24,-0.06 0.25,-0.39 0.24,-0.56 0.24,-0.46 0.25,-0.16 0.24,-0.38 0.24,-0.15 0.24,-0.29 0.25,-0.03 0.24,-0.1 0.24,-0.23 0.25,-0.19 0.24,0.49 0.24,0.23 0.25,0.17 0.24,-0.04 0.24,-0.22 0.24,-0.16 0.25,0.02 0.24,-0.01 0.24,-0.22 0.25,0.14 h 0.24 l 0.24,0.17 0.24,0.16 0.25,-0.36 0.24,-0.08 0.24,-0.07 0.25,0.08 0.24,-0.14 0.24,-0.14 0.24,-0.06 0.25,-0.05 0.24,-0.06 0.24,-0.21 0.25,-0.11 0.24,0.28 0.24,0.38 0.24,0.15 0.25,-0.14 0.24,-0.3 0.24,0.43 0.25,0.12 h 0.24 l 0.24,0.2 0.25,0.32 0.24,0.08 0.24,0.05 0.24,-0.13 0.25,0.13 0.24,0.23 0.24,0.01 0.25,0.14 0.24,-0.08 0.24,0.15 0.24,-0.17 0.25,-0.05 0.24,-0.01 0.24,-0.01 0.25,0.04 0.24,-0.02 0.24,0.07 0.24,0.18 0.25,-0.07 0.24,-0.23 0.24,-0.18 0.25,-0.03 0.24,0.08 0.24,0.04 0.25,-0.13 0.24,-0.18 0.24,-0.06 0.24,0.01 0.25,-0.12 0.24,-0.11 0.24,-0.2 0.25,-0.1 0.24,-0.15 0.24,-0.02 0.24,-0.06 0.25,0.1 0.24,-0.22 0.24,-0.13 0.25,-0.23 0.24,-0.35 0.24,-0.32 0.24,-0.06 0.25,0.1 0.24,-0.01 0.24,-0.07 0.25,-0.06 0.24,0.18 0.24,0.08 0.25,0.04 0.24,-0.11 0.24,-0.16 0.24,-0.15 0.25,-0.17 0.24,-0.16 0.24,-0.1 0.25,-0.06 0.24,-0.26 0.24,-0.25 0.24,0.09 0.25,-0.09 0.24,0.02 0.24,-0.18 0.25,-0.05 0.24,-0.02 h 0.24 l 0.24,-0.24 0.25,-0.1 0.24,0.13 0.24,-0.05 0.25,-0.21 0.24,-0.11 0.24,-0.03 0.25,0.01 0.24,-0.02 0.24,-0.09 0.24,-0.13 0.25,-0.16 0.24,-0.15 0.24,-0.17 0.25,-0.14 0.24,-0.08 h 0.24 l 0.24,0.03 0.25,-0.03 0.24,-0.16 0.24,-0.04 0.25,-0.07 0.24,-0.01 0.24,-0.01 0.24,-0.06 0.25,-0.01 0.24,-0.01 h 0.24 l 0.25,-0.01 0.24,0.02 0.24,0.16 0.25,0.09 h 0.24 l 0.24,0.05 0.24,0.01 0.25,0.01 h 0.24 l 0.24,-0.2 0.25,-0.2 0.24,-0.02 0.24,-0.01 0.24,0.01 0.25,0.09 0.24,0.02 0.24,-0.05 0.25,-0.13 0.24,-0.14 0.24,0.16 0.24,0.02 0.25,0.03 0.24,0.05 h 0.24 l 0.25,-0.01 0.24,0.14 0.24,0.06 0.24,0.12 0.25,0.06 0.24,-0.02 0.24,-0.01 0.25,0.01 0.24,0.03 0.24,-0.04 0.25,-0.01 0.24,0.01 h 0.24 0.24 l 0.25,-0.02 h 0.24 l 0.24,0.03 0.25,0.02 0.24,0.01 h 0.24 l 0.24,-0.01 0.25,-0.49"
       style="fill:none;stroke:#d95f02;stroke-width:1.6;stroke-linecap:butt;stroke-linejoin:round;stroke-miterlimit:10;stroke-dasharray:none;stroke-opacity:1"
       id="path7549"
       clip-path="url(#clipPath8709)" />
    <path
       d="m 45.42,132.18 0.25,-0.19 0.24,0.05 0.24,-0.17 0.25,-0.02 0.24,0.17 0.24,-0.01 0.24,0.08 0.25,0.15 0.24,-0.02 0.24,0.15 0.25,0.15 0.24,0.07 0.24,0.05 0.24,-0.21 0.25,-0.13 0.24,-0.04 0.24,-0.09 0.25,-0.01 h 0.24 l 0.24,0.17 0.25,0.08 0.24,0.08 0.24,0.1 0.24,-0.02 0.25,-0.02 0.24,-0.06 0.24,-0.05 0.25,-0.02 0.24,0.07 0.24,-0.04 0.24,0.31 0.25,0.13 0.24,-0.02 0.24,0.33 0.25,0.03 0.24,-0.07 0.24,0.13 0.24,0.35 0.25,-0.22 0.24,-0.07 0.24,0.15 0.25,0.81 h 0.24 l 0.24,-0.38 0.25,0.23 0.24,0.54 0.24,0.01 0.24,-0.13 0.25,0.09 0.24,0.27 0.24,0.81 0.25,0.55 0.24,0.03 0.24,0.64 0.24,0.1 0.25,-0.03 0.24,-0.3 0.24,-0.01 0.25,1.54 0.24,0.78 0.24,0.31 0.24,3.48 0.25,-2.93 0.24,-1.11 0.24,-0.67 0.25,-0.4 0.24,0.21 0.24,2.16 0.25,2.04 0.24,0.22 0.24,1.73 0.24,0.08 0.25,0.22 0.24,0.33 0.24,1.99 0.25,-0.28 0.24,0.08 0.24,0.72 0.24,1.84 0.25,0.45 0.24,0.91 0.24,-0.26 0.25,-0.85 0.24,0.56 0.24,-0.72 0.24,-0.52 0.25,0.35 0.24,1.75 0.24,0.68 0.25,3.6 0.24,4.25 0.24,2.38 0.25,3.36 0.24,2.72 0.24,2.95 0.24,-3.58 0.25,1.33 0.24,2.87 0.24,1.59 0.25,-0.8 0.24,5.14 0.24,4.35 0.24,0.09 0.25,2.15 0.24,0.55 0.24,0.2 0.25,0.65 0.24,0.6 0.24,-2.07 0.24,3.35 0.25,4.51 0.24,7.24 0.24,-3.36 0.25,-2.24 0.24,-2.86 0.24,-2.82 0.24,0.94 0.25,-0.1 0.24,1.47 0.24,0.35 0.25,0.97 0.24,0.71 0.24,2.85 0.25,2.56 0.24,-1.64 0.24,1.27 0.24,-0.22 0.25,0.51 0.24,0.58 0.24,3.18 0.25,1.86 0.24,0.81 0.24,2.92 0.24,1 0.25,0.95 0.24,0.41 0.24,0.32 0.25,-1.79 0.24,-0.38 0.24,2.42 0.24,-7.16 0.25,-0.85 0.24,1.47 0.24,2.21 0.25,1.6 0.24,1.52 0.24,-2.45 0.25,-0.25 0.24,2.74 0.24,1.35 0.24,-1.55 0.25,-2.36 0.24,-1.39 0.24,3.22 0.25,-0.99 0.24,-4.51 0.24,-2.73 0.24,2.25 0.25,-0.75 0.24,0.1 0.24,0.03 0.25,-1.64 0.24,-0.19 0.24,1.19 0.24,-0.99 0.25,0.11 0.24,-3.3 0.24,-0.75 0.25,1.64 0.24,-2.74 0.24,-1.31 0.25,-0.64 0.24,-1.06 0.24,-0.06 0.24,-3.82 0.25,-4.58 0.24,-3.38 0.24,-2.84 0.25,-2.59 0.24,1.54 0.24,-4.07 0.24,-3.87 0.25,-2.44 0.24,-1.11 0.24,-1.16 0.25,-1.92 0.24,-1.96 0.24,-0.91 0.24,-1.58 0.25,-1.73 0.24,-1.01 0.24,-0.86 0.25,0.29 0.24,-2.01 0.24,-1.79 0.25,-2.57 0.24,-2.25 0.24,-0.31 0.24,-0.19 0.25,0.49 0.24,-0.8 0.24,-0.15 0.25,-1.06 0.24,-1.09 0.24,-0.14 0.24,-0.19 0.25,-1.39 0.24,-1 0.24,0.53 0.25,0.84 0.24,-0.98 0.24,1.2 0.24,-1.6 0.25,-1.47 0.24,-0.44 0.24,1.09 0.25,1.75 0.24,1.46 0.24,-0.4 0.24,-0.62 0.25,-1.16 0.24,-1.11 0.24,-0.4 0.25,-0.59 0.24,-0.15 0.24,-0.65 h 0.25 l 0.24,0.32 0.24,0.73 0.24,-0.45 0.25,-0.25 0.24,-0.11 0.24,7.95 0.25,-3.26 0.24,-3.16 0.24,-0.84 0.24,-0.78 0.25,-0.14 0.24,-0.49 0.24,4.31 0.25,-0.8 0.24,0.05 0.24,0.4 0.24,-1.87 0.25,-0.29 0.24,-1.06 0.24,0.16 0.25,-0.84 0.24,-0.29 0.24,0.18 0.25,0.41 0.24,0.43 0.24,0.73 0.24,2.37 0.25,-0.38 0.24,0.06 0.24,0.27 0.25,-1.77 0.24,-1.71 0.24,0.66 0.24,2.74 0.25,0.16 0.24,-0.06 0.24,-1.4 0.25,-0.53 0.24,0.86 0.24,0.81 0.24,-2.13 0.25,5.2 0.24,-1.73 0.24,-2.23 0.25,0.68 0.24,-1.12 0.24,-0.08 0.25,2.65 0.24,0.59 0.24,-2.12 0.24,-0.26 0.25,1.53 0.24,0.46 0.24,-2.03 0.25,0.02 0.24,-0.44 0.24,-0.97 0.24,4.46 0.25,11.07 0.24,-10.12 0.24,-2.84 0.25,-0.39 0.24,-0.51 0.24,-0.85 0.24,-0.13 0.25,0.12 0.24,0.89 0.24,-0.6 0.25,0.04 0.24,1.9 0.24,-0.89 0.25,-1.54 0.24,-0.6 0.24,1.23 0.24,0.27 0.25,-1.21 0.24,-0.8 0.24,-0.81 0.25,0.14 0.24,-0.79 0.24,-0.39 0.24,-0.15 0.25,-0.27 0.24,-0.26 0.24,0.04 0.25,-0.06 0.24,0.3 0.24,0.05 0.24,-0.6 0.25,-0.23 0.24,-0.21 0.24,-0.12 0.25,0.1 0.24,0.16 0.24,-0.03 h 0.25 l 0.24,-0.2 0.24,-0.36 0.24,-0.28 h 0.25 l 0.24,0.28 0.24,0.07 0.25,-0.07 0.24,-0.22 0.24,-0.06 0.24,-0.01 0.25,0.03 0.24,0.13 0.24,-0.11 0.25,0.07 0.24,-0.23 0.24,0.01 0.24,-0.05 0.25,-0.2 0.24,-0.14 0.24,-0.17 0.25,-0.05 0.24,0.06 0.24,0.06 0.24,0.03 0.25,-0.01 0.24,-0.09 0.24,0.08 0.25,0.01 0.24,0.04 0.24,-0.13 0.25,0.12 0.24,0.01 0.24,0.03 0.24,0.11 0.25,0.08 0.24,0.06 0.24,0.15 0.25,0.01 0.24,-0.17 0.24,-0.17 h 0.24 l 0.25,-0.04"
       style="fill:none;stroke:#7570b3;stroke-width:1.6;stroke-linecap:butt;stroke-linejoin:round;stroke-miterlimit:10;stroke-dasharray:none;stroke-opacity:1"
       id="path7551"
       clip-path="url(#clipPath8703)" />
    <g
       id="g7553" />
    <path
       d="m 45.42,25.67 0.25,-0.11 0.24,-0.08 0.24,0.06 0.25,0.01 0.24,0.01 0.24,0.01 0.24,0.03 0.25,0.1 0.24,-0.02 0.24,0.13 0.25,0.32 0.24,0.52 0.24,-0.68 0.24,-0.14 0.25,-0.1 0.24,-0.05 h 0.24 l 0.25,0.06 0.24,0.07 0.24,0.03 0.25,-0.06 0.24,-0.04 0.24,0.04 0.24,0.03 0.25,0.06 0.24,0.06 0.24,0.57 0.25,0.62 0.24,-0.3 0.24,-0.14 0.24,-0.14 0.25,-0.21 0.24,-0.09 0.24,0.03 0.25,0.02 0.24,0.03 0.24,-0.05 0.24,-0.03 0.25,0.29 0.24,0.25 0.24,0.03 0.25,0.17 0.24,-0.26 h 0.24 l 0.25,0.07 0.24,0.28 0.24,0.05 0.24,-0.25 0.25,-0.15 0.24,0.03 0.24,0.15 0.25,-0.07 0.24,0.62 0.24,0.31 0.24,0.15 0.25,-0.48 0.24,0.06 0.24,-0.15 0.25,-0.14 0.24,0.22 0.24,0.6 0.24,1.46 0.25,-0.56 0.24,-0.89 0.24,0.28 0.25,0.23 0.24,-0.28 0.24,-0.15 0.25,0.21 0.24,-0.68 0.24,-0.28 0.24,0.13 0.25,0.07 0.24,0.42 0.24,-0.13 h 0.25 l 0.24,-0.08 0.24,-0.28 0.24,-0.32 0.25,0.83 0.24,-0.25 0.24,-0.07 0.25,-0.42 0.24,-0.35 0.24,-0.21 0.24,-0.13 0.25,-0.1 0.24,0.07 0.24,0.27 0.25,0.02 0.24,0.1 0.24,-0.01 0.25,0.05 0.24,-0.24 0.24,0.02 0.24,0.09 0.25,0.17 h 0.24 l 0.24,0.54 0.25,0.19 0.24,-0.27 0.24,0.05 0.24,0.17 0.25,0.2 0.24,0.08 0.24,0.31 0.25,0.05 0.24,0.26 0.24,0.36 0.24,-0.24 0.25,0.34 0.24,0.19 0.24,-0.09 0.25,0.11 0.24,-0.32 0.24,0.02 0.24,0.32 0.25,-0.1 0.24,0.55 0.24,0.09 0.25,-0.76 h 0.24 l 0.24,0.02 0.25,-0.21 0.24,0.16 0.24,0.48 0.24,0.62 0.25,0.05 0.24,0.93 0.24,0.25 0.25,-0.45 0.24,0.09 0.24,0.6 0.24,0.7 0.25,0.3 0.24,0.15 0.24,0.34 0.25,0.36 0.24,0.4 0.24,0.65 0.24,1.2 0.25,0.53 0.24,1.37 0.24,0.48 0.25,0.61 0.24,1.12 0.24,1.98 0.25,3.29 0.24,1.07 0.24,0.11 0.24,-1.84 0.25,-1.12 0.24,2.6 0.24,2.26 0.25,0.57 0.24,-2.27 0.24,0.23 0.24,-0.23 h 0.25 l 0.24,-0.77 0.24,1.41 0.25,-1.04 0.24,-2.04 0.24,-1.3 0.24,1.52 0.25,0.37 0.24,0.17 0.24,1.76 0.25,1.81 0.24,0.02 0.24,-0.86 0.25,-0.53 0.24,-0.66 0.24,-1.54 0.24,-0.99 0.25,0.14 0.24,0.67 0.24,-0.69 0.25,-1.7 0.24,-1.83 0.24,-1.1 0.24,0.31 0.25,-1.58 0.24,-0.6 0.24,-1.37 0.25,-0.96 0.24,0.05 0.24,-0.35 0.24,-1.17 0.25,-1.12 0.24,-0.24 0.24,-0.81 0.25,-0.64 0.24,0.98 0.24,0.98 0.25,-1.54 0.24,-1.81 0.24,-0.3 0.24,1.15 0.25,-0.89 0.24,-1.68 0.24,-0.65 0.25,0.51 0.24,-0.93 0.24,0.18 0.24,1.6 0.25,-0.57 0.24,-0.37 0.24,-0.79 0.25,2.06 0.24,-1.93 0.24,-0.05 0.24,1.31 0.25,1.24 0.24,-0.08 0.24,-1 0.25,1.23 0.24,-2.44 0.24,-0.34 0.24,-0.02 0.25,1.07 0.24,-0.3 0.24,-0.55 0.25,-1.37 0.24,-0.16 0.24,0.46 0.25,0.38 0.24,-0.01 0.24,-0.59 0.24,0.27 0.25,3.02 0.24,-2.46 0.24,-0.26 0.25,-0.39 0.24,0.03 0.24,1.77 0.24,-0.75 0.25,2.92 0.24,-0.45 0.24,-2.53 0.25,0.07 0.24,-0.94 0.24,-0.13 0.24,3.13 0.25,-1.68 0.24,-1.27 0.24,-0.12 0.25,0.35 0.24,-0.3 0.24,1.74 0.25,1.94 0.24,3.54 0.24,-2.29 0.24,1.64 0.25,0.91 0.24,-3.14 0.24,-0.22 0.25,-0.82 0.24,-1.1 0.24,-1.05 0.24,-0.75 0.25,-0.15 0.24,-0.06 0.24,1.79 0.25,1.57 0.24,3.55 0.24,-1.92 0.24,-2.37 0.25,-2.08 0.24,1.5 0.24,1.77 0.25,-1.48 0.24,0.08 0.24,-1.02 0.25,-0.12 0.24,0.42 0.24,2.09 0.24,0.51 0.25,6.16 0.24,5.1 0.24,-6.31 0.25,-3.4 0.24,-1.78 0.24,-1.59 0.24,-0.06 0.25,-0.29 0.24,-0.19 0.24,-0.49 0.25,2.37 0.24,1.56 0.24,-1.23 0.24,2.39 0.25,-2.15 0.24,-1.71 0.24,-0.57 0.25,0.86 0.24,-1.88 0.24,0.04 0.25,-0.03 0.24,-0.37 0.24,-0.16 0.24,0.8 0.25,-0.3 0.24,0.66 0.24,-0.31 0.25,-0.74 0.24,-0.3 0.24,-0.08 h 0.24 l 0.25,0.02 0.24,-0.04 0.24,-0.05 0.25,0.34 0.24,-0.15 0.24,-0.03 0.24,-0.1 0.25,0.02 0.24,-0.01 0.24,0.07 0.25,-0.14 0.24,-0.04 0.24,-0.02 0.25,0.08 h 0.24 l 0.24,0.13 0.24,0.02 0.25,-0.13 0.24,-0.12 h 0.24 0.25 l 0.24,-0.05 0.24,0.02 0.24,0.3 0.25,-0.09 0.24,-0.21 0.24,-0.1 0.25,0.03 0.24,-0.03 0.24,-0.09 0.24,-0.04 0.25,-0.02 0.24,-0.03 0.24,-0.04 0.25,-0.06 h 0.24 0.24 l 0.24,0.03 0.25,-0.05 0.24,-0.01 0.24,-0.21 0.25,0.01 h 0.24 l 0.24,0.03 0.25,0.02 0.24,0.22 0.24,0.03 0.24,0.11 0.25,-0.17 0.24,-0.09 0.24,-0.01 0.25,-0.05 0.24,-0.01 0.24,-0.02 0.24,0.04 0.25,-0.2"
       style="fill:none;stroke:#d95f02;stroke-width:1.6;stroke-linecap:butt;stroke-linejoin:round;stroke-miterlimit:10;stroke-dasharray:none;stroke-opacity:1"
       id="path7565"
       clip-path="url(#clipPath8738)" />
    <path
       d="m 45.42,26.91 h 0.25 0.24 0.24 0.25 l 0.24,0.04 h 0.24 0.24 0.25 0.24 0.24 0.25 0.24 l 0.24,-0.11 0.24,-0.05 0.25,-0.02 h 0.24 l 0.24,0.02 0.25,0.05 0.24,0.02 0.24,0.43 0.25,-0.02 0.24,-0.05 0.24,0.16 0.24,0.46 0.25,0.09 h 0.24 0.24 0.25 0.24 l 0.24,0.21 0.24,0.11 0.25,0.09 0.24,0.05 0.24,0.04 0.25,0.02 0.24,0.05 0.24,0.07 0.24,0.09 0.25,0.09 0.24,0.05 0.24,0.09 0.25,0.09 0.24,0.09 0.24,0.14 0.25,0.06 0.24,0.28 0.24,0.11 0.24,0.11 0.25,0.14 0.24,0.16 0.24,0.84 0.25,4.47 0.24,-0.44 0.24,-0.13 0.24,-0.28 0.25,1.28 0.24,3.48 0.24,2.53 0.25,-1.87 0.24,-4.37 0.24,0.8 0.24,1.37 0.25,0.4 0.24,-1.27 0.24,-0.16 0.25,0.14 0.24,-0.48 0.24,-1.39 0.25,-0.32 0.24,-0.02 0.24,-1.5 0.24,-0.14 0.25,-0.73 0.24,0.98 0.24,0.77 0.25,-1.11 0.24,-0.66 0.24,0.54 0.24,0.09 0.25,-0.61 0.24,-1.05 0.24,-0.36 0.25,-0.28 0.24,0.44 0.24,-0.19 0.24,-0.84 0.25,-0.13 0.24,-0.07 0.24,0.13 0.25,0.37 0.24,0.45 0.24,-0.27 0.25,-0.71 0.24,-0.77 0.24,-0.32 0.24,-0.04 0.25,0.04 0.24,0.41 0.24,0.34 0.25,0.34 0.24,0.46 0.24,0.34 0.24,0.64 0.25,-0.05 0.24,-0.11 0.24,0.64 0.25,1.52 0.24,1.57 0.24,1.12 0.24,0.11 0.25,0.39 0.24,1.98 0.24,2.71 0.25,0.48 0.24,2.07 0.24,-0.5 0.24,2.99 0.25,1.41 0.24,-0.12 0.24,1.3 0.25,-6.15 0.24,0.89 0.24,3.33 0.25,4.69 0.24,3.94 0.24,2.59 0.24,0.14 0.25,2.82 0.24,-2.09 0.24,-2.96 0.25,4.94 0.24,-1.85 0.24,-5.14 0.24,-3.53 0.25,1.93 0.24,1.73 0.24,2.53 0.25,8.5 0.24,1.59 0.24,1 0.24,0.69 0.25,-0.26 0.24,-1.93 0.24,-1.23 0.25,8.08 0.24,2.35 0.24,0.98 0.25,-3.65 0.24,-0.45 0.24,-3.03 0.24,-5.58 0.25,-3.25 0.24,0.27 0.24,10.06 0.25,6.59 0.24,-11.03 0.24,1.69 0.24,-5.58 0.25,7.92 0.24,-3.48 0.24,3.32 0.25,3.97 0.24,1.02 0.24,-2.46 0.24,-5.92 0.25,-4.76 0.24,-1.43 0.24,1.75 0.25,10.09 0.24,-4.51 0.24,-7.61 0.25,19.25 0.24,-22.46 0.24,-5.44 0.24,-2.21 0.25,-3.16 0.24,-2.28 0.24,-2.26 0.25,-2.25 0.24,-0.98 0.24,-2.48 0.24,-1.62 0.25,-1.32 0.24,15.19 0.24,2.94 0.25,0.48 0.24,-4.83 0.24,-13.28 0.24,-1.75 0.25,-0.37 0.24,1.12 0.24,-3.23 0.25,-0.28 0.24,-0.77 0.24,-0.6 0.25,-0.14 0.24,1.34 0.24,-0.83 0.24,-0.24 0.25,-0.27 0.24,-0.32 0.24,0.24 0.25,-0.57 0.24,-0.02 0.24,0.84 0.24,-0.22 0.25,0.61 0.24,-0.5 0.24,-0.6 0.25,-0.59 0.24,-0.28 0.24,-0.31 0.24,-0.29 0.25,-0.03 0.24,-0.09 0.24,13.88 0.25,15.3 0.24,-16.72 0.24,-8.25 0.24,2.94 0.25,25.57 0.24,-26.18 0.24,17.92 0.25,-18.56 0.24,8.63 0.24,-7.11 0.25,-1.13 0.24,-1.12 0.24,7 0.24,-9.12 0.25,-1.39 0.24,3.21 0.24,72.22 0.25,-41.78 0.24,-17.94 0.24,-2.89 0.24,-7.15 0.25,-1.93 0.24,3.66 0.24,-2.57 0.25,-1.49 0.24,-1.63 0.24,-1.1 0.24,-0.77 0.25,-0.31 0.24,0.01 0.24,-0.15 0.25,-0.39 0.24,-0.37 0.24,-0.19 0.25,-0.12 0.24,4.06 0.24,2 0.24,-3.42 0.25,-1.32 0.24,-0.98 0.24,-0.29 0.25,0.07 0.24,-0.15 0.24,-0.21 0.24,-0.07 0.25,-0.16 0.24,-0.04 0.24,-0.02 0.25,-0.09 0.24,0.03 0.24,-0.01 0.24,-0.08 0.25,-0.06 0.24,0.03 0.24,3.12 0.25,-1.26 0.24,-1.25 0.24,0.01 0.25,0.22 0.24,0.5 0.24,-0.15 0.24,0.4 0.25,3.53 0.24,-2.1 0.24,-1.04 0.25,-0.18 0.24,0.2 0.24,0.19 0.24,0.08 0.25,0.24 0.24,-0.25 0.24,0.22 0.25,-0.2 0.24,-0.22 0.24,-0.01 0.24,-0.02 0.25,0.09 0.24,0.11 0.24,0.07 0.25,0.02 0.24,0.07 0.24,0.05 0.25,-0.05 0.24,0.05 0.24,1.07 0.24,-0.02 0.25,0.04 0.24,-0.07 0.24,-0.36 0.25,-0.16 0.24,-0.14 0.24,-0.09 0.24,0.21 0.25,0.16 0.24,0.61 0.24,0.16 0.25,0.2 0.24,-0.06 0.24,-0.44 0.24,0.21 0.25,1.75 0.24,1.5 0.24,-1.52 0.25,-1 0.24,-0.34 0.24,-0.21 0.25,0.84 0.24,-0.16 0.24,-0.09 0.24,-0.57 0.25,-0.41 0.24,0.32 0.24,0.02 0.25,-0.02 0.24,-0.09 0.24,0.96 0.24,0.41 0.25,0.54 0.24,0.71 0.24,-0.21 0.25,-0.47 0.24,0.41 0.24,-1.23 0.24,-0.09 0.25,-0.14 0.24,-0.57 0.24,-0.68 0.25,-0.14 0.24,0.07 0.24,-0.16 0.24,0.25 0.25,-0.23 0.24,-0.23 0.24,-0.22 0.25,-0.46 0.24,0.11 0.24,0.12 h 0.25 0.24 0.24 0.24 0.25 0.24 l 0.24,-0.12 h 0.25 l 0.24,-0.11 0.24,-0.11 0.24,0.07 0.25,-0.1"
       style="fill:none;stroke:#7570b3;stroke-width:1.6;stroke-linecap:butt;stroke-linejoin:round;stroke-miterlimit:10;stroke-dasharray:none;stroke-opacity:1"
       id="path7567"
       clip-path="url(#clipPath8732)" />
    <g
       id="g7569" />
    <g
       id="g7571">
      <g
         id="g7573"
         clip-path="url(#clipPath7577)" />
    </g>
    <g
       id="g7579" />
    <g
       id="g7581">
      <g
         id="g7583"
         clip-path="url(#clipPath7587)" />
    </g>
    <g
       id="g7589" />
    <g
       id="g7591">
      <g
         id="g7593"
         clip-path="url(#clipPath7597)" />
    </g>
    <g
       id="g7599" />
    <g
       id="g7601">
      <g
         id="g7603"
         clip-path="url(#clipPath7607)" />
    </g>
    <g
       id="g7609" />
    <g
       id="g7611">
      <g
         id="g7613"
         clip-path="url(#clipPath7617)" />
    </g>
    <g
       id="g7619" />
    <g
       id="g7621">
      <g
         id="g7623"
         clip-path="url(#clipPath7627)" />
    </g>
    <g
       id="g7629" />
    <g
       id="g7631" />
    <g
       id="g7633" />
    <g
       id="g7635" />
    <g
       id="g7637" />
    <g
       id="g7639" />
    <g
       id="g7641" />
    <g
       id="g7643" />
    <g
       id="g7645" />
    <g
       id="g7647" />
    <g
       id="g7649" />
    <g
       id="g7651" />
    <g
       id="g7653" />
    <g
       id="g7655" />
    <g
       id="g7657">
      <path
         d="m 40.99,20.73 h 97.53"
         style="fill:none;stroke:#000000;stroke-width:1.07;stroke-linecap:butt;stroke-linejoin:round;stroke-miterlimit:10;stroke-dasharray:none;stroke-opacity:1"
         id="path7659" />
    </g>
    <g
       id="g7661" />
    <g
       id="g7663" />
    <g
       id="g7665">
      <path
         d="m 45.18,17.99 v 2.74"
         style="fill:none;stroke:#333333;stroke-width:1.07;stroke-linecap:butt;stroke-linejoin:round;stroke-miterlimit:10;stroke-dasharray:none;stroke-opacity:1"
         id="path7667" />
      <path
         d="m 69.47,17.99 v 2.74"
         style="fill:none;stroke:#333333;stroke-width:1.07;stroke-linecap:butt;stroke-linejoin:round;stroke-miterlimit:10;stroke-dasharray:none;stroke-opacity:1"
         id="path7669" />
      <path
         d="m 93.76,17.99 v 2.74"
         style="fill:none;stroke:#333333;stroke-width:1.07;stroke-linecap:butt;stroke-linejoin:round;stroke-miterlimit:10;stroke-dasharray:none;stroke-opacity:1"
         id="path7671" />
      <path
         d="m 118.06,17.99 v 2.74"
         style="fill:none;stroke:#333333;stroke-width:1.07;stroke-linecap:butt;stroke-linejoin:round;stroke-miterlimit:10;stroke-dasharray:none;stroke-opacity:1"
         id="path7673" />
    </g>
    <g
       id="g7675" />
    <g
       id="g7677">
      <text
         xml:space="preserve"
         transform="matrix(1,0,0,-1,42.12,7.9)"
         style="font-variant:normal;font-weight:normal;font-size:11px;font-family:Helvetica;-inkscape-font-specification:Helvetica;writing-mode:lr-tb;fill:#4d4d4d;fill-opacity:1;fill-rule:nonzero;stroke:none"
         id="text7681"><tspan
           x="0"
           y="0"
           id="tspan7679">0</tspan></text>
      <text
         xml:space="preserve"
         transform="matrix(1,0,0,-1,60.3,7.9)"
         style="font-variant:normal;font-weight:normal;font-size:11px;font-family:Helvetica;-inkscape-font-specification:Helvetica;writing-mode:lr-tb;fill:#4d4d4d;fill-opacity:1;fill-rule:nonzero;stroke:none"
         id="text7685"><tspan
           x="0 6.1160002 12.232"
           y="0"
           sodipodi:role="line"
           id="tspan7683">100</tspan></text>
      <text
         xml:space="preserve"
         transform="matrix(1,0,0,-1,84.59,7.9)"
         style="font-variant:normal;font-weight:normal;font-size:11px;font-family:Helvetica;-inkscape-font-specification:Helvetica;writing-mode:lr-tb;fill:#4d4d4d;fill-opacity:1;fill-rule:nonzero;stroke:none"
         id="text7689"><tspan
           x="0 6.1160002 12.232"
           y="0"
           sodipodi:role="line"
           id="tspan7687">200</tspan></text>
      <text
         xml:space="preserve"
         transform="matrix(1,0,0,-1,108.88,7.9)"
         style="font-variant:normal;font-weight:normal;font-size:11px;font-family:Helvetica;-inkscape-font-specification:Helvetica;writing-mode:lr-tb;fill:#4d4d4d;fill-opacity:1;fill-rule:nonzero;stroke:none"
         id="text7693"><tspan
           x="0 6.1160002 12.232"
           y="0"
           sodipodi:role="line"
           id="tspan7691">300</tspan></text>
    </g>
    <g
       id="g7695" />
    <g
       id="g7697" />
    <g
       id="g7699" />
    <g
       id="g7701" />
    <g
       id="g7703" />
    <g
       id="g7705" />
    <g
       id="g7707" />
    <g
       id="g7709" />
    <g
       id="g7711" />
    <g
       id="g7713" />
    <g
       id="g7715" />
    <g
       id="g7717" />
    <g
       id="g7719" />
    <g
       id="g7721" />
    <g
       id="g7723" />
    <g
       id="g7725" />
    <g
       id="g7727">
      <path
         d="m 40.99,556.89 v 85.63"
         style="fill:none;stroke:#000000;stroke-width:1.07;stroke-linecap:butt;stroke-linejoin:round;stroke-miterlimit:10;stroke-dasharray:none;stroke-opacity:1"
         id="path7729" />
    </g>
    <g
       id="g7731" />
    <g
       id="g7733" />
    <g
       id="g7735">
      <text
         xml:space="preserve"
         transform="matrix(1,0,0,-1,29.94,555.98)"
         style="font-variant:normal;font-weight:normal;font-size:11px;font-family:Helvetica;-inkscape-font-specification:Helvetica;writing-mode:lr-tb;fill:#4d4d4d;fill-opacity:1;fill-rule:nonzero;stroke:none"
         id="text7739"><tspan
           x="0"
           y="0"
           id="tspan7737">0</tspan></text>
      <text
         xml:space="preserve"
         transform="matrix(1,0,0,-1,11.6,577.9)"
         style="font-variant:normal;font-weight:normal;font-size:11px;font-family:Helvetica;-inkscape-font-specification:Helvetica;writing-mode:lr-tb;fill:#4d4d4d;fill-opacity:1;fill-rule:nonzero;stroke:none"
         id="text7743"><tspan
           x="0 6.1160002 12.232 18.348"
           y="0"
           sodipodi:role="line"
           id="tspan7741">3000</tspan></text>
      <text
         xml:space="preserve"
         transform="matrix(1,0,0,-1,11.6,599.82)"
         style="font-variant:normal;font-weight:normal;font-size:11px;font-family:Helvetica;-inkscape-font-specification:Helvetica;writing-mode:lr-tb;fill:#4d4d4d;fill-opacity:1;fill-rule:nonzero;stroke:none"
         id="text7747"><tspan
           x="0 6.1160002 12.232 18.348"
           y="0"
           sodipodi:role="line"
           id="tspan7745">6000</tspan></text>
      <text
         xml:space="preserve"
         transform="matrix(1,0,0,-1,11.6,621.74)"
         style="font-variant:normal;font-weight:normal;font-size:11px;font-family:Helvetica;-inkscape-font-specification:Helvetica;writing-mode:lr-tb;fill:#4d4d4d;fill-opacity:1;fill-rule:nonzero;stroke:none"
         id="text7751"><tspan
           x="0 6.1160002 12.232 18.348"
           y="0"
           sodipodi:role="line"
           id="tspan7749">9000</tspan></text>
    </g>
    <g
       id="g7753" />
    <g
       id="g7755" />
    <g
       id="g7757">
      <path
         d="m 38.25,559.93 h 2.74"
         style="fill:none;stroke:#333333;stroke-width:1.07;stroke-linecap:butt;stroke-linejoin:round;stroke-miterlimit:10;stroke-dasharray:none;stroke-opacity:1"
         id="path7759" />
      <path
         d="m 38.25,581.85 h 2.74"
         style="fill:none;stroke:#333333;stroke-width:1.07;stroke-linecap:butt;stroke-linejoin:round;stroke-miterlimit:10;stroke-dasharray:none;stroke-opacity:1"
         id="path7761" />
      <path
         d="m 38.25,603.77 h 2.74"
         style="fill:none;stroke:#333333;stroke-width:1.07;stroke-linecap:butt;stroke-linejoin:round;stroke-miterlimit:10;stroke-dasharray:none;stroke-opacity:1"
         id="path7763" />
      <path
         d="m 38.25,625.69 h 2.74"
         style="fill:none;stroke:#333333;stroke-width:1.07;stroke-linecap:butt;stroke-linejoin:round;stroke-miterlimit:10;stroke-dasharray:none;stroke-opacity:1"
         id="path7765" />
    </g>
    <g
       id="g7767" />
    <g
       id="g7769" />
    <g
       id="g7771" />
    <g
       id="g7773" />
    <g
       id="g7775" />
    <g
       id="g7777">
      <path
         d="m 40.99,449.66 v 85.63"
         style="fill:none;stroke:#000000;stroke-width:1.07;stroke-linecap:butt;stroke-linejoin:round;stroke-miterlimit:10;stroke-dasharray:none;stroke-opacity:1"
         id="path7779" />
    </g>
    <g
       id="g7781" />
    <g
       id="g7783" />
    <g
       id="g7785">
      <text
         xml:space="preserve"
         transform="matrix(1,0,0,-1,29.94,446.73)"
         style="font-variant:normal;font-weight:normal;font-size:11px;font-family:Helvetica;-inkscape-font-specification:Helvetica;writing-mode:lr-tb;fill:#4d4d4d;fill-opacity:1;fill-rule:nonzero;stroke:none"
         id="text7789"><tspan
           x="0"
           y="0"
           id="tspan7787">0</tspan></text>
      <text
         xml:space="preserve"
         transform="matrix(1,0,0,-1,11.6,471.36)"
         style="font-variant:normal;font-weight:normal;font-size:11px;font-family:Helvetica;-inkscape-font-specification:Helvetica;writing-mode:lr-tb;fill:#4d4d4d;fill-opacity:1;fill-rule:nonzero;stroke:none"
         id="text7793"><tspan
           x="0 6.1160002 12.232 18.348"
           y="0"
           sodipodi:role="line"
           id="tspan7791">1000</tspan></text>
      <text
         xml:space="preserve"
         transform="matrix(1,0,0,-1,11.6,495.99)"
         style="font-variant:normal;font-weight:normal;font-size:11px;font-family:Helvetica;-inkscape-font-specification:Helvetica;writing-mode:lr-tb;fill:#4d4d4d;fill-opacity:1;fill-rule:nonzero;stroke:none"
         id="text7797"><tspan
           x="0 6.1160002 12.232 18.348"
           y="0"
           sodipodi:role="line"
           id="tspan7795">2000</tspan></text>
      <text
         xml:space="preserve"
         transform="matrix(1,0,0,-1,11.6,520.62)"
         style="font-variant:normal;font-weight:normal;font-size:11px;font-family:Helvetica;-inkscape-font-specification:Helvetica;writing-mode:lr-tb;fill:#4d4d4d;fill-opacity:1;fill-rule:nonzero;stroke:none"
         id="text7801"><tspan
           x="0 6.1160002 12.232 18.348"
           y="0"
           sodipodi:role="line"
           id="tspan7799">3000</tspan></text>
    </g>
    <g
       id="g7803" />
    <g
       id="g7805" />
    <g
       id="g7807">
      <path
         d="m 38.25,450.68 h 2.74"
         style="fill:none;stroke:#333333;stroke-width:1.07;stroke-linecap:butt;stroke-linejoin:round;stroke-miterlimit:10;stroke-dasharray:none;stroke-opacity:1"
         id="path7809" />
      <path
         d="m 38.25,475.31 h 2.74"
         style="fill:none;stroke:#333333;stroke-width:1.07;stroke-linecap:butt;stroke-linejoin:round;stroke-miterlimit:10;stroke-dasharray:none;stroke-opacity:1"
         id="path7811" />
      <path
         d="m 38.25,499.94 h 2.74"
         style="fill:none;stroke:#333333;stroke-width:1.07;stroke-linecap:butt;stroke-linejoin:round;stroke-miterlimit:10;stroke-dasharray:none;stroke-opacity:1"
         id="path7813" />
      <path
         d="m 38.25,524.57 h 2.74"
         style="fill:none;stroke:#333333;stroke-width:1.07;stroke-linecap:butt;stroke-linejoin:round;stroke-miterlimit:10;stroke-dasharray:none;stroke-opacity:1"
         id="path7815" />
    </g>
    <g
       id="g7817" />
    <g
       id="g7819" />
    <g
       id="g7821" />
    <g
       id="g7823" />
    <g
       id="g7825" />
    <g
       id="g7827">
      <path
         d="m 40.99,342.42 v 85.64"
         style="fill:none;stroke:#000000;stroke-width:1.07;stroke-linecap:butt;stroke-linejoin:round;stroke-miterlimit:10;stroke-dasharray:none;stroke-opacity:1"
         id="path7829" />
    </g>
    <g
       id="g7831" />
    <g
       id="g7833" />
    <g
       id="g7835">
      <text
         xml:space="preserve"
         transform="matrix(1,0,0,-1,29.94,341.13)"
         style="font-variant:normal;font-weight:normal;font-size:11px;font-family:Helvetica;-inkscape-font-specification:Helvetica;writing-mode:lr-tb;fill:#4d4d4d;fill-opacity:1;fill-rule:nonzero;stroke:none"
         id="text7839"><tspan
           x="0"
           y="0"
           id="tspan7837">0</tspan></text>
      <text
         xml:space="preserve"
         transform="matrix(1,0,0,-1,17.71,365.22)"
         style="font-variant:normal;font-weight:normal;font-size:11px;font-family:Helvetica;-inkscape-font-specification:Helvetica;writing-mode:lr-tb;fill:#4d4d4d;fill-opacity:1;fill-rule:nonzero;stroke:none"
         id="text7843"><tspan
           x="0 6.1160002 12.232"
           y="0"
           sodipodi:role="line"
           id="tspan7841">100</tspan></text>
      <text
         xml:space="preserve"
         transform="matrix(1,0,0,-1,17.71,389.3)"
         style="font-variant:normal;font-weight:normal;font-size:11px;font-family:Helvetica;-inkscape-font-specification:Helvetica;writing-mode:lr-tb;fill:#4d4d4d;fill-opacity:1;fill-rule:nonzero;stroke:none"
         id="text7847"><tspan
           x="0 6.1160002 12.232"
           y="0"
           sodipodi:role="line"
           id="tspan7845">200</tspan></text>
      <text
         xml:space="preserve"
         transform="matrix(1,0,0,-1,17.71,413.38)"
         style="font-variant:normal;font-weight:normal;font-size:11px;font-family:Helvetica;-inkscape-font-specification:Helvetica;writing-mode:lr-tb;fill:#4d4d4d;fill-opacity:1;fill-rule:nonzero;stroke:none"
         id="text7851"><tspan
           x="0 6.1160002 12.232"
           y="0"
           sodipodi:role="line"
           id="tspan7849">300</tspan></text>
    </g>
    <g
       id="g7853" />
    <g
       id="g7855" />
    <g
       id="g7857">
      <path
         d="m 38.25,345.08 h 2.74"
         style="fill:none;stroke:#333333;stroke-width:1.07;stroke-linecap:butt;stroke-linejoin:round;stroke-miterlimit:10;stroke-dasharray:none;stroke-opacity:1"
         id="path7859" />
      <path
         d="m 38.25,369.17 h 2.74"
         style="fill:none;stroke:#333333;stroke-width:1.07;stroke-linecap:butt;stroke-linejoin:round;stroke-miterlimit:10;stroke-dasharray:none;stroke-opacity:1"
         id="path7861" />
      <path
         d="m 38.25,393.25 h 2.74"
         style="fill:none;stroke:#333333;stroke-width:1.07;stroke-linecap:butt;stroke-linejoin:round;stroke-miterlimit:10;stroke-dasharray:none;stroke-opacity:1"
         id="path7863" />
      <path
         d="m 38.25,417.33 h 2.74"
         style="fill:none;stroke:#333333;stroke-width:1.07;stroke-linecap:butt;stroke-linejoin:round;stroke-miterlimit:10;stroke-dasharray:none;stroke-opacity:1"
         id="path7865" />
    </g>
    <g
       id="g7867" />
    <g
       id="g7869" />
    <g
       id="g7871" />
    <g
       id="g7873" />
    <g
       id="g7875" />
    <g
       id="g7877">
      <path
         d="m 40.99,235.19 v 85.63"
         style="fill:none;stroke:#000000;stroke-width:1.07;stroke-linecap:butt;stroke-linejoin:round;stroke-miterlimit:10;stroke-dasharray:none;stroke-opacity:1"
         id="path7879" />
    </g>
    <g
       id="g7881" />
    <g
       id="g7883" />
    <g
       id="g7885">
      <text
         xml:space="preserve"
         transform="matrix(1,0,0,-1,29.94,234.49)"
         style="font-variant:normal;font-weight:normal;font-size:11px;font-family:Helvetica;-inkscape-font-specification:Helvetica;writing-mode:lr-tb;fill:#4d4d4d;fill-opacity:1;fill-rule:nonzero;stroke:none"
         id="text7889"><tspan
           x="0"
           y="0"
           id="tspan7887">0</tspan></text>
      <text
         xml:space="preserve"
         transform="matrix(1,0,0,-1,17.71,249.98)"
         style="font-variant:normal;font-weight:normal;font-size:11px;font-family:Helvetica;-inkscape-font-specification:Helvetica;writing-mode:lr-tb;fill:#4d4d4d;fill-opacity:1;fill-rule:nonzero;stroke:none"
         id="text7893"><tspan
           x="0 6.1160002 12.232"
           y="0"
           sodipodi:role="line"
           id="tspan7891">100</tspan></text>
      <text
         xml:space="preserve"
         transform="matrix(1,0,0,-1,17.71,265.48)"
         style="font-variant:normal;font-weight:normal;font-size:11px;font-family:Helvetica;-inkscape-font-specification:Helvetica;writing-mode:lr-tb;fill:#4d4d4d;fill-opacity:1;fill-rule:nonzero;stroke:none"
         id="text7897"><tspan
           x="0 6.1160002 12.232"
           y="0"
           sodipodi:role="line"
           id="tspan7895">200</tspan></text>
      <text
         xml:space="preserve"
         transform="matrix(1,0,0,-1,17.71,280.97)"
         style="font-variant:normal;font-weight:normal;font-size:11px;font-family:Helvetica;-inkscape-font-specification:Helvetica;writing-mode:lr-tb;fill:#4d4d4d;fill-opacity:1;fill-rule:nonzero;stroke:none"
         id="text7901"><tspan
           x="0 6.1160002 12.232"
           y="0"
           sodipodi:role="line"
           id="tspan7899">300</tspan></text>
      <text
         xml:space="preserve"
         transform="matrix(1,0,0,-1,17.71,296.47)"
         style="font-variant:normal;font-weight:normal;font-size:11px;font-family:Helvetica;-inkscape-font-specification:Helvetica;writing-mode:lr-tb;fill:#4d4d4d;fill-opacity:1;fill-rule:nonzero;stroke:none"
         id="text7905"><tspan
           x="0 6.1160002 12.232"
           y="0"
           sodipodi:role="line"
           id="tspan7903">400</tspan></text>
      <text
         xml:space="preserve"
         transform="matrix(1,0,0,-1,17.71,311.96)"
         style="font-variant:normal;font-weight:normal;font-size:11px;font-family:Helvetica;-inkscape-font-specification:Helvetica;writing-mode:lr-tb;fill:#4d4d4d;fill-opacity:1;fill-rule:nonzero;stroke:none"
         id="text7909"><tspan
           x="0 6.1160002 12.232"
           y="0"
           sodipodi:role="line"
           id="tspan7907">500</tspan></text>
    </g>
    <g
       id="g7911" />
    <g
       id="g7913" />
    <g
       id="g7915">
      <path
         d="m 38.25,238.44 h 2.74"
         style="fill:none;stroke:#333333;stroke-width:1.07;stroke-linecap:butt;stroke-linejoin:round;stroke-miterlimit:10;stroke-dasharray:none;stroke-opacity:1"
         id="path7917" />
      <path
         d="m 38.25,253.93 h 2.74"
         style="fill:none;stroke:#333333;stroke-width:1.07;stroke-linecap:butt;stroke-linejoin:round;stroke-miterlimit:10;stroke-dasharray:none;stroke-opacity:1"
         id="path7919" />
      <path
         d="m 38.25,269.43 h 2.74"
         style="fill:none;stroke:#333333;stroke-width:1.07;stroke-linecap:butt;stroke-linejoin:round;stroke-miterlimit:10;stroke-dasharray:none;stroke-opacity:1"
         id="path7921" />
      <path
         d="m 38.25,284.92 h 2.74"
         style="fill:none;stroke:#333333;stroke-width:1.07;stroke-linecap:butt;stroke-linejoin:round;stroke-miterlimit:10;stroke-dasharray:none;stroke-opacity:1"
         id="path7923" />
      <path
         d="m 38.25,300.42 h 2.74"
         style="fill:none;stroke:#333333;stroke-width:1.07;stroke-linecap:butt;stroke-linejoin:round;stroke-miterlimit:10;stroke-dasharray:none;stroke-opacity:1"
         id="path7925" />
      <path
         d="m 38.25,315.91 h 2.74"
         style="fill:none;stroke:#333333;stroke-width:1.07;stroke-linecap:butt;stroke-linejoin:round;stroke-miterlimit:10;stroke-dasharray:none;stroke-opacity:1"
         id="path7927" />
    </g>
    <g
       id="g7929" />
    <g
       id="g7931" />
    <g
       id="g7933" />
    <g
       id="g7935" />
    <g
       id="g7937" />
    <g
       id="g7939">
      <path
         d="m 40.99,127.96 v 85.63"
         style="fill:none;stroke:#000000;stroke-width:1.07;stroke-linecap:butt;stroke-linejoin:round;stroke-miterlimit:10;stroke-dasharray:none;stroke-opacity:1"
         id="path7941" />
    </g>
    <g
       id="g7943" />
    <g
       id="g7945" />
    <g
       id="g7947">
      <text
         xml:space="preserve"
         transform="matrix(1,0,0,-1,11.6,144.15)"
         style="font-variant:normal;font-weight:normal;font-size:11px;font-family:Helvetica;-inkscape-font-specification:Helvetica;writing-mode:lr-tb;fill:#4d4d4d;fill-opacity:1;fill-rule:nonzero;stroke:none"
         id="text7951"><tspan
           x="0 6.1160002 12.232 18.348"
           y="0"
           sodipodi:role="line"
           id="tspan7949">2500</tspan></text>
      <text
         xml:space="preserve"
         transform="matrix(1,0,0,-1,11.6,164.43)"
         style="font-variant:normal;font-weight:normal;font-size:11px;font-family:Helvetica;-inkscape-font-specification:Helvetica;writing-mode:lr-tb;fill:#4d4d4d;fill-opacity:1;fill-rule:nonzero;stroke:none"
         id="text7955"><tspan
           x="0 6.1160002 12.232 18.348"
           y="0"
           sodipodi:role="line"
           id="tspan7953">5000</tspan></text>
      <text
         xml:space="preserve"
         transform="matrix(1,0,0,-1,11.6,184.71)"
         style="font-variant:normal;font-weight:normal;font-size:11px;font-family:Helvetica;-inkscape-font-specification:Helvetica;writing-mode:lr-tb;fill:#4d4d4d;fill-opacity:1;fill-rule:nonzero;stroke:none"
         id="text7959"><tspan
           x="0 6.1160002 12.232 18.348"
           y="0"
           sodipodi:role="line"
           id="tspan7957">7500</tspan></text>
      <text
         xml:space="preserve"
         transform="matrix(1,0,0,-1,5.48,204.99)"
         style="font-variant:normal;font-weight:normal;font-size:11px;font-family:Helvetica;-inkscape-font-specification:Helvetica;writing-mode:lr-tb;fill:#4d4d4d;fill-opacity:1;fill-rule:nonzero;stroke:none"
         id="text7963"><tspan
           x="0 6.1160002 12.232 18.348 24.464001"
           y="0"
           sodipodi:role="line"
           id="tspan7961">10000</tspan></text>
    </g>
    <g
       id="g7965" />
    <g
       id="g7967" />
    <g
       id="g7969">
      <path
         d="m 38.25,148.1 h 2.74"
         style="fill:none;stroke:#333333;stroke-width:1.07;stroke-linecap:butt;stroke-linejoin:round;stroke-miterlimit:10;stroke-dasharray:none;stroke-opacity:1"
         id="path7971" />
      <path
         d="m 38.25,168.38 h 2.74"
         style="fill:none;stroke:#333333;stroke-width:1.07;stroke-linecap:butt;stroke-linejoin:round;stroke-miterlimit:10;stroke-dasharray:none;stroke-opacity:1"
         id="path7973" />
      <path
         d="m 38.25,188.66 h 2.74"
         style="fill:none;stroke:#333333;stroke-width:1.07;stroke-linecap:butt;stroke-linejoin:round;stroke-miterlimit:10;stroke-dasharray:none;stroke-opacity:1"
         id="path7975" />
      <path
         d="m 38.25,208.94 h 2.74"
         style="fill:none;stroke:#333333;stroke-width:1.07;stroke-linecap:butt;stroke-linejoin:round;stroke-miterlimit:10;stroke-dasharray:none;stroke-opacity:1"
         id="path7977" />
    </g>
    <g
       id="g7979" />
    <g
       id="g7981" />
    <g
       id="g7983" />
    <g
       id="g7985" />
    <g
       id="g7987" />
    <g
       id="g7989">
      <path
         d="m 40.99,20.73 v 85.63"
         style="fill:none;stroke:#000000;stroke-width:1.07;stroke-linecap:butt;stroke-linejoin:round;stroke-miterlimit:10;stroke-dasharray:none;stroke-opacity:1"
         id="path7991" />
    </g>
    <g
       id="g7993" />
    <g
       id="g7995" />
    <g
       id="g7997">
      <text
         xml:space="preserve"
         transform="matrix(1,0,0,-1,29.94,19.86)"
         style="font-variant:normal;font-weight:normal;font-size:11px;font-family:Helvetica;-inkscape-font-specification:Helvetica;writing-mode:lr-tb;fill:#4d4d4d;fill-opacity:1;fill-rule:nonzero;stroke:none"
         id="text8001"><tspan
           x="0"
           y="0"
           id="tspan7999">0</tspan></text>
      <text
         xml:space="preserve"
         transform="matrix(1,0,0,-1,17.71,42.83)"
         style="font-variant:normal;font-weight:normal;font-size:11px;font-family:Helvetica;-inkscape-font-specification:Helvetica;writing-mode:lr-tb;fill:#4d4d4d;fill-opacity:1;fill-rule:nonzero;stroke:none"
         id="text8005"><tspan
           x="0 6.1160002 12.232"
           y="0"
           sodipodi:role="line"
           id="tspan8003">500</tspan></text>
      <text
         xml:space="preserve"
         transform="matrix(1,0,0,-1,11.6,65.79)"
         style="font-variant:normal;font-weight:normal;font-size:11px;font-family:Helvetica;-inkscape-font-specification:Helvetica;writing-mode:lr-tb;fill:#4d4d4d;fill-opacity:1;fill-rule:nonzero;stroke:none"
         id="text8009"><tspan
           x="0 6.1160002 12.232 18.348"
           y="0"
           sodipodi:role="line"
           id="tspan8007">1000</tspan></text>
      <text
         xml:space="preserve"
         transform="matrix(1,0,0,-1,11.6,88.76)"
         style="font-variant:normal;font-weight:normal;font-size:11px;font-family:Helvetica;-inkscape-font-specification:Helvetica;writing-mode:lr-tb;fill:#4d4d4d;fill-opacity:1;fill-rule:nonzero;stroke:none"
         id="text8013"><tspan
           x="0 6.1160002 12.232 18.348"
           y="0"
           sodipodi:role="line"
           id="tspan8011">1500</tspan></text>
    </g>
    <g
       id="g8015" />
    <g
       id="g8017" />
    <g
       id="g8019">
      <path
         d="m 38.25,23.81 h 2.74"
         style="fill:none;stroke:#333333;stroke-width:1.07;stroke-linecap:butt;stroke-linejoin:round;stroke-miterlimit:10;stroke-dasharray:none;stroke-opacity:1"
         id="path8021" />
      <path
         d="m 38.25,46.78 h 2.74"
         style="fill:none;stroke:#333333;stroke-width:1.07;stroke-linecap:butt;stroke-linejoin:round;stroke-miterlimit:10;stroke-dasharray:none;stroke-opacity:1"
         id="path8023" />
      <path
         d="m 38.25,69.74 h 2.74"
         style="fill:none;stroke:#333333;stroke-width:1.07;stroke-linecap:butt;stroke-linejoin:round;stroke-miterlimit:10;stroke-dasharray:none;stroke-opacity:1"
         id="path8025" />
      <path
         d="m 38.25,92.71 h 2.74"
         style="fill:none;stroke:#333333;stroke-width:1.07;stroke-linecap:butt;stroke-linejoin:round;stroke-miterlimit:10;stroke-dasharray:none;stroke-opacity:1"
         id="path8027" />
    </g>
    <g
       id="g8029" />
    <g
       id="g8031" />
    <g
       id="g8033" />
    <g
       id="g8035" />
    <g
       id="g8037" />
    <g
       id="g8039" />
    <g
       id="g8041" />
    <g
       id="g8043" />
    <g
       id="g8045" />
    <g
       id="g8047" />
    <g
       id="g8049" />
    <g
       id="g8051" />
    <g
       id="g8053" />
    <g
       id="g8055" />
    <g
       id="g8057" />
    <g
       id="g8059" />
    <g
       id="g8061" />
    <g
       id="g8063" />
    <g
       id="g8065" />
    <g
       id="g8067" />
    <g
       id="g8069" />
    <g
       id="g8071" />
    <g
       id="g8073" />
    <g
       id="g8075" />
    <g
       id="g8077" />
    <g
       id="g8079" />
    <g
       id="g8081" />
    <g
       id="g8083" />
    <g
       id="g8085" />
    <g
       id="g8087" />
    <g
       id="g8089" />
    <g
       id="g8091" />
    <g
       id="g8093" />
  </g>
</svg>
